<svg width="108" height="105" viewBox="0 0 108 105" fill="none" xmlns="http://www.w3.org/2000/svg">
<g clip-path="url(#clip0_1_18)">
<g filter="url(#filter0_i_1_18)">
<path d="M100.847 52.3193C101.032 81.3886 78.5794 104.821 50.517 104.283C22.7326 103.746 0.194336 81.0133 0.194336 52.3193C0.194336 23.6254 22.7255 0.355225 50.5241 0.355225C78.3228 0.355225 100.669 23.618 100.854 52.3193H100.847Z" fill="#F5F5F5"/>
</g>
<path d="M14.0866 47.9406C11.8627 47.0943 10.3088 44.6657 10.43 42.2224C10.5511 39.7791 12.326 37.5198 14.6211 36.909C12.5826 35.4518 11.549 32.6479 12.1406 30.1605C12.7323 27.6804 14.9063 25.6787 17.3654 25.3696C15.5763 24.2068 14.7851 21.7782 15.1914 19.6293C15.5905 17.4878 17.0161 15.6479 18.7553 14.4189C23.5096 11.0484 30.7729 12.3657 34.1372 17.2007L40.873 64.7492C39.2123 67.0453 35.3418 70.2982 32.5762 70.0774C29.8035 69.8566 27.1947 68.0904 25.8974 65.5588C24.1725 65.6544 22.4119 65.7428 20.7511 65.2791C19.0832 64.8155 17.4937 63.6895 16.8949 62.0116C16.2962 60.341 17.009 58.1479 18.6413 57.5592C16.6027 56.6908 14.4572 55.7341 13.2027 53.8648C11.9482 51.9956 12.1193 48.9341 14.1008 47.9332L14.0866 47.9406Z" fill="#263238"/>
<path d="M24.0014 34.0829C22.0983 32.1769 21.8417 28.7769 23.4455 26.5985C22.2337 25.421 22.305 23.3163 23.1603 21.8444C24.0157 20.3726 25.4555 19.379 26.8526 18.4371C27.1163 14.4189 30.9654 11.0409 34.85 11.4089C36.3825 8.14874 40.481 7.0522 43.9594 7.54527C44.8077 7.66302 45.6701 7.86172 46.5183 7.72926C47.1385 7.63358 47.7229 7.36129 48.3288 7.18467C51.6575 6.19852 55.3711 8.1561 57.1602 11.2176C57.4453 11.7033 57.6948 12.2332 58.094 12.6232C58.6143 13.1457 59.3342 13.3886 59.9686 13.7492C61.3372 14.544 62.3422 15.979 62.6344 17.5687C62.8839 18.9228 62.6701 20.4314 63.3971 21.5795C63.7606 22.1535 64.338 22.5803 64.6445 23.1912C65.5355 24.9648 63.8034 27.1799 64.452 29.0639C64.5875 29.4466 64.8084 29.7925 64.9724 30.1604C65.3002 30.9184 65.3501 31.8089 65.1149 32.6037C64.9296 33.2145 64.5732 33.8107 64.6231 34.4509C64.6659 34.9366 64.9367 35.3635 65.1007 35.8271C65.4927 36.9531 63.7107 41.7881 62.8269 42.5609L33.8949 47.2193C31.6354 47.0942 29.5612 45.3133 29.0194 43.0392C28.9268 42.6639 28.8626 42.2444 28.5918 41.9795C28.3566 41.7514 28.0287 41.6778 27.7222 41.5674C25.7121 40.8167 25.1063 38.2042 24.9922 35.9964C24.978 35.6873 24.9637 35.3708 24.8496 35.0838C24.6786 34.6717 24.3222 34.3773 24.0086 34.0682L24.0014 34.0829Z" fill="#263238"/>
<path d="M25.1989 23.9051C28.4207 17.4142 33.6383 12.925 40.5238 11.2692C44.4085 10.3345 46.1976 10.8129 49.1628 10.9748C52.1351 11.1293 54.9934 12.1229 57.1745 14.2055C59.769 16.6783 62.1212 19.5705 63.2403 23.0294C64.3879 26.5839 64.8583 30.2047 64.8013 33.2882C64.73 37.0341 63.4969 43.0099 62.0357 46.4393L56.2122 48.522C51.2797 49.8025 46.276 51.0904 41.1867 50.9947C36.0974 50.8991 30.8299 49.2579 27.323 45.4532C22.4476 40.1692 21.9771 30.4034 25.206 23.9051H25.1989Z" fill="#263238"/>
<path d="M33.1891 22.0651L44.1589 14.4703L47.3736 14.1465C54.4302 12.6011 60.9735 19.5556 62.2494 25.4431C63.6679 31.9855 65.1505 40.0292 65.1505 45.0851C65.1505 55.2483 57.2884 57.8387 57.2884 57.8387L58.3434 63.6968C57.5949 69.1942 47.288 71.8509 41.657 67.0158L30.7229 26.0907C30.4093 24.2877 31.4856 22.5361 33.2034 22.0578L33.1891 22.0651Z" fill="#AE7461"/>
<path d="M50.5669 45.9534C50.5241 45.4235 50.7095 44.9157 50.9946 44.5257C51.5648 43.7456 52.5841 43.4586 53.4466 43.8266C54.309 44.1945 54.9719 45.1954 55.0432 46.2551C54.7438 46.9469 54.1807 47.4989 53.4822 47.7196C53.3753 47.7564 53.2612 47.7859 53.1472 47.8079C52.6055 47.911 52.0139 47.8447 51.5078 47.5283C51.0088 47.2045 50.6168 46.6084 50.5669 45.9608V45.9534Z" fill="#6F4439"/>
<path d="M61.2373 33.5532C61.3656 34.2228 60.9166 34.8852 60.2466 35.0324C59.5765 35.1796 58.9279 34.7601 58.7996 34.0977C58.6713 33.428 59.1204 32.7657 59.7904 32.6185C60.4604 32.4713 61.109 32.8908 61.2373 33.5605V33.5532Z" fill="#263238"/>
<path d="M60.7812 29.2037C60.6529 29.3951 59.6122 28.8358 58.2864 29.0565C56.9606 29.2552 56.0982 30.1236 55.9271 29.9764C55.8416 29.9102 55.9556 29.5864 56.3263 29.2037C56.6969 28.821 57.3598 28.3942 58.1866 28.2617C59.0135 28.1293 59.7548 28.328 60.2038 28.5855C60.66 28.8431 60.8453 29.1154 60.7812 29.2037Z" fill="#263238"/>
<path d="M54.5799 41.6776C54.5586 41.604 55.364 41.317 56.6684 40.927C57.0034 40.8387 57.3099 40.7136 57.3313 40.4634C57.3741 40.1984 57.1745 39.8452 56.9464 39.4625C56.4973 38.6677 56.0269 37.8361 55.5351 36.9677C53.5678 33.4058 52.0781 30.462 52.2206 30.3811C52.3632 30.3001 54.0739 33.1188 56.0412 36.6807C56.5187 37.5564 56.9749 38.3954 57.4097 39.1975C57.6021 39.5729 57.8873 39.985 57.7946 40.5369C57.7447 40.8166 57.5237 41.0447 57.317 41.1404C57.1103 41.2434 56.9179 41.2802 56.7539 41.317C55.421 41.6114 54.5871 41.7586 54.5728 41.6776H54.5799Z" fill="#263238"/>
<path d="M57.3027 57.8315C57.3027 57.8315 50.909 59.3181 43.9023 56.3965C43.9023 56.3965 48.3002 62.9831 57.766 60.4883L57.3027 57.8389V57.8315Z" fill="#6F4439"/>
<path d="M50.8235 43.2601C51.0373 43.2086 51.2654 44.6952 52.6625 45.5488C54.0524 46.4025 55.5635 45.9904 55.6063 46.1965C55.6419 46.2848 55.3069 46.5423 54.6654 46.6675C54.031 46.7926 53.0759 46.7337 52.2206 46.2112C51.3724 45.6887 50.9162 44.8791 50.7736 44.2757C50.6239 43.6649 50.7237 43.2675 50.8306 43.2601H50.8235Z" fill="#263238"/>
<path d="M59.3485 24.5675C59.1774 24.9354 58.1296 24.8839 56.9607 25.1783C55.7846 25.4359 54.8579 25.9584 54.5514 25.7008C54.416 25.5757 54.4944 25.2224 54.8508 24.825C55.2072 24.4276 55.8558 24.0008 56.6613 23.8095C57.4667 23.6181 58.2294 23.7138 58.7141 23.9125C59.2059 24.1185 59.4198 24.3908 59.3485 24.5675Z" fill="#263238"/>
<path d="M46.8177 36.2172C46.9246 36.8869 47.559 37.3505 48.2433 37.2548C48.9204 37.1518 49.3909 36.5336 49.2839 35.8566C49.177 35.1869 48.5426 34.7232 47.8655 34.8189C47.1812 34.9146 46.7179 35.5401 46.8177 36.2172Z" fill="#263238"/>
<path d="M42.9544 32.6184C43.1397 32.7508 43.9309 31.853 45.2424 31.588C46.5539 31.3084 47.6516 31.8088 47.7657 31.6101C47.8227 31.5218 47.6089 31.2569 47.1313 31.0287C46.6537 30.8006 45.891 30.6387 45.0713 30.808C44.2516 30.9772 43.6244 31.4335 43.2894 31.8309C42.9472 32.2357 42.8688 32.5595 42.9544 32.6184Z" fill="#263238"/>
<path d="M42.8332 28.1145C43.154 28.372 44.1091 27.8422 45.3209 27.5772C46.5326 27.2755 47.616 27.327 47.7942 26.9517C47.8655 26.7751 47.6445 26.4954 47.1385 26.2967C46.6395 26.098 45.8483 26.0097 45.0144 26.201C44.1804 26.3997 43.5033 26.8266 43.1397 27.224C42.7691 27.6287 42.6907 27.9746 42.8332 28.0997V28.1145Z" fill="#263238"/>
<path d="M64.4734 26.282C63.0264 25.6049 62.0143 24.5526 61.886 22.9188C61.0377 23.3162 59.9828 22.2638 59.3627 21.55C58.7426 20.8287 58.0583 20.5197 57.9656 19.5629C57.9514 19.3716 57.93 19.1729 57.8231 19.0184C57.652 18.7755 57.3313 18.7313 57.0461 18.6872C55.5778 18.4296 54.2663 17.3478 53.7103 15.9201C52.3774 16.7591 50.8378 17.2521 49.2839 17.3331C48.7351 18.4517 47.6017 19.2465 46.39 19.3642C45.1783 19.482 43.9238 18.9153 43.1825 17.9145C42.8973 18.827 42.1133 19.4967 41.2508 19.85C40.3883 20.2106 39.4546 20.2989 38.528 20.3872C39.1695 22.1681 38.2856 24.3759 36.6177 25.1707C36.3896 25.2811 36.133 25.3915 36.0546 25.6344C35.9762 25.8846 36.133 26.1495 36.2542 26.3777C37.0382 27.8569 36.2969 29.969 34.7716 30.5872C35.9691 31.301 36.1188 33.3175 35.0496 34.2153C34.8286 34.3993 34.5364 34.6275 34.6148 34.9071C34.6433 35.0175 34.7217 35.0985 34.8001 35.1794C35.3846 35.7829 35.9691 36.4526 36.1401 37.2915C36.3112 38.1231 35.8835 39.1534 35.071 39.3006C35.5557 39.6318 36.019 40.0881 36.1116 40.6768C36.1972 41.2656 35.6982 41.9573 35.1351 41.8175C34.8928 41.7586 31.5142 41.5526 31.3431 41.3686C29.1263 39.0136 31.0936 35.7829 30.8513 32.5006C30.6089 29.2257 29.0265 25.6565 30.2311 22.6097C30.7372 21.3292 33.5955 20.343 34.4009 19.2465C35.3276 17.9954 36.4965 16.9725 37.6726 15.9716C39.2051 14.6616 40.7804 13.3517 42.6336 12.6158C46.0835 11.2469 49.9753 12.0565 53.5107 13.1751C54.8579 13.6019 56.2051 14.0729 57.3954 14.853C58.8139 15.7876 59.9472 17.1197 60.9593 18.5032C62.4277 20.5049 63.7178 22.7127 64.2809 25.156" fill="#263238"/>
<path d="M64.6372 23.1911C64.6372 23.1911 64.5303 22.9188 64.1811 22.5067C64.01 22.3006 63.7748 22.0651 63.5467 21.7486C63.3186 21.4322 63.1119 21.0274 63.005 20.527C62.8838 20.0339 62.8481 19.4599 62.8054 18.8344C62.7626 18.2088 62.7198 17.517 62.4846 16.8179C62.2565 16.1188 61.8788 15.4123 61.3299 14.7941C61.0591 14.485 60.7383 14.198 60.389 13.9404C60.0398 13.6828 59.6335 13.4841 59.2343 13.2854C58.8352 13.0867 58.436 12.866 58.1081 12.5348C57.7874 12.2036 57.5522 11.7768 57.3098 11.3426C56.818 10.4668 56.1622 9.63522 55.3496 8.93608C54.5371 8.23695 53.5891 7.63349 52.5128 7.26552C51.9853 7.05946 51.4151 6.95643 50.8377 6.87548C50.2604 6.83132 49.6616 6.8166 49.07 6.91963C48.7706 6.96379 48.4855 7.04474 48.1861 7.11833C47.8939 7.20665 47.6159 7.31704 47.3308 7.41271C46.7606 7.61877 46.1761 7.71444 45.5631 7.66292C44.9572 7.62613 44.3442 7.4863 43.7099 7.42007C43.0826 7.33175 42.434 7.3244 41.7925 7.34647C41.1438 7.36855 40.4952 7.46422 39.8537 7.60405C39.2122 7.75124 38.5778 7.97201 37.9648 8.25167C36.7531 8.83305 35.6197 9.73825 34.9426 10.9967C34.8784 11.1218 34.8072 11.2469 34.743 11.3647L34.8428 11.3058C32.7757 11.1144 30.7657 11.9681 29.3116 13.3075C27.8432 14.6396 26.8739 16.5088 26.7455 18.437L26.7883 18.3634C26.0399 18.8712 25.3057 19.3716 24.6428 19.9603C23.9799 20.5417 23.3883 21.2041 22.982 21.9768C22.5829 22.7495 22.3904 23.6179 22.4403 24.4569C22.4831 25.2958 22.8038 26.1201 23.3812 26.672V26.5543C22.5615 27.6655 22.255 29.0344 22.3192 30.2781C22.3833 31.5292 22.7967 32.6919 23.4596 33.5751C23.6164 33.8032 23.8089 33.9945 23.9871 34.1859C24.1795 34.3699 24.3648 34.5391 24.5217 34.7305C24.6785 34.9218 24.7996 35.1352 24.8495 35.3634C24.9066 35.5989 24.9137 35.8344 24.9279 36.0772C24.985 37.0266 25.1204 37.9023 25.3485 38.6603C25.5766 39.4183 25.8831 40.066 26.2609 40.537C26.6386 41.0153 27.0663 41.3244 27.437 41.501C27.8076 41.685 28.1212 41.7292 28.3066 41.8322C28.499 41.9205 28.5703 42.0088 28.5774 42.0015C28.5774 42.0015 28.5133 41.9058 28.3208 41.8028C28.1355 41.6924 27.8219 41.6335 27.4583 41.4495C27.0948 41.2655 26.6814 40.9638 26.3179 40.4854C25.9472 40.0145 25.655 39.3742 25.434 38.6235C25.2202 37.8729 25.0919 37.0119 25.042 36.0625C25.0277 35.827 25.0206 35.5768 24.9707 35.3266C24.9208 35.0764 24.7854 34.8335 24.6214 34.6348C24.4575 34.4361 24.2651 34.2595 24.0797 34.0755C23.9087 33.8841 23.7162 33.7002 23.5665 33.472C22.9179 32.6183 22.5259 31.4777 22.4688 30.256C22.4118 29.0417 22.7112 27.717 23.5024 26.6426L23.5451 26.5837L23.4881 26.5322C22.9464 26.0097 22.647 25.2296 22.6043 24.4274C22.5615 23.6253 22.7468 22.7863 23.1317 22.0504C23.5238 21.3071 24.1011 20.6595 24.7497 20.0928C25.4055 19.5188 26.1326 19.0183 26.881 18.5179L26.9237 18.4885V18.437C27.052 16.575 27.9929 14.7499 29.4328 13.4473C30.8583 12.1447 32.8185 11.3131 34.8143 11.5045H34.8784L34.9141 11.4456C34.9782 11.3279 35.0424 11.2101 35.1065 11.085C35.7623 9.87072 36.86 8.99496 38.0432 8.42829C38.6419 8.156 39.2621 7.94258 39.8893 7.79539C40.5237 7.66292 41.1581 7.56725 41.7925 7.53782C42.4268 7.51574 43.0612 7.5231 43.6813 7.61141C44.3015 7.67764 44.9145 7.81747 45.5417 7.85427C45.8553 7.87634 46.169 7.86898 46.4826 7.81747C46.7962 7.77331 47.0885 7.685 47.3807 7.58197C47.6729 7.4863 47.9509 7.37591 48.236 7.2876C48.5212 7.21401 48.8063 7.13305 49.0914 7.0889C49.6687 6.98587 50.2461 7.00059 50.8092 7.04474C51.3723 7.12569 51.9283 7.22137 52.4486 7.42007C53.5035 7.77331 54.4373 8.36206 55.2285 9.04647C56.0268 9.73089 56.6754 10.5478 57.1601 11.4088C57.4025 11.843 57.6448 12.2846 57.987 12.6305C58.3291 12.9837 58.7496 13.2045 59.1559 13.4032C59.5622 13.6019 59.9471 13.7932 60.2964 14.0434C60.6456 14.2863 60.9521 14.566 61.223 14.8677C61.7647 15.4712 62.1425 16.1629 62.3706 16.84C62.6058 17.5244 62.6557 18.2088 62.7056 18.827C62.7555 19.4525 62.7911 20.0266 62.9194 20.5344C63.0335 21.0422 63.2544 21.4616 63.4897 21.7781C63.732 22.0945 63.9672 22.3227 64.1454 22.5214C64.3236 22.7201 64.4448 22.882 64.5161 22.9997C64.5945 23.1101 64.623 23.1763 64.6301 23.1763L64.6372 23.1911Z" fill="#455A64"/>
<path d="M37.7439 9.45865C37.7439 9.45865 37.9078 9.33354 38.2072 9.12012C38.5066 8.91406 38.9699 8.64177 39.59 8.47986C40.2101 8.3106 40.9942 8.25172 41.8068 8.49458C42.6122 8.73008 43.4391 9.25995 44.0307 10.0621C44.2017 10.2903 44.3514 10.5405 44.4655 10.7907C44.5724 11.0409 44.6223 11.3132 44.5154 11.5193L44.3871 11.7768L44.6437 11.6591C45.3493 11.3426 46.1191 11.3794 46.725 11.6149C47.3309 11.8504 47.7585 12.2993 48.0151 12.7188C48.2717 13.1383 48.3787 13.5357 48.4214 13.808C48.4642 14.0803 48.4642 14.2348 48.4784 14.2348C48.4784 14.2348 48.4927 14.198 48.4927 14.1245C48.4927 14.0509 48.4927 13.9405 48.4856 13.8006C48.4571 13.521 48.3715 13.1089 48.1149 12.6526C47.8655 12.2037 47.4235 11.718 46.782 11.453C46.1476 11.1881 45.3279 11.1366 44.5653 11.4751L44.6936 11.6149C44.8432 11.3206 44.772 10.982 44.6579 10.7097C44.5367 10.4301 44.3799 10.1872 44.2017 9.937C43.5816 9.09804 42.712 8.55345 41.8638 8.3106C41.0085 8.06774 40.1888 8.14869 39.5615 8.34003C38.92 8.53138 38.4638 8.82575 38.1716 9.05389C38.029 9.17164 37.9221 9.26731 37.8508 9.3409C37.7867 9.41449 37.751 9.45129 37.7582 9.45865H37.7439Z" fill="#455A64"/>
<path d="M25.4341 25.6638C25.4341 25.6638 25.4341 25.7079 25.4698 25.7889C25.5054 25.8625 25.5553 25.9802 25.6622 26.098C25.8618 26.3408 26.2681 26.6131 26.8241 26.6794C27.3872 26.7456 28.0429 26.5395 28.6844 26.1937C29.0052 26.0244 29.3402 25.8478 29.6681 25.6196C29.9888 25.3915 30.3381 25.0824 30.4664 24.6261C30.4735 24.5893 30.4878 24.5452 30.4949 24.5084L30.3452 24.582C31.0509 25.0014 31.7637 25.3547 32.4693 25.5166C33.1679 25.6859 33.8379 25.6343 34.3511 25.4504C34.8643 25.2737 35.2278 24.9867 35.4203 24.7512C35.52 24.6335 35.5842 24.5378 35.627 24.4642C35.6626 24.3906 35.684 24.3538 35.6769 24.3538C35.6626 24.3465 35.5771 24.4863 35.3632 24.6997C35.1565 24.9058 34.8001 25.1634 34.3012 25.3179C33.8022 25.4798 33.175 25.5092 32.505 25.34C31.8349 25.1781 31.1364 24.8322 30.4379 24.4127L30.3238 24.3391L30.2882 24.4789C30.2882 24.4789 30.2739 24.5452 30.2668 24.5746C30.1599 24.9499 29.8605 25.2369 29.554 25.4504C29.2404 25.6711 28.9054 25.8478 28.5918 26.0244C27.9716 26.3703 27.3515 26.5763 26.8312 26.5322C26.3037 26.4954 25.9188 26.2599 25.7121 26.0465C25.4983 25.8331 25.4484 25.6564 25.427 25.6711L25.4341 25.6638Z" fill="#455A64"/>
<path d="M35.7766 42.2004C35.6626 41.4644 34.5649 39.8601 33.845 39.8601C31.9133 39.8601 28.5347 40.5813 29.2689 45.5268C30.2668 52.29 36.6391 49.8688 36.6177 49.6701C36.6035 49.5155 36.1758 44.7467 35.7766 42.2004Z" fill="#AE7461"/>
<path d="M34.4437 47.477C34.4437 47.477 34.3439 47.58 34.1586 47.6978C33.9804 47.8155 33.6668 47.9259 33.3104 47.8523C32.5762 47.6978 31.8278 46.6528 31.6211 45.4385C31.5142 44.8276 31.5498 44.2168 31.6924 43.7017C31.8207 43.1718 32.0773 42.7818 32.4194 42.664C32.7544 42.5242 33.0324 42.7008 33.1393 42.8774C33.2534 43.0541 33.232 43.1939 33.2676 43.2012C33.289 43.216 33.3888 43.0688 33.2961 42.7965C33.2462 42.664 33.1464 42.5168 32.9754 42.4138C32.7972 42.3034 32.5548 42.274 32.3196 42.3402C31.8207 42.458 31.4358 43.0099 31.2789 43.5766C31.1008 44.1506 31.0437 44.835 31.1578 45.5268C31.4001 46.8809 32.2626 48.051 33.2534 48.1909C33.7309 48.2424 34.0945 48.0363 34.2727 47.845C34.4508 47.6463 34.4651 47.4917 34.4366 47.4844L34.4437 47.477Z" fill="#6F4439"/>
<g opacity="0.3">
<path d="M52.3275 34.23C52.7695 37.3872 50.6525 40.3235 47.5946 40.7798C44.5368 41.2361 41.6928 39.0504 41.2508 35.8932C40.8089 32.7361 42.9259 29.7997 45.9837 29.3434C49.0416 28.8871 51.8856 31.0729 52.3275 34.23Z" fill="white"/>
</g>
<g opacity="0.3">
<path d="M65.9773 32.4124C66.4192 35.5695 64.3023 38.5059 61.2444 38.9622C58.1866 39.4184 55.3425 37.2327 54.9006 34.0756C54.4587 30.9184 56.5757 27.9821 59.6335 27.5258C62.6914 27.0695 65.5354 29.2552 65.9773 32.4124Z" fill="white"/>
</g>
<path d="M54.6013 33.2513C54.5657 33.3175 54.0881 33.0893 53.4965 33.2218C52.8978 33.3396 52.5414 33.737 52.4844 33.6855C52.4558 33.6634 52.5129 33.5309 52.6697 33.369C52.8265 33.2071 53.1045 33.0305 53.4466 32.9642C53.7888 32.898 54.1095 32.9422 54.3162 33.0378C54.5229 33.1261 54.6227 33.2292 54.6085 33.2586L54.6013 33.2513Z" fill="#455A64"/>
<path d="M41.6499 35.5915C41.6499 35.5915 41.265 35.8932 40.6021 36.2906C39.9392 36.6954 39.0197 37.24 37.9862 37.8214C36.9598 38.4101 36.0189 38.9253 35.3346 39.2859C34.9925 39.4699 34.7003 39.6097 34.4864 39.6538C34.2726 39.7054 34.1443 39.6906 34.1443 39.6759C34.1443 39.6538 34.2583 39.6318 34.4579 39.5582C34.6575 39.4846 34.9212 39.33 35.2491 39.124C35.912 38.7192 36.8315 38.1746 37.865 37.5932C38.8914 37.0118 39.8323 36.4893 40.5166 36.1287C41.2009 35.7681 41.6357 35.5547 41.6499 35.5915Z" fill="#455A64"/>
<path d="M25.3985 97.1301C25.3985 97.1301 34.0873 104.563 52.2847 104.46C69.3203 104.357 79.9551 94.8413 79.9551 94.8413C83.576 86.9816 79.4561 81.5725 77.5245 71.4682C77.5245 71.4682 71.8222 62.3206 70.0545 62.247C66.127 62.0777 58.9707 63.3803 58.5715 62.9608C55.9912 67.5383 52.634 72.2409 40.5024 63.2405L26.211 67.0673C24.1368 67.9651 20.8937 70.2833 21.1004 72.5942L25.3985 97.1374V97.1301Z" fill="#E9C46A"/>
<path d="M14.5499 88.711C14.5499 88.711 17.0161 72.653 24.315 68.1417C30.3523 64.4106 38.2215 90.3521 38.2215 90.3521L31.6282 100.67C24.6215 97.4465 21.0861 95.1651 14.5427 88.7037L14.5499 88.711Z" fill="#E9C46A"/>
<path d="M94.275 51.0389L85.4792 54.0856L92.6498 79.1293L80.9815 67.9211L72.7203 84.9653C72.7203 84.9653 89.7345 97.248 96.4989 98.2047C103.263 99.1614 108.638 95.8791 107.141 87.7986C106.542 84.5679 94.275 51.0315 94.275 51.0315V51.0389Z" fill="#AE7461"/>
<path d="M84.2033 42.1194C84.2033 42.1194 81.8226 39.3743 80.6322 39.9999C79.4419 40.6254 78.0306 42.2371 78.0876 43.3557C78.1446 44.4743 78.6649 45.3575 79.1283 45.1882C79.5916 45.0263 80.7463 43.7016 80.7463 43.7016L82.9417 45.615L82.963 48.7648L81.509 50.1042L80.0264 48.2938L79.9052 46.7484C79.8482 45.9977 79.0784 45.4605 78.4155 45.7917C78.0876 45.9536 77.8167 46.3142 77.7526 47.028C77.5815 49.0666 78.2159 52.8051 80.4398 53.9458C82.6708 55.0865 86.6695 56.3817 86.6695 56.3817L94.724 53.4601L94.1894 42.9142C94.1894 42.9142 96.6129 38.5795 96.4775 37.1224C96.3349 35.6579 95.4368 31.2938 95.4368 31.2938C95.4368 31.2938 94.2607 30.8007 93.9898 32.1401C93.719 33.4869 94.0397 37.1077 94.0397 37.1077L91.8942 40.044L90.2406 28.7475C90.1693 28.2397 89.6846 27.9085 89.1999 28.041C88.5442 28.225 87.7815 28.799 87.7886 30.4769C87.8029 33.4133 88.7366 39.7349 88.4016 39.8233C88.0666 39.9116 87.9454 39.7276 87.475 38.2704C87.1043 37.1298 85.3366 31.4925 84.7022 29.4613C84.5597 29.0124 84.0322 28.8579 83.6758 29.1596C83.2054 29.5497 82.7136 30.2782 82.7777 31.5956C82.8918 33.9873 84.688 39.9263 84.7878 40.4856C84.8804 41.0375 84.1962 42.1267 84.1962 42.1267L84.2033 42.1194Z" fill="#AE7461"/>
<path d="M89.1358 51.9439C89.0788 51.9807 88.872 51.6569 88.4515 51.2227C88.0381 50.7959 87.3823 50.2807 86.5555 49.9422C85.7215 49.6037 84.909 49.5153 84.3245 49.5374C83.74 49.5595 83.3693 49.6478 83.348 49.5816C83.3337 49.5374 83.6758 49.3387 84.296 49.243C84.9161 49.14 85.8071 49.1842 86.7052 49.5521C87.6033 49.9201 88.2876 50.5162 88.6653 51.024C89.0502 51.5318 89.1785 51.9218 89.1358 51.9366V51.9439Z" fill="#6F4439"/>
<path d="M83.5119 95.1726L92.4716 78.5111C92.4716 78.5111 86.1492 70.9163 80.789 66.0739C74.8872 60.7384 69.3417 61.3492 61.4012 63.1007C61.4012 63.1007 65.4926 82.5219 73.4188 88.218C74.8943 89.2778 83.5119 95.1652 83.5119 95.1652V95.1726Z" fill="#E9C46A"/>
<path d="M33.3959 100.677C33.3959 100.677 33.2819 100.464 33.175 100.052C33.0681 99.6398 32.9611 99.029 32.8613 98.271C32.6618 96.7623 32.505 94.6649 32.3196 92.3541C32.1414 90.0433 31.9419 87.9532 31.7779 86.4445C31.614 84.9359 31.4857 84.0013 31.5356 83.9939C31.5569 83.9939 31.614 84.222 31.6995 84.6342C31.785 85.0536 31.8848 85.6571 31.9989 86.4151C32.2198 87.9238 32.4551 90.0138 32.6333 92.3246C32.8186 94.6355 32.9398 96.7329 33.0823 98.2489C33.1536 98.9995 33.2249 99.6104 33.2961 100.03C33.3674 100.449 33.4244 100.67 33.4031 100.685L33.3959 100.677Z" fill="#263238"/>
<path d="M70.5249 72.9917C70.5249 72.9917 70.81 73.1904 71.2804 73.6026C71.7509 74.0147 72.428 74.6181 73.2406 75.3982C74.8301 76.9584 77.0825 79.2177 78.5651 82.4116C79.3064 84.0013 79.6913 85.6497 79.898 87.151C80.1047 88.6523 80.1332 90.0212 80.1332 91.1619C80.1332 92.3026 80.0833 93.2298 80.0477 93.8627C80.0121 94.4956 79.9764 94.8489 79.955 94.8489C79.9337 94.8489 79.9265 94.4956 79.9265 93.8554C79.9265 93.2151 79.9337 92.2952 79.9123 91.1545C79.8838 90.0212 79.8267 88.6671 79.6129 87.1805C79.3991 85.7013 79.007 84.0896 78.2871 82.5368C76.8402 79.409 74.6448 77.1497 73.0909 75.5528C72.3211 74.7948 71.6867 74.1692 71.202 73.6909C70.753 73.2493 70.5106 72.9991 70.5249 72.9844V72.9917Z" fill="#263238"/>
<path d="M94.2108 87.0406C94.1751 87.0553 93.9613 86.6506 93.6904 85.9514C93.4196 85.2597 93.0988 84.2662 92.8565 83.1475C92.6141 82.0289 92.5001 80.9986 92.4573 80.248C92.4217 79.4973 92.4431 79.0337 92.4858 79.0337C92.5785 79.0337 92.6783 80.8735 93.163 83.0813C93.6334 85.2891 94.3034 87.0038 94.2108 87.0406Z" fill="#263238"/>
</g>
<defs>
<filter id="filter0_i_1_18" x="0.194336" y="0.355225" width="100.66" height="107.937" filterUnits="userSpaceOnUse" color-interpolation-filters="sRGB">
<feFlood flood-opacity="0" result="BackgroundImageFix"/>
<feBlend mode="normal" in="SourceGraphic" in2="BackgroundImageFix" result="shape"/>
<feColorMatrix in="SourceAlpha" type="matrix" values="0 0 0 0 0 0 0 0 0 0 0 0 0 0 0 0 0 0 127 0" result="hardAlpha"/>
<feOffset dy="4"/>
<feGaussianBlur stdDeviation="2"/>
<feComposite in2="hardAlpha" operator="arithmetic" k2="-1" k3="1"/>
<feColorMatrix type="matrix" values="0 0 0 0 0 0 0 0 0 0 0 0 0 0 0 0 0 0 0.25 0"/>
<feBlend mode="normal" in2="shape" result="effect1_innerShadow_1_18"/>
</filter>
<clipPath id="clip0_1_18">
<rect width="107.196" height="104.105" fill="white" transform="translate(0.194336 0.355225)"/>
</clipPath>
</defs>
</svg>
