<svg width="137" height="92" viewBox="0 0 137 92" fill="none" xmlns="http://www.w3.org/2000/svg">
<g clip-path="url(#clip0_1_307)">
<path d="M26.1412 54.3238C30.3407 54.3238 33.7452 50.9028 33.7452 46.6827C33.7452 42.4626 30.3407 39.0415 26.1412 39.0415C21.9416 39.0415 18.5372 42.4626 18.5372 46.6827C18.5372 50.9028 21.9416 54.3238 26.1412 54.3238Z" fill="#FF6584"/>
<path d="M41.7132 89.8433H41.7055C41.4378 89.843 41.1811 89.736 40.9917 89.5457C40.8024 89.3555 40.6959 89.0975 40.6956 88.8285V29.2513C40.6959 28.9822 40.8024 28.7243 40.9917 28.534C41.1811 28.3438 41.4378 28.2368 41.7055 28.2365H91.6065C91.8743 28.2368 92.131 28.3438 92.3203 28.534C92.5096 28.7243 92.6161 28.9822 92.6164 29.2513V75.5758C92.6161 75.8435 92.5107 76.1003 92.3231 76.2903C92.1354 76.4803 91.8807 76.5883 91.6143 76.5906L41.7132 89.8433Z" fill="#F2F2F2"/>
<path d="M78.5966 19.8193H55.4283V6.32783C55.4286 6.04295 55.5414 5.76983 55.7418 5.56838C55.9423 5.36694 56.2141 5.25362 56.4976 5.2533H77.5273C77.8108 5.25362 78.0826 5.36694 78.283 5.56838C78.4835 5.76983 78.5963 6.04295 78.5966 6.32783V19.8193ZM55.6659 19.5805H78.359V6.32783C78.3587 6.10626 78.271 5.89382 78.1151 5.73714C77.9592 5.58046 77.7478 5.49233 77.5273 5.49208H56.4976C56.2771 5.49233 56.0657 5.58046 55.9098 5.73714C55.7539 5.89382 55.6662 6.10626 55.6659 6.32783V19.5805Z" fill="#3F3D56"/>
<path d="M62.0224 10.3872H72.0026C72.2547 10.3872 72.4964 10.4878 72.6747 10.667C72.853 10.8461 72.9531 11.089 72.9531 11.3424V25.6695H61.0719V11.3424C61.0719 11.089 61.172 10.8461 61.3503 10.667C61.5285 10.4878 61.7703 10.3872 62.0224 10.3872Z" fill="#E6E6E6"/>
<path d="M63.9828 5.49208H59.1115V0.596966C59.1117 0.438696 59.1743 0.286961 59.2857 0.175047C59.3971 0.0631336 59.5481 0.000181066 59.7056 0H63.3887C63.5462 0.000181066 63.6972 0.0631336 63.8086 0.175047C63.92 0.286961 63.9826 0.438696 63.9828 0.596966V5.49208ZM59.3491 5.2533H63.7452V0.596966C63.7451 0.502002 63.7075 0.410958 63.6407 0.343809C63.5738 0.27666 63.4832 0.23889 63.3887 0.238786H59.7056C59.6111 0.23889 59.5205 0.27666 59.4536 0.343809C59.3868 0.410958 59.3492 0.502002 59.3491 0.596966V5.2533Z" fill="#3F3D56"/>
<path d="M104.012 77.4671C103.964 77.4671 103.918 77.4671 103.871 77.4659C100.932 77.4332 98.1052 76.3231 95.923 74.3441C95.8423 74.2703 95.7623 74.1955 95.6829 74.1197L95.6461 74.0845V51.2025L95.6575 51.1783C95.7361 51.0108 95.8159 50.8456 95.8957 50.6805C98.367 45.6385 101.249 42.8622 104.012 42.8622C107.995 42.8622 111.085 48.3535 112.572 51.6268C114.64 56.1785 116.084 61.8187 116.084 65.3427C116.083 68.5352 114.83 71.5986 112.595 73.8681C110.361 76.1377 107.326 77.4305 104.15 77.4659C104.105 77.4671 104.058 77.4671 104.012 77.4671ZM95.8837 73.9821C95.9496 74.0446 96.016 74.1063 96.0825 74.1671C98.2222 76.1073 100.993 77.1954 103.875 77.2271C103.923 77.2283 103.969 77.227 104.015 77.2283C104.058 77.2283 104.102 77.2283 104.145 77.2272C110.598 77.1552 115.847 71.8239 115.847 65.3427C115.847 61.8493 114.411 56.2499 112.356 51.726C110.892 48.5048 107.863 43.101 104.012 43.101C101.345 43.101 98.538 45.83 96.1091 50.7853C96.0339 50.9412 95.9583 51.0976 95.8837 51.256L95.8837 73.9821Z" fill="#3F3D56"/>
<path d="M104.011 91.9432C103.975 91.9432 103.94 91.9287 103.914 91.9029C103.889 91.8772 103.874 91.8422 103.874 91.8058V63.7641C103.874 63.746 103.878 63.7281 103.885 63.7113C103.891 63.6946 103.901 63.6793 103.914 63.6665C103.927 63.6537 103.942 63.6435 103.959 63.6365C103.975 63.6296 103.993 63.626 104.011 63.626C104.029 63.626 104.047 63.6296 104.064 63.6365C104.08 63.6435 104.095 63.6537 104.108 63.6665C104.121 63.6793 104.131 63.6946 104.138 63.7113C104.144 63.7281 104.148 63.746 104.148 63.7641V91.8058C104.148 91.8422 104.133 91.8772 104.108 91.9029C104.082 91.9287 104.047 91.9432 104.011 91.9432Z" fill="#CCCCCC"/>
<path d="M33.0804 91.9432C33.0442 91.9432 33.0094 91.9287 32.9838 91.9029C32.9581 91.8772 32.9437 91.8422 32.9437 91.8058V63.7641C32.9436 63.746 32.9471 63.7281 32.9539 63.7113C32.9607 63.6946 32.9708 63.6793 32.9835 63.6665C32.9962 63.6537 33.0113 63.6435 33.0279 63.6365C33.0446 63.6296 33.0624 63.626 33.0804 63.626C33.0984 63.626 33.1163 63.6296 33.1329 63.6365C33.1496 63.6435 33.1647 63.6537 33.1774 63.6665C33.1901 63.6793 33.2001 63.6946 33.2069 63.7113C33.2138 63.7281 33.2172 63.746 33.2171 63.7641V91.8058C33.2171 91.8422 33.2027 91.8772 33.1771 91.9029C33.1514 91.9287 33.1167 91.9432 33.0804 91.9432Z" fill="#CCCCCC"/>
<path d="M104.011 69.0034C103.992 69.0034 103.972 68.9992 103.954 68.991C103.937 68.9829 103.921 68.9709 103.908 68.956L97.033 60.9889C97.0093 60.9614 96.9975 60.9255 97.0001 60.8892C97.0027 60.8529 97.0195 60.8192 97.0469 60.7953C97.0743 60.7715 97.1099 60.7595 97.146 60.7621C97.1822 60.7646 97.2158 60.7814 97.2396 60.8089L104.114 68.776C104.132 68.7959 104.143 68.8204 104.146 68.8464C104.15 68.8725 104.146 68.8991 104.136 68.923C104.125 68.947 104.107 68.9673 104.085 68.9815C104.063 68.9958 104.037 69.0034 104.011 69.0034Z" fill="#CCCCCC"/>
<path d="M104.011 73.6013C103.984 73.6013 103.958 73.5932 103.935 73.5782C103.913 73.5631 103.895 73.5416 103.885 73.5165C103.874 73.4914 103.872 73.4638 103.877 73.4372C103.882 73.4105 103.895 73.386 103.914 73.3668L107.821 69.4412C107.847 69.4156 107.881 69.4012 107.917 69.4012C107.954 69.4013 107.988 69.4158 108.014 69.4415C108.039 69.4672 108.054 69.502 108.054 69.5384C108.054 69.5748 108.04 69.6097 108.014 69.6354L104.108 73.5611C104.095 73.5739 104.08 73.584 104.063 73.5909C104.047 73.5978 104.029 73.6013 104.011 73.6013Z" fill="#CCCCCC"/>
<path d="M116.658 92H106.44V91.8806C106.439 91.2061 106.571 90.5382 106.828 89.9151C107.085 89.2919 107.461 88.7256 107.935 88.2485C108.41 87.7715 108.973 87.3931 109.593 87.135C110.213 86.8768 110.878 86.7439 111.549 86.7439C112.22 86.7439 112.885 86.8768 113.505 87.135C114.125 87.3931 114.688 87.7715 115.163 88.2485C115.637 88.7256 116.013 89.2919 116.27 89.9151C116.527 90.5382 116.659 91.2061 116.658 91.8806L116.658 92ZM106.679 91.7612H116.419C116.388 90.4839 115.861 89.2694 114.952 88.377C114.042 87.4846 112.82 86.9851 111.549 86.9851C110.278 86.9851 109.056 87.4846 108.147 88.377C107.237 89.2694 106.71 90.4839 106.679 91.7612Z" fill="#3F3D56"/>
<path d="M111.549 88.9666C111.513 88.9666 111.479 88.9808 111.454 89.0063C111.428 89.0317 111.414 89.0661 111.414 89.1021V90.5419L110.018 89.3381C110.005 89.3264 109.989 89.3176 109.973 89.312C109.956 89.3064 109.938 89.3042 109.92 89.3055C109.903 89.3069 109.885 89.3117 109.869 89.3197C109.854 89.3278 109.84 89.3389 109.828 89.3524C109.816 89.3659 109.808 89.3816 109.802 89.3986C109.797 89.4155 109.794 89.4334 109.796 89.4512C109.797 89.4689 109.802 89.4863 109.81 89.5022C109.818 89.5181 109.829 89.5322 109.843 89.5438L111.414 90.8991V91.745C111.414 91.7629 111.418 91.7805 111.424 91.797C111.431 91.8135 111.441 91.8285 111.454 91.8411C111.466 91.8538 111.481 91.8638 111.497 91.8706C111.514 91.8775 111.531 91.881 111.549 91.881C111.567 91.881 111.584 91.8775 111.601 91.8706C111.617 91.8638 111.632 91.8538 111.645 91.8411C111.657 91.8285 111.667 91.8135 111.674 91.797C111.681 91.7805 111.684 91.7629 111.684 91.745V89.1021C111.684 89.0661 111.67 89.0317 111.644 89.0063C111.619 88.9808 111.585 88.9666 111.549 88.9666Z" fill="#3F3D56"/>
<path d="M30.9949 92H20.7765V91.8806C20.7762 91.2061 20.9081 90.5382 21.1647 89.9151C21.4213 89.2919 21.7976 88.7256 22.2721 88.2485C22.7465 87.7715 23.3099 87.3931 23.9299 87.135C24.55 86.8768 25.2145 86.7439 25.8857 86.7439C26.5569 86.7439 27.2214 86.8768 27.8415 87.135C28.4615 87.3931 29.0249 87.7715 29.4993 88.2485C29.9738 88.7256 30.3501 89.2919 30.6067 89.9151C30.8633 90.5382 30.9952 91.2061 30.9949 91.8806L30.9949 92ZM21.0155 91.7612H30.7559C30.7249 90.4839 30.1982 89.2694 29.2882 88.377C28.3782 87.4846 27.1572 86.9851 25.8857 86.9851C24.6142 86.9851 23.3932 87.4846 22.4832 88.377C21.5733 89.2694 21.0465 90.4839 21.0155 91.7612Z" fill="#3F3D56"/>
<path d="M25.8857 88.9666C25.8499 88.9666 25.8156 88.9808 25.7903 89.0063C25.765 89.0317 25.7508 89.0661 25.7508 89.1021V90.5419L24.3551 89.3381C24.3416 89.3264 24.3261 89.3176 24.3092 89.312C24.2924 89.3064 24.2746 89.3042 24.2569 89.3055C24.2392 89.3069 24.2219 89.3117 24.2061 89.3197C24.1903 89.3278 24.1762 89.3389 24.1646 89.3524C24.1531 89.3659 24.1443 89.3816 24.1388 89.3986C24.1332 89.4155 24.1311 89.4334 24.1325 89.4512C24.1339 89.4689 24.1387 89.4863 24.1467 89.5022C24.1548 89.5181 24.1659 89.5322 24.1794 89.5438L25.7508 90.8991V91.745C25.7508 91.7629 25.7542 91.7805 25.761 91.797C25.7677 91.8135 25.7777 91.8285 25.7902 91.8411C25.8027 91.8538 25.8176 91.8638 25.834 91.8706C25.8504 91.8775 25.868 91.881 25.8857 91.881C25.9035 91.881 25.921 91.8775 25.9374 91.8706C25.9538 91.8638 25.9687 91.8538 25.9812 91.8411C25.9938 91.8285 26.0037 91.8135 26.0104 91.797C26.0172 91.7805 26.0206 91.7629 26.0206 91.745V89.1021C26.0206 89.0661 26.0064 89.0317 25.9811 89.0063C25.9558 88.9808 25.9215 88.9666 25.8857 88.9666Z" fill="#3F3D56"/>
<path d="M33.1998 77.4671C33.1525 77.4671 33.1064 77.4671 33.059 77.4659C29.8826 77.4298 26.8484 76.1368 24.6146 73.8673C22.3807 71.5979 21.1273 68.5349 21.1262 65.3427C21.1262 61.8186 22.5705 56.1784 24.6384 51.6268C26.1256 48.3535 29.2154 42.8622 33.1998 42.8622C34.841 42.8622 36.4936 43.8022 38.1117 45.6561C38.192 45.7475 38.2724 45.8416 38.3516 45.9381L38.3788 45.9712V76.2955L38.3118 76.3281C38.2319 76.367 38.1507 76.4036 38.0696 76.4388C36.5785 77.1019 34.9682 77.4514 33.3377 77.4659C33.2934 77.4671 33.246 77.4671 33.1998 77.4671ZM33.1998 43.101C29.3483 43.101 26.3181 48.5048 24.8546 51.726C22.7993 56.2498 21.3638 61.8492 21.3638 65.3427C21.3638 71.8228 26.6122 77.1541 33.0633 77.2271C33.1114 77.2283 33.1562 77.2287 33.203 77.2283C33.2461 77.2283 33.2903 77.2283 33.3334 77.2272C34.9326 77.2131 36.5119 76.8704 37.9744 76.2201C38.0304 76.1957 38.0861 76.1709 38.1412 76.1451V46.0572C38.0724 45.9742 38.0028 45.8931 37.9333 45.8137C36.362 44.0136 34.7696 43.101 33.1998 43.101Z" fill="#3F3D56"/>
<path d="M33.1993 69.0034C33.1797 69.0034 33.1603 68.9992 33.1425 68.991C33.1246 68.9829 33.1088 68.9709 33.0959 68.956L26.2211 60.9889C26.1974 60.9614 26.1856 60.9255 26.1882 60.8892C26.1908 60.8529 26.2076 60.8192 26.235 60.7953C26.2623 60.7715 26.298 60.7595 26.3341 60.7621C26.3702 60.7646 26.4038 60.7814 26.4276 60.8089L33.3025 68.776C33.3197 68.7959 33.3308 68.8204 33.3345 68.8464C33.3383 68.8725 33.3345 68.8991 33.3236 68.923C33.3127 68.947 33.2952 68.9673 33.2732 68.9815C33.2511 68.9958 33.2255 69.0034 33.1993 69.0034Z" fill="#CCCCCC"/>
<path d="M33.1992 73.6013C33.1722 73.6013 33.1458 73.5932 33.1233 73.5782C33.1008 73.5631 33.0833 73.5416 33.073 73.5165C33.0626 73.4914 33.0599 73.4638 33.0652 73.4372C33.0705 73.4105 33.0835 73.386 33.1026 73.3668L37.009 69.4412C37.0347 69.4156 37.0694 69.4012 37.1056 69.4012C37.1418 69.4013 37.1765 69.4158 37.2021 69.4415C37.2276 69.4672 37.242 69.502 37.2421 69.5384C37.2421 69.5748 37.2278 69.6097 37.2023 69.6354L33.2959 73.5611C33.2832 73.5739 33.2682 73.584 33.2516 73.5909C33.235 73.5978 33.2172 73.6013 33.1992 73.6013Z" fill="#CCCCCC"/>
<path d="M43.9344 20.7744L44.0224 20.9487C44.0613 21.0239 44.0817 21.1075 44.0818 21.1923V25.9083H48.2402V21.1923C48.2402 21.1075 48.2606 21.0239 48.2996 20.9487L48.3875 20.7744H43.9344ZM48.0026 21.1923V25.6695H44.3194V21.1923C44.3195 21.1319 44.3123 21.0718 44.298 21.0132H48.024C48.0097 21.0718 48.0025 21.1319 48.0026 21.1923ZM49.1621 20.7744L49.2501 20.9487C49.2891 21.0239 49.3094 21.1075 49.3095 21.1923V25.9083H53.4679V21.1923C53.468 21.1075 53.4883 21.0239 53.5273 20.9487L53.6153 20.7744H49.1621ZM53.2303 21.1923V25.6695H49.5471V21.1923C49.5472 21.1319 49.54 21.0718 49.5257 21.0132H53.2517C53.2374 21.0718 53.2302 21.1319 53.2303 21.1923ZM54.3899 20.7744L54.4778 20.9487C54.5168 21.0239 54.5372 21.1075 54.5372 21.1923V25.9083H58.6956V21.1923C58.6957 21.1075 58.7161 21.0239 58.755 20.9487L58.843 20.7744H54.3899ZM58.458 21.1923V25.6695H54.7748V21.1923C54.7749 21.1319 54.7677 21.0718 54.7534 21.0132H58.4794C58.4651 21.0718 58.4579 21.1319 58.458 21.1923ZM59.6176 20.7744L59.7055 20.9487C59.7445 21.0239 59.7649 21.1075 59.7649 21.1923V25.9083H63.9234V21.1923C63.9234 21.1075 63.9438 21.0239 63.9828 20.9487L64.0707 20.7744H59.6176ZM63.6857 21.1923V25.6695H60.0026V21.1923C60.0026 21.1319 59.9954 21.0718 59.9812 21.0132H63.7071C63.6929 21.0718 63.6857 21.1319 63.6857 21.1923ZM64.8453 20.7744L64.9333 20.9487C64.9722 21.0239 64.9926 21.1075 64.9927 21.1923V25.9083H69.1511V21.1923C69.1511 21.1075 69.1715 21.0239 69.2105 20.9487L69.2984 20.7744H64.8453ZM68.9135 21.1923V25.6695H65.2303V21.1923C65.2304 21.1319 65.2232 21.0718 65.2089 21.0132H68.9349C68.9206 21.0718 68.9134 21.1319 68.9135 21.1923ZM70.073 20.7744L70.161 20.9487C70.2 21.0239 70.2203 21.1075 70.2204 21.1923V25.9083H74.3788V21.1923C74.3789 21.1075 74.3992 21.0239 74.4382 20.9487L74.5262 20.7744H70.073ZM74.1412 21.1923V25.6695H70.458V21.1923C70.4581 21.1319 70.4509 21.0718 70.4366 21.0132H74.1626C74.1483 21.0718 74.1411 21.1319 74.1412 21.1923ZM75.3008 20.7744L75.3887 20.9487C75.4277 21.0239 75.4481 21.1075 75.4481 21.1923V25.9083H79.6065V21.1923C79.6066 21.1075 79.627 21.0239 79.6659 20.9487L79.7539 20.7744H75.3008ZM79.3689 21.1923V25.6695H75.6857V21.1923C75.6858 21.1319 75.6786 21.0718 75.6643 21.0132H79.3903C79.376 21.0718 79.3688 21.1319 79.3689 21.1923ZM80.5285 20.7744L80.6164 20.9487C80.6554 21.0239 80.6758 21.1075 80.6758 21.1923V25.9083H84.8342V21.1923C84.8343 21.1075 84.8547 21.0239 84.8937 20.9487L84.9816 20.7744H80.5285ZM84.5966 21.1923V25.6695H80.9135V21.1923C80.9135 21.1319 80.9063 21.0718 80.892 21.0132H84.618C84.6037 21.0718 84.5966 21.1319 84.5966 21.1923ZM85.7562 20.7744L85.8441 20.9487C85.8831 21.0239 85.9035 21.1075 85.9036 21.1923V25.9083H90.062V21.1923C90.062 21.1075 90.0824 21.0239 90.1214 20.9487L90.2093 20.7744H85.7562ZM89.8243 21.1923V25.6695H86.1412V21.1923C86.1412 21.1319 86.1341 21.0718 86.1198 21.0132H89.8458C89.8315 21.0718 89.8243 21.1319 89.8243 21.1923ZM85.7562 20.7744L85.8441 20.9487C85.8831 21.0239 85.9035 21.1075 85.9036 21.1923V25.9083H90.062V21.1923C90.062 21.1075 90.0824 21.0239 90.1214 20.9487L90.2093 20.7744H85.7562ZM89.8243 21.1923V25.6695H86.1412V21.1923C86.1412 21.1319 86.1341 21.0718 86.1198 21.0132H89.8458C89.8315 21.0718 89.8243 21.1319 89.8243 21.1923ZM80.5285 20.7744L80.6164 20.9487C80.6554 21.0239 80.6758 21.1075 80.6758 21.1923V25.9083H84.8342V21.1923C84.8343 21.1075 84.8547 21.0239 84.8937 20.9487L84.9816 20.7744H80.5285ZM84.5966 21.1923V25.6695H80.9135V21.1923C80.9135 21.1319 80.9063 21.0718 80.892 21.0132H84.618C84.6037 21.0718 84.5966 21.1319 84.5966 21.1923ZM75.3008 20.7744L75.3887 20.9487C75.4277 21.0239 75.4481 21.1075 75.4481 21.1923V25.9083H79.6065V21.1923C79.6066 21.1075 79.627 21.0239 79.6659 20.9487L79.7539 20.7744H75.3008ZM79.3689 21.1923V25.6695H75.6857V21.1923C75.6858 21.1319 75.6786 21.0718 75.6643 21.0132H79.3903C79.376 21.0718 79.3688 21.1319 79.3689 21.1923ZM70.073 20.7744L70.161 20.9487C70.2 21.0239 70.2203 21.1075 70.2204 21.1923V25.9083H74.3788V21.1923C74.3789 21.1075 74.3992 21.0239 74.4382 20.9487L74.5262 20.7744H70.073ZM74.1412 21.1923V25.6695H70.458V21.1923C70.4581 21.1319 70.4509 21.0718 70.4366 21.0132H74.1626C74.1483 21.0718 74.1411 21.1319 74.1412 21.1923ZM64.8453 20.7744L64.9333 20.9487C64.9722 21.0239 64.9926 21.1075 64.9927 21.1923V25.9083H69.1511V21.1923C69.1511 21.1075 69.1715 21.0239 69.2105 20.9487L69.2984 20.7744H64.8453ZM68.9135 21.1923V25.6695H65.2303V21.1923C65.2304 21.1319 65.2232 21.0718 65.2089 21.0132H68.9349C68.9206 21.0718 68.9134 21.1319 68.9135 21.1923ZM59.6176 20.7744L59.7055 20.9487C59.7445 21.0239 59.7649 21.1075 59.7649 21.1923V25.9083H63.9234V21.1923C63.9234 21.1075 63.9438 21.0239 63.9828 20.9487L64.0707 20.7744H59.6176ZM63.6857 21.1923V25.6695H60.0026V21.1923C60.0026 21.1319 59.9954 21.0718 59.9812 21.0132H63.7071C63.6929 21.0718 63.6857 21.1319 63.6857 21.1923ZM54.3899 20.7744L54.4778 20.9487C54.5168 21.0239 54.5372 21.1075 54.5372 21.1923V25.9083H58.6956V21.1923C58.6957 21.1075 58.7161 21.0239 58.755 20.9487L58.843 20.7744H54.3899ZM58.458 21.1923V25.6695H54.7748V21.1923C54.7749 21.1319 54.7677 21.0718 54.7534 21.0132H58.4794C58.4651 21.0718 58.4579 21.1319 58.458 21.1923ZM49.1621 20.7744L49.2501 20.9487C49.2891 21.0239 49.3094 21.1075 49.3095 21.1923V25.9083H53.4679V21.1923C53.468 21.1075 53.4883 21.0239 53.5273 20.9487L53.6153 20.7744H49.1621ZM53.2303 21.1923V25.6695H49.5471V21.1923C49.5472 21.1319 49.54 21.0718 49.5257 21.0132H53.2517C53.2374 21.0718 53.2302 21.1319 53.2303 21.1923ZM43.9344 20.7744L44.0224 20.9487C44.0613 21.0239 44.0817 21.1075 44.0818 21.1923V25.9083H48.2402V21.1923C48.2402 21.1075 48.2606 21.0239 48.2996 20.9487L48.3875 20.7744H43.9344ZM48.0026 21.1923V25.6695H44.3194V21.1923C44.3195 21.1319 44.3123 21.0718 44.298 21.0132H48.024C48.0097 21.0718 48.0025 21.1319 48.0026 21.1923ZM85.7562 20.7744L85.8441 20.9487C85.8831 21.0239 85.9035 21.1075 85.9036 21.1923V25.9083H90.062V21.1923C90.062 21.1075 90.0824 21.0239 90.1214 20.9487L90.2093 20.7744H85.7562ZM89.8243 21.1923V25.6695H86.1412V21.1923C86.1412 21.1319 86.1341 21.0718 86.1198 21.0132H89.8458C89.8315 21.0718 89.8243 21.1319 89.8243 21.1923ZM80.5285 20.7744L80.6164 20.9487C80.6554 21.0239 80.6758 21.1075 80.6758 21.1923V25.9083H84.8342V21.1923C84.8343 21.1075 84.8547 21.0239 84.8937 20.9487L84.9816 20.7744H80.5285ZM84.5966 21.1923V25.6695H80.9135V21.1923C80.9135 21.1319 80.9063 21.0718 80.892 21.0132H84.618C84.6037 21.0718 84.5966 21.1319 84.5966 21.1923ZM75.3008 20.7744L75.3887 20.9487C75.4277 21.0239 75.4481 21.1075 75.4481 21.1923V25.9083H79.6065V21.1923C79.6066 21.1075 79.627 21.0239 79.6659 20.9487L79.7539 20.7744H75.3008ZM79.3689 21.1923V25.6695H75.6857V21.1923C75.6858 21.1319 75.6786 21.0718 75.6643 21.0132H79.3903C79.376 21.0718 79.3688 21.1319 79.3689 21.1923ZM70.073 20.7744L70.161 20.9487C70.2 21.0239 70.2203 21.1075 70.2204 21.1923V25.9083H74.3788V21.1923C74.3789 21.1075 74.3992 21.0239 74.4382 20.9487L74.5262 20.7744H70.073ZM74.1412 21.1923V25.6695H70.458V21.1923C70.4581 21.1319 70.4509 21.0718 70.4366 21.0132H74.1626C74.1483 21.0718 74.1411 21.1319 74.1412 21.1923ZM64.8453 20.7744L64.9333 20.9487C64.9722 21.0239 64.9926 21.1075 64.9927 21.1923V25.9083H69.1511V21.1923C69.1511 21.1075 69.1715 21.0239 69.2105 20.9487L69.2984 20.7744H64.8453ZM68.9135 21.1923V25.6695H65.2303V21.1923C65.2304 21.1319 65.2232 21.0718 65.2089 21.0132H68.9349C68.9206 21.0718 68.9134 21.1319 68.9135 21.1923ZM59.6176 20.7744L59.7055 20.9487C59.7445 21.0239 59.7649 21.1075 59.7649 21.1923V25.9083H63.9234V21.1923C63.9234 21.1075 63.9438 21.0239 63.9828 20.9487L64.0707 20.7744H59.6176ZM63.6857 21.1923V25.6695H60.0026V21.1923C60.0026 21.1319 59.9954 21.0718 59.9812 21.0132H63.7071C63.6929 21.0718 63.6857 21.1319 63.6857 21.1923ZM54.3899 20.7744L54.4778 20.9487C54.5168 21.0239 54.5372 21.1075 54.5372 21.1923V25.9083H58.6956V21.1923C58.6957 21.1075 58.7161 21.0239 58.755 20.9487L58.843 20.7744H54.3899ZM58.458 21.1923V25.6695H54.7748V21.1923C54.7749 21.1319 54.7677 21.0718 54.7534 21.0132H58.4794C58.4651 21.0718 58.4579 21.1319 58.458 21.1923ZM49.1621 20.7744L49.2501 20.9487C49.2891 21.0239 49.3094 21.1075 49.3095 21.1923V25.9083H53.4679V21.1923C53.468 21.1075 53.4883 21.0239 53.5273 20.9487L53.6153 20.7744H49.1621ZM53.2303 21.1923V25.6695H49.5471V21.1923C49.5472 21.1319 49.54 21.0718 49.5257 21.0132H53.2517C53.2374 21.0718 53.2302 21.1319 53.2303 21.1923ZM43.9344 20.7744L44.0224 20.9487C44.0613 21.0239 44.0817 21.1075 44.0818 21.1923V25.9083H48.2402V21.1923C48.2402 21.1075 48.2606 21.0239 48.2996 20.9487L48.3875 20.7744H43.9344ZM48.0026 21.1923V25.6695H44.3194V21.1923C44.3195 21.1319 44.3123 21.0718 44.298 21.0132H48.024C48.0097 21.0718 48.0025 21.1319 48.0026 21.1923ZM85.7562 20.7744L85.8441 20.9487C85.8831 21.0239 85.9035 21.1075 85.9036 21.1923V25.9083H90.062V21.1923C90.062 21.1075 90.0824 21.0239 90.1214 20.9487L90.2093 20.7744H85.7562ZM89.8243 21.1923V25.6695H86.1412V21.1923C86.1412 21.1319 86.1341 21.0718 86.1198 21.0132H89.8458C89.8315 21.0718 89.8243 21.1319 89.8243 21.1923ZM80.5285 20.7744L80.6164 20.9487C80.6554 21.0239 80.6758 21.1075 80.6758 21.1923V25.9083H84.8342V21.1923C84.8343 21.1075 84.8547 21.0239 84.8937 20.9487L84.9816 20.7744H80.5285ZM84.5966 21.1923V25.6695H80.9135V21.1923C80.9135 21.1319 80.9063 21.0718 80.892 21.0132H84.618C84.6037 21.0718 84.5966 21.1319 84.5966 21.1923ZM75.3008 20.7744L75.3887 20.9487C75.4277 21.0239 75.4481 21.1075 75.4481 21.1923V25.9083H79.6065V21.1923C79.6066 21.1075 79.627 21.0239 79.6659 20.9487L79.7539 20.7744H75.3008ZM79.3689 21.1923V25.6695H75.6857V21.1923C75.6858 21.1319 75.6786 21.0718 75.6643 21.0132H79.3903C79.376 21.0718 79.3688 21.1319 79.3689 21.1923ZM70.073 20.7744L70.161 20.9487C70.2 21.0239 70.2203 21.1075 70.2204 21.1923V25.9083H74.3788V21.1923C74.3789 21.1075 74.3992 21.0239 74.4382 20.9487L74.5262 20.7744H70.073ZM74.1412 21.1923V25.6695H70.458V21.1923C70.4581 21.1319 70.4509 21.0718 70.4366 21.0132H74.1626C74.1483 21.0718 74.1411 21.1319 74.1412 21.1923ZM64.8453 20.7744L64.9333 20.9487C64.9722 21.0239 64.9926 21.1075 64.9927 21.1923V25.9083H69.1511V21.1923C69.1511 21.1075 69.1715 21.0239 69.2105 20.9487L69.2984 20.7744H64.8453ZM68.9135 21.1923V25.6695H65.2303V21.1923C65.2304 21.1319 65.2232 21.0718 65.2089 21.0132H68.9349C68.9206 21.0718 68.9134 21.1319 68.9135 21.1923ZM59.6176 20.7744L59.7055 20.9487C59.7445 21.0239 59.7649 21.1075 59.7649 21.1923V25.9083H63.9234V21.1923C63.9234 21.1075 63.9438 21.0239 63.9828 20.9487L64.0707 20.7744H59.6176ZM63.6857 21.1923V25.6695H60.0026V21.1923C60.0026 21.1319 59.9954 21.0718 59.9812 21.0132H63.7071C63.6929 21.0718 63.6857 21.1319 63.6857 21.1923ZM54.3899 20.7744L54.4778 20.9487C54.5168 21.0239 54.5372 21.1075 54.5372 21.1923V25.9083H58.6956V21.1923C58.6957 21.1075 58.7161 21.0239 58.755 20.9487L58.843 20.7744H54.3899ZM58.458 21.1923V25.6695H54.7748V21.1923C54.7749 21.1319 54.7677 21.0718 54.7534 21.0132H58.4794C58.4651 21.0718 58.4579 21.1319 58.458 21.1923ZM49.1621 20.7744L49.2501 20.9487C49.2891 21.0239 49.3094 21.1075 49.3095 21.1923V25.9083H53.4679V21.1923C53.468 21.1075 53.4883 21.0239 53.5273 20.9487L53.6153 20.7744H49.1621ZM53.2303 21.1923V25.6695H49.5471V21.1923C49.5472 21.1319 49.54 21.0718 49.5257 21.0132H53.2517C53.2374 21.0718 53.2302 21.1319 53.2303 21.1923ZM43.9344 20.7744L44.0224 20.9487C44.0613 21.0239 44.0817 21.1075 44.0818 21.1923V25.9083H48.2402V21.1923C48.2402 21.1075 48.2606 21.0239 48.2996 20.9487L48.3875 20.7744H43.9344ZM48.0026 21.1923V25.6695H44.3194V21.1923C44.3195 21.1319 44.3123 21.0718 44.298 21.0132H48.024C48.0097 21.0718 48.0025 21.1319 48.0026 21.1923ZM85.7562 20.7744L85.8441 20.9487C85.8831 21.0239 85.9035 21.1075 85.9036 21.1923V25.9083H90.062V21.1923C90.062 21.1075 90.0824 21.0239 90.1214 20.9487L90.2093 20.7744H85.7562ZM89.8243 21.1923V25.6695H86.1412V21.1923C86.1412 21.1319 86.1341 21.0718 86.1198 21.0132H89.8458C89.8315 21.0718 89.8243 21.1319 89.8243 21.1923ZM80.5285 20.7744L80.6164 20.9487C80.6554 21.0239 80.6758 21.1075 80.6758 21.1923V25.9083H84.8342V21.1923C84.8343 21.1075 84.8547 21.0239 84.8937 20.9487L84.9816 20.7744H80.5285ZM84.5966 21.1923V25.6695H80.9135V21.1923C80.9135 21.1319 80.9063 21.0718 80.892 21.0132H84.618C84.6037 21.0718 84.5966 21.1319 84.5966 21.1923ZM75.3008 20.7744L75.3887 20.9487C75.4277 21.0239 75.4481 21.1075 75.4481 21.1923V25.9083H79.6065V21.1923C79.6066 21.1075 79.627 21.0239 79.6659 20.9487L79.7539 20.7744H75.3008ZM79.3689 21.1923V25.6695H75.6857V21.1923C75.6858 21.1319 75.6786 21.0718 75.6643 21.0132H79.3903C79.376 21.0718 79.3688 21.1319 79.3689 21.1923ZM70.073 20.7744L70.161 20.9487C70.2 21.0239 70.2203 21.1075 70.2204 21.1923V25.9083H74.3788V21.1923C74.3789 21.1075 74.3992 21.0239 74.4382 20.9487L74.5262 20.7744H70.073ZM74.1412 21.1923V25.6695H70.458V21.1923C70.4581 21.1319 70.4509 21.0718 70.4366 21.0132H74.1626C74.1483 21.0718 74.1411 21.1319 74.1412 21.1923ZM64.8453 20.7744L64.9333 20.9487C64.9722 21.0239 64.9926 21.1075 64.9927 21.1923V25.9083H69.1511V21.1923C69.1511 21.1075 69.1715 21.0239 69.2105 20.9487L69.2984 20.7744H64.8453ZM68.9135 21.1923V25.6695H65.2303V21.1923C65.2304 21.1319 65.2232 21.0718 65.2089 21.0132H68.9349C68.9206 21.0718 68.9134 21.1319 68.9135 21.1923ZM59.6176 20.7744L59.7055 20.9487C59.7445 21.0239 59.7649 21.1075 59.7649 21.1923V25.9083H63.9234V21.1923C63.9234 21.1075 63.9438 21.0239 63.9828 20.9487L64.0707 20.7744H59.6176ZM63.6857 21.1923V25.6695H60.0026V21.1923C60.0026 21.1319 59.9954 21.0718 59.9812 21.0132H63.7071C63.6929 21.0718 63.6857 21.1319 63.6857 21.1923ZM54.3899 20.7744L54.4778 20.9487C54.5168 21.0239 54.5372 21.1075 54.5372 21.1923V25.9083H58.6956V21.1923C58.6957 21.1075 58.7161 21.0239 58.755 20.9487L58.843 20.7744H54.3899ZM58.458 21.1923V25.6695H54.7748V21.1923C54.7749 21.1319 54.7677 21.0718 54.7534 21.0132H58.4794C58.4651 21.0718 58.4579 21.1319 58.458 21.1923ZM49.1621 20.7744L49.2501 20.9487C49.2891 21.0239 49.3094 21.1075 49.3095 21.1923V25.9083H53.4679V21.1923C53.468 21.1075 53.4883 21.0239 53.5273 20.9487L53.6153 20.7744H49.1621ZM53.2303 21.1923V25.6695H49.5471V21.1923C49.5472 21.1319 49.54 21.0718 49.5257 21.0132H53.2517C53.2374 21.0718 53.2302 21.1319 53.2303 21.1923ZM43.9344 20.7744L44.0224 20.9487C44.0613 21.0239 44.0817 21.1075 44.0818 21.1923V25.9083H48.2402V21.1923C48.2402 21.1075 48.2606 21.0239 48.2996 20.9487L48.3875 20.7744H43.9344ZM48.0026 21.1923V25.6695H44.3194V21.1923C44.3195 21.1319 44.3123 21.0718 44.298 21.0132H48.024C48.0097 21.0718 48.0025 21.1319 48.0026 21.1923ZM85.7562 20.7744L85.8441 20.9487C85.8831 21.0239 85.9035 21.1075 85.9036 21.1923V25.9083H90.062V21.1923C90.062 21.1075 90.0824 21.0239 90.1214 20.9487L90.2093 20.7744H85.7562ZM89.8243 21.1923V25.6695H86.1412V21.1923C86.1412 21.1319 86.1341 21.0718 86.1198 21.0132H89.8458C89.8315 21.0718 89.8243 21.1319 89.8243 21.1923ZM80.6164 20.9487C80.6554 21.0239 80.6758 21.1075 80.6758 21.1923V25.9083H84.8342V21.1923C84.8343 21.1075 84.8547 21.0239 84.8937 20.9487L84.9816 20.7744H80.5285L80.6164 20.9487ZM84.618 21.0132C84.6037 21.0718 84.5966 21.1319 84.5966 21.1923V25.6695H80.9135V21.1923C80.9135 21.1319 80.9063 21.0718 80.892 21.0132H84.618ZM75.3887 20.9487C75.4277 21.0239 75.4481 21.1075 75.4481 21.1923V25.9083H79.6065V21.1923C79.6066 21.1075 79.627 21.0239 79.6659 20.9487L79.7539 20.7744H75.3008L75.3887 20.9487ZM79.3903 21.0132C79.376 21.0718 79.3688 21.1319 79.3689 21.1923V25.6695H75.6857V21.1923C75.6858 21.1319 75.6786 21.0718 75.6643 21.0132H79.3903ZM70.161 20.9487C70.2 21.0239 70.2203 21.1075 70.2204 21.1923V25.9083H74.3788V21.1923C74.3789 21.1075 74.3992 21.0239 74.4382 20.9487L74.5262 20.7744H70.073L70.161 20.9487ZM74.1626 21.0132C74.1483 21.0718 74.1411 21.1319 74.1412 21.1923V25.6695H70.458V21.1923C70.4581 21.1319 70.4509 21.0718 70.4366 21.0132H74.1626ZM64.9333 20.9487C64.9722 21.0239 64.9926 21.1075 64.9927 21.1923V25.9083H69.1511V21.1923C69.1511 21.1075 69.1715 21.0239 69.2105 20.9487L69.2984 20.7744H64.8453L64.9333 20.9487ZM68.9349 21.0132C68.9206 21.0718 68.9134 21.1319 68.9135 21.1923V25.6695H65.2303V21.1923C65.2304 21.1319 65.2232 21.0718 65.2089 21.0132H68.9349ZM59.7055 20.9487C59.7445 21.0239 59.7649 21.1075 59.7649 21.1923V25.9083H63.9234V21.1923C63.9234 21.1075 63.9438 21.0239 63.9828 20.9487L64.0707 20.7744H59.6176L59.7055 20.9487ZM63.7071 21.0132C63.6929 21.0718 63.6857 21.1319 63.6857 21.1923V25.6695H60.0026V21.1923C60.0026 21.1319 59.9954 21.0718 59.9812 21.0132H63.7071ZM54.4778 20.9487C54.5168 21.0239 54.5372 21.1075 54.5372 21.1923V25.9083H58.6956V21.1923C58.6957 21.1075 58.7161 21.0239 58.755 20.9487L58.843 20.7744H54.3899L54.4778 20.9487ZM58.4794 21.0132C58.4651 21.0718 58.4579 21.1319 58.458 21.1923V25.6695H54.7748V21.1923C54.7749 21.1319 54.7677 21.0718 54.7534 21.0132H58.4794ZM49.2501 20.9487C49.2891 21.0239 49.3094 21.1075 49.3095 21.1923V25.9083H53.4679V21.1923C53.468 21.1075 53.4883 21.0239 53.5273 20.9487L53.6153 20.7744H49.1621L49.2501 20.9487ZM53.2517 21.0132C53.2374 21.0718 53.2302 21.1319 53.2303 21.1923V25.6695H49.5471V21.1923C49.5472 21.1319 49.54 21.0718 49.5257 21.0132H53.2517ZM44.0224 20.9487C44.0613 21.0239 44.0817 21.1075 44.0818 21.1923V25.9083H48.2402V21.1923C48.2402 21.1075 48.2606 21.0239 48.2996 20.9487L48.3875 20.7744H43.9344L44.0224 20.9487ZM48.024 21.0132C48.0097 21.0718 48.0025 21.1319 48.0026 21.1923V25.6695H44.3194V21.1923C44.3195 21.1319 44.3123 21.0718 44.298 21.0132H48.024ZM85.8441 20.9487C85.8831 21.0239 85.9035 21.1075 85.9036 21.1923V25.9083H90.062V21.1923C90.062 21.1075 90.0824 21.0239 90.1214 20.9487L90.2093 20.7744H85.7562L85.8441 20.9487ZM89.8458 21.0132C89.8315 21.0718 89.8243 21.1319 89.8243 21.1923V25.6695H86.1412V21.1923C86.1412 21.1319 86.1341 21.0718 86.1198 21.0132H89.8458ZM80.6164 20.9487C80.6554 21.0239 80.6758 21.1075 80.6758 21.1923V25.9083H84.8342V21.1923C84.8343 21.1075 84.8547 21.0239 84.8937 20.9487L84.9816 20.7744H80.5285L80.6164 20.9487ZM84.618 21.0132C84.6037 21.0718 84.5966 21.1319 84.5966 21.1923V25.6695H80.9135V21.1923C80.9135 21.1319 80.9063 21.0718 80.892 21.0132H84.618ZM75.3887 20.9487C75.4277 21.0239 75.4481 21.1075 75.4481 21.1923V25.9083H79.6065V21.1923C79.6066 21.1075 79.627 21.0239 79.6659 20.9487L79.7539 20.7744H75.3008L75.3887 20.9487ZM79.3903 21.0132C79.376 21.0718 79.3688 21.1319 79.3689 21.1923V25.6695H75.6857V21.1923C75.6858 21.1319 75.6786 21.0718 75.6643 21.0132H79.3903ZM70.161 20.9487C70.2 21.0239 70.2203 21.1075 70.2204 21.1923V25.9083H74.3788V21.1923C74.3789 21.1075 74.3992 21.0239 74.4382 20.9487L74.5262 20.7744H70.073L70.161 20.9487ZM74.1626 21.0132C74.1483 21.0718 74.1411 21.1319 74.1412 21.1923V25.6695H70.458V21.1923C70.4581 21.1319 70.4509 21.0718 70.4366 21.0132H74.1626ZM64.9333 20.9487C64.9722 21.0239 64.9926 21.1075 64.9927 21.1923V25.9083H69.1511V21.1923C69.1511 21.1075 69.1715 21.0239 69.2105 20.9487L69.2984 20.7744H64.8453L64.9333 20.9487ZM68.9349 21.0132C68.9206 21.0718 68.9134 21.1319 68.9135 21.1923V25.6695H65.2303V21.1923C65.2304 21.1319 65.2232 21.0718 65.2089 21.0132H68.9349ZM59.7055 20.9487C59.7445 21.0239 59.7649 21.1075 59.7649 21.1923V25.9083H63.9234V21.1923C63.9234 21.1075 63.9438 21.0239 63.9828 20.9487L64.0707 20.7744H59.6176L59.7055 20.9487ZM63.7071 21.0132C63.6929 21.0718 63.6857 21.1319 63.6857 21.1923V25.6695H60.0026V21.1923C60.0026 21.1319 59.9954 21.0718 59.9812 21.0132H63.7071ZM54.4778 20.9487C54.5168 21.0239 54.5372 21.1075 54.5372 21.1923V25.9083H58.6956V21.1923C58.6957 21.1075 58.7161 21.0239 58.755 20.9487L58.843 20.7744H54.3899L54.4778 20.9487ZM58.4794 21.0132C58.4651 21.0718 58.4579 21.1319 58.458 21.1923V25.6695H54.7748V21.1923C54.7749 21.1319 54.7677 21.0718 54.7534 21.0132H58.4794ZM49.2501 20.9487C49.2891 21.0239 49.3094 21.1075 49.3095 21.1923V25.9083H53.4679V21.1923C53.468 21.1075 53.4883 21.0239 53.5273 20.9487L53.6153 20.7744H49.1621L49.2501 20.9487ZM53.2517 21.0132C53.2374 21.0718 53.2302 21.1319 53.2303 21.1923V25.6695H49.5471V21.1923C49.5472 21.1319 49.54 21.0718 49.5257 21.0132H53.2517ZM44.0224 20.9487C44.0613 21.0239 44.0817 21.1075 44.0818 21.1923V25.9083H48.2402V21.1923C48.2402 21.1075 48.2606 21.0239 48.2996 20.9487L48.3875 20.7744H43.9344L44.0224 20.9487ZM48.024 21.0132C48.0097 21.0718 48.0025 21.1319 48.0026 21.1923V25.6695H44.3194V21.1923C44.3195 21.1319 44.3123 21.0718 44.298 21.0132H48.024ZM94.8144 26.6246H93.3982C93.3201 26.35 93.1553 26.1083 92.9285 25.936C92.7018 25.7637 92.4254 25.6702 92.1412 25.6695H91.3689V21.1923C91.3692 21.0961 91.3511 21.0009 91.3154 20.9117C91.45 20.832 91.5548 20.71 91.6136 20.5646C91.6724 20.4191 91.6819 20.2583 91.6407 20.1069C91.5995 19.9554 91.5098 19.8218 91.3855 19.7267C91.2613 19.6316 91.1093 19.5802 90.9531 19.5804H43.1907C43.0344 19.5802 42.8825 19.6316 42.7582 19.7267C42.6339 19.8218 42.5442 19.9554 42.503 20.1068C42.4618 20.2583 42.4713 20.4191 42.5301 20.5646C42.5889 20.71 42.6937 20.832 42.8283 20.9117C42.7927 21.0009 42.7745 21.0961 42.7748 21.1923V25.6695H42.0026C41.7183 25.6702 41.442 25.7637 41.2152 25.936C40.9885 26.1083 40.8236 26.35 40.7455 26.6246H39.2105C38.927 26.6251 38.6553 26.7384 38.4548 26.9398C38.2544 27.1413 38.1416 27.4143 38.1412 27.6992V90.7388C38.1418 91.0236 38.2546 91.2965 38.455 91.4979C38.6554 91.6993 38.9271 91.8127 39.2105 91.8133H94.8144C95.0979 91.8129 95.3697 91.6995 95.5701 91.4981C95.7705 91.2967 95.8833 91.0236 95.8838 90.7388V27.6992C95.8833 27.4143 95.7705 27.1413 95.5701 26.9398C95.3696 26.7384 95.0979 26.6251 94.8144 26.6246ZM95.6461 90.7388C95.6459 90.9094 95.5938 91.0759 95.4968 91.2159C95.3997 91.3559 95.2624 91.4627 95.1032 91.522C95.011 91.5573 94.9131 91.5751 94.8144 91.5745H39.2105C39.1118 91.5751 39.0139 91.5573 38.9218 91.522C38.7626 91.4627 38.6252 91.3559 38.5282 91.2159C38.4311 91.0759 38.379 90.9094 38.3788 90.7388V27.6992C38.379 27.4776 38.4667 27.2652 38.6227 27.1085C38.7786 26.9518 38.99 26.8637 39.2105 26.8634H40.9356L40.9547 26.7679C41.0046 26.5255 41.136 26.3078 41.3268 26.1513C41.5177 25.9947 41.7562 25.9089 42.0026 25.9083H43.0125V21.1923C43.0125 21.0951 43.0388 20.9998 43.0885 20.9165L43.1621 20.7935L43.0279 20.7433C42.923 20.7051 42.8348 20.6309 42.779 20.5338C42.7232 20.4367 42.7032 20.3229 42.7227 20.2125C42.7421 20.1021 42.7997 20.0021 42.8853 19.9302C42.971 19.8582 43.0791 19.8189 43.1907 19.8192H90.953C91.0646 19.8189 91.1728 19.8582 91.2584 19.9302C91.344 20.0021 91.4016 20.1021 91.421 20.2125C91.4405 20.3229 91.4206 20.4367 91.3647 20.5338C91.3089 20.6309 91.2208 20.7051 91.1158 20.7433L90.9816 20.7935L91.0552 20.9165C91.105 20.9998 91.1313 21.0951 91.1313 21.1923V25.9083H92.1412C92.3875 25.9089 92.6261 25.9947 92.8169 26.1513C93.0077 26.3078 93.1391 26.5255 93.1891 26.7679L93.2081 26.8634H94.8144C95.0349 26.8637 95.2463 26.9518 95.4023 27.1085C95.5582 27.2652 95.6459 27.4776 95.6461 27.6992L95.6461 90.7388ZM43.9344 20.7744L44.0224 20.9487C44.0613 21.0239 44.0817 21.1075 44.0818 21.1923V25.9083H48.2402V21.1923C48.2402 21.1075 48.2606 21.0239 48.2996 20.9487L48.3875 20.7744H43.9344ZM48.0026 21.1923V25.6695H44.3194V21.1923C44.3195 21.1319 44.3123 21.0718 44.298 21.0132H48.024C48.0097 21.0718 48.0025 21.1319 48.0026 21.1923ZM49.1621 20.7744L49.2501 20.9487C49.2891 21.0239 49.3094 21.1075 49.3095 21.1923V25.9083H53.4679V21.1923C53.468 21.1075 53.4883 21.0239 53.5273 20.9487L53.6153 20.7744H49.1621ZM53.2303 21.1923V25.6695H49.5471V21.1923C49.5472 21.1319 49.54 21.0718 49.5257 21.0132H53.2517C53.2374 21.0718 53.2302 21.1319 53.2303 21.1923ZM54.3899 20.7744L54.4778 20.9487C54.5168 21.0239 54.5372 21.1075 54.5372 21.1923V25.9083H58.6956V21.1923C58.6957 21.1075 58.7161 21.0239 58.755 20.9487L58.843 20.7744H54.3899ZM58.458 21.1923V25.6695H54.7748V21.1923C54.7749 21.1319 54.7677 21.0718 54.7534 21.0132H58.4794C58.4651 21.0718 58.4579 21.1319 58.458 21.1923ZM59.6176 20.7744L59.7055 20.9487C59.7445 21.0239 59.7649 21.1075 59.7649 21.1923V25.9083H63.9234V21.1923C63.9234 21.1075 63.9438 21.0239 63.9828 20.9487L64.0707 20.7744H59.6176ZM63.6857 21.1923V25.6695H60.0026V21.1923C60.0026 21.1319 59.9954 21.0718 59.9812 21.0132H63.7071C63.6929 21.0718 63.6857 21.1319 63.6857 21.1923ZM64.8453 20.7744L64.9333 20.9487C64.9722 21.0239 64.9926 21.1075 64.9927 21.1923V25.9083H69.1511V21.1923C69.1511 21.1075 69.1715 21.0239 69.2105 20.9487L69.2984 20.7744H64.8453ZM68.9135 21.1923V25.6695H65.2303V21.1923C65.2304 21.1319 65.2232 21.0718 65.2089 21.0132H68.9349C68.9206 21.0718 68.9134 21.1319 68.9135 21.1923ZM70.073 20.7744L70.161 20.9487C70.2 21.0239 70.2203 21.1075 70.2204 21.1923V25.9083H74.3788V21.1923C74.3789 21.1075 74.3992 21.0239 74.4382 20.9487L74.5262 20.7744H70.073ZM74.1412 21.1923V25.6695H70.458V21.1923C70.4581 21.1319 70.4509 21.0718 70.4366 21.0132H74.1626C74.1483 21.0718 74.1411 21.1319 74.1412 21.1923ZM75.3008 20.7744L75.3887 20.9487C75.4277 21.0239 75.4481 21.1075 75.4481 21.1923V25.9083H79.6065V21.1923C79.6066 21.1075 79.627 21.0239 79.6659 20.9487L79.7539 20.7744H75.3008ZM79.3689 21.1923V25.6695H75.6857V21.1923C75.6858 21.1319 75.6786 21.0718 75.6643 21.0132H79.3903C79.376 21.0718 79.3688 21.1319 79.3689 21.1923ZM80.5285 20.7744L80.6164 20.9487C80.6554 21.0239 80.6758 21.1075 80.6758 21.1923V25.9083H84.8342V21.1923C84.8343 21.1075 84.8547 21.0239 84.8937 20.9487L84.9816 20.7744H80.5285ZM84.5966 21.1923V25.6695H80.9135V21.1923C80.9135 21.1319 80.9063 21.0718 80.892 21.0132H84.618C84.6037 21.0718 84.5966 21.1319 84.5966 21.1923ZM85.7562 20.7744L85.8441 20.9487C85.8831 21.0239 85.9035 21.1075 85.9036 21.1923V25.9083H90.062V21.1923C90.062 21.1075 90.0824 21.0239 90.1214 20.9487L90.2093 20.7744H85.7562ZM89.8243 21.1923V25.6695H86.1412V21.1923C86.1412 21.1319 86.1341 21.0718 86.1198 21.0132H89.8458C89.8315 21.0718 89.8243 21.1319 89.8243 21.1923ZM43.9344 20.7744L44.0224 20.9487C44.0613 21.0239 44.0817 21.1075 44.0818 21.1923V25.9083H48.2402V21.1923C48.2402 21.1075 48.2606 21.0239 48.2996 20.9487L48.3875 20.7744H43.9344ZM48.0026 21.1923V25.6695H44.3194V21.1923C44.3195 21.1319 44.3123 21.0718 44.298 21.0132H48.024C48.0097 21.0718 48.0025 21.1319 48.0026 21.1923ZM49.1621 20.7744L49.2501 20.9487C49.2891 21.0239 49.3094 21.1075 49.3095 21.1923V25.9083H53.4679V21.1923C53.468 21.1075 53.4883 21.0239 53.5273 20.9487L53.6153 20.7744H49.1621ZM53.2303 21.1923V25.6695H49.5471V21.1923C49.5472 21.1319 49.54 21.0718 49.5257 21.0132H53.2517C53.2374 21.0718 53.2302 21.1319 53.2303 21.1923ZM54.3899 20.7744L54.4778 20.9487C54.5168 21.0239 54.5372 21.1075 54.5372 21.1923V25.9083H58.6956V21.1923C58.6957 21.1075 58.7161 21.0239 58.755 20.9487L58.843 20.7744H54.3899ZM58.458 21.1923V25.6695H54.7748V21.1923C54.7749 21.1319 54.7677 21.0718 54.7534 21.0132H58.4794C58.4651 21.0718 58.4579 21.1319 58.458 21.1923ZM59.6176 20.7744L59.7055 20.9487C59.7445 21.0239 59.7649 21.1075 59.7649 21.1923V25.9083H63.9234V21.1923C63.9234 21.1075 63.9438 21.0239 63.9828 20.9487L64.0707 20.7744H59.6176ZM63.6857 21.1923V25.6695H60.0026V21.1923C60.0026 21.1319 59.9954 21.0718 59.9812 21.0132H63.7071C63.6929 21.0718 63.6857 21.1319 63.6857 21.1923ZM64.8453 20.7744L64.9333 20.9487C64.9722 21.0239 64.9926 21.1075 64.9927 21.1923V25.9083H69.1511V21.1923C69.1511 21.1075 69.1715 21.0239 69.2105 20.9487L69.2984 20.7744H64.8453ZM68.9135 21.1923V25.6695H65.2303V21.1923C65.2304 21.1319 65.2232 21.0718 65.2089 21.0132H68.9349C68.9206 21.0718 68.9134 21.1319 68.9135 21.1923ZM70.073 20.7744L70.161 20.9487C70.2 21.0239 70.2203 21.1075 70.2204 21.1923V25.9083H74.3788V21.1923C74.3789 21.1075 74.3992 21.0239 74.4382 20.9487L74.5262 20.7744H70.073ZM74.1412 21.1923V25.6695H70.458V21.1923C70.4581 21.1319 70.4509 21.0718 70.4366 21.0132H74.1626C74.1483 21.0718 74.1411 21.1319 74.1412 21.1923ZM75.3008 20.7744L75.3887 20.9487C75.4277 21.0239 75.4481 21.1075 75.4481 21.1923V25.9083H79.6065V21.1923C79.6066 21.1075 79.627 21.0239 79.6659 20.9487L79.7539 20.7744H75.3008ZM79.3689 21.1923V25.6695H75.6857V21.1923C75.6858 21.1319 75.6786 21.0718 75.6643 21.0132H79.3903C79.376 21.0718 79.3688 21.1319 79.3689 21.1923ZM80.5285 20.7744L80.6164 20.9487C80.6554 21.0239 80.6758 21.1075 80.6758 21.1923V25.9083H84.8342V21.1923C84.8343 21.1075 84.8547 21.0239 84.8937 20.9487L84.9816 20.7744H80.5285ZM84.5966 21.1923V25.6695H80.9135V21.1923C80.9135 21.1319 80.9063 21.0718 80.892 21.0132H84.618C84.6037 21.0718 84.5966 21.1319 84.5966 21.1923ZM85.7562 20.7744L85.8441 20.9487C85.8831 21.0239 85.9035 21.1075 85.9036 21.1923V25.9083H90.062V21.1923C90.062 21.1075 90.0824 21.0239 90.1214 20.9487L90.2093 20.7744H85.7562ZM89.8243 21.1923V25.6695H86.1412V21.1923C86.1412 21.1319 86.1341 21.0718 86.1198 21.0132H89.8458C89.8315 21.0718 89.8243 21.1319 89.8243 21.1923ZM43.9344 20.7744L44.0224 20.9487C44.0613 21.0239 44.0817 21.1075 44.0818 21.1923V25.9083H48.2402V21.1923C48.2402 21.1075 48.2606 21.0239 48.2996 20.9487L48.3875 20.7744H43.9344ZM48.0026 21.1923V25.6695H44.3194V21.1923C44.3195 21.1319 44.3123 21.0718 44.298 21.0132H48.024C48.0097 21.0718 48.0025 21.1319 48.0026 21.1923ZM49.1621 20.7744L49.2501 20.9487C49.2891 21.0239 49.3094 21.1075 49.3095 21.1923V25.9083H53.4679V21.1923C53.468 21.1075 53.4883 21.0239 53.5273 20.9487L53.6153 20.7744H49.1621ZM53.2303 21.1923V25.6695H49.5471V21.1923C49.5472 21.1319 49.54 21.0718 49.5257 21.0132H53.2517C53.2374 21.0718 53.2302 21.1319 53.2303 21.1923ZM54.3899 20.7744L54.4778 20.9487C54.5168 21.0239 54.5372 21.1075 54.5372 21.1923V25.9083H58.6956V21.1923C58.6957 21.1075 58.7161 21.0239 58.755 20.9487L58.843 20.7744H54.3899ZM58.458 21.1923V25.6695H54.7748V21.1923C54.7749 21.1319 54.7677 21.0718 54.7534 21.0132H58.4794C58.4651 21.0718 58.4579 21.1319 58.458 21.1923ZM59.6176 20.7744L59.7055 20.9487C59.7445 21.0239 59.7649 21.1075 59.7649 21.1923V25.9083H63.9234V21.1923C63.9234 21.1075 63.9438 21.0239 63.9828 20.9487L64.0707 20.7744H59.6176ZM63.6857 21.1923V25.6695H60.0026V21.1923C60.0026 21.1319 59.9954 21.0718 59.9812 21.0132H63.7071C63.6929 21.0718 63.6857 21.1319 63.6857 21.1923ZM64.8453 20.7744L64.9333 20.9487C64.9722 21.0239 64.9926 21.1075 64.9927 21.1923V25.9083H69.1511V21.1923C69.1511 21.1075 69.1715 21.0239 69.2105 20.9487L69.2984 20.7744H64.8453ZM68.9135 21.1923V25.6695H65.2303V21.1923C65.2304 21.1319 65.2232 21.0718 65.2089 21.0132H68.9349C68.9206 21.0718 68.9134 21.1319 68.9135 21.1923ZM70.073 20.7744L70.161 20.9487C70.2 21.0239 70.2203 21.1075 70.2204 21.1923V25.9083H74.3788V21.1923C74.3789 21.1075 74.3992 21.0239 74.4382 20.9487L74.5262 20.7744H70.073ZM74.1412 21.1923V25.6695H70.458V21.1923C70.4581 21.1319 70.4509 21.0718 70.4366 21.0132H74.1626C74.1483 21.0718 74.1411 21.1319 74.1412 21.1923ZM75.3008 20.7744L75.3887 20.9487C75.4277 21.0239 75.4481 21.1075 75.4481 21.1923V25.9083H79.6065V21.1923C79.6066 21.1075 79.627 21.0239 79.6659 20.9487L79.7539 20.7744H75.3008ZM79.3689 21.1923V25.6695H75.6857V21.1923C75.6858 21.1319 75.6786 21.0718 75.6643 21.0132H79.3903C79.376 21.0718 79.3688 21.1319 79.3689 21.1923ZM80.5285 20.7744L80.6164 20.9487C80.6554 21.0239 80.6758 21.1075 80.6758 21.1923V25.9083H84.8342V21.1923C84.8343 21.1075 84.8547 21.0239 84.8937 20.9487L84.9816 20.7744H80.5285ZM84.5966 21.1923V25.6695H80.9135V21.1923C80.9135 21.1319 80.9063 21.0718 80.892 21.0132H84.618C84.6037 21.0718 84.5966 21.1319 84.5966 21.1923ZM85.7562 20.7744L85.8441 20.9487C85.8831 21.0239 85.9035 21.1075 85.9036 21.1923V25.9083H90.062V21.1923C90.062 21.1075 90.0824 21.0239 90.1214 20.9487L90.2093 20.7744H85.7562ZM89.8243 21.1923V25.6695H86.1412V21.1923C86.1412 21.1319 86.1341 21.0718 86.1198 21.0132H89.8458C89.8315 21.0718 89.8243 21.1319 89.8243 21.1923ZM43.9344 20.7744L44.0224 20.9487C44.0613 21.0239 44.0817 21.1075 44.0818 21.1923V25.9083H48.2402V21.1923C48.2402 21.1075 48.2606 21.0239 48.2996 20.9487L48.3875 20.7744H43.9344ZM48.0026 21.1923V25.6695H44.3194V21.1923C44.3195 21.1319 44.3123 21.0718 44.298 21.0132H48.024C48.0097 21.0718 48.0025 21.1319 48.0026 21.1923ZM49.1621 20.7744L49.2501 20.9487C49.2891 21.0239 49.3094 21.1075 49.3095 21.1923V25.9083H53.4679V21.1923C53.468 21.1075 53.4883 21.0239 53.5273 20.9487L53.6153 20.7744H49.1621ZM53.2303 21.1923V25.6695H49.5471V21.1923C49.5472 21.1319 49.54 21.0718 49.5257 21.0132H53.2517C53.2374 21.0718 53.2302 21.1319 53.2303 21.1923ZM54.3899 20.7744L54.4778 20.9487C54.5168 21.0239 54.5372 21.1075 54.5372 21.1923V25.9083H58.6956V21.1923C58.6957 21.1075 58.7161 21.0239 58.755 20.9487L58.843 20.7744H54.3899ZM58.458 21.1923V25.6695H54.7748V21.1923C54.7749 21.1319 54.7677 21.0718 54.7534 21.0132H58.4794C58.4651 21.0718 58.4579 21.1319 58.458 21.1923ZM59.6176 20.7744L59.7055 20.9487C59.7445 21.0239 59.7649 21.1075 59.7649 21.1923V25.9083H63.9234V21.1923C63.9234 21.1075 63.9438 21.0239 63.9828 20.9487L64.0707 20.7744H59.6176ZM63.6857 21.1923V25.6695H60.0026V21.1923C60.0026 21.1319 59.9954 21.0718 59.9812 21.0132H63.7071C63.6929 21.0718 63.6857 21.1319 63.6857 21.1923ZM64.8453 20.7744L64.9333 20.9487C64.9722 21.0239 64.9926 21.1075 64.9927 21.1923V25.9083H69.1511V21.1923C69.1511 21.1075 69.1715 21.0239 69.2105 20.9487L69.2984 20.7744H64.8453ZM68.9135 21.1923V25.6695H65.2303V21.1923C65.2304 21.1319 65.2232 21.0718 65.2089 21.0132H68.9349C68.9206 21.0718 68.9134 21.1319 68.9135 21.1923ZM70.073 20.7744L70.161 20.9487C70.2 21.0239 70.2203 21.1075 70.2204 21.1923V25.9083H74.3788V21.1923C74.3789 21.1075 74.3992 21.0239 74.4382 20.9487L74.5262 20.7744H70.073ZM74.1412 21.1923V25.6695H70.458V21.1923C70.4581 21.1319 70.4509 21.0718 70.4366 21.0132H74.1626C74.1483 21.0718 74.1411 21.1319 74.1412 21.1923ZM75.3008 20.7744L75.3887 20.9487C75.4277 21.0239 75.4481 21.1075 75.4481 21.1923V25.9083H79.6065V21.1923C79.6066 21.1075 79.627 21.0239 79.6659 20.9487L79.7539 20.7744H75.3008ZM79.3689 21.1923V25.6695H75.6857V21.1923C75.6858 21.1319 75.6786 21.0718 75.6643 21.0132H79.3903C79.376 21.0718 79.3688 21.1319 79.3689 21.1923ZM80.5285 20.7744L80.6164 20.9487C80.6554 21.0239 80.6758 21.1075 80.6758 21.1923V25.9083H84.8342V21.1923C84.8343 21.1075 84.8547 21.0239 84.8937 20.9487L84.9816 20.7744H80.5285ZM84.5966 21.1923V25.6695H80.9135V21.1923C80.9135 21.1319 80.9063 21.0718 80.892 21.0132H84.618C84.6037 21.0718 84.5966 21.1319 84.5966 21.1923ZM85.7562 20.7744L85.8441 20.9487C85.8831 21.0239 85.9035 21.1075 85.9036 21.1923V25.9083H90.062V21.1923C90.062 21.1075 90.0824 21.0239 90.1214 20.9487L90.2093 20.7744H85.7562ZM89.8243 21.1923V25.6695H86.1412V21.1923C86.1412 21.1319 86.1341 21.0718 86.1198 21.0132H89.8458C89.8315 21.0718 89.8243 21.1319 89.8243 21.1923Z" fill="#3F3D56"/>
<path d="M58.0602 41.6682H49.2987C49.1141 41.6679 48.9372 41.5942 48.8067 41.4631C48.6763 41.3319 48.6029 41.1542 48.6027 40.9687V36.2785C48.6029 36.0931 48.6763 35.9153 48.8067 35.7842C48.9372 35.6531 49.1141 35.5793 49.2987 35.5791H58.0602C58.2448 35.5793 58.4217 35.6531 58.5522 35.7842C58.6827 35.9153 58.7561 36.0931 58.7563 36.2785V40.9687C58.7561 41.1542 58.6827 41.3319 58.5522 41.4631C58.4217 41.5942 58.2448 41.6679 58.0602 41.6682Z" fill="#E9C46A"/>
<path d="M71.3933 41.6682H62.6317C62.4472 41.6679 62.2702 41.5942 62.1398 41.4631C62.0093 41.3319 61.9359 41.1542 61.9357 40.9687V36.2785C61.9359 36.0931 62.0093 35.9153 62.1398 35.7842C62.2702 35.6531 62.4472 35.5793 62.6317 35.5791H71.3933C71.5778 35.5793 71.7547 35.6531 71.8852 35.7842C72.0157 35.9153 72.0891 36.0931 72.0893 36.2785V40.9687C72.0891 41.1542 72.0157 41.3319 71.8852 41.4631C71.7547 41.5942 71.5778 41.6679 71.3933 41.6682Z" fill="#E9C46A"/>
<path d="M84.7263 41.6682H75.9647C75.7802 41.6679 75.6032 41.5942 75.4728 41.4631C75.3423 41.3319 75.2689 41.1542 75.2687 40.9687V36.2785C75.2689 36.0931 75.3423 35.9153 75.4728 35.7842C75.6032 35.6531 75.7802 35.5793 75.9647 35.5791H84.7263C84.9108 35.5793 85.0877 35.6531 85.2182 35.7842C85.3487 35.9153 85.4221 36.0931 85.4223 36.2785V40.9687C85.4221 41.1542 85.3487 41.3319 85.2182 41.4631C85.0877 41.5942 84.9108 41.6679 84.7263 41.6682Z" fill="#E9C46A"/>
<path d="M58.0602 57.3087H49.2987C49.1141 57.3084 48.9372 57.2347 48.8067 57.1036C48.6763 56.9725 48.6029 56.7947 48.6027 56.6092V51.919C48.6029 51.7336 48.6763 51.5558 48.8067 51.4247C48.9372 51.2936 49.1141 51.2198 49.2987 51.2196H58.0602C58.2448 51.2198 58.4217 51.2936 58.5522 51.4247C58.6827 51.5558 58.7561 51.7336 58.7563 51.919V56.6092C58.7561 56.7947 58.6827 56.9725 58.5522 57.1036C58.4217 57.2347 58.2448 57.3084 58.0602 57.3087Z" fill="#E9C46A"/>
<path d="M71.3933 57.3087H62.6317C62.4472 57.3084 62.2702 57.2347 62.1398 57.1036C62.0093 56.9725 61.9359 56.7947 61.9357 56.6092V51.919C61.9359 51.7336 62.0093 51.5558 62.1398 51.4247C62.2702 51.2936 62.4472 51.2198 62.6317 51.2196H71.3933C71.5778 51.2198 71.7547 51.2936 71.8852 51.4247C72.0157 51.5558 72.0891 51.7336 72.0893 51.919V56.6092C72.0891 56.7947 72.0157 56.9725 71.8852 57.1036C71.7547 57.2347 71.5778 57.3084 71.3933 57.3087Z" fill="#E9C46A"/>
<path d="M84.7263 57.3087H75.9647C75.7802 57.3084 75.6032 57.2347 75.4728 57.1036C75.3423 56.9725 75.2689 56.7947 75.2687 56.6092V51.919C75.2689 51.7336 75.3423 51.5558 75.4728 51.4247C75.6032 51.2936 75.7802 51.2198 75.9647 51.2196H84.7263C84.9108 51.2198 85.0877 51.2936 85.2182 51.4247C85.3487 51.5558 85.4221 51.7336 85.4223 51.919V56.6092C85.4221 56.7947 85.3487 56.9725 85.2182 57.1036C85.0877 57.2347 84.9108 57.3084 84.7263 57.3087Z" fill="#E9C46A"/>
<path d="M58.0602 72.9492H49.2987C49.1141 72.9489 48.9372 72.8752 48.8067 72.7441C48.6763 72.613 48.6029 72.4352 48.6027 72.2497V67.5595C48.6029 67.3741 48.6763 67.1963 48.8067 67.0652C48.9372 66.9341 49.1141 66.8603 49.2987 66.8601H58.0602C58.2448 66.8603 58.4217 66.9341 58.5522 67.0652C58.6827 67.1963 58.7561 67.3741 58.7563 67.5595V72.2497C58.7561 72.4352 58.6827 72.613 58.5522 72.7441C58.4217 72.8752 58.2448 72.949 58.0602 72.9492Z" fill="#E9C46A"/>
<path d="M71.3933 72.9492H62.6317C62.4472 72.9489 62.2702 72.8752 62.1398 72.7441C62.0093 72.613 61.9359 72.4352 61.9357 72.2497V67.5595C61.9359 67.3741 62.0093 67.1963 62.1398 67.0652C62.2702 66.9341 62.4472 66.8603 62.6317 66.8601H71.3933C71.5778 66.8603 71.7547 66.9341 71.8852 67.0652C72.0157 67.1963 72.0891 67.3741 72.0893 67.5595V72.2497C72.0891 72.4352 72.0157 72.613 71.8852 72.7441C71.7547 72.8752 71.5778 72.949 71.3933 72.9492Z" fill="#E9C46A"/>
<path d="M84.7263 72.9492H75.9647C75.7802 72.9489 75.6032 72.8752 75.4728 72.7441C75.3423 72.613 75.2689 72.4352 75.2687 72.2497V67.5595C75.2689 67.3741 75.3423 67.1963 75.4728 67.0652C75.6032 66.9341 75.7802 66.8603 75.9647 66.8601H84.7263C84.9108 66.8603 85.0877 66.9341 85.2182 67.0652C85.3487 67.1963 85.4221 67.3741 85.4223 67.5595V72.2497C85.4221 72.4352 85.3487 72.613 85.2182 72.7441C85.0877 72.8752 84.9108 72.949 84.7263 72.9492Z" fill="#E9C46A"/>
<path d="M56.6418 42.27H46.4921C46.2468 42.2697 46.0116 42.1716 45.8382 41.9973C45.6648 41.8231 45.5672 41.5868 45.567 41.3403V35.907C45.5672 35.6605 45.6648 35.4242 45.8382 35.2499C46.0116 35.0756 46.2468 34.9776 46.4921 34.9773H56.6418C56.8871 34.9776 57.1223 35.0756 57.2957 35.2499C57.4691 35.4242 57.5667 35.6605 57.567 35.907V41.3403C57.5667 41.5868 57.4691 41.8231 57.2957 41.9973C57.1223 42.1716 56.8871 42.2697 56.6418 42.27ZM46.4921 35.2161C46.3098 35.2163 46.135 35.2892 46.0062 35.4187C45.8773 35.5482 45.8048 35.7238 45.8046 35.907V41.3403C45.8048 41.5234 45.8773 41.6991 46.0062 41.8286C46.135 41.9581 46.3098 42.031 46.4921 42.0312H56.6418C56.8241 42.031 56.9989 41.9581 57.1278 41.8286C57.2566 41.6991 57.3291 41.5235 57.3293 41.3403V35.907C57.3291 35.7238 57.2566 35.5482 57.1278 35.4187C56.9989 35.2891 56.8241 35.2163 56.6418 35.2161H46.4921Z" fill="#3F3D56"/>
<path d="M72.0873 42.27H61.9376C61.6923 42.2697 61.4571 42.1716 61.2837 41.9973C61.1103 41.8231 61.0127 41.5868 61.0125 41.3403V35.907C61.0127 35.6605 61.1103 35.4242 61.2837 35.2499C61.4571 35.0756 61.6923 34.9776 61.9376 34.9773H72.0873C72.3326 34.9776 72.5678 35.0756 72.7412 35.2499C72.9146 35.4242 73.0122 35.6605 73.0125 35.907V41.3403C73.0122 41.5868 72.9146 41.8231 72.7412 41.9973C72.5678 42.1716 72.3326 42.2697 72.0873 42.27ZM61.9376 35.2161C61.7553 35.2163 61.5805 35.2891 61.4517 35.4187C61.3228 35.5482 61.2503 35.7238 61.2501 35.907V41.3403C61.2503 41.5235 61.3228 41.6991 61.4517 41.8286C61.5805 41.9581 61.7553 42.031 61.9376 42.0312H72.0873C72.2696 42.031 72.4444 41.9581 72.5733 41.8286C72.7021 41.6991 72.7746 41.5235 72.7748 41.3403V35.907C72.7746 35.7238 72.7021 35.5482 72.5733 35.4187C72.4444 35.2891 72.2696 35.2163 72.0873 35.2161H61.9376Z" fill="#3F3D56"/>
<path d="M87.5329 42.27H77.3831C77.1378 42.2697 76.9027 42.1716 76.7293 41.9973C76.5558 41.8231 76.4583 41.5868 76.458 41.3403V35.907C76.4583 35.6605 76.5558 35.4242 76.7293 35.2499C76.9027 35.0756 77.1378 34.9776 77.3831 34.9773H87.5329C87.7782 34.9776 88.0133 35.0756 88.1868 35.2499C88.3602 35.4242 88.4577 35.6605 88.458 35.907V41.3403C88.4577 41.5868 88.3602 41.8231 88.1868 41.9973C88.0133 42.1716 87.7782 42.2697 87.5329 42.27ZM77.3831 35.2161C77.2008 35.2163 77.0261 35.2891 76.8972 35.4187C76.7683 35.5482 76.6958 35.7238 76.6956 35.907V41.3403C76.6958 41.5235 76.7683 41.6991 76.8972 41.8286C77.0261 41.9581 77.2008 42.031 77.3831 42.0312H87.5329C87.7152 42.031 87.8899 41.9581 88.0188 41.8286C88.1477 41.6991 88.2202 41.5235 88.2204 41.3403V35.907C88.2202 35.7238 88.1477 35.5482 88.0188 35.4187C87.8899 35.2891 87.7152 35.2163 87.5329 35.2161H77.3831Z" fill="#3F3D56"/>
<path d="M56.6418 57.9106H46.4921C46.2468 57.9103 46.0116 57.8123 45.8382 57.638C45.6648 57.4637 45.5672 57.2274 45.567 56.9809V51.5476C45.5672 51.3011 45.6648 51.0648 45.8382 50.8905C46.0116 50.7162 46.2468 50.6182 46.4921 50.6179H56.6418C56.8871 50.6182 57.1223 50.7162 57.2957 50.8905C57.4691 51.0648 57.5667 51.3011 57.567 51.5476V56.9809C57.5667 57.2274 57.4691 57.4637 57.2957 57.638C57.1223 57.8123 56.8871 57.9103 56.6418 57.9106ZM46.4921 50.8567C46.3098 50.8569 46.135 50.9298 46.0062 51.0593C45.8773 51.1888 45.8048 51.3644 45.8046 51.5476V56.9809C45.8048 57.1641 45.8773 57.3397 46.0062 57.4692C46.135 57.5987 46.3098 57.6716 46.4921 57.6718H56.6418C56.8241 57.6716 56.9989 57.5987 57.1278 57.4692C57.2566 57.3397 57.3291 57.1641 57.3293 56.9809V51.5476C57.3291 51.3644 57.2566 51.1888 57.1278 51.0593C56.9989 50.9298 56.8241 50.8569 56.6418 50.8567H46.4921Z" fill="#3F3D56"/>
<path d="M72.0873 57.9106H61.9376C61.6923 57.9103 61.4571 57.8123 61.2837 57.638C61.1103 57.4637 61.0127 57.2274 61.0125 56.9809V51.5476C61.0127 51.3011 61.1103 51.0648 61.2837 50.8905C61.4571 50.7162 61.6923 50.6182 61.9376 50.6179H72.0873C72.3326 50.6182 72.5678 50.7162 72.7412 50.8905C72.9146 51.0648 73.0122 51.3011 73.0125 51.5476V56.9809C73.0122 57.2274 72.9146 57.4637 72.7412 57.638C72.5678 57.8123 72.3326 57.9103 72.0873 57.9106ZM61.9376 50.8567C61.7553 50.8569 61.5805 50.9298 61.4517 51.0593C61.3228 51.1888 61.2503 51.3644 61.2501 51.5476V56.9809C61.2503 57.1641 61.3228 57.3397 61.4517 57.4692C61.5805 57.5987 61.7553 57.6716 61.9376 57.6718H72.0873C72.2696 57.6716 72.4444 57.5987 72.5733 57.4692C72.7021 57.3397 72.7746 57.1641 72.7748 56.9809V51.5476C72.7746 51.3644 72.7021 51.1888 72.5733 51.0593C72.4444 50.9298 72.2696 50.8569 72.0873 50.8567H61.9376Z" fill="#3F3D56"/>
<path d="M87.5329 57.9106H77.3831C77.1378 57.9103 76.9027 57.8123 76.7293 57.638C76.5558 57.4637 76.4583 57.2274 76.458 56.9809V51.5476C76.4583 51.3011 76.5558 51.0648 76.7293 50.8905C76.9027 50.7162 77.1378 50.6182 77.3831 50.6179H87.5329C87.7782 50.6182 88.0133 50.7162 88.1868 50.8905C88.3602 51.0648 88.4577 51.3011 88.458 51.5476V56.9809C88.4577 57.2274 88.3602 57.4637 88.1868 57.638C88.0133 57.8123 87.7782 57.9103 87.5329 57.9106ZM77.3831 50.8567C77.2008 50.8569 77.0261 50.9298 76.8972 51.0593C76.7683 51.1888 76.6958 51.3644 76.6956 51.5476V56.9809C76.6958 57.1641 76.7683 57.3397 76.8972 57.4692C77.0261 57.5987 77.2008 57.6716 77.3831 57.6718H87.5329C87.7152 57.6716 87.8899 57.5987 88.0188 57.4692C88.1477 57.3397 88.2202 57.1641 88.2204 56.9809V51.5476C88.2202 51.3644 88.1477 51.1888 88.0188 51.0593C87.8899 50.9298 87.7152 50.8569 87.5329 50.8567H77.3831Z" fill="#3F3D56"/>
<path d="M56.6418 73.551H46.4921C46.2468 73.5507 46.0116 73.4526 45.8382 73.2783C45.6648 73.1041 45.5672 72.8678 45.567 72.6213V67.188C45.5672 66.9415 45.6648 66.7052 45.8382 66.5309C46.0116 66.3566 46.2468 66.2586 46.4921 66.2583H56.6418C56.8871 66.2586 57.1223 66.3566 57.2957 66.5309C57.4691 66.7052 57.5667 66.9415 57.567 67.188V72.6213C57.5667 72.8678 57.4691 73.1041 57.2957 73.2784C57.1223 73.4526 56.8871 73.5507 56.6418 73.551ZM46.4921 66.4971C46.3098 66.4973 46.135 66.5702 46.0062 66.6997C45.8773 66.8292 45.8048 67.0048 45.8046 67.188V72.6213C45.8048 72.8045 45.8773 72.9801 46.0062 73.1096C46.135 73.2391 46.3098 73.312 46.4921 73.3122H56.6418C56.8241 73.312 56.9989 73.2391 57.1278 73.1096C57.2566 72.9801 57.3291 72.8045 57.3293 72.6213V67.188C57.3291 67.0048 57.2566 66.8292 57.1278 66.6997C56.9989 66.5701 56.8241 66.4973 56.6418 66.4971H46.4921Z" fill="#3F3D56"/>
<path d="M72.0873 73.551H61.9376C61.6923 73.5507 61.4571 73.4526 61.2837 73.2784C61.1103 73.1041 61.0127 72.8678 61.0125 72.6213V67.188C61.0127 66.9415 61.1103 66.7052 61.2837 66.5309C61.4571 66.3566 61.6923 66.2586 61.9376 66.2583H72.0873C72.3326 66.2586 72.5678 66.3566 72.7412 66.5309C72.9146 66.7052 73.0122 66.9415 73.0125 67.188V72.6213C73.0122 72.8678 72.9146 73.1041 72.7412 73.2783C72.5678 73.4526 72.3326 73.5507 72.0873 73.551ZM61.9376 66.4971C61.7553 66.4973 61.5805 66.5701 61.4517 66.6997C61.3228 66.8292 61.2503 67.0048 61.2501 67.188V72.6213C61.2503 72.8045 61.3228 72.9801 61.4517 73.1096C61.5805 73.2391 61.7553 73.312 61.9376 73.3122H72.0873C72.2696 73.312 72.4444 73.2391 72.5733 73.1096C72.7021 72.9801 72.7746 72.8045 72.7748 72.6213V67.188C72.7746 67.0048 72.7021 66.8292 72.5733 66.6997C72.4444 66.5701 72.2696 66.4973 72.0873 66.4971H61.9376Z" fill="#3F3D56"/>
<path d="M87.5329 73.551H77.3831C77.1378 73.5507 76.9027 73.4526 76.7293 73.2784C76.5558 73.1041 76.4583 72.8678 76.458 72.6213V67.188C76.4583 66.9415 76.5558 66.7052 76.7293 66.5309C76.9027 66.3566 77.1378 66.2586 77.3831 66.2583H87.5329C87.7782 66.2586 88.0133 66.3566 88.1868 66.5309C88.3602 66.7052 88.4577 66.9415 88.458 67.188V72.6213C88.4577 72.8678 88.3602 73.1041 88.1868 73.2783C88.0133 73.4526 87.7782 73.5507 87.5329 73.551ZM77.3831 66.4971C77.2008 66.4973 77.0261 66.5701 76.8972 66.6997C76.7683 66.8292 76.6958 67.0048 76.6956 67.188V72.6213C76.6958 72.8045 76.7683 72.9801 76.8972 73.1096C77.0261 73.2391 77.2008 73.312 77.3831 73.3122H87.5329C87.7152 73.312 87.8899 73.2391 88.0188 73.1096C88.1477 72.9801 88.2202 72.8045 88.2204 72.6213V67.188C88.2202 67.0048 88.1477 66.8292 88.0188 66.6997C87.8899 66.5701 87.7152 66.4973 87.5329 66.4971H77.3831Z" fill="#3F3D56"/>
<path d="M128.881 91.9924H9.11881C9.0873 91.9924 9.05708 91.9799 9.0348 91.9575C9.01252 91.9351 9 91.9047 9 91.8731C9 91.8414 9.01252 91.811 9.0348 91.7886C9.05708 91.7662 9.0873 91.7537 9.11881 91.7537H128.881C128.913 91.7537 128.943 91.7662 128.965 91.7886C128.987 91.811 129 91.8414 129 91.8731C129 91.9047 128.987 91.9351 128.965 91.9575C128.943 91.9799 128.913 91.9924 128.881 91.9924Z" fill="#3F3D56"/>
<path d="M73.0125 80.4364C73.0157 80.164 72.9112 79.9013 72.7218 79.7063C72.5324 79.5113 72.2737 79.3999 72.0026 79.3965H67.0125V91.7537H73.0125V80.4364Z" fill="#3F3D56"/>
<path d="M67.1313 91.6343H60.8937V80.471C60.894 80.1703 61.013 79.882 61.2246 79.6694C61.4362 79.4567 61.7231 79.3371 62.0224 79.3368H67.1313V91.6343ZM61.1313 91.3955H66.8937V79.5756H62.0224C61.7861 79.5758 61.5596 79.6703 61.3926 79.8381C61.2255 80.006 61.1316 80.2336 61.1313 80.471V91.3955Z" fill="#3F3D56"/>
<path d="M61.6659 86.3212C61.8628 86.3212 62.0224 86.1609 62.0224 85.963C62.0224 85.7652 61.8628 85.6049 61.6659 85.6049C61.4691 85.6049 61.3095 85.7652 61.3095 85.963C61.3095 86.1609 61.4691 86.3212 61.6659 86.3212Z" fill="#3F3D56"/>
</g>
<defs>
<clipPath id="clip0_1_307">
<rect width="120" height="92" fill="white" transform="translate(9)"/>
</clipPath>
</defs>
</svg>
