<svg width="63" height="63" viewBox="0 0 63 63" fill="none" xmlns="http://www.w3.org/2000/svg">
<path d="M22.7747 16.081H18.1556C17.6794 16.081 17.2942 15.6958 17.2942 15.2197V7.11578C17.2942 6.63959 17.6794 6.25446 18.1556 6.25446H22.7747C23.2509 6.25446 23.6361 6.63959 23.6361 7.11578V15.2209C23.6361 15.6958 23.2509 16.081 22.7747 16.081ZM19.0169 14.3583H21.9134V7.97711H19.0169V14.3583Z" fill="#415C64"/>
<path d="M22.7747 61.2589H18.1556C17.6794 61.2589 17.2942 60.8737 17.2942 60.3976V26.5941C17.2942 26.1179 17.6794 25.7328 18.1556 25.7328H22.7747C23.2509 25.7328 23.6361 26.1179 23.6361 26.5941C23.6361 27.0703 23.2509 27.4554 22.7747 27.4554H19.0169V59.5375H21.9134V31.5357C21.9134 31.0595 22.2986 30.6743 22.7747 30.6743C23.2509 30.6743 23.6361 31.0595 23.6361 31.5357V60.3976C23.6361 60.8737 23.2509 61.2589 22.7747 61.2589Z" fill="#415C64"/>
<path d="M12.7624 27.4542H2.52246C2.04627 27.4542 1.66113 27.0691 1.66113 26.5929V15.2209C1.66113 14.7447 2.04627 14.3596 2.52246 14.3596H12.7624C13.2386 14.3596 13.6237 14.7447 13.6237 15.2209V26.5941C13.6237 27.0691 13.2386 27.4542 12.7624 27.4542ZM3.38379 25.7316H11.9011V16.0822H3.38379V25.7316Z" fill="#415C64"/>
<path d="M16.6064 23.6324H12.7624C12.2862 23.6324 11.9011 23.2473 11.9011 22.7711V19.0637C11.9011 18.5875 12.2862 18.2023 12.7624 18.2023H16.6064C17.0826 18.2023 17.4677 18.5875 17.4677 19.0637V22.7711C17.4677 23.246 17.0826 23.6324 16.6064 23.6324ZM13.6237 21.9097H15.7451V19.925H13.6237V21.9097Z" fill="#415C64"/>
<path d="M44.2624 23.6324H24.3239C23.8477 23.6324 23.4626 23.2473 23.4626 22.7711V19.0637C23.4626 18.5875 23.8477 18.2023 24.3239 18.2023H41.5086C41.9848 18.2023 42.37 18.5875 42.37 19.0637C42.37 19.5399 41.9848 19.925 41.5086 19.925H25.1852V21.9097H43.4011V19.0637C43.4011 18.5875 43.7862 18.2023 44.2624 18.2023C44.7386 18.2023 45.1238 18.5875 45.1238 19.0637V22.7711C45.1238 23.246 44.7386 23.6324 44.2624 23.6324Z" fill="#415C64"/>
<path d="M55.1115 23.6324H49.6285C49.1523 23.6324 48.7672 23.2473 48.7672 22.7711V19.0637C48.7672 18.5875 49.1523 18.2023 49.6285 18.2023H55.1115C55.5877 18.2023 55.9728 18.5875 55.9728 19.0637V22.7711C55.9728 23.246 55.5877 23.6324 55.1115 23.6324ZM50.4898 21.9097H54.2501V19.925H50.4898V21.9097Z" fill="#415C64"/>
<path d="M49.6285 29.0243H44.2624C43.7862 29.0243 43.4011 28.6391 43.4011 28.1629V17.7753C43.4011 17.2991 43.7862 16.914 44.2624 16.914H49.6285C50.1047 16.914 50.4898 17.2991 50.4898 17.7753V28.1629C50.4898 28.6391 50.1047 29.0243 49.6285 29.0243ZM45.1237 27.3016H48.7672V18.6367H45.1237V27.3016Z" fill="#415C64"/>
<path d="M57.159 18.6367C56.9387 18.6367 56.7185 18.553 56.5499 18.3845L43.8847 5.71924H25.8583C25.3821 5.71924 24.997 5.3341 24.997 4.85791C24.997 4.38172 25.3821 3.99658 25.8583 3.99658H44.2415C44.4704 3.99658 44.6894 4.08764 44.8506 4.24883L57.7681 17.1663C58.104 17.5022 58.104 18.0485 57.7681 18.3845C57.5995 18.553 57.3792 18.6367 57.159 18.6367Z" fill="#415C64"/>
<path d="M7.64121 16.0822C7.46771 16.0822 7.29176 16.0293 7.14041 15.921C6.75404 15.6442 6.66545 15.1052 6.9423 14.7189L14.3719 4.3571C14.6487 3.97073 15.1877 3.88214 15.574 4.15899C15.9604 4.43585 16.049 4.97479 15.7721 5.36116L8.34258 15.7217C8.174 15.9567 7.90945 16.0822 7.64121 16.0822Z" fill="#415C64"/>
<path d="M60.4775 51.6034H33.4134C32.9372 51.6034 32.552 51.2182 32.552 50.7421V46.1758C32.552 45.6996 32.9372 45.3145 33.4134 45.3145H60.4775C60.9537 45.3145 61.3389 45.6996 61.3389 46.1758V50.7421C61.3389 51.217 60.9537 51.6034 60.4775 51.6034ZM34.2747 49.8807H59.6162V47.0371H34.2747V49.8807Z" fill="#415C64"/>
<path d="M46.9461 47.0371C46.4699 47.0371 46.0847 46.652 46.0847 46.1758V38.4349C46.0847 37.9587 46.4699 37.5736 46.9461 37.5736C47.4223 37.5736 47.8074 37.9587 47.8074 38.4349V46.1758C47.8074 46.6508 47.4223 47.0371 46.9461 47.0371Z" fill="#415C64"/>
<path d="M46.9461 32.397C46.4699 32.397 46.0847 32.0119 46.0847 31.5357V28.163C46.0847 27.6868 46.4699 27.3016 46.9461 27.3016C47.4223 27.3016 47.8074 27.6868 47.8074 28.163V31.5357C47.8074 32.0119 47.4223 32.397 46.9461 32.397Z" fill="#415C64"/>
<path d="M40.2892 47.0371C40.1379 47.0371 39.9841 46.9978 39.845 46.9141C39.4378 46.668 39.3061 46.1389 39.5522 45.7316L44.2157 37.9907C44.4618 37.5834 44.9909 37.4518 45.3981 37.6979C45.8054 37.944 45.9371 38.4731 45.691 38.8804L41.0275 46.6212C40.8663 46.8883 40.5821 47.0371 40.2892 47.0371Z" fill="#415C64"/>
<path d="M53.6029 47.0371C53.3113 47.0371 53.0258 46.8883 52.8646 46.62L48.1999 38.8791C47.9538 38.4719 48.0855 37.9428 48.4928 37.6967C48.9001 37.4506 49.4292 37.5822 49.6753 37.9895L54.34 45.7304C54.5861 46.1377 54.4544 46.6668 54.0471 46.9129C53.9068 46.9965 53.7543 47.0371 53.6029 47.0371Z" fill="#415C64"/>
<path d="M25.8583 7.9771H15.072C14.5958 7.9771 14.2107 7.59197 14.2107 7.11578V2.60242C14.2107 2.12623 14.5958 1.74109 15.072 1.74109H17.5219C17.9981 1.74109 18.3832 2.12623 18.3832 2.60242C18.3832 3.07861 17.9981 3.46375 17.5219 3.46375H15.9333V6.25445H24.997V3.46375H22.2296C21.7535 3.46375 21.3683 3.07861 21.3683 2.60242C21.3683 2.12623 21.7535 1.74109 22.2296 1.74109H25.8583C26.3345 1.74109 26.7196 2.12623 26.7196 2.60242V7.11578C26.7196 7.59074 26.3345 7.9771 25.8583 7.9771Z" fill="#E9C46A"/>
<path d="M19.8635 3.46376C19.6358 3.46376 19.4143 3.37147 19.2544 3.21151C19.2138 3.17091 19.1781 3.12661 19.1473 3.07985C19.1153 3.0331 19.0895 2.98265 19.0673 2.93097C19.0464 2.87929 19.0292 2.82515 19.0181 2.76978C19.0071 2.7144 19.0009 2.6578 19.0009 2.6012C19.0009 2.37479 19.0932 2.15331 19.2544 1.99212C19.4537 1.79278 19.7515 1.7005 20.0308 1.7571C20.0862 1.76817 20.1403 1.7854 20.192 1.80632C20.2449 1.82847 20.2941 1.85431 20.3409 1.88507C20.3889 1.91706 20.4319 1.95274 20.4713 1.99212C20.6325 2.15331 20.7248 2.37479 20.7248 2.6012C20.7248 2.6578 20.7186 2.7144 20.7076 2.76978C20.6965 2.82515 20.6805 2.87929 20.6583 2.93097C20.6362 2.98265 20.6104 3.0331 20.5796 3.07985C20.5476 3.12661 20.5119 3.17091 20.4713 3.21151C20.4319 3.25089 20.3889 3.28657 20.3409 3.31733C20.2941 3.34933 20.2449 3.37517 20.192 3.39731C20.1403 3.41823 20.0862 3.43546 20.0308 3.44653C19.9754 3.45761 19.9188 3.46376 19.8635 3.46376Z" fill="#E9C46A"/>
<path d="M24.3239 27.4554H16.6064C16.1302 27.4554 15.7451 27.0703 15.7451 26.5941V15.2209C15.7451 14.7447 16.1302 14.3596 16.6064 14.3596H24.3239C24.8001 14.3596 25.1852 14.7447 25.1852 15.2209V26.5941C25.1852 27.0691 24.8001 27.4554 24.3239 27.4554ZM17.4677 25.7328H23.4626V16.0822H17.4677V25.7328Z" fill="#E9C46A"/>
<path d="M60.4775 24.9207H55.1115C54.6353 24.9207 54.2501 24.5355 54.2501 24.0593V17.7766C54.2501 17.3004 54.6353 16.9152 55.1115 16.9152H60.4775C60.9537 16.9152 61.3389 17.3004 61.3389 17.7766V24.0593C61.3389 24.5343 60.9537 24.9207 60.4775 24.9207ZM55.9728 23.198H59.6162V18.6379H55.9728V23.198Z" fill="#E9C46A"/>
<path d="M48.937 39.295H44.9539C44.6463 39.295 44.3621 39.1313 44.2083 38.8643L42.2174 35.4153C42.0636 35.1483 42.0636 34.821 42.2174 34.554L44.2083 31.105C44.3621 30.838 44.6463 30.6743 44.9539 30.6743H48.937C49.2446 30.6743 49.5288 30.838 49.6826 31.105L51.6748 34.554C51.8286 34.821 51.8286 35.1495 51.6748 35.4153L49.6826 38.8643C49.5288 39.1313 49.2446 39.295 48.937 39.295ZM45.451 37.5723H48.4399L49.9349 34.9847L48.4399 32.397H45.451L43.9573 34.9847L45.451 37.5723Z" fill="#E9C46A"/>
</svg>
