<svg width="47" height="106" viewBox="0 0 47 106" fill="none" xmlns="http://www.w3.org/2000/svg">
<path d="M13.9411 0H0V16.4814H13.9411V0Z" fill="#3F3D56"/>
<path d="M0.80835 15.6774H13.1331V0.804016H0.80835V15.6774Z" fill="white"/>
<path d="M6.93828 2.01001C6.03109 2.01001 5.18049 2.25521 4.45111 2.68132C3.4126 3.28832 2.61654 4.26313 2.2468 5.42688C2.09931 5.89318 2.02051 6.38761 2.02051 6.90215V14.4715H11.9207V2.01001H6.93828Z" fill="#3F3D56"/>
<path d="M9.53288 14.4659H3.83899C4.11482 13.6887 4.70274 13.0578 5.45374 12.7253C5.83024 12.5571 6.24702 12.463 6.68594 12.463C7.00205 12.463 7.30808 12.511 7.59398 12.6032C8.498 12.8856 9.2188 13.5806 9.53288 14.4659Z" fill="#E9C46A"/>
<path d="M2.82869 11.2556C2.54986 11.2556 2.27711 11.2938 2.02051 11.3641V14.4715H5.85128C5.85733 14.4052 5.85936 14.3388 5.85936 14.2705C5.85936 13.7057 5.70176 13.1751 5.43102 12.7249C4.89965 11.8445 3.93386 11.2556 2.82869 11.2556Z" fill="#E9C46A"/>
<path d="M11.9207 5.4212V2.81742C11.4174 2.44088 10.7892 2.21655 10.1087 2.21655C9.05968 2.21655 8.13553 2.74932 7.59393 3.55851C7.30803 3.46636 7.00199 3.4183 6.68589 3.4183C6.24698 3.4183 5.8302 3.51243 5.45369 3.68068C5.4477 3.68333 5.4422 3.68681 5.43623 3.6895C5.43442 3.68645 5.43288 3.68323 5.43105 3.6802C5.18657 3.2762 4.85119 2.9325 4.45114 2.68126C3.41263 3.28826 2.61657 4.26307 2.24683 5.42682H3.84112C4.34962 6.79384 4.87438 7.66472 5.41249 8.12791C4.29836 8.64575 3.87189 10.0207 4.45503 11.1011C5.60313 13.2283 6.4974 13.67 7.26354 13.2608C7.15124 13.5751 7.08857 13.913 7.08857 14.2656C7.08857 14.3337 7.09059 14.3998 7.09661 14.4658H11.9207V11.8621C11.4174 11.4855 10.7892 11.2612 10.1087 11.2612C9.55874 11.2612 9.04384 11.4087 8.59967 11.6646L8.60919 11.6478C9.23167 10.5444 10.3917 9.84865 11.6635 9.84865H11.9207V7.24487C11.4174 6.86831 10.7892 6.64399 10.1087 6.64399C9.4678 6.64399 8.87409 6.84361 8.38519 7.18287L8.40483 7.15782C9.25199 6.07373 10.5404 5.4212 11.9207 5.4212Z" fill="#E9C46A"/>
<path d="M6.6675 3.01489H6.46545V14.4714H6.6675V3.01489Z" fill="#3F3D56"/>
<path d="M14.7853 101.835L13.2527 101.822L12.5742 95.8041L14.8362 95.823L14.7853 101.835Z" fill="#FFB6B6"/>
<path d="M9.87625 104.259C9.87292 104.634 10.177 104.943 10.5556 104.947L13.6028 104.972L14.1363 103.896L14.3322 104.978L15.482 104.988L15.1916 101.132L14.7916 101.105L13.16 100.993L12.6336 100.958L12.6243 102.049L10.1765 103.701C9.99027 103.827 9.87811 104.035 9.87625 104.259Z" fill="#264653"/>
<path d="M31.5485 101.835L30.0159 101.822L29.3374 95.8041L31.5994 95.823L31.5485 101.835Z" fill="#FFB6B6"/>
<path d="M26.6394 104.259C26.6361 104.634 26.9402 104.943 27.3188 104.947L30.366 104.972L30.8994 103.896L31.0954 104.978L32.2451 104.988L31.9548 101.132L31.5548 101.105L29.9232 100.993L29.3967 100.958L29.3875 102.049L26.9397 103.701C26.7535 103.827 26.6413 104.035 26.6394 104.259Z" fill="#264653"/>
<path d="M6.27722 15.1205C6.92151 15.7179 6.86135 16.7877 6.15185 17.3068L7.89962 24.2596L6.08529 25.2133L4.07013 16.9403C3.71622 16.3959 3.76669 15.6626 4.23557 15.172C4.78505 14.5969 5.69912 14.5739 6.27722 15.1205Z" fill="#FFB6B6"/>
<path d="M15.2622 54.3669H28.0459C28.0459 54.3669 31.9485 60.0588 31.0584 65.3715L29.2041 81.0883L33.1353 99.4615L29.3524 99.8305L22.8251 81.0883L21.935 69.725L20.3032 81.9738L15.2622 99.2768L11.6248 99.3139L13.7758 81.8262L14.6678 65.348C14.6678 65.348 15.2129 64.207 14.754 63.7562C14.295 63.3054 14.8217 62.5049 14.8217 62.5049C14.8217 62.5049 15.5247 61.3979 14.9099 60.8759C14.295 60.3539 15.2622 54.3669 15.2622 54.3669Z" fill="#264653"/>
<path d="M32.5291 59.0257C32.5291 59.0257 20.9579 55.9266 21.403 59.4684C21.6 61.0363 15.1456 60.0454 13.1533 59.8123L15.0982 51.4255L11.8731 59.6396C11.2856 59.5481 10.9207 59.4773 10.9207 59.4773L15.1723 49.1381C15.1723 49.1381 15.6174 39.103 14.705 36.6429C13.7927 34.1828 16.0624 33.1999 16.0624 33.1999C18.3044 31.5452 19.3748 29.9106 18.4226 28.3107L23.3315 28.7313L23.7765 31.1339L27.9511 33.1556L25.9169 45.1242C25.9169 45.1242 25.6523 45.4148 25.827 45.6531C26.0018 45.8914 26.0321 46.0813 25.7202 46.2815C25.4084 46.4817 25.5538 47.2609 25.5538 47.2609C25.5538 47.2609 25.5686 47.7428 25.8594 47.7764C26.1501 47.8099 26.0511 48.0997 26.0511 48.0997C26.0511 48.0997 26.032 48.6847 26.3136 48.5425C26.5028 48.4469 30.7018 56.4783 31.0221 56.35C31.3423 56.2218 31.2319 57.1691 31.5096 57.2119C31.7874 57.2548 31.7893 57.7077 31.9092 57.9208C32.2915 58.6003 32.5291 59.0257 32.5291 59.0257Z" fill="#E9C46A"/>
<path d="M19.417 37.2698L19.9216 32.5862L13.3394 31.0046L6.72908 18.8851L4.6522 19.7705V21.8366C4.6522 21.8366 2.87202 23.6075 8.87605 32.0323L10.5861 34.3805L19.9216 38.7416L19.417 37.2698Z" fill="#E9C46A"/>
<path d="M13.7625 9.40479C13.5432 10.2534 14.1733 11.1224 15.0521 11.1795L17.345 17.9737L19.39 17.8048L16.6074 9.75509C16.6108 9.10676 16.1711 8.51603 15.5104 8.35396C14.736 8.16398 13.9535 8.63445 13.7625 9.40479Z" fill="#FFB6B6"/>
<path d="M27.8175 34.8397C29.4947 33.7469 29.7009 31.3805 28.2379 30.0168L21.1791 23.4374C21.1791 23.4374 21.4453 13.1309 18.7019 13.1057L18.109 11.2624L14.9181 12.7772L15.3059 14.3007C15.3059 14.3007 15.5147 20.6054 17.3892 22.4855C17.4231 25.1413 18.542 25.8453 18.542 25.8453L27.8175 34.8397Z" fill="#E9C46A"/>
<path d="M21.4765 28.1261C23.7993 28.1261 25.6823 26.2529 25.6823 23.9422C25.6823 21.6315 23.7993 19.7582 21.4765 19.7582C19.1536 19.7582 17.2706 21.6315 17.2706 23.9422C17.2706 26.2529 19.1536 28.1261 21.4765 28.1261Z" fill="#FFB6B6"/>
<path d="M31.6959 35.2636C31.6657 35.8646 31.3768 36.4415 30.8413 36.7169C30.6716 36.8013 30.4938 36.8656 30.3099 36.9118C30.3039 36.8515 30.2938 36.7932 30.2837 36.735C30.116 35.7461 29.6998 34.8034 29.0916 34.0074C28.8027 33.6296 29.6028 35.7722 29.8048 36.9781C29.621 36.6124 28.6855 34.2647 28.6249 34.1763C28.6249 34.1803 28.6289 34.1924 28.637 34.2185C28.9401 35.129 29.0775 36.0938 29.0553 37.0545C27.8834 38.7167 26.8631 39.1649 25.9236 38.9781C26.2064 38.2183 26.1761 37.3379 25.7942 36.6184C25.6892 37.3259 25.3195 37.9831 24.7901 38.4655C24.3456 38.158 23.9132 37.7499 23.4829 37.3178C24.1597 36.5079 24.6284 35.529 24.8224 34.4939C25.0992 33.0448 24.8345 31.4991 24.093 30.2228C24.4507 32.8135 23.4546 35.537 21.5574 37.3379C21.1088 37.2696 20.7047 37.0927 20.5249 36.6947C20.3572 36.3209 20.4704 35.8787 20.6825 35.529C20.8906 35.1792 20.1612 33.4889 20.4057 33.1633C21.4281 31.8086 22.3999 31.1574 21.3048 29.861C20.8017 29.2641 20.1006 28.8058 19.7996 28.0862C19.4198 27.1798 19.7854 26.1447 20.2259 25.2684C20.6684 24.39 22.1413 24.8001 21.1553 24.7196C19.4602 24.583 20.1996 23.2142 19.8279 22.6434C19.6198 22.3238 19.1066 22.3761 18.7227 22.3721C18.5873 21.9198 18.3974 21.4816 18.159 21.0716C18.2196 21.5158 18.2418 21.9661 18.2256 22.4143C17.9185 22.4665 17.4195 22.9791 17.1548 23.1438L17.0578 23.1901C16.6841 22.977 16.7395 22.5787 16.7375 22.1486C16.7334 21.7185 15.901 21.3065 16.1314 20.9427C16.7436 19.9799 16.5466 19.4376 17.6822 19.2908C18.8177 19.1441 19.8744 18.716 20.7128 19.4918C21.521 17.8839 24.6669 19.3029 25.4265 19.6064C26.1862 19.9119 26.7984 20.5591 27.057 21.3309C27.6591 23.1197 27.3541 23.9438 28.3905 25.5216C29.2775 26.8722 30.5322 26.2351 31.1202 27.7385C31.4899 28.6872 31.0494 29.7363 30.6575 30.6751C30.2655 31.6156 29.4553 33.7562 30.4655 33.6035C31.3262 33.4708 31.7445 34.323 31.6959 35.2636Z" fill="#264653"/>
<path d="M35.6657 101.812C36.0831 101.838 36.3137 101.322 35.998 101.021L35.9665 100.897C35.9707 100.887 35.9748 100.877 35.979 100.867C36.4011 99.8656 37.8318 99.8725 38.2503 100.875C38.6218 101.765 39.0947 102.657 39.2112 103.598C39.2634 104.013 39.2399 104.436 39.1472 104.844C40.0176 102.953 40.4757 100.887 40.4757 98.8102C40.4757 98.2883 40.447 97.7664 40.3883 97.2459C40.34 96.8201 40.2734 96.3969 40.1873 95.9776C39.7214 93.7109 38.7127 91.5521 37.2576 89.7489C36.5581 89.3685 35.9748 88.7739 35.6225 88.0613C35.4959 87.8042 35.3967 87.5277 35.3497 87.246C35.4293 87.2564 35.6499 86.0504 35.5898 85.9764C35.7008 85.8089 35.8993 85.7257 36.0205 85.5623C36.6231 84.7496 37.4532 84.8915 37.8866 85.9958C38.8124 86.4607 38.8214 87.2316 38.2533 87.973C37.8919 88.4447 37.8423 89.0829 37.5251 89.5879C37.5578 89.6294 37.5917 89.6697 37.6243 89.7112C38.2226 90.4746 38.74 91.2951 39.1762 92.157C39.053 91.1991 39.235 90.045 39.5453 89.301C39.8985 88.4534 40.5605 87.7395 41.1435 87.0067C41.8438 86.1265 43.2798 86.5106 43.4032 87.6264C43.4044 87.6372 43.4055 87.648 43.4067 87.6588C43.3201 87.7074 43.2352 87.759 43.1524 87.8136C42.6797 88.1245 42.8431 88.8535 43.4031 88.9395L43.4158 88.9414C43.3845 89.2517 43.331 89.5593 43.2527 89.8618C44.0006 92.7392 42.3859 93.7872 40.0803 93.8343C40.0294 93.8602 39.9798 93.8862 39.9289 93.9109C40.1625 94.5651 40.3491 95.2363 40.4874 95.9165C40.6114 96.5176 40.6975 97.1251 40.7458 97.7353C40.8059 98.5051 40.8006 99.2788 40.7354 100.047L40.7393 100.02C40.905 99.1737 41.367 98.3831 42.0378 97.8353C43.037 97.0187 44.4487 96.718 45.5267 96.0616C46.0456 95.7457 46.7106 96.154 46.62 96.7525L46.6156 96.7811C46.4551 96.846 46.2985 96.9213 46.1471 97.0057C46.0605 97.0543 45.9757 97.1059 45.8928 97.1605C45.4201 97.4714 45.5835 98.2004 46.1436 98.2864L46.1563 98.2883C46.1654 98.2896 46.1732 98.2909 46.1824 98.2922C45.907 98.9426 45.5234 99.5463 45.0431 100.067C44.5755 102.579 42.5669 102.817 40.4183 102.085H40.417C40.1821 103.103 39.8389 104.098 39.3978 105.045H35.7569C35.7438 105.005 35.7321 104.964 35.7203 104.923C36.057 104.944 36.3963 104.925 36.7278 104.864C36.4577 104.534 36.1875 104.202 35.9174 103.872C35.9109 103.865 35.9056 103.859 35.9004 103.852C35.7634 103.684 35.6251 103.516 35.4881 103.347L35.488 103.347C35.4794 102.829 35.542 102.313 35.6657 101.812Z" fill="#F2F2F2"/>
</svg>
