<svg width="503" height="260" viewBox="0 0 503 260" fill="none" xmlns="http://www.w3.org/2000/svg">
<path d="M37.788 0.512695H464.273C484.599 0.512695 501.074 10.2204 501.074 22.1974V212.177C501.074 224.151 484.599 233.861 464.273 233.861H136.295C130.203 241.636 118.778 247.876 105.874 251.988C95.3199 255.351 83.8322 257.471 72.1072 259.08C67.5051 259.711 64.0623 256.63 66.941 254.425C74.7759 248.426 80.1365 241.304 82.5874 233.863H37.7919C17.4696 233.863 0.990723 224.156 0.990723 212.179V22.1951C0.986833 10.2204 17.4618 0.512695 37.788 0.512695Z" fill="white"/>
<path d="M37.7881 0.510305C37.7881 0.510305 37.0255 0.560736 35.5317 0.620334C34.0418 0.659302 31.8088 0.826636 28.9651 1.2507C23.3905 2.06903 14.7777 4.24209 8.07876 9.7091C4.73321 12.3933 2.30569 15.9555 1.51598 20.0127C1.16197 24.0884 1.45369 28.6224 1.39144 33.4705C1.42645 43.192 1.46538 54.3506 1.51206 66.8319C1.57041 91.8082 1.6405 122.07 1.72219 156.679C1.74942 173.985 1.77667 192.381 1.80779 211.743C1.74944 216.486 4.21579 221.311 9.36639 225.123C14.4042 228.94 21.7567 231.807 30.0116 232.841C34.1274 233.389 38.3637 233.355 42.7558 233.348C47.1128 233.345 51.4893 233.343 55.893 233.343C64.6964 233.341 73.5933 233.336 82.5835 233.334H83.6727L83.4666 233.964C81.4515 240.057 77.5068 246.017 71.6832 251.378C70.9518 252.048 70.2011 252.708 69.4114 253.357C68.6956 253.987 67.6336 254.693 67.1979 255.216C66.1514 256.378 67.3067 257.955 69.3685 258.439C70.4539 258.682 71.4031 258.652 72.7763 258.425L76.7055 257.854C79.3236 257.457 81.93 257.029 84.5209 256.557C94.861 254.67 105.065 252.119 114.016 248.33C122.933 244.561 130.721 239.605 135.42 233.625L135.677 233.297H136.291C225.933 233.288 323.822 233.277 425.643 233.265C433.439 233.265 441.208 233.265 448.957 233.265H460.558C464.463 233.293 468.167 233.235 471.851 232.781C479.141 231.821 485.953 229.552 490.866 226.253C495.9 223.016 498.977 218.822 499.833 214.505C500.156 212.362 500.043 210.102 500.062 207.878C500.062 205.65 500.062 203.427 500.062 201.208C500.062 196.768 500.066 192.346 500.066 187.943C500.07 179.134 500.07 170.396 500.074 161.736C500.094 127.091 500.113 93.6741 500.133 61.8394C500.14 53.8807 500.148 46.0229 500.152 38.2659C500.156 34.3874 500.16 30.5365 500.164 26.713C500.152 22.8712 500.483 19.1004 498.37 15.6002C494.538 8.56526 484.156 3.11201 472.298 1.5762C466.428 0.709731 460.2 1.12463 454.092 1.01918C447.985 1.01689 441.928 1.0146 435.921 1.01231C387.877 0.987093 343.129 0.961879 302.27 0.938956C220.584 0.858728 154.478 0.794544 108.745 0.748699C85.9252 0.700562 68.1976 0.661594 56.1303 0.63638C50.1433 0.611165 45.5723 0.590533 42.4485 0.576779C39.3675 0.551564 37.7881 0.510305 37.7881 0.510305C37.7881 0.510305 39.3675 0.469044 42.4485 0.448414C45.5723 0.43466 50.1472 0.416324 56.1303 0.388817C68.1976 0.363603 85.9252 0.324635 108.745 0.276498C154.478 0.230653 220.584 0.16647 302.27 0.0862409C343.129 0.0633184 387.881 0.0403925 435.921 0.0128855C441.928 0.0105933 447.985 0.00830481 454.092 0.00601256C457.146 0.00601256 460.211 0.00371846 463.292 0.00142621C464.821 -0.0123273 466.432 0.0770712 468 0.111455C469.56 0.258159 471.147 0.338387 472.687 0.574488C485.128 2.17677 496.025 7.88217 500.066 15.2678C502.296 18.9514 501.953 22.9422 501.973 26.7084C501.976 30.5319 501.98 34.3851 501.984 38.2613C501.992 46.016 501.996 53.8761 502.004 61.8348C502.023 93.6695 502.043 127.086 502.062 161.731C502.066 170.391 502.07 179.129 502.07 187.938C502.07 192.344 502.074 196.766 502.074 201.203C502.074 203.422 502.074 205.646 502.074 207.874C502.05 210.104 502.179 212.316 501.832 214.631C500.938 219.193 497.678 223.626 492.368 227.046C487.178 230.53 479.985 232.93 472.275 233.946C468.412 234.43 464.366 234.487 460.554 234.457H448.953C441.204 234.457 433.435 234.457 425.639 234.457C323.818 234.446 225.929 234.436 136.288 234.425L137.159 234.097C132.277 240.293 124.251 245.38 115.113 249.233C105.928 253.114 95.5339 255.697 85.0615 257.602C82.4395 258.079 79.8021 258.51 77.1606 258.909L73.1965 259.484C71.9866 259.704 70.0999 259.83 68.6567 259.443C65.6573 258.741 64.0195 256.486 65.5328 254.75C66.3381 253.87 67.1472 253.412 67.9136 252.729C68.6839 252.094 69.423 251.447 70.1388 250.794C75.8379 245.554 79.7165 239.722 81.7004 233.758L82.5796 234.386C73.5932 234.384 64.6964 234.379 55.889 234.377C51.4854 234.375 47.109 234.375 42.752 234.372C38.4455 234.379 33.9523 234.414 29.6381 233.834C20.9903 232.742 13.2954 229.733 8.03199 225.733C2.65576 221.747 0.072724 216.66 0.158308 211.743C0.18943 192.381 0.216673 173.985 0.243904 156.679C0.325598 122.07 0.395566 91.8082 0.453918 66.8319C0.500601 54.3506 0.539525 43.192 0.574537 33.4705C0.679572 28.6041 0.426719 24.1296 0.827408 19.9715C1.67158 15.8386 4.18856 12.226 7.6236 9.51655C14.4976 3.99911 23.2582 1.86044 28.8951 1.08795C31.7699 0.68681 34.0223 0.546981 35.5201 0.535519C37.0256 0.50572 37.7881 0.510305 37.7881 0.510305Z" fill="#263238"/>
<path d="M76.3229 92.0502L78.7642 96.999C79.039 97.5547 79.5706 97.9418 80.1844 98.0301L85.6448 98.8245C87.1915 99.0492 87.8093 100.951 86.69 102.042L82.7381 105.894C82.2928 106.327 82.0902 106.951 82.1965 107.563L83.1293 113.001C83.3941 114.542 81.7772 115.717 80.3931 114.989L75.5084 112.421C74.9588 112.132 74.3028 112.132 73.7531 112.421L68.8685 114.989C67.4843 115.717 65.8674 114.542 66.1322 113.001L67.0651 107.563C67.1694 106.951 66.9668 106.327 66.5234 105.894L62.5716 102.042C61.4522 100.951 62.0701 99.0512 63.6167 98.8245L69.0791 98.0301C69.693 97.9418 70.2245 97.5547 70.4994 96.999L72.9407 92.0502C73.6328 90.6499 75.6308 90.6499 76.3229 92.0502Z" fill="#E76F51"/>
<path d="M164.204 92.0502L166.646 96.999C166.92 97.5547 167.452 97.9418 168.066 98.0301L173.526 98.8245C175.073 99.0492 175.691 100.951 174.571 102.042L170.619 105.894C170.176 106.327 169.971 106.951 170.078 107.563L171.011 113.001C171.275 114.542 169.659 115.717 168.274 114.989L163.39 112.421C162.84 112.132 162.184 112.132 161.634 112.421L156.75 114.989C155.366 115.717 153.749 114.542 154.014 113.001L154.946 107.563C155.051 106.951 154.848 106.327 154.405 105.894L150.453 102.042C149.334 100.951 149.951 99.0512 151.498 98.8245L156.958 98.0301C157.572 97.9418 158.104 97.5547 158.379 96.999L160.82 92.0502C161.514 90.6499 163.514 90.6499 164.204 92.0502Z" fill="#E76F51"/>
<path d="M251.823 92.0502L254.264 96.999C254.539 97.5547 255.071 97.9418 255.685 98.0301L261.145 98.8245C262.692 99.0492 263.31 100.951 262.19 102.042L258.238 105.894C257.793 106.327 257.59 106.951 257.697 107.563L258.629 113.001C258.894 114.542 257.277 115.717 255.893 114.989L251.009 112.421C250.459 112.132 249.803 112.132 249.253 112.421L244.369 114.989C242.985 115.717 241.368 114.542 241.632 113.001L242.565 107.563C242.67 106.951 242.467 106.327 242.024 105.894L238.072 102.042C236.952 100.951 237.57 99.0512 239.117 98.8245L244.577 98.0301C245.191 97.9418 245.723 97.5547 245.998 96.999L248.439 92.0502C249.131 90.6499 251.131 90.6499 251.823 92.0502Z" fill="#E76F51"/>
<path d="M339.442 92.0502L341.884 96.999C342.159 97.5547 342.69 97.9418 343.304 98.0301L348.764 98.8245C350.311 99.0492 350.929 100.951 349.81 102.042L345.858 105.894C345.412 106.327 345.21 106.951 345.316 107.563L346.249 113.001C346.514 114.542 344.897 115.717 343.513 114.989L338.628 112.421C338.078 112.132 337.422 112.132 336.873 112.421L331.988 114.989C330.604 115.717 328.987 114.542 329.252 113.001L330.185 107.563C330.289 106.951 330.086 106.327 329.643 105.894L325.691 102.042C324.572 100.951 325.19 99.0512 326.736 98.8245L332.197 98.0301C332.811 97.9418 333.342 97.5547 333.617 96.999L336.058 92.0502C336.752 90.6499 338.75 90.6499 339.442 92.0502Z" fill="#E76F51"/>
<path d="M427.059 92.0502L429.503 96.999C429.778 97.5547 430.309 97.9418 430.923 98.0301L436.383 98.8245C437.93 99.0492 438.548 100.951 437.429 102.042L433.477 105.894C433.031 106.327 432.829 106.951 432.935 107.563L433.868 113.001C434.133 114.542 432.516 115.717 431.132 114.989L426.247 112.421C425.697 112.132 425.041 112.132 424.492 112.421L419.607 114.989C418.223 115.717 416.606 114.542 416.871 113.001L417.804 107.563C417.908 106.951 417.705 106.327 417.262 105.894L413.31 102.042C412.191 100.951 412.809 99.0512 414.355 98.8245L419.818 98.0301C420.432 97.9418 420.963 97.5547 421.238 96.999L423.679 92.0502C424.369 90.6499 426.367 90.6499 427.059 92.0502Z" fill="#E0E0E0"/>
<path d="M441.406 205.531H62.1185C47.8906 205.531 36.3591 199.502 36.3591 192.064V148.834C36.3591 141.396 47.8906 135.367 62.1185 135.367H441.406C455.634 135.367 467.166 141.396 467.166 148.834V192.064C467.166 199.5 455.634 205.531 441.406 205.531Z" fill="#F5F5F5"/>
<path d="M106.408 37L102.344 32.024V37H100.104V25.832H102.344V30.84L106.408 25.832H109.112L104.504 31.368L109.24 37H106.408ZM119.081 28.136V37H116.825V35.88C116.537 36.264 116.159 36.568 115.689 36.792C115.231 37.0053 114.729 37.112 114.185 37.112C113.492 37.112 112.879 36.968 112.345 36.68C111.812 36.3813 111.391 35.9493 111.081 35.384C110.783 34.808 110.633 34.1253 110.633 33.336V28.136H112.873V33.016C112.873 33.72 113.049 34.264 113.401 34.648C113.753 35.0213 114.233 35.208 114.841 35.208C115.46 35.208 115.945 35.0213 116.297 34.648C116.649 34.264 116.825 33.72 116.825 33.016V28.136H119.081ZM123.532 25.16V37H121.292V25.16H123.532ZM125.169 32.536C125.169 31.64 125.345 30.8453 125.697 30.152C126.059 29.4587 126.55 28.9253 127.169 28.552C127.787 28.1787 128.475 27.992 129.233 27.992C129.809 27.992 130.358 28.12 130.881 28.376C131.403 28.6213 131.819 28.952 132.129 29.368V25.16H134.401V37H132.129V35.688C131.851 36.1253 131.462 36.4773 130.961 36.744C130.459 37.0107 129.878 37.144 129.217 37.144C128.47 37.144 127.787 36.952 127.169 36.568C126.55 36.184 126.059 35.6453 125.697 34.952C125.345 34.248 125.169 33.4427 125.169 32.536ZM132.145 32.568C132.145 32.024 132.038 31.56 131.825 31.176C131.611 30.7813 131.323 30.4827 130.961 30.28C130.598 30.0667 130.209 29.96 129.793 29.96C129.377 29.96 128.993 30.0613 128.641 30.264C128.289 30.4667 128.001 30.7653 127.777 31.16C127.563 31.544 127.457 32.0027 127.457 32.536C127.457 33.0693 127.563 33.5387 127.777 33.944C128.001 34.3387 128.289 34.6427 128.641 34.856C129.003 35.0693 129.387 35.176 129.793 35.176C130.209 35.176 130.598 35.0747 130.961 34.872C131.323 34.6587 131.611 34.36 131.825 33.976C132.038 33.5813 132.145 33.112 132.145 32.568ZM144.828 32.376C144.828 32.696 144.807 32.984 144.764 33.24H138.284C138.338 33.88 138.562 34.3813 138.956 34.744C139.351 35.1067 139.836 35.288 140.412 35.288C141.244 35.288 141.836 34.9307 142.188 34.216H144.604C144.348 35.0693 143.858 35.7733 143.132 36.328C142.407 36.872 141.516 37.144 140.46 37.144C139.607 37.144 138.839 36.9573 138.156 36.584C137.484 36.2 136.956 35.6613 136.572 34.968C136.199 34.2747 136.012 33.4747 136.012 32.568C136.012 31.6507 136.199 30.8453 136.572 30.152C136.946 29.4587 137.468 28.9253 138.14 28.552C138.812 28.1787 139.586 27.992 140.46 27.992C141.303 27.992 142.055 28.1733 142.716 28.536C143.388 28.8987 143.906 29.416 144.268 30.088C144.642 30.7493 144.828 31.512 144.828 32.376ZM142.508 31.736C142.498 31.16 142.29 30.7013 141.884 30.36C141.479 30.008 140.983 29.832 140.396 29.832C139.842 29.832 139.372 30.0027 138.988 30.344C138.615 30.6747 138.386 31.1387 138.3 31.736H142.508ZM154.703 32.376C154.703 32.696 154.682 32.984 154.639 33.24H148.159C148.213 33.88 148.437 34.3813 148.831 34.744C149.226 35.1067 149.711 35.288 150.287 35.288C151.119 35.288 151.711 34.9307 152.063 34.216H154.479C154.223 35.0693 153.733 35.7733 153.007 36.328C152.282 36.872 151.391 37.144 150.335 37.144C149.482 37.144 148.714 36.9573 148.031 36.584C147.359 36.2 146.831 35.6613 146.447 34.968C146.074 34.2747 145.887 33.4747 145.887 32.568C145.887 31.6507 146.074 30.8453 146.447 30.152C146.821 29.4587 147.343 28.9253 148.015 28.552C148.687 28.1787 149.461 27.992 150.335 27.992C151.178 27.992 151.93 28.1733 152.591 28.536C153.263 28.8987 153.781 29.416 154.143 30.088C154.517 30.7493 154.703 31.512 154.703 32.376ZM152.383 31.736C152.373 31.16 152.165 30.7013 151.759 30.36C151.354 30.008 150.858 29.832 150.271 29.832C149.717 29.832 149.247 30.0027 148.863 30.344C148.49 30.6747 148.261 31.1387 148.175 31.736H152.383ZM158.578 29.416C158.866 29.0107 159.261 28.6747 159.762 28.408C160.274 28.1307 160.856 27.992 161.506 27.992C162.264 27.992 162.946 28.1787 163.554 28.552C164.173 28.9253 164.658 29.4587 165.01 30.152C165.373 30.8347 165.554 31.6293 165.554 32.536C165.554 33.4427 165.373 34.248 165.01 34.952C164.658 35.6453 164.173 36.184 163.554 36.568C162.946 36.952 162.264 37.144 161.506 37.144C160.856 37.144 160.28 37.0107 159.778 36.744C159.288 36.4773 158.888 36.1413 158.578 35.736V41.224H156.338V28.136H158.578V29.416ZM163.266 32.536C163.266 32.0027 163.154 31.544 162.93 31.16C162.717 30.7653 162.429 30.4667 162.066 30.264C161.714 30.0613 161.33 29.96 160.914 29.96C160.509 29.96 160.125 30.0667 159.762 30.28C159.41 30.4827 159.122 30.7813 158.898 31.176C158.685 31.5707 158.578 32.0347 158.578 32.568C158.578 33.1013 158.685 33.5653 158.898 33.96C159.122 34.3547 159.41 34.6587 159.762 34.872C160.125 35.0747 160.509 35.176 160.914 35.176C161.33 35.176 161.714 35.0693 162.066 34.856C162.429 34.6427 162.717 34.3387 162.93 33.944C163.154 33.5493 163.266 33.08 163.266 32.536ZM179.139 29.288C179.139 29.8853 178.995 30.4453 178.707 30.968C178.429 31.4907 177.987 31.912 177.379 32.232C176.781 32.552 176.024 32.712 175.107 32.712H173.235V37H170.995V25.832H175.107C175.971 25.832 176.707 25.9813 177.315 26.28C177.923 26.5787 178.376 26.9893 178.675 27.512C178.984 28.0347 179.139 28.6267 179.139 29.288ZM175.011 30.904C175.629 30.904 176.088 30.7653 176.387 30.488C176.685 30.2 176.835 29.8 176.835 29.288C176.835 28.2 176.227 27.656 175.011 27.656H173.235V30.904H175.011ZM180.153 32.536C180.153 31.64 180.329 30.8453 180.681 30.152C181.044 29.4587 181.529 28.9253 182.137 28.552C182.756 28.1787 183.444 27.992 184.201 27.992C184.862 27.992 185.438 28.1253 185.929 28.392C186.43 28.6587 186.83 28.9947 187.129 29.4V28.136H189.385V37H187.129V35.704C186.841 36.12 186.441 36.4667 185.929 36.744C185.428 37.0107 184.846 37.144 184.185 37.144C183.438 37.144 182.756 36.952 182.137 36.568C181.529 36.184 181.044 35.6453 180.681 34.952C180.329 34.248 180.153 33.4427 180.153 32.536ZM187.129 32.568C187.129 32.024 187.022 31.56 186.809 31.176C186.596 30.7813 186.308 30.4827 185.945 30.28C185.582 30.0667 185.193 29.96 184.777 29.96C184.361 29.96 183.977 30.0613 183.625 30.264C183.273 30.4667 182.985 30.7653 182.761 31.16C182.548 31.544 182.441 32.0027 182.441 32.536C182.441 33.0693 182.548 33.5387 182.761 33.944C182.985 34.3387 183.273 34.6427 183.625 34.856C183.988 35.0693 184.372 35.176 184.777 35.176C185.193 35.176 185.582 35.0747 185.945 34.872C186.308 34.6587 186.596 34.36 186.809 33.976C187.022 33.5813 187.129 33.112 187.129 32.568ZM196.485 28.008C197.541 28.008 198.394 28.344 199.045 29.016C199.695 29.6773 200.021 30.6053 200.021 31.8V37H197.781V32.104C197.781 31.4 197.605 30.8613 197.253 30.488C196.901 30.104 196.421 29.912 195.813 29.912C195.194 29.912 194.703 30.104 194.341 30.488C193.989 30.8613 193.813 31.4 193.813 32.104V37H191.573V28.136H193.813V29.24C194.111 28.856 194.49 28.5573 194.949 28.344C195.418 28.12 195.93 28.008 196.485 28.008ZM201.575 32.536C201.575 31.64 201.751 30.8453 202.103 30.152C202.466 29.4587 202.956 28.9253 203.575 28.552C204.194 28.1787 204.882 27.992 205.639 27.992C206.215 27.992 206.764 28.12 207.287 28.376C207.81 28.6213 208.226 28.952 208.535 29.368V25.16H210.807V37H208.535V35.688C208.258 36.1253 207.868 36.4773 207.367 36.744C206.866 37.0107 206.284 37.144 205.623 37.144C204.876 37.144 204.194 36.952 203.575 36.568C202.956 36.184 202.466 35.6453 202.103 34.952C201.751 34.248 201.575 33.4427 201.575 32.536ZM208.551 32.568C208.551 32.024 208.444 31.56 208.231 31.176C208.018 30.7813 207.73 30.4827 207.367 30.28C207.004 30.0667 206.615 29.96 206.199 29.96C205.783 29.96 205.399 30.0613 205.047 30.264C204.695 30.4667 204.407 30.7653 204.183 31.16C203.97 31.544 203.863 32.0027 203.863 32.536C203.863 33.0693 203.97 33.5387 204.183 33.944C204.407 34.3387 204.695 34.6427 205.047 34.856C205.41 35.0693 205.794 35.176 206.199 35.176C206.615 35.176 207.004 35.0747 207.367 34.872C207.73 34.6587 208.018 34.36 208.231 33.976C208.444 33.5813 208.551 33.112 208.551 32.568ZM214.131 27.08C213.736 27.08 213.405 26.9573 213.139 26.712C212.883 26.456 212.755 26.1413 212.755 25.768C212.755 25.3947 212.883 25.0853 213.139 24.84C213.405 24.584 213.736 24.456 214.131 24.456C214.525 24.456 214.851 24.584 215.107 24.84C215.373 25.0853 215.507 25.3947 215.507 25.768C215.507 26.1413 215.373 26.456 215.107 26.712C214.851 26.9573 214.525 27.08 214.131 27.08ZM215.235 28.136V37H212.995V28.136H215.235ZM220.056 29.976V34.264C220.056 34.5627 220.125 34.7813 220.264 34.92C220.413 35.048 220.658 35.112 221 35.112H222.04V37H220.632C218.744 37 217.8 36.0827 217.8 34.248V29.976H216.744V28.136H217.8V25.944H220.056V28.136H222.04V29.976H220.056Z" fill="#264653"/>
<path d="M106.065 51.545V52.655H101.52V56.18H105.21V57.29H101.52V62H100.155V51.545H106.065ZM109.079 55.115C109.319 54.645 109.659 54.28 110.099 54.02C110.549 53.76 111.094 53.63 111.734 53.63V55.04H111.374C109.844 55.04 109.079 55.87 109.079 57.53V62H107.714V53.78H109.079V55.115ZM116.894 62.135C116.124 62.135 115.424 61.96 114.794 61.61C114.174 61.26 113.684 60.765 113.324 60.125C112.974 59.475 112.799 58.725 112.799 57.875C112.799 57.035 112.979 56.295 113.339 55.655C113.709 55.005 114.209 54.51 114.839 54.17C115.469 53.82 116.174 53.645 116.954 53.645C117.734 53.645 118.439 53.82 119.069 54.17C119.699 54.51 120.194 55 120.554 55.64C120.924 56.28 121.109 57.025 121.109 57.875C121.109 58.725 120.919 59.475 120.539 60.125C120.169 60.765 119.664 61.26 119.024 61.61C118.384 61.96 117.674 62.135 116.894 62.135ZM116.894 60.935C117.384 60.935 117.844 60.82 118.274 60.59C118.704 60.36 119.049 60.015 119.309 59.555C119.579 59.095 119.714 58.535 119.714 57.875C119.714 57.215 119.584 56.655 119.324 56.195C119.064 55.735 118.724 55.395 118.304 55.175C117.884 54.945 117.429 54.83 116.939 54.83C116.439 54.83 115.979 54.945 115.559 55.175C115.149 55.395 114.819 55.735 114.569 56.195C114.319 56.655 114.194 57.215 114.194 57.875C114.194 58.545 114.314 59.11 114.554 59.57C114.804 60.03 115.134 60.375 115.544 60.605C115.954 60.825 116.404 60.935 116.894 60.935ZM132.789 53.63C133.429 53.63 133.999 53.765 134.499 54.035C134.999 54.295 135.394 54.69 135.684 55.22C135.974 55.75 136.119 56.395 136.119 57.155V62H134.769V57.35C134.769 56.53 134.564 55.905 134.154 55.475C133.754 55.035 133.209 54.815 132.519 54.815C131.809 54.815 131.244 55.045 130.824 55.505C130.404 55.955 130.194 56.61 130.194 57.47V62H128.844V57.35C128.844 56.53 128.639 55.905 128.229 55.475C127.829 55.035 127.284 54.815 126.594 54.815C125.884 54.815 125.319 55.045 124.899 55.505C124.479 55.955 124.269 56.61 124.269 57.47V62H122.904V53.78H124.269V54.965C124.539 54.535 124.899 54.205 125.349 53.975C125.809 53.745 126.314 53.63 126.864 53.63C127.554 53.63 128.164 53.785 128.694 54.095C129.224 54.405 129.619 54.86 129.879 55.46C130.109 54.88 130.489 54.43 131.019 54.11C131.549 53.79 132.139 53.63 132.789 53.63ZM150.577 62H149.212L143.722 53.675V62H142.357V51.53H143.722L149.212 59.84V51.53H150.577V62ZM156.489 62.135C155.719 62.135 155.019 61.96 154.389 61.61C153.769 61.26 153.279 60.765 152.919 60.125C152.569 59.475 152.394 58.725 152.394 57.875C152.394 57.035 152.574 56.295 152.934 55.655C153.304 55.005 153.804 54.51 154.434 54.17C155.064 53.82 155.769 53.645 156.549 53.645C157.329 53.645 158.034 53.82 158.664 54.17C159.294 54.51 159.789 55 160.149 55.64C160.519 56.28 160.704 57.025 160.704 57.875C160.704 58.725 160.514 59.475 160.134 60.125C159.764 60.765 159.259 61.26 158.619 61.61C157.979 61.96 157.269 62.135 156.489 62.135ZM156.489 60.935C156.979 60.935 157.439 60.82 157.869 60.59C158.299 60.36 158.644 60.015 158.904 59.555C159.174 59.095 159.309 58.535 159.309 57.875C159.309 57.215 159.179 56.655 158.919 56.195C158.659 55.735 158.319 55.395 157.899 55.175C157.479 54.945 157.024 54.83 156.534 54.83C156.034 54.83 155.574 54.945 155.154 55.175C154.744 55.395 154.414 55.735 154.164 56.195C153.914 56.655 153.789 57.215 153.789 57.875C153.789 58.545 153.909 59.11 154.149 59.57C154.399 60.03 154.729 60.375 155.139 60.605C155.549 60.825 155.999 60.935 156.489 60.935ZM163.204 52.445C162.944 52.445 162.724 52.355 162.544 52.175C162.364 51.995 162.274 51.775 162.274 51.515C162.274 51.255 162.364 51.035 162.544 50.855C162.724 50.675 162.944 50.585 163.204 50.585C163.454 50.585 163.664 50.675 163.834 50.855C164.014 51.035 164.104 51.255 164.104 51.515C164.104 51.775 164.014 51.995 163.834 52.175C163.664 52.355 163.454 52.445 163.204 52.445ZM163.864 53.78V62H162.499V53.78H163.864ZM165.68 57.86C165.68 57.02 165.85 56.285 166.19 55.655C166.53 55.015 166.995 54.52 167.585 54.17C168.185 53.82 168.855 53.645 169.595 53.645C170.235 53.645 170.83 53.795 171.38 54.095C171.93 54.385 172.35 54.77 172.64 55.25V50.9H174.02V62H172.64V60.455C172.37 60.945 171.97 61.35 171.44 61.67C170.91 61.98 170.29 62.135 169.58 62.135C168.85 62.135 168.185 61.955 167.585 61.595C166.995 61.235 166.53 60.73 166.19 60.08C165.85 59.43 165.68 58.69 165.68 57.86ZM172.64 57.875C172.64 57.255 172.515 56.715 172.265 56.255C172.015 55.795 171.675 55.445 171.245 55.205C170.825 54.955 170.36 54.83 169.85 54.83C169.34 54.83 168.875 54.95 168.455 55.19C168.035 55.43 167.7 55.78 167.45 56.24C167.2 56.7 167.075 57.24 167.075 57.86C167.075 58.49 167.2 59.04 167.45 59.51C167.7 59.97 168.035 60.325 168.455 60.575C168.875 60.815 169.34 60.935 169.85 60.935C170.36 60.935 170.825 60.815 171.245 60.575C171.675 60.325 172.015 59.97 172.265 59.51C172.515 59.04 172.64 58.495 172.64 57.875ZM175.817 57.86C175.817 57.02 175.987 56.285 176.327 55.655C176.667 55.015 177.132 54.52 177.722 54.17C178.322 53.82 178.987 53.645 179.717 53.645C180.437 53.645 181.062 53.8 181.592 54.11C182.122 54.42 182.517 54.81 182.777 55.28V53.78H184.157V62H182.777V60.47C182.507 60.95 182.102 61.35 181.562 61.67C181.032 61.98 180.412 62.135 179.702 62.135C178.972 62.135 178.312 61.955 177.722 61.595C177.132 61.235 176.667 60.73 176.327 60.08C175.987 59.43 175.817 58.69 175.817 57.86ZM182.777 57.875C182.777 57.255 182.652 56.715 182.402 56.255C182.152 55.795 181.812 55.445 181.382 55.205C180.962 54.955 180.497 54.83 179.987 54.83C179.477 54.83 179.012 54.95 178.592 55.19C178.172 55.43 177.837 55.78 177.587 56.24C177.337 56.7 177.212 57.24 177.212 57.86C177.212 58.49 177.337 59.04 177.587 59.51C177.837 59.97 178.172 60.325 178.592 60.575C179.012 60.815 179.477 60.935 179.987 60.935C180.497 60.935 180.962 60.815 181.382 60.575C181.812 60.325 182.152 59.97 182.402 59.51C182.652 59.04 182.777 58.495 182.777 57.875Z" fill="#E76F51"/>
<path d="M53.352 154.242V164H52.078V154.242H53.352ZM58.7797 160.136C58.7797 159.352 58.9384 158.666 59.2557 158.078C59.5731 157.481 60.0071 157.019 60.5577 156.692C61.1177 156.365 61.7384 156.202 62.4197 156.202C63.0917 156.202 63.6751 156.347 64.1697 156.636C64.6644 156.925 65.0331 157.289 65.2757 157.728V156.328H66.5637V164H65.2757V162.572C65.0237 163.02 64.6457 163.393 64.1417 163.692C63.6471 163.981 63.0684 164.126 62.4057 164.126C61.7244 164.126 61.1084 163.958 60.5577 163.622C60.0071 163.286 59.5731 162.815 59.2557 162.208C58.9384 161.601 58.7797 160.911 58.7797 160.136ZM65.2757 160.15C65.2757 159.571 65.1591 159.067 64.9257 158.638C64.6924 158.209 64.3751 157.882 63.9737 157.658C63.5817 157.425 63.1477 157.308 62.6717 157.308C62.1957 157.308 61.7617 157.42 61.3697 157.644C60.9777 157.868 60.6651 158.195 60.4317 158.624C60.1984 159.053 60.0817 159.557 60.0817 160.136C60.0817 160.724 60.1984 161.237 60.4317 161.676C60.6651 162.105 60.9777 162.437 61.3697 162.67C61.7617 162.894 62.1957 163.006 62.6717 163.006C63.1477 163.006 63.5817 162.894 63.9737 162.67C64.3751 162.437 64.6924 162.105 64.9257 161.676C65.1591 161.237 65.2757 160.729 65.2757 160.15ZM77.9427 156.188C78.54 156.188 79.072 156.314 79.5387 156.566C80.0053 156.809 80.374 157.177 80.6447 157.672C80.9153 158.167 81.0507 158.769 81.0507 159.478V164H79.7907V159.66C79.7907 158.895 79.5993 158.311 79.2167 157.91C78.8433 157.499 78.3347 157.294 77.6907 157.294C77.028 157.294 76.5007 157.509 76.1087 157.938C75.7167 158.358 75.5207 158.969 75.5207 159.772V164H74.2607V159.66C74.2607 158.895 74.0693 158.311 73.6867 157.91C73.3133 157.499 72.8047 157.294 72.1607 157.294C71.498 157.294 70.9707 157.509 70.5787 157.938C70.1867 158.358 69.9907 158.969 69.9907 159.772V164H68.7167V156.328H69.9907V157.434C70.2427 157.033 70.5787 156.725 70.9987 156.51C71.428 156.295 71.8993 156.188 72.4127 156.188C73.0567 156.188 73.626 156.333 74.1207 156.622C74.6153 156.911 74.984 157.336 75.2267 157.896C75.4413 157.355 75.796 156.935 76.2907 156.636C76.7853 156.337 77.336 156.188 77.9427 156.188ZM88.1469 157.574C88.3709 157.135 88.6883 156.795 89.0989 156.552C89.5189 156.309 90.0276 156.188 90.6249 156.188V157.504H90.2889C88.8609 157.504 88.1469 158.279 88.1469 159.828V164H86.8729V156.328H88.1469V157.574ZM99.0956 159.87C99.0956 160.113 99.0816 160.369 99.0536 160.64H92.9216C92.9682 161.396 93.2249 161.989 93.6916 162.418C94.1676 162.838 94.7416 163.048 95.4136 163.048C95.9642 163.048 96.4216 162.922 96.7856 162.67C97.1589 162.409 97.4202 162.063 97.5696 161.634H98.9416C98.7362 162.371 98.3256 162.973 97.7096 163.44C97.0936 163.897 96.3282 164.126 95.4136 164.126C94.6856 164.126 94.0322 163.963 93.4536 163.636C92.8842 163.309 92.4362 162.847 92.1096 162.25C91.7829 161.643 91.6196 160.943 91.6196 160.15C91.6196 159.357 91.7782 158.661 92.0956 158.064C92.4129 157.467 92.8562 157.009 93.4256 156.692C94.0042 156.365 94.6669 156.202 95.4136 156.202C96.1416 156.202 96.7856 156.361 97.3456 156.678C97.9056 156.995 98.3349 157.434 98.6336 157.994C98.9416 158.545 99.0956 159.17 99.0956 159.87ZM97.7796 159.604C97.7796 159.119 97.6722 158.703 97.4576 158.358C97.2429 158.003 96.9489 157.737 96.5756 157.56C96.2116 157.373 95.8056 157.28 95.3576 157.28C94.7136 157.28 94.1629 157.485 93.7056 157.896C93.2576 158.307 93.0009 158.876 92.9356 159.604H97.7796ZM100.301 160.136C100.301 159.352 100.46 158.666 100.777 158.078C101.095 157.481 101.529 157.019 102.079 156.692C102.639 156.365 103.26 156.202 103.941 156.202C104.613 156.202 105.197 156.347 105.691 156.636C106.186 156.925 106.555 157.289 106.797 157.728V156.328H108.085V164H106.797V162.572C106.545 163.02 106.167 163.393 105.663 163.692C105.169 163.981 104.59 164.126 103.927 164.126C103.246 164.126 102.63 163.958 102.079 163.622C101.529 163.286 101.095 162.815 100.777 162.208C100.46 161.601 100.301 160.911 100.301 160.136ZM106.797 160.15C106.797 159.571 106.681 159.067 106.447 158.638C106.214 158.209 105.897 157.882 105.495 157.658C105.103 157.425 104.669 157.308 104.193 157.308C103.717 157.308 103.283 157.42 102.891 157.644C102.499 157.868 102.187 158.195 101.953 158.624C101.72 159.053 101.603 159.557 101.603 160.136C101.603 160.724 101.72 161.237 101.953 161.676C102.187 162.105 102.499 162.437 102.891 162.67C103.283 162.894 103.717 163.006 104.193 163.006C104.669 163.006 105.103 162.894 105.495 162.67C105.897 162.437 106.214 162.105 106.447 161.676C106.681 161.237 106.797 160.729 106.797 160.15ZM111.512 153.64V164H110.238V153.64H111.512ZM114.957 153.64V164H113.683V153.64H114.957ZM123.737 156.328L119.117 167.612H117.801L119.313 163.916L116.219 156.328H117.633L120.041 162.544L122.421 156.328H123.737ZM129.408 155.082C129.165 155.082 128.96 154.998 128.792 154.83C128.624 154.662 128.54 154.457 128.54 154.214C128.54 153.971 128.624 153.766 128.792 153.598C128.96 153.43 129.165 153.346 129.408 153.346C129.641 153.346 129.837 153.43 129.996 153.598C130.164 153.766 130.248 153.971 130.248 154.214C130.248 154.457 130.164 154.662 129.996 154.83C129.837 154.998 129.641 155.082 129.408 155.082ZM130.024 156.328V164H128.75V156.328H130.024ZM141.421 156.188C142.019 156.188 142.551 156.314 143.017 156.566C143.484 156.809 143.853 157.177 144.123 157.672C144.394 158.167 144.529 158.769 144.529 159.478V164H143.269V159.66C143.269 158.895 143.078 158.311 142.695 157.91C142.322 157.499 141.813 157.294 141.169 157.294C140.507 157.294 139.979 157.509 139.587 157.938C139.195 158.358 138.999 158.969 138.999 159.772V164H137.739V159.66C137.739 158.895 137.548 158.311 137.165 157.91C136.792 157.499 136.283 157.294 135.639 157.294C134.977 157.294 134.449 157.509 134.057 157.938C133.665 158.358 133.469 158.969 133.469 159.772V164H132.195V156.328H133.469V157.434C133.721 157.033 134.057 156.725 134.477 156.51C134.907 156.295 135.378 156.188 135.891 156.188C136.535 156.188 137.105 156.333 137.599 156.622C138.094 156.911 138.463 157.336 138.705 157.896C138.92 157.355 139.275 156.935 139.769 156.636C140.264 156.337 140.815 156.188 141.421 156.188ZM147.893 157.742C148.145 157.303 148.518 156.939 149.013 156.65C149.517 156.351 150.1 156.202 150.763 156.202C151.444 156.202 152.06 156.365 152.611 156.692C153.171 157.019 153.61 157.481 153.927 158.078C154.244 158.666 154.403 159.352 154.403 160.136C154.403 160.911 154.244 161.601 153.927 162.208C153.61 162.815 153.171 163.286 152.611 163.622C152.06 163.958 151.444 164.126 150.763 164.126C150.11 164.126 149.531 163.981 149.027 163.692C148.532 163.393 148.154 163.025 147.893 162.586V167.64H146.619V156.328H147.893V157.742ZM153.101 160.136C153.101 159.557 152.984 159.053 152.751 158.624C152.518 158.195 152.2 157.868 151.799 157.644C151.407 157.42 150.973 157.308 150.497 157.308C150.03 157.308 149.596 157.425 149.195 157.658C148.803 157.882 148.486 158.213 148.243 158.652C148.01 159.081 147.893 159.581 147.893 160.15C147.893 160.729 148.01 161.237 148.243 161.676C148.486 162.105 148.803 162.437 149.195 162.67C149.596 162.894 150.03 163.006 150.497 163.006C150.973 163.006 151.407 162.894 151.799 162.67C152.2 162.437 152.518 162.105 152.751 161.676C152.984 161.237 153.101 160.724 153.101 160.136ZM157.354 157.574C157.578 157.135 157.895 156.795 158.306 156.552C158.726 156.309 159.235 156.188 159.832 156.188V157.504H159.496C158.068 157.504 157.354 158.279 157.354 159.828V164H156.08V156.328H157.354V157.574ZM168.303 159.87C168.303 160.113 168.289 160.369 168.261 160.64H162.129C162.175 161.396 162.432 161.989 162.899 162.418C163.375 162.838 163.949 163.048 164.621 163.048C165.171 163.048 165.629 162.922 165.993 162.67C166.366 162.409 166.627 162.063 166.777 161.634H168.149C167.943 162.371 167.533 162.973 166.917 163.44C166.301 163.897 165.535 164.126 164.621 164.126C163.893 164.126 163.239 163.963 162.661 163.636C162.091 163.309 161.643 162.847 161.317 162.25C160.99 161.643 160.827 160.943 160.827 160.15C160.827 159.357 160.985 158.661 161.303 158.064C161.62 157.467 162.063 157.009 162.633 156.692C163.211 156.365 163.874 156.202 164.621 156.202C165.349 156.202 165.993 156.361 166.553 156.678C167.113 156.995 167.542 157.434 167.841 157.994C168.149 158.545 168.303 159.17 168.303 159.87ZM166.987 159.604C166.987 159.119 166.879 158.703 166.665 158.358C166.45 158.003 166.156 157.737 165.783 157.56C165.419 157.373 165.013 157.28 164.565 157.28C163.921 157.28 163.37 157.485 162.913 157.896C162.465 158.307 162.208 158.876 162.143 159.604H166.987ZM172.7 164.126C172.112 164.126 171.585 164.028 171.118 163.832C170.652 163.627 170.283 163.347 170.012 162.992C169.742 162.628 169.592 162.213 169.564 161.746H170.88C170.918 162.129 171.095 162.441 171.412 162.684C171.739 162.927 172.164 163.048 172.686 163.048C173.172 163.048 173.554 162.941 173.834 162.726C174.114 162.511 174.254 162.241 174.254 161.914C174.254 161.578 174.105 161.331 173.806 161.172C173.508 161.004 173.046 160.841 172.42 160.682C171.851 160.533 171.384 160.383 171.02 160.234C170.666 160.075 170.358 159.847 170.096 159.548C169.844 159.24 169.718 158.839 169.718 158.344C169.718 157.952 169.835 157.593 170.068 157.266C170.302 156.939 170.633 156.683 171.062 156.496C171.492 156.3 171.982 156.202 172.532 156.202C173.382 156.202 174.068 156.417 174.59 156.846C175.113 157.275 175.393 157.863 175.43 158.61H174.156C174.128 158.209 173.965 157.887 173.666 157.644C173.377 157.401 172.985 157.28 172.49 157.28C172.033 157.28 171.669 157.378 171.398 157.574C171.128 157.77 170.992 158.027 170.992 158.344C170.992 158.596 171.072 158.806 171.23 158.974C171.398 159.133 171.604 159.263 171.846 159.366C172.098 159.459 172.444 159.567 172.882 159.688C173.433 159.837 173.881 159.987 174.226 160.136C174.572 160.276 174.866 160.491 175.108 160.78C175.36 161.069 175.491 161.447 175.5 161.914C175.5 162.334 175.384 162.712 175.15 163.048C174.917 163.384 174.586 163.65 174.156 163.846C173.736 164.033 173.251 164.126 172.7 164.126ZM180.015 164.126C179.427 164.126 178.899 164.028 178.433 163.832C177.966 163.627 177.597 163.347 177.327 162.992C177.056 162.628 176.907 162.213 176.879 161.746H178.195C178.232 162.129 178.409 162.441 178.727 162.684C179.053 162.927 179.478 163.048 180.001 163.048C180.486 163.048 180.869 162.941 181.149 162.726C181.429 162.511 181.569 162.241 181.569 161.914C181.569 161.578 181.419 161.331 181.121 161.172C180.822 161.004 180.36 160.841 179.735 160.682C179.165 160.533 178.699 160.383 178.335 160.234C177.98 160.075 177.672 159.847 177.411 159.548C177.159 159.24 177.033 158.839 177.033 158.344C177.033 157.952 177.149 157.593 177.383 157.266C177.616 156.939 177.947 156.683 178.377 156.496C178.806 156.3 179.296 156.202 179.847 156.202C180.696 156.202 181.382 156.417 181.905 156.846C182.427 157.275 182.707 157.863 182.745 158.61H181.471C181.443 158.209 181.279 157.887 180.981 157.644C180.691 157.401 180.299 157.28 179.805 157.28C179.347 157.28 178.983 157.378 178.713 157.574C178.442 157.77 178.307 158.027 178.307 158.344C178.307 158.596 178.386 158.806 178.545 158.974C178.713 159.133 178.918 159.263 179.161 159.366C179.413 159.459 179.758 159.567 180.197 159.688C180.747 159.837 181.195 159.987 181.541 160.136C181.886 160.276 182.18 160.491 182.423 160.78C182.675 161.069 182.805 161.447 182.815 161.914C182.815 162.334 182.698 162.712 182.465 163.048C182.231 163.384 181.9 163.65 181.471 163.846C181.051 164.033 180.565 164.126 180.015 164.126ZM191.613 159.87C191.613 160.113 191.599 160.369 191.571 160.64H185.439C185.486 161.396 185.742 161.989 186.209 162.418C186.685 162.838 187.259 163.048 187.931 163.048C188.482 163.048 188.939 162.922 189.303 162.67C189.676 162.409 189.938 162.063 190.087 161.634H191.459C191.254 162.371 190.843 162.973 190.227 163.44C189.611 163.897 188.846 164.126 187.931 164.126C187.203 164.126 186.55 163.963 185.971 163.636C185.402 163.309 184.954 162.847 184.627 162.25C184.3 161.643 184.137 160.943 184.137 160.15C184.137 159.357 184.296 158.661 184.613 158.064C184.93 157.467 185.374 157.009 185.943 156.692C186.522 156.365 187.184 156.202 187.931 156.202C188.659 156.202 189.303 156.361 189.863 156.678C190.423 156.995 190.852 157.434 191.151 157.994C191.459 158.545 191.613 159.17 191.613 159.87ZM190.297 159.604C190.297 159.119 190.19 158.703 189.975 158.358C189.76 158.003 189.466 157.737 189.093 157.56C188.729 157.373 188.323 157.28 187.875 157.28C187.231 157.28 186.68 157.485 186.223 157.896C185.775 158.307 185.518 158.876 185.453 159.604H190.297ZM192.819 160.136C192.819 159.352 192.977 158.666 193.295 158.078C193.612 157.481 194.046 157.019 194.597 156.692C195.157 156.365 195.782 156.202 196.473 156.202C197.07 156.202 197.625 156.342 198.139 156.622C198.652 156.893 199.044 157.252 199.315 157.7V153.64H200.603V164H199.315V162.558C199.063 163.015 198.689 163.393 198.195 163.692C197.7 163.981 197.121 164.126 196.459 164.126C195.777 164.126 195.157 163.958 194.597 163.622C194.046 163.286 193.612 162.815 193.295 162.208C192.977 161.601 192.819 160.911 192.819 160.136ZM199.315 160.15C199.315 159.571 199.198 159.067 198.965 158.638C198.731 158.209 198.414 157.882 198.013 157.658C197.621 157.425 197.187 157.308 196.711 157.308C196.235 157.308 195.801 157.42 195.409 157.644C195.017 157.868 194.704 158.195 194.471 158.624C194.237 159.053 194.121 159.557 194.121 160.136C194.121 160.724 194.237 161.237 194.471 161.676C194.704 162.105 195.017 162.437 195.409 162.67C195.801 162.894 196.235 163.006 196.711 163.006C197.187 163.006 197.621 162.894 198.013 162.67C198.414 162.437 198.731 162.105 198.965 161.676C199.198 161.237 199.315 160.729 199.315 160.15ZM216.708 156.328L214.314 164H212.998L211.15 157.91L209.302 164H207.986L205.578 156.328H206.88L208.644 162.768L210.548 156.328H211.85L213.712 162.782L215.448 156.328H216.708ZM218.631 155.082C218.388 155.082 218.183 154.998 218.015 154.83C217.847 154.662 217.763 154.457 217.763 154.214C217.763 153.971 217.847 153.766 218.015 153.598C218.183 153.43 218.388 153.346 218.631 153.346C218.864 153.346 219.06 153.43 219.219 153.598C219.387 153.766 219.471 153.971 219.471 154.214C219.471 154.457 219.387 154.662 219.219 154.83C219.06 154.998 218.864 155.082 218.631 155.082ZM219.247 156.328V164H217.973V156.328H219.247ZM222.972 157.378V161.9C222.972 162.273 223.051 162.539 223.21 162.698C223.369 162.847 223.644 162.922 224.036 162.922H224.974V164H223.826C223.117 164 222.585 163.837 222.23 163.51C221.875 163.183 221.698 162.647 221.698 161.9V157.378H220.704V156.328H221.698V154.396H222.972V156.328H224.974V157.378H222.972ZM230.325 156.188C230.904 156.188 231.427 156.314 231.893 156.566C232.36 156.809 232.724 157.177 232.985 157.672C233.256 158.167 233.391 158.769 233.391 159.478V164H232.131V159.66C232.131 158.895 231.94 158.311 231.557 157.91C231.175 157.499 230.652 157.294 229.989 157.294C229.317 157.294 228.781 157.504 228.379 157.924C227.987 158.344 227.791 158.955 227.791 159.758V164H226.517V153.64H227.791V157.42C228.043 157.028 228.389 156.725 228.827 156.51C229.275 156.295 229.775 156.188 230.325 156.188ZM240.759 157.378V161.9C240.759 162.273 240.838 162.539 240.997 162.698C241.156 162.847 241.431 162.922 241.823 162.922H242.761V164H241.613C240.904 164 240.372 163.837 240.017 163.51C239.662 163.183 239.485 162.647 239.485 161.9V157.378H238.491V156.328H239.485V154.396H240.759V156.328H242.761V157.378H240.759ZM248.113 156.188C248.691 156.188 249.214 156.314 249.681 156.566C250.147 156.809 250.511 157.177 250.773 157.672C251.043 158.167 251.179 158.769 251.179 159.478V164H249.919V159.66C249.919 158.895 249.727 158.311 249.345 157.91C248.962 157.499 248.439 157.294 247.777 157.294C247.105 157.294 246.568 157.504 246.167 157.924C245.775 158.344 245.579 158.955 245.579 159.758V164H244.305V153.64H245.579V157.42C245.831 157.028 246.176 156.725 246.615 156.51C247.063 156.295 247.562 156.188 248.113 156.188ZM260.26 159.87C260.26 160.113 260.246 160.369 260.218 160.64H254.086C254.132 161.396 254.389 161.989 254.856 162.418C255.332 162.838 255.906 163.048 256.578 163.048C257.128 163.048 257.586 162.922 257.95 162.67C258.323 162.409 258.584 162.063 258.734 161.634H260.106C259.9 162.371 259.49 162.973 258.874 163.44C258.258 163.897 257.492 164.126 256.578 164.126C255.85 164.126 255.196 163.963 254.618 163.636C254.048 163.309 253.6 162.847 253.274 162.25C252.947 161.643 252.784 160.943 252.784 160.15C252.784 159.357 252.942 158.661 253.26 158.064C253.577 157.467 254.02 157.009 254.59 156.692C255.168 156.365 255.831 156.202 256.578 156.202C257.306 156.202 257.95 156.361 258.51 156.678C259.07 156.995 259.499 157.434 259.798 157.994C260.106 158.545 260.26 159.17 260.26 159.87ZM258.944 159.604C258.944 159.119 258.836 158.703 258.622 158.358C258.407 158.003 258.113 157.737 257.74 157.56C257.376 157.373 256.97 157.28 256.522 157.28C255.878 157.28 255.327 157.485 254.87 157.896C254.422 158.307 254.165 158.876 254.1 159.604H258.944ZM275.894 156.328L273.5 164H272.184L270.336 157.91L268.488 164H267.172L264.764 156.328H266.066L267.83 162.768L269.734 156.328H271.036L272.898 162.782L274.634 156.328H275.894ZM280.504 164.126C279.785 164.126 279.132 163.963 278.544 163.636C277.965 163.309 277.508 162.847 277.172 162.25C276.845 161.643 276.682 160.943 276.682 160.15C276.682 159.366 276.85 158.675 277.186 158.078C277.531 157.471 277.998 157.009 278.586 156.692C279.174 156.365 279.832 156.202 280.56 156.202C281.288 156.202 281.946 156.365 282.534 156.692C283.122 157.009 283.584 157.467 283.92 158.064C284.265 158.661 284.438 159.357 284.438 160.15C284.438 160.943 284.261 161.643 283.906 162.25C283.561 162.847 283.089 163.309 282.492 163.636C281.895 163.963 281.232 164.126 280.504 164.126ZM280.504 163.006C280.961 163.006 281.391 162.899 281.792 162.684C282.193 162.469 282.515 162.147 282.758 161.718C283.01 161.289 283.136 160.766 283.136 160.15C283.136 159.534 283.015 159.011 282.772 158.582C282.529 158.153 282.212 157.835 281.82 157.63C281.428 157.415 281.003 157.308 280.546 157.308C280.079 157.308 279.65 157.415 279.258 157.63C278.875 157.835 278.567 158.153 278.334 158.582C278.101 159.011 277.984 159.534 277.984 160.15C277.984 160.775 278.096 161.303 278.32 161.732C278.553 162.161 278.861 162.483 279.244 162.698C279.627 162.903 280.047 163.006 280.504 163.006ZM287.387 157.574C287.611 157.135 287.928 156.795 288.339 156.552C288.759 156.309 289.268 156.188 289.865 156.188V157.504H289.529C288.101 157.504 287.387 158.279 287.387 159.828V164H286.113V156.328H287.387V157.574ZM295.62 164L292.61 160.612V164H291.336V153.64H292.61V159.73L295.564 156.328H297.342L293.73 160.15L297.356 164H295.62ZM305.619 164.126C304.901 164.126 304.247 163.963 303.659 163.636C303.081 163.309 302.623 162.847 302.287 162.25C301.961 161.643 301.797 160.943 301.797 160.15C301.797 159.366 301.965 158.675 302.301 158.078C302.647 157.471 303.113 157.009 303.701 156.692C304.289 156.365 304.947 156.202 305.675 156.202C306.403 156.202 307.061 156.365 307.649 156.692C308.237 157.009 308.699 157.467 309.035 158.064C309.381 158.661 309.553 159.357 309.553 160.15C309.553 160.943 309.376 161.643 309.021 162.25C308.676 162.847 308.205 163.309 307.607 163.636C307.01 163.963 306.347 164.126 305.619 164.126ZM305.619 163.006C306.077 163.006 306.506 162.899 306.907 162.684C307.309 162.469 307.631 162.147 307.873 161.718C308.125 161.289 308.251 160.766 308.251 160.15C308.251 159.534 308.13 159.011 307.887 158.582C307.645 158.153 307.327 157.835 306.935 157.63C306.543 157.415 306.119 157.308 305.661 157.308C305.195 157.308 304.765 157.415 304.373 157.63C303.991 157.835 303.683 158.153 303.449 158.582C303.216 159.011 303.099 159.534 303.099 160.15C303.099 160.775 303.211 161.303 303.435 161.732C303.669 162.161 303.977 162.483 304.359 162.698C304.742 162.903 305.162 163.006 305.619 163.006ZM314.35 157.378H312.74V164H311.466V157.378H310.472V156.328H311.466V155.782C311.466 154.923 311.686 154.298 312.124 153.906C312.572 153.505 313.286 153.304 314.266 153.304V154.368C313.706 154.368 313.31 154.48 313.076 154.704C312.852 154.919 312.74 155.278 312.74 155.782V156.328H314.35V157.378ZM321.122 157.378V161.9C321.122 162.273 321.202 162.539 321.36 162.698C321.519 162.847 321.794 162.922 322.186 162.922H323.124V164H321.976C321.267 164 320.735 163.837 320.38 163.51C320.026 163.183 319.848 162.647 319.848 161.9V157.378H318.854V156.328H319.848V154.396H321.122V156.328H323.124V157.378H321.122ZM328.476 156.188C329.055 156.188 329.577 156.314 330.044 156.566C330.511 156.809 330.875 157.177 331.136 157.672C331.407 158.167 331.542 158.769 331.542 159.478V164H330.282V159.66C330.282 158.895 330.091 158.311 329.708 157.91C329.325 157.499 328.803 157.294 328.14 157.294C327.468 157.294 326.931 157.504 326.53 157.924C326.138 158.344 325.942 158.955 325.942 159.758V164H324.668V153.64H325.942V157.42C326.194 157.028 326.539 156.725 326.978 156.51C327.426 156.295 327.925 156.188 328.476 156.188ZM334.281 155.082C334.038 155.082 333.833 154.998 333.665 154.83C333.497 154.662 333.413 154.457 333.413 154.214C333.413 153.971 333.497 153.766 333.665 153.598C333.833 153.43 334.038 153.346 334.281 153.346C334.514 153.346 334.71 153.43 334.869 153.598C335.037 153.766 335.121 153.971 335.121 154.214C335.121 154.457 335.037 154.662 334.869 154.83C334.71 154.998 334.514 155.082 334.281 155.082ZM334.897 156.328V164H333.623V156.328H334.897ZM339.784 164.126C339.196 164.126 338.669 164.028 338.202 163.832C337.736 163.627 337.367 163.347 337.096 162.992C336.826 162.628 336.676 162.213 336.648 161.746H337.964C338.002 162.129 338.179 162.441 338.496 162.684C338.823 162.927 339.248 163.048 339.77 163.048C340.256 163.048 340.638 162.941 340.918 162.726C341.198 162.511 341.338 162.241 341.338 161.914C341.338 161.578 341.189 161.331 340.89 161.172C340.592 161.004 340.13 160.841 339.504 160.682C338.935 160.533 338.468 160.383 338.104 160.234C337.75 160.075 337.442 159.847 337.18 159.548C336.928 159.24 336.802 158.839 336.802 158.344C336.802 157.952 336.919 157.593 337.152 157.266C337.386 156.939 337.717 156.683 338.146 156.496C338.576 156.3 339.066 156.202 339.616 156.202C340.466 156.202 341.152 156.417 341.674 156.846C342.197 157.275 342.477 157.863 342.514 158.61H341.24C341.212 158.209 341.049 157.887 340.75 157.644C340.461 157.401 340.069 157.28 339.574 157.28C339.117 157.28 338.753 157.378 338.482 157.574C338.212 157.77 338.076 158.027 338.076 158.344C338.076 158.596 338.156 158.806 338.314 158.974C338.482 159.133 338.688 159.263 338.93 159.366C339.182 159.459 339.528 159.567 339.966 159.688C340.517 159.837 340.965 159.987 341.31 160.136C341.656 160.276 341.95 160.491 342.192 160.78C342.444 161.069 342.575 161.447 342.584 161.914C342.584 162.334 342.468 162.712 342.234 163.048C342.001 163.384 341.67 163.65 341.24 163.846C340.82 164.033 340.335 164.126 339.784 164.126ZM347.639 160.15C347.639 159.357 347.798 158.666 348.115 158.078C348.432 157.481 348.871 157.019 349.431 156.692C350 156.365 350.649 156.202 351.377 156.202C352.32 156.202 353.094 156.431 353.701 156.888C354.317 157.345 354.723 157.98 354.919 158.792H353.547C353.416 158.325 353.16 157.957 352.777 157.686C352.404 157.415 351.937 157.28 351.377 157.28C350.649 157.28 350.061 157.532 349.613 158.036C349.165 158.531 348.941 159.235 348.941 160.15C348.941 161.074 349.165 161.788 349.613 162.292C350.061 162.796 350.649 163.048 351.377 163.048C351.937 163.048 352.404 162.917 352.777 162.656C353.15 162.395 353.407 162.021 353.547 161.536H354.919C354.714 162.32 354.303 162.95 353.687 163.426C353.071 163.893 352.301 164.126 351.377 164.126C350.649 164.126 350 163.963 349.431 163.636C348.871 163.309 348.432 162.847 348.115 162.25C347.798 161.653 347.639 160.953 347.639 160.15ZM359.965 164.126C359.246 164.126 358.593 163.963 358.005 163.636C357.426 163.309 356.969 162.847 356.633 162.25C356.306 161.643 356.143 160.943 356.143 160.15C356.143 159.366 356.311 158.675 356.647 158.078C356.992 157.471 357.459 157.009 358.047 156.692C358.635 156.365 359.293 156.202 360.021 156.202C360.749 156.202 361.407 156.365 361.995 156.692C362.583 157.009 363.045 157.467 363.381 158.064C363.726 158.661 363.899 159.357 363.899 160.15C363.899 160.943 363.722 161.643 363.367 162.25C363.022 162.847 362.55 163.309 361.953 163.636C361.356 163.963 360.693 164.126 359.965 164.126ZM359.965 163.006C360.422 163.006 360.852 162.899 361.253 162.684C361.654 162.469 361.976 162.147 362.219 161.718C362.471 161.289 362.597 160.766 362.597 160.15C362.597 159.534 362.476 159.011 362.233 158.582C361.99 158.153 361.673 157.835 361.281 157.63C360.889 157.415 360.464 157.308 360.007 157.308C359.54 157.308 359.111 157.415 358.719 157.63C358.336 157.835 358.028 158.153 357.795 158.582C357.562 159.011 357.445 159.534 357.445 160.15C357.445 160.775 357.557 161.303 357.781 161.732C358.014 162.161 358.322 162.483 358.705 162.698C359.088 162.903 359.508 163.006 359.965 163.006ZM374.8 156.188C375.397 156.188 375.929 156.314 376.396 156.566C376.863 156.809 377.231 157.177 377.502 157.672C377.773 158.167 377.908 158.769 377.908 159.478V164H376.648V159.66C376.648 158.895 376.457 158.311 376.074 157.91C375.701 157.499 375.192 157.294 374.548 157.294C373.885 157.294 373.358 157.509 372.966 157.938C372.574 158.358 372.378 158.969 372.378 159.772V164H371.118V159.66C371.118 158.895 370.927 158.311 370.544 157.91C370.171 157.499 369.662 157.294 369.018 157.294C368.355 157.294 367.828 157.509 367.436 157.938C367.044 158.358 366.848 158.969 366.848 159.772V164H365.574V156.328H366.848V157.434C367.1 157.033 367.436 156.725 367.856 156.51C368.285 156.295 368.757 156.188 369.27 156.188C369.914 156.188 370.483 156.333 370.978 156.622C371.473 156.911 371.841 157.336 372.084 157.896C372.299 157.355 372.653 156.935 373.148 156.636C373.643 156.337 374.193 156.188 374.8 156.188ZM381.272 157.742C381.524 157.303 381.897 156.939 382.392 156.65C382.896 156.351 383.479 156.202 384.142 156.202C384.823 156.202 385.439 156.365 385.99 156.692C386.55 157.019 386.989 157.481 387.306 158.078C387.623 158.666 387.782 159.352 387.782 160.136C387.782 160.911 387.623 161.601 387.306 162.208C386.989 162.815 386.55 163.286 385.99 163.622C385.439 163.958 384.823 164.126 384.142 164.126C383.489 164.126 382.91 163.981 382.406 163.692C381.911 163.393 381.533 163.025 381.272 162.586V167.64H379.998V156.328H381.272V157.742ZM386.48 160.136C386.48 159.557 386.363 159.053 386.13 158.624C385.897 158.195 385.579 157.868 385.178 157.644C384.786 157.42 384.352 157.308 383.876 157.308C383.409 157.308 382.975 157.425 382.574 157.658C382.182 157.882 381.865 158.213 381.622 158.652C381.389 159.081 381.272 159.581 381.272 160.15C381.272 160.729 381.389 161.237 381.622 161.676C381.865 162.105 382.182 162.437 382.574 162.67C382.975 162.894 383.409 163.006 383.876 163.006C384.352 163.006 384.786 162.894 385.178 162.67C385.579 162.437 385.897 162.105 386.13 161.676C386.363 161.237 386.48 160.724 386.48 160.136ZM388.983 160.136C388.983 159.352 389.142 158.666 389.459 158.078C389.776 157.481 390.21 157.019 390.761 156.692C391.321 156.365 391.942 156.202 392.623 156.202C393.295 156.202 393.878 156.347 394.373 156.636C394.868 156.925 395.236 157.289 395.479 157.728V156.328H396.767V164H395.479V162.572C395.227 163.02 394.849 163.393 394.345 163.692C393.85 163.981 393.272 164.126 392.609 164.126C391.928 164.126 391.312 163.958 390.761 163.622C390.21 163.286 389.776 162.815 389.459 162.208C389.142 161.601 388.983 160.911 388.983 160.136ZM395.479 160.15C395.479 159.571 395.362 159.067 395.129 158.638C394.896 158.209 394.578 157.882 394.177 157.658C393.785 157.425 393.351 157.308 392.875 157.308C392.399 157.308 391.965 157.42 391.573 157.644C391.181 157.868 390.868 158.195 390.635 158.624C390.402 159.053 390.285 159.557 390.285 160.136C390.285 160.724 390.402 161.237 390.635 161.676C390.868 162.105 391.181 162.437 391.573 162.67C391.965 162.894 392.399 163.006 392.875 163.006C393.351 163.006 393.785 162.894 394.177 162.67C394.578 162.437 394.896 162.105 395.129 161.676C395.362 161.237 395.479 160.729 395.479 160.15ZM402.658 156.188C403.591 156.188 404.347 156.473 404.926 157.042C405.504 157.602 405.794 158.414 405.794 159.478V164H404.534V159.66C404.534 158.895 404.342 158.311 403.96 157.91C403.577 157.499 403.054 157.294 402.392 157.294C401.72 157.294 401.183 157.504 400.782 157.924C400.39 158.344 400.194 158.955 400.194 159.758V164H398.92V156.328H400.194V157.42C400.446 157.028 400.786 156.725 401.216 156.51C401.654 156.295 402.135 156.188 402.658 156.188ZM414.483 156.328L409.863 167.612H408.547L410.059 163.916L406.965 156.328H408.379L410.787 162.544L413.167 156.328H414.483ZM417.08 162.236L415.512 166.002H414.658L415.68 162.236H417.08ZM423.825 157.378V161.9C423.825 162.273 423.905 162.539 424.063 162.698C424.222 162.847 424.497 162.922 424.889 162.922H425.827V164H424.679C423.97 164 423.438 163.837 423.083 163.51C422.729 163.183 422.551 162.647 422.551 161.9V157.378H421.557V156.328H422.551V154.396H423.825V156.328H425.827V157.378H423.825ZM431.179 156.188C431.758 156.188 432.28 156.314 432.747 156.566C433.214 156.809 433.578 157.177 433.839 157.672C434.11 158.167 434.245 158.769 434.245 159.478V164H432.985V159.66C432.985 158.895 432.794 158.311 432.411 157.91C432.028 157.499 431.506 157.294 430.843 157.294C430.171 157.294 429.634 157.504 429.233 157.924C428.841 158.344 428.645 158.955 428.645 159.758V164H427.371V153.64H428.645V157.42C428.897 157.028 429.242 156.725 429.681 156.51C430.129 156.295 430.628 156.188 431.179 156.188ZM443.326 159.87C443.326 160.113 443.312 160.369 443.284 160.64H437.152C437.199 161.396 437.455 161.989 437.922 162.418C438.398 162.838 438.972 163.048 439.644 163.048C440.195 163.048 440.652 162.922 441.016 162.67C441.389 162.409 441.651 162.063 441.8 161.634H443.172C442.967 162.371 442.556 162.973 441.94 163.44C441.324 163.897 440.559 164.126 439.644 164.126C438.916 164.126 438.263 163.963 437.684 163.636C437.115 163.309 436.667 162.847 436.34 162.25C436.013 161.643 435.85 160.943 435.85 160.15C435.85 159.357 436.009 158.661 436.326 158.064C436.643 157.467 437.087 157.009 437.656 156.692C438.235 156.365 438.897 156.202 439.644 156.202C440.372 156.202 441.016 156.361 441.576 156.678C442.136 156.995 442.565 157.434 442.864 157.994C443.172 158.545 443.326 159.17 443.326 159.87ZM442.01 159.604C442.01 159.119 441.903 158.703 441.688 158.358C441.473 158.003 441.179 157.737 440.806 157.56C440.442 157.373 440.036 157.28 439.588 157.28C438.944 157.28 438.393 157.485 437.936 157.896C437.488 158.307 437.231 158.876 437.166 159.604H442.01ZM451.616 156.328L446.996 167.612H445.68L447.192 163.916L444.098 156.328H445.512L447.92 162.544L450.3 156.328H451.616ZM53.352 174.64V185H52.078V174.64H53.352ZM56.1813 176.082C55.9386 176.082 55.7333 175.998 55.5653 175.83C55.3973 175.662 55.3133 175.457 55.3133 175.214C55.3133 174.971 55.3973 174.766 55.5653 174.598C55.7333 174.43 55.9386 174.346 56.1813 174.346C56.4146 174.346 56.6106 174.43 56.7693 174.598C56.9373 174.766 57.0213 174.971 57.0213 175.214C57.0213 175.457 56.9373 175.662 56.7693 175.83C56.6106 175.998 56.4146 176.082 56.1813 176.082ZM56.7973 177.328V185H55.5233V177.328H56.7973ZM60.5226 178.378V182.9C60.5226 183.273 60.602 183.539 60.7606 183.698C60.9193 183.847 61.1946 183.922 61.5866 183.922H62.5246V185H61.3766C60.6673 185 60.1353 184.837 59.7806 184.51C59.426 184.183 59.2486 183.647 59.2486 182.9V178.378H58.2546V177.328H59.2486V175.396H60.5226V177.328H62.5246V178.378H60.5226ZM71.0682 180.87C71.0682 181.113 71.0542 181.369 71.0262 181.64H64.8942C64.9409 182.396 65.1976 182.989 65.6642 183.418C66.1402 183.838 66.7142 184.048 67.3862 184.048C67.9369 184.048 68.3942 183.922 68.7582 183.67C69.1316 183.409 69.3929 183.063 69.5422 182.634H70.9142C70.7089 183.371 70.2982 183.973 69.6822 184.44C69.0662 184.897 68.3009 185.126 67.3862 185.126C66.6582 185.126 66.0049 184.963 65.4262 184.636C64.8569 184.309 64.4089 183.847 64.0822 183.25C63.7556 182.643 63.5922 181.943 63.5922 181.15C63.5922 180.357 63.7509 179.661 64.0682 179.064C64.3856 178.467 64.8289 178.009 65.3982 177.692C65.9769 177.365 66.6396 177.202 67.3862 177.202C68.1142 177.202 68.7582 177.361 69.3182 177.678C69.8782 177.995 70.3076 178.434 70.6062 178.994C70.9142 179.545 71.0682 180.17 71.0682 180.87ZM69.7522 180.604C69.7522 180.119 69.6449 179.703 69.4302 179.358C69.2156 179.003 68.9216 178.737 68.5482 178.56C68.1842 178.373 67.7782 178.28 67.3302 178.28C66.6862 178.28 66.1356 178.485 65.6782 178.896C65.2302 179.307 64.9736 179.876 64.9082 180.604H69.7522ZM74.0239 178.574C74.2479 178.135 74.5652 177.795 74.9759 177.552C75.3959 177.309 75.9045 177.188 76.5019 177.188V178.504H76.1659C74.7379 178.504 74.0239 179.279 74.0239 180.828V185H72.7499V177.328H74.0239V178.574ZM77.4965 181.136C77.4965 180.352 77.6552 179.666 77.9725 179.078C78.2899 178.481 78.7239 178.019 79.2745 177.692C79.8345 177.365 80.4552 177.202 81.1365 177.202C81.8085 177.202 82.3919 177.347 82.8865 177.636C83.3812 177.925 83.7499 178.289 83.9925 178.728V177.328H85.2805V185H83.9925V183.572C83.7405 184.02 83.3625 184.393 82.8585 184.692C82.3639 184.981 81.7852 185.126 81.1225 185.126C80.4412 185.126 79.8252 184.958 79.2745 184.622C78.7239 184.286 78.2899 183.815 77.9725 183.208C77.6552 182.601 77.4965 181.911 77.4965 181.136ZM83.9925 181.15C83.9925 180.571 83.8759 180.067 83.6425 179.638C83.4092 179.209 83.0919 178.882 82.6905 178.658C82.2985 178.425 81.8645 178.308 81.3885 178.308C80.9125 178.308 80.4785 178.42 80.0865 178.644C79.6945 178.868 79.3819 179.195 79.1485 179.624C78.9152 180.053 78.7985 180.557 78.7985 181.136C78.7985 181.724 78.9152 182.237 79.1485 182.676C79.3819 183.105 79.6945 183.437 80.0865 183.67C80.4785 183.894 80.9125 184.006 81.3885 184.006C81.8645 184.006 82.2985 183.894 82.6905 183.67C83.0919 183.437 83.4092 183.105 83.6425 182.676C83.8759 182.237 83.9925 181.729 83.9925 181.15ZM88.7075 174.64V185H87.4335V174.64H88.7075ZM92.1528 174.64V185H90.8788V174.64H92.1528ZM100.932 177.328L96.3121 188.612H94.9961L96.5081 184.916L93.4141 177.328H94.8281L97.2361 183.544L99.6161 177.328H100.932ZM107.219 178.756C107.481 178.299 107.863 177.925 108.367 177.636C108.871 177.347 109.445 177.202 110.089 177.202C110.78 177.202 111.401 177.365 111.951 177.692C112.502 178.019 112.936 178.481 113.253 179.078C113.571 179.666 113.729 180.352 113.729 181.136C113.729 181.911 113.571 182.601 113.253 183.208C112.936 183.815 112.497 184.286 111.937 184.622C111.387 184.958 110.771 185.126 110.089 185.126C109.427 185.126 108.843 184.981 108.339 184.692C107.845 184.403 107.471 184.034 107.219 183.586V185H105.945V174.64H107.219V178.756ZM112.427 181.136C112.427 180.557 112.311 180.053 112.077 179.624C111.844 179.195 111.527 178.868 111.125 178.644C110.733 178.42 110.299 178.308 109.823 178.308C109.357 178.308 108.923 178.425 108.521 178.658C108.129 178.882 107.812 179.213 107.569 179.652C107.336 180.081 107.219 180.581 107.219 181.15C107.219 181.729 107.336 182.237 107.569 182.676C107.812 183.105 108.129 183.437 108.521 183.67C108.923 183.894 109.357 184.006 109.823 184.006C110.299 184.006 110.733 183.894 111.125 183.67C111.527 183.437 111.844 183.105 112.077 182.676C112.311 182.237 112.427 181.724 112.427 181.136ZM122.21 177.328V185H120.936V183.866C120.693 184.258 120.353 184.566 119.914 184.79C119.485 185.005 119.009 185.112 118.486 185.112C117.889 185.112 117.352 184.991 116.876 184.748C116.4 184.496 116.022 184.123 115.742 183.628C115.471 183.133 115.336 182.531 115.336 181.822V177.328H116.596V181.654C116.596 182.41 116.787 182.993 117.17 183.404C117.553 183.805 118.075 184.006 118.738 184.006C119.419 184.006 119.956 183.796 120.348 183.376C120.74 182.956 120.936 182.345 120.936 181.542V177.328H122.21ZM125.019 176.082C124.777 176.082 124.571 175.998 124.403 175.83C124.235 175.662 124.151 175.457 124.151 175.214C124.151 174.971 124.235 174.766 124.403 174.598C124.571 174.43 124.777 174.346 125.019 174.346C125.253 174.346 125.449 174.43 125.607 174.598C125.775 174.766 125.859 174.971 125.859 175.214C125.859 175.457 125.775 175.662 125.607 175.83C125.449 175.998 125.253 176.082 125.019 176.082ZM125.635 177.328V185H124.361V177.328H125.635ZM129.081 174.64V185H127.807V174.64H129.081ZM132.806 178.378V182.9C132.806 183.273 132.885 183.539 133.044 183.698C133.202 183.847 133.478 183.922 133.87 183.922H134.808V185H133.66C132.95 185 132.418 184.837 132.064 184.51C131.709 184.183 131.532 183.647 131.532 182.9V178.378H130.538V177.328H131.532V175.396H132.806V177.328H134.808V178.378H132.806ZM149.31 177.188C149.907 177.188 150.439 177.314 150.906 177.566C151.373 177.809 151.741 178.177 152.012 178.672C152.283 179.167 152.418 179.769 152.418 180.478V185H151.158V180.66C151.158 179.895 150.967 179.311 150.584 178.91C150.211 178.499 149.702 178.294 149.058 178.294C148.395 178.294 147.868 178.509 147.476 178.938C147.084 179.358 146.888 179.969 146.888 180.772V185H145.628V180.66C145.628 179.895 145.437 179.311 145.054 178.91C144.681 178.499 144.172 178.294 143.528 178.294C142.865 178.294 142.338 178.509 141.946 178.938C141.554 179.358 141.358 179.969 141.358 180.772V185H140.084V177.328H141.358V178.434C141.61 178.033 141.946 177.725 142.366 177.51C142.795 177.295 143.267 177.188 143.78 177.188C144.424 177.188 144.993 177.333 145.488 177.622C145.983 177.911 146.351 178.336 146.594 178.896C146.809 178.355 147.163 177.935 147.658 177.636C148.153 177.337 148.703 177.188 149.31 177.188ZM161.116 177.328L156.496 188.612H155.18L156.692 184.916L153.598 177.328H155.012L157.42 183.544L159.8 177.328H161.116ZM169.167 175.242C170.231 175.242 171.15 175.443 171.925 175.844C172.709 176.236 173.306 176.801 173.717 177.538C174.137 178.275 174.347 179.143 174.347 180.142C174.347 181.141 174.137 182.009 173.717 182.746C173.306 183.474 172.709 184.034 171.925 184.426C171.15 184.809 170.231 185 169.167 185H166.129V175.242H169.167ZM169.167 183.95C170.427 183.95 171.388 183.619 172.051 182.956C172.713 182.284 173.045 181.346 173.045 180.142C173.045 178.929 172.709 177.981 172.037 177.3C171.374 176.619 170.417 176.278 169.167 176.278H167.403V183.95H169.167ZM177.301 178.574C177.525 178.135 177.843 177.795 178.253 177.552C178.673 177.309 179.182 177.188 179.779 177.188V178.504H179.443C178.015 178.504 177.301 179.279 177.301 180.828V185H176.027V177.328H177.301V178.574ZM188.25 180.87C188.25 181.113 188.236 181.369 188.208 181.64H182.076C182.123 182.396 182.379 182.989 182.846 183.418C183.322 183.838 183.896 184.048 184.568 184.048C185.119 184.048 185.576 183.922 185.94 183.67C186.313 183.409 186.575 183.063 186.724 182.634H188.096C187.891 183.371 187.48 183.973 186.864 184.44C186.248 184.897 185.483 185.126 184.568 185.126C183.84 185.126 183.187 184.963 182.608 184.636C182.039 184.309 181.591 183.847 181.264 183.25C180.937 182.643 180.774 181.943 180.774 181.15C180.774 180.357 180.933 179.661 181.25 179.064C181.567 178.467 182.011 178.009 182.58 177.692C183.159 177.365 183.821 177.202 184.568 177.202C185.296 177.202 185.94 177.361 186.5 177.678C187.06 177.995 187.489 178.434 187.788 178.994C188.096 179.545 188.25 180.17 188.25 180.87ZM186.934 180.604C186.934 180.119 186.827 179.703 186.612 179.358C186.397 179.003 186.103 178.737 185.73 178.56C185.366 178.373 184.96 178.28 184.512 178.28C183.868 178.28 183.317 178.485 182.86 178.896C182.412 179.307 182.155 179.876 182.09 180.604H186.934ZM189.456 181.136C189.456 180.352 189.614 179.666 189.932 179.078C190.249 178.481 190.683 178.019 191.234 177.692C191.794 177.365 192.414 177.202 193.096 177.202C193.768 177.202 194.351 177.347 194.846 177.636C195.34 177.925 195.709 178.289 195.952 178.728V177.328H197.24V185H195.952V183.572C195.7 184.02 195.322 184.393 194.818 184.692C194.323 184.981 193.744 185.126 193.082 185.126C192.4 185.126 191.784 184.958 191.234 184.622C190.683 184.286 190.249 183.815 189.932 183.208C189.614 182.601 189.456 181.911 189.456 181.136ZM195.952 181.15C195.952 180.571 195.835 180.067 195.602 179.638C195.368 179.209 195.051 178.882 194.65 178.658C194.258 178.425 193.824 178.308 193.348 178.308C192.872 178.308 192.438 178.42 192.046 178.644C191.654 178.868 191.341 179.195 191.108 179.624C190.874 180.053 190.758 180.557 190.758 181.136C190.758 181.724 190.874 182.237 191.108 182.676C191.341 183.105 191.654 183.437 192.046 183.67C192.438 183.894 192.872 184.006 193.348 184.006C193.824 184.006 194.258 183.894 194.65 183.67C195.051 183.437 195.368 183.105 195.602 182.676C195.835 182.237 195.952 181.729 195.952 181.15ZM208.618 177.188C209.216 177.188 209.748 177.314 210.214 177.566C210.681 177.809 211.05 178.177 211.32 178.672C211.591 179.167 211.726 179.769 211.726 180.478V185H210.466V180.66C210.466 179.895 210.275 179.311 209.892 178.91C209.519 178.499 209.01 178.294 208.366 178.294C207.704 178.294 207.176 178.509 206.784 178.938C206.392 179.358 206.196 179.969 206.196 180.772V185H204.936V180.66C204.936 179.895 204.745 179.311 204.362 178.91C203.989 178.499 203.48 178.294 202.836 178.294C202.174 178.294 201.646 178.509 201.254 178.938C200.862 179.358 200.666 179.969 200.666 180.772V185H199.392V177.328H200.666V178.434C200.918 178.033 201.254 177.725 201.674 177.51C202.104 177.295 202.575 177.188 203.088 177.188C203.732 177.188 204.302 177.333 204.796 177.622C205.291 177.911 205.66 178.336 205.902 178.896C206.117 178.355 206.472 177.935 206.966 177.636C207.461 177.337 208.012 177.188 208.618 177.188ZM214.222 185.084C213.98 185.084 213.774 185 213.606 184.832C213.438 184.664 213.354 184.459 213.354 184.216C213.354 183.973 213.438 183.768 213.606 183.6C213.774 183.432 213.98 183.348 214.222 183.348C214.456 183.348 214.652 183.432 214.81 183.6C214.978 183.768 215.062 183.973 215.062 184.216C215.062 184.459 214.978 184.664 214.81 184.832C214.652 185 214.456 185.084 214.222 185.084Z" fill="black"/>
<g clip-path="url(#clip0_1_89)">
<path d="M76.4355 58.1572C83.8548 50.8837 83.8548 39.0908 76.4355 31.8145C69.0161 24.541 56.9868 24.541 49.5645 31.8145C42.1452 39.088 42.1452 50.8809 49.5645 58.1572C56.9839 65.4307 69.0132 65.4307 76.4355 58.1572Z" fill="#F5F5F5"/>
<path d="M56.3923 26.4126C56.0436 26.6003 55.8264 27.001 55.8578 27.3876C55.5406 27.2027 55.1062 27.2672 54.8347 27.5137C54.5632 27.7575 54.4574 28.1553 54.5374 28.5084C54.6175 28.8614 54.8661 29.1668 55.1833 29.3517C54.9576 29.3769 54.7747 29.5674 54.7146 29.7832C54.6546 29.9989 54.7032 30.2315 54.7947 30.436C55.0976 31.114 55.9179 31.5315 56.6609 31.3802L58.0356 26.6788L56.3923 26.4126Z" fill="#263238"/>
<path d="M59.8305 44.7981L59.8676 43.159C59.8676 43.159 56.4437 42.8256 56.2151 39.5026C56.1036 37.8972 56.1494 34.5743 56.2265 31.5651C56.3094 28.3318 58.9102 25.7037 62.2055 25.5244L62.5341 25.5076C66.0752 25.5188 68.0444 28.4719 67.9358 31.9405L67.4728 45.8796L61.4052 48.093L59.8333 44.7981H59.8305Z" fill="#AE7461"/>
<path d="M59.8676 43.1619C59.8676 43.1619 62.0168 43.2207 64.2404 41.9991C64.2404 41.9991 64.1146 44.3499 59.9391 44.235L59.8705 43.1619H59.8676Z" fill="#6F4439"/>
<path d="M57.5898 35.0254C57.5955 35.2776 57.8156 35.4793 58.0842 35.4793C58.35 35.4793 58.5644 35.2748 58.5587 35.0226C58.553 34.7705 58.3329 34.5687 58.0642 34.5687C57.7956 34.5687 57.5841 34.7733 57.5898 35.0254Z" fill="#263238"/>
<path d="M57.0468 33.1566C57.1096 33.2154 57.4612 32.9296 57.9842 32.9016C58.5044 32.868 58.9016 33.109 58.9559 33.0445C58.9816 33.0165 58.9159 32.9072 58.7416 32.798C58.5701 32.6887 58.2843 32.5878 57.9585 32.6074C57.6327 32.6271 57.3669 32.7587 57.2183 32.8876C57.0639 33.0165 57.0182 33.1314 57.0468 33.1594V33.1566Z" fill="#263238"/>
<path d="M62.1683 34.8517C62.174 35.1039 62.3941 35.3056 62.6628 35.3056C62.9314 35.3056 63.1429 35.1011 63.1372 34.8489C63.1315 34.5968 62.9114 34.395 62.6428 34.395C62.3741 34.395 62.1626 34.5996 62.1683 34.8517Z" fill="#263238"/>
<path d="M62.1769 32.9717C62.2398 33.0305 62.4855 32.7083 63.0057 32.6803C63.5259 32.6466 64.0317 32.924 64.0832 32.8596C64.1089 32.8316 64.0432 32.7223 63.8688 32.613C63.6973 32.5038 63.4115 32.4029 63.0886 32.4225C62.7628 32.4421 62.497 32.5738 62.3484 32.7027C62.1969 32.8316 62.1483 32.9464 62.1769 32.9745V32.9717Z" fill="#263238"/>
<path d="M60.4992 36.8662C60.4992 36.8382 60.1734 36.799 59.6447 36.7626C59.5104 36.7569 59.3846 36.7373 59.356 36.6505C59.3189 36.558 59.3675 36.4151 59.4218 36.2582C59.5304 35.936 59.6418 35.597 59.759 35.244C60.2249 33.7982 60.5564 32.6131 60.4964 32.5963C60.4364 32.5794 60.0105 33.7338 59.5447 35.1795C59.4332 35.5354 59.3246 35.8744 59.2246 36.1994C59.1817 36.3507 59.1045 36.5244 59.1846 36.7149C59.2246 36.8102 59.3275 36.8746 59.4132 36.8942C59.4989 36.9139 59.5761 36.9139 59.6418 36.9139C60.1706 36.9139 60.4992 36.897 60.4992 36.869V36.8662Z" fill="#263238"/>
<path d="M61.8425 31.498C61.9139 31.6268 62.4198 31.4867 63.0371 31.4727C63.6545 31.4447 64.1689 31.5456 64.2289 31.4111C64.2546 31.3467 64.1518 31.229 63.9346 31.1253C63.7173 31.0216 63.3858 30.9404 63.0171 30.9516C62.6485 30.9656 62.3226 31.0693 62.1169 31.1898C61.9082 31.3102 61.8111 31.4335 61.8425 31.498Z" fill="#263238"/>
<path d="M56.9467 31.9209C57.0611 32.0246 57.444 31.8593 57.9213 31.7977C58.3958 31.722 58.813 31.7724 58.8902 31.6408C58.9245 31.5763 58.8473 31.4698 58.6558 31.3802C58.4672 31.2905 58.1671 31.2373 57.8384 31.2849C57.5126 31.3326 57.2411 31.4698 57.0868 31.6071C56.9325 31.7444 56.8924 31.8705 56.9439 31.9209H56.9467Z" fill="#263238"/>
<path d="M67.5728 35.2103C67.5642 34.6947 67.9929 34.2661 68.5188 34.2857C69.1533 34.3109 69.8792 34.6247 69.9106 35.9079C69.9649 38.1858 67.6214 37.7683 67.6157 37.7039C67.6128 37.6591 67.5899 36.1629 67.5756 35.2075L67.5728 35.2103Z" fill="#AE7461"/>
<path d="M68.0987 36.8354C68.0987 36.8354 68.1387 36.8634 68.2101 36.8914C68.2787 36.9195 68.393 36.9391 68.5131 36.8914C68.756 36.7962 68.9532 36.4095 68.9561 36.0005C68.9561 35.7931 68.9075 35.597 68.8303 35.4345C68.756 35.2692 68.6417 35.1543 68.5188 35.1375C68.3959 35.1123 68.3102 35.1879 68.2816 35.2524C68.253 35.3168 68.2673 35.3616 68.2559 35.3673C68.2501 35.3729 68.2044 35.3308 68.2216 35.2356C68.2301 35.1907 68.2559 35.1347 68.3102 35.0899C68.3645 35.045 68.4473 35.0198 68.5331 35.0254C68.7131 35.0338 68.8789 35.1907 68.9646 35.3701C69.0618 35.5494 69.1218 35.7679 69.119 36.0005C69.1161 36.46 68.8846 36.8942 68.5531 36.9979C68.3902 37.0427 68.253 36.9979 68.1815 36.9475C68.1072 36.8914 68.0958 36.841 68.1015 36.8382L68.0987 36.8354Z" fill="#6F4439"/>
<path d="M59.6161 29.433C59.6161 29.433 59.6047 29.433 59.599 29.4358C59.5847 29.4358 59.5704 29.4358 59.5561 29.4414L59.6133 29.433H59.6161Z" fill="#FF725E"/>
<path d="M69.9478 31.0132C69.8935 30.8115 69.7506 30.6462 69.5677 30.5425C69.6706 30.4193 69.7506 30.2736 69.7877 30.1195C69.8935 29.6796 69.6791 29.1865 69.2819 28.9539C69.6648 28.556 69.802 27.9424 69.622 27.4241C69.4419 26.9058 68.9561 26.4995 68.4045 26.4098C68.3987 25.7234 67.9986 25.0538 67.3899 24.7176C66.7811 24.3785 65.9895 24.3869 65.3864 24.7344C64.8548 23.6753 63.3115 23.2606 62.3026 23.9078C61.5853 23.4623 60.8222 23.0056 59.9762 23C59.1302 22.9944 58.2243 23.6529 58.31 24.4766C57.6984 24.3505 57.0525 24.3085 56.458 24.4906C55.8607 24.6727 55.3234 25.1098 55.1491 25.6982C54.9747 26.2866 55.2434 27.0038 55.8178 27.242C55.3205 27.8024 55.3577 28.741 55.895 29.2649C56.0493 29.4162 56.2437 29.5227 56.4494 29.5899C56.4466 29.7328 56.4494 29.8785 56.4666 30.027C56.4666 30.027 56.5237 29.8729 56.6238 29.6403C57.0896 29.7384 57.6012 29.6347 57.9585 29.3265C58.4072 29.7552 59.116 29.8981 59.7018 29.6796C60.2877 29.461 60.7164 28.8867 60.7593 28.2759C61.108 28.57 61.611 28.6765 62.054 28.556C62.497 28.4328 62.8657 28.0853 63.0086 27.6567C63.5373 28.1834 64.4033 28.3543 65.1006 28.0685C65.1378 28.5112 65.3893 28.9091 65.7437 29.1808C65.7351 29.5619 65.6979 29.9962 65.758 30.5285C66.4267 36.4936 67.6385 38.1243 67.7957 35.2888C67.8129 34.9862 68.6245 34.6976 68.7217 33.476C68.8503 33.448 68.9761 33.406 69.0904 33.3415C69.3362 33.2071 69.5334 32.9801 69.5991 32.7139C69.6648 32.4478 69.582 32.1424 69.3648 31.9659C69.7734 31.8706 70.0564 31.4139 69.9506 31.0132H69.9478Z" fill="#263238"/>
<path d="M65.2264 28.4439C65.2264 28.4439 65.2264 28.5139 65.275 28.6316C65.3264 28.7465 65.4264 28.909 65.6122 29.0519C65.7951 29.1948 66.0752 29.3181 66.4039 29.2985C66.724 29.2816 67.0841 29.1247 67.3184 28.8165H67.1841C67.3041 28.9762 67.4642 29.1191 67.6528 29.22C68.0529 29.4357 68.5274 29.4582 68.8961 29.3097C69.2705 29.1668 69.5077 28.8782 69.6363 28.6232C69.7649 28.3626 69.7849 28.1245 69.7763 27.9648C69.7649 27.8051 69.7306 27.7238 69.722 27.7266C69.6877 27.7238 69.7935 28.0881 69.5305 28.57C69.3991 28.7997 69.1733 29.0519 68.8418 29.1696C68.5159 29.2928 68.093 29.2676 67.7357 29.0771C67.5699 28.9875 67.427 28.8642 67.3213 28.7241L67.2527 28.6344L67.187 28.7241C66.9898 28.9903 66.6782 29.1359 66.3953 29.1584C66.1095 29.1864 65.858 29.0883 65.6808 28.9706C65.3207 28.7213 65.255 28.4327 65.2292 28.4495L65.2264 28.4439Z" fill="#455A64"/>
<path d="M60.3878 38.3427C60.3992 38.3876 60.7736 38.3427 61.2309 38.2699C61.6882 38.1971 62.0569 38.1242 62.054 38.0766C62.0511 38.0317 61.6682 38.0261 61.2052 38.1018C60.7422 38.1746 60.3792 38.2979 60.3906 38.3427H60.3878Z" fill="#263238"/>
<path d="M53.0742 46.1682C53.0742 46.1682 52.3368 46.213 50.8135 47.3282C49.293 48.4433 45.8577 53.0215 45.8577 53.0215C47.3867 56.1707 48.5071 57.9358 51.2765 59.8047L54.4889 56.5826C54.4889 56.5826 56.3494 47.8073 56.1294 47.8353C55.9093 47.8661 53.0742 46.1654 53.0742 46.1654V46.1682Z" fill="#E9C46A"/>
<path d="M75.3066 44.9439C73.1516 44.0081 67.5528 43.4197 67.5528 43.4197C67.5528 43.4197 66.3896 46.3616 63.0086 46.5157C60.9279 46.6109 59.4132 44.4788 59.4132 44.4788C59.4132 44.4788 53.8487 45.8152 52.6855 46.2803C51.7823 52.5704 51.5737 54.0694 52.3968 60.4631C54.8776 62.1022 57.9756 63.2565 61.1137 63.5199C67.1441 64.0299 73.5432 61.7576 77.5244 56.8544L75.3066 44.9411V44.9439Z" fill="#E9C46A"/>
<path d="M51.2793 50.1692C51.2793 50.1692 51.3051 50.3121 51.3251 50.5755C51.3479 50.8556 51.3765 51.2311 51.4137 51.6822C51.488 52.6152 51.5966 53.904 51.7509 55.3273C51.9052 56.7479 52.0739 58.0311 52.2025 58.9585C52.2653 59.4068 52.3168 59.7794 52.3539 60.0568C52.3882 60.3174 52.4054 60.4603 52.3968 60.4631C52.3882 60.4631 52.3568 60.323 52.3082 60.0652C52.2568 59.8074 52.191 59.4348 52.1167 58.9725C51.9653 58.0451 51.7823 56.7619 51.628 55.3413C51.4737 53.918 51.3765 52.6264 51.3251 51.6906C51.2993 51.2227 51.2822 50.8444 51.2765 50.5811C51.2708 50.3205 51.2708 50.1748 51.2765 50.1748L51.2793 50.1692Z" fill="#263238"/>
<path d="M62.2197 47.9558C62.2197 47.4515 62.234 45.7704 62.3712 44.9271C62.5656 43.7391 64.6491 40.87 64.6491 40.87C64.6491 40.87 64.6005 39.7857 63.4058 40.5282C61.9911 41.408 61.4138 42.6212 60.9965 42.4531C60.5793 42.285 57.8356 40.262 57.1982 40.433C56.5609 40.6039 56.558 41.2399 56.7895 41.5061C57.021 41.775 57.3354 42.1645 57.3354 42.1645C57.3354 42.1645 55.9464 41.9263 56.4409 43.3609C56.4409 43.3609 54.7289 42.6352 55.1919 44.6329C55.1919 44.6329 54.546 45.0644 54.9176 45.7256C55.2262 46.2747 55.9864 47.233 56.4151 47.7429C56.8438 48.2528 57.6269 50.1188 57.6269 50.1188L58.4129 53.2569L63.6316 51.3741L62.2197 47.9558Z" fill="#AE7461"/>
<path d="M57.3097 42.1644C57.2983 42.184 57.647 42.397 58.0671 42.6744C58.4872 42.9489 58.8216 43.1843 58.8388 43.1647C58.853 43.1479 58.5387 42.8817 58.1157 42.6071C57.6927 42.3297 57.324 42.1476 57.3126 42.1672L57.3097 42.1644Z" fill="#6F4439"/>
<path d="M56.3694 43.2712C56.3523 43.2824 56.5123 43.5542 56.7981 43.8204C57.0839 44.0865 57.3669 44.2322 57.3783 44.2154C57.3926 44.1958 57.1325 44.0221 56.8553 43.7615C56.5781 43.5038 56.3895 43.2572 56.3694 43.2712Z" fill="#6F4439"/>
<path d="M55.1176 44.5544C55.1005 44.5712 55.2605 44.7562 55.4749 44.9719C55.6892 45.1876 55.8779 45.3474 55.8921 45.3305C55.9093 45.3137 55.7492 45.1288 55.5349 44.9131C55.3205 44.6973 55.1319 44.5376 55.1176 44.5544Z" fill="#6F4439"/>
<path d="M72.4314 52.6264L66.824 58.1487L62.1369 48.0958L57.627 50.1159C57.627 50.1159 61.0137 64.2483 62.6942 66.2796C64.3747 68.3109 65.3264 68.3698 67.5899 67.3471C69.8535 66.3245 76.8327 58.0927 76.8327 58.0927L72.4314 52.6236V52.6264Z" fill="#AE7461"/>
<path d="M76.0296 60.6032C76.0296 60.6032 78.7161 55.63 78.9276 51.1415C79.0219 49.1606 78.296 47.2021 76.8213 45.8461C76.2983 45.3642 75.6952 44.9635 75.0608 44.843C75.0608 44.843 74.5063 46.597 73.3974 48.0959C72.2885 49.5949 68.0987 56.0083 68.0987 56.0083L76.0325 60.6032H76.0296Z" fill="#E9C46A"/>
<path d="M57.6269 50.116C57.6269 50.116 57.6069 50.0824 57.5755 50.0124C57.5412 49.9367 57.4926 49.833 57.4326 49.7042C57.3068 49.4352 57.1239 49.0373 56.8667 48.5414C56.7352 48.2976 56.5895 48.0175 56.3837 47.7569C56.1636 47.4963 55.9293 47.2133 55.6892 46.8995C55.4491 46.5885 55.1948 46.2523 54.9547 45.8741C54.8375 45.692 54.7204 45.4538 54.7632 45.2072C54.8004 44.9607 54.9547 44.7421 55.1633 44.588L55.1433 44.6413C55.109 44.4535 55.0662 44.263 55.0633 44.0613C55.0547 43.9604 55.0747 43.8568 55.0833 43.7559C55.1119 43.655 55.1405 43.5486 55.2091 43.4589C55.3348 43.2684 55.5778 43.1731 55.8007 43.1787C56.0265 43.1787 56.2465 43.2264 56.4609 43.3104L56.3837 43.3805C56.3608 43.3048 56.3408 43.2292 56.318 43.1535C56.298 43.0751 56.2923 42.9938 56.278 42.9154C56.2722 42.7528 56.2808 42.5763 56.378 42.4194C56.4723 42.2625 56.6466 42.1701 56.8153 42.1308C56.9896 42.0916 57.1639 42.086 57.3411 42.1112L57.2868 42.2065C57.184 42.0804 57.0782 41.9571 56.9725 41.8282L56.8124 41.6377C56.761 41.5761 56.7009 41.5088 56.6638 41.4248C56.5838 41.2623 56.5609 41.0746 56.6095 40.8952C56.6552 40.7159 56.7895 40.5618 56.9525 40.4694C57.0382 40.4273 57.1182 40.3909 57.2182 40.3741C57.3211 40.3601 57.4154 40.3769 57.504 40.4021C57.6812 40.4498 57.847 40.5198 58.0099 40.5982C58.3357 40.7523 58.6472 40.9317 58.9616 41.1194C59.5361 41.464 60.0848 41.831 60.6278 42.1785C60.7622 42.2597 60.9051 42.3606 61.0308 42.4054C61.1423 42.4362 61.2795 42.3354 61.3909 42.2373C61.6196 42.03 61.8253 41.7946 62.0426 41.5789C62.4741 41.1418 62.9342 40.7467 63.443 40.4498C63.5716 40.3769 63.7059 40.3097 63.8517 40.2732C63.9946 40.2284 64.1575 40.2256 64.3032 40.2788C64.4518 40.3321 64.5605 40.4498 64.629 40.5758C64.6976 40.7047 64.7377 40.8364 64.7548 40.9765V40.9961L64.7434 41.0129C64.0489 41.9263 63.4515 42.7949 62.9886 43.6018C62.7599 44.0053 62.557 44.3947 62.4512 44.7786C62.3541 45.1624 62.3484 45.5379 62.3226 45.8685C62.2883 46.5353 62.2826 47.0592 62.2655 47.4179C62.2569 47.5972 62.2512 47.7345 62.2398 47.8269C62.2312 47.9194 62.2169 47.967 62.2169 47.967C62.214 47.967 62.2169 47.9194 62.2226 47.8269C62.2226 47.7261 62.2283 47.5916 62.2312 47.4179C62.2369 47.0592 62.2312 46.5353 62.2569 45.8657C62.2769 45.5323 62.2769 45.1596 62.3741 44.7589C62.4827 44.3639 62.6827 43.9688 62.9085 43.5598C63.3687 42.7444 63.9631 41.8703 64.6548 40.9485L64.6433 40.9849C64.6119 40.7467 64.5004 40.4666 64.2604 40.3797C64.0203 40.2928 63.7374 40.4077 63.5001 40.5478C63.0086 40.8392 62.5541 41.2287 62.1283 41.6629C61.9139 41.8787 61.711 42.1112 61.471 42.3298C61.4109 42.383 61.3452 42.4334 61.2709 42.4783C61.1937 42.5147 61.0966 42.5623 60.9937 42.5231C60.8222 42.4587 60.7022 42.3662 60.5593 42.2821C60.0134 41.9347 59.4675 41.5705 58.893 41.2259C58.5844 41.0409 58.2728 40.8616 57.9528 40.7103C57.7927 40.6347 57.6327 40.5674 57.4698 40.5226C57.3897 40.5002 57.304 40.489 57.2354 40.4974C57.1639 40.5086 57.0811 40.545 57.0096 40.5786C56.8696 40.6571 56.7638 40.7804 56.7238 40.9289C56.6838 41.0774 56.7038 41.2399 56.7695 41.3772C56.7981 41.4472 56.8524 41.506 56.9067 41.5705L57.0639 41.761C57.1668 41.8871 57.2725 42.0104 57.3726 42.1364L57.4698 42.2513L57.3183 42.2317C57.0096 42.1925 56.6324 42.2317 56.4723 42.4867C56.3237 42.7444 56.3951 43.0751 56.4866 43.3524L56.5238 43.4673L56.4094 43.4225C56.2151 43.344 55.9979 43.2992 55.795 43.2992C55.5892 43.2964 55.3948 43.3749 55.2891 43.5318C55.2319 43.6074 55.2091 43.6999 55.1805 43.7895C55.1719 43.8848 55.1519 43.9772 55.1605 44.0753C55.1605 44.2658 55.2005 44.4536 55.2348 44.6357L55.2405 44.6693L55.2148 44.6889C55.029 44.8234 54.8861 45.0251 54.8547 45.2409C54.8175 45.4594 54.9118 45.6639 55.029 45.8489C55.2605 46.2215 55.512 46.5605 55.7492 46.8715C55.9893 47.1825 56.2179 47.4711 56.4352 47.7317C56.6466 48.0063 56.7867 48.2864 56.9153 48.533C57.1668 49.0345 57.3411 49.4352 57.4555 49.7098C57.5098 49.8414 57.5526 49.9451 57.5841 50.0236C57.6098 50.0964 57.6241 50.1328 57.6212 50.1328L57.6269 50.116Z" fill="#6F4439"/>
<path d="M68.4559 61.1579C68.4216 61.172 68.0844 60.4435 67.5957 59.5861C67.1098 58.726 66.6554 58.0619 66.684 58.0423C66.6982 58.0339 66.8297 58.188 67.0183 58.4514C67.2098 58.7176 67.4556 59.093 67.7043 59.5273C67.9501 59.9588 68.1473 60.365 68.2759 60.662C68.4045 60.9618 68.4702 61.1523 68.4559 61.1579Z" fill="#6F4439"/>
<path d="M71.8341 50.483C71.8341 50.483 71.8169 50.5251 71.7712 50.5979C71.7198 50.682 71.654 50.7884 71.5711 50.9173C71.3854 51.2059 71.131 51.6038 70.8138 52.0941C70.1564 53.0999 69.2504 54.4784 68.2273 56.0418L68.2073 55.9578C68.5102 56.1399 68.8303 56.3276 69.1533 56.5209C70.9938 57.6305 72.66 58.6363 73.8804 59.3368C74.4834 59.6786 74.9779 59.956 75.3323 60.1577C75.4952 60.2474 75.6266 60.323 75.7295 60.379C75.821 60.4295 75.8667 60.4603 75.8639 60.4631C75.8639 60.4659 75.8124 60.4463 75.7181 60.4015C75.6124 60.351 75.478 60.2838 75.3094 60.1997C74.9579 60.0204 74.452 59.7542 73.8375 59.4124C72.6029 58.7316 70.9281 57.7369 69.0875 56.6274C68.7646 56.4341 68.4445 56.2436 68.1444 56.0614L68.0901 56.0278L68.1244 55.9746C69.1618 54.4224 70.0764 53.0495 70.7452 52.0492C71.0738 51.5673 71.3396 51.1751 71.5311 50.8921C71.6197 50.766 71.6912 50.6651 71.7483 50.5839C71.7998 50.5138 71.8284 50.4802 71.8312 50.4802L71.8341 50.483Z" fill="#263238"/>
<path d="M71.4683 48.701C71.4854 48.7123 71.3654 48.914 71.1882 49.2502C71.011 49.5836 70.7795 50.0543 70.5651 50.5895C70.3536 51.1246 70.1993 51.6233 70.0993 51.9904C69.9993 52.3546 69.945 52.5844 69.9278 52.5816C69.9135 52.5788 69.9364 52.3434 70.0135 51.9708C70.0907 51.5981 70.2336 51.0882 70.448 50.5474C70.6623 50.0067 70.911 49.536 71.1082 49.211C71.3082 48.8832 71.4511 48.6954 71.4654 48.7039L71.4683 48.701Z" fill="#263238"/>
</g>
<defs>
<clipPath id="clip0_1_89">
<rect width="38" height="45" fill="white" transform="translate(44 23)"/>
</clipPath>
</defs>
</svg>
