<svg width="455" height="243" viewBox="0 0 455 243" fill="none" xmlns="http://www.w3.org/2000/svg">
<path d="M420.498 0.47937H34.2397C15.8307 0.47937 0.909637 9.55689 0.909637 20.7564V198.404C0.909637 209.601 15.8307 218.681 34.2397 218.681H331.282C336.799 225.951 347.147 231.786 358.834 235.631C368.392 238.775 378.797 240.758 389.416 242.263C393.584 242.852 396.702 239.972 394.095 237.91C386.999 232.3 382.144 225.64 379.924 218.683H420.494C438.9 218.683 453.824 209.605 453.824 198.406V20.7543C453.828 9.55689 438.907 0.47937 420.498 0.47937Z" fill="white"/>
<path d="M420.498 0.47718C420.498 0.47718 421.188 0.524337 422.541 0.580067C423.891 0.616505 425.913 0.772976 428.489 1.16952C433.537 1.93473 441.338 3.96672 447.405 9.07885C450.435 11.5888 452.633 14.9198 453.349 18.7137C453.669 22.5247 453.405 26.7645 453.461 31.2979C453.43 40.3883 453.394 50.8226 453.352 62.4937C453.299 85.8487 453.236 114.147 453.162 146.508C453.137 162.691 453.113 179.893 453.084 197.998C453.137 202.433 450.903 206.945 446.239 210.51C441.676 214.079 435.017 216.76 427.541 217.727C423.813 218.239 419.976 218.207 415.999 218.2C412.053 218.198 408.089 218.196 404.101 218.196C396.127 218.194 388.07 218.19 379.928 218.188H378.941L379.128 218.777C380.953 224.474 384.525 230.047 389.8 235.061C390.462 235.687 391.142 236.304 391.857 236.911C392.505 237.5 393.467 238.16 393.862 238.649C394.81 239.736 393.763 241.21 391.896 241.663C390.913 241.89 390.053 241.862 388.81 241.65L385.251 241.116C382.88 240.745 380.519 240.344 378.173 239.903C368.808 238.139 359.567 235.753 351.46 232.21C343.384 228.686 336.331 224.052 332.075 218.46L331.842 218.153H331.285C250.099 218.145 161.443 218.134 69.2256 218.123C62.165 218.123 55.129 218.123 48.1107 218.123H37.6044C34.067 218.149 30.7129 218.095 27.3764 217.671C20.7738 216.773 14.6046 214.651 10.1547 211.566C5.59564 208.54 2.80862 204.617 2.03351 200.581C1.74109 198.577 1.84329 196.464 1.82568 194.385C1.82568 192.301 1.82568 190.222 1.82568 188.147C1.82568 183.995 1.82211 179.861 1.82211 175.743C1.8186 167.506 1.81866 159.335 1.81512 151.237C1.79752 118.841 1.77985 87.5935 1.76224 57.8252C1.75519 50.3832 1.74814 43.0354 1.7446 35.782C1.74109 32.1553 1.73758 28.5543 1.73407 24.979C1.74463 21.3866 1.44516 17.8606 3.35828 14.5875C6.8287 8.00927 16.2323 2.91 26.9712 1.47389C32.2878 0.663661 37.9286 1.05163 43.4601 0.953027C48.9916 0.950883 54.4773 0.948739 59.9172 0.946596C103.429 0.923018 143.957 0.899441 180.962 0.878006C254.943 0.802985 314.814 0.742968 356.234 0.700099C376.901 0.655087 392.956 0.618649 403.886 0.595071C409.308 0.571493 413.448 0.5522 416.277 0.539339C419.067 0.515761 420.498 0.47718 420.498 0.47718C420.498 0.47718 419.067 0.438597 416.277 0.419306C413.448 0.406445 409.304 0.3893 403.886 0.363578C392.956 0.34 376.901 0.303562 356.234 0.25855C314.814 0.215681 254.943 0.155664 180.962 0.0806428C143.957 0.0592082 103.426 0.0377705 59.9172 0.0120491C54.4773 0.00990564 48.9916 0.00776572 43.4601 0.00562227C40.6943 0.00562227 37.9179 0.00347708 35.1275 0.00133363C33.7429 -0.0115271 32.2843 0.0720683 30.8644 0.10422C29.4516 0.241401 28.014 0.316421 26.6188 0.537197C15.3514 2.03547 5.48279 7.37052 1.82211 14.2767C-0.196686 17.7212 0.113373 21.453 0.0957642 24.9747C0.0922546 28.55 0.0887451 32.1531 0.0852356 35.7777C0.078186 43.029 0.074646 50.3789 0.0675964 57.8209C0.0499878 87.5892 0.0323181 118.836 0.0147095 151.233C0.0111694 159.331 0.00772095 167.501 0.00772095 175.739C0.00772095 179.858 0.00415039 183.993 0.00415039 188.143C0.00415039 190.218 0.00415039 192.297 0.00415039 194.38C0.0252991 196.466 -0.0909424 198.534 0.222656 200.699C1.03299 204.965 3.98544 209.11 8.79471 212.308C13.4947 215.566 20.0092 217.81 26.9923 218.76C30.4909 219.212 34.1551 219.266 37.6079 219.238H48.1143C55.1326 219.238 62.1685 219.238 69.2292 219.238C161.447 219.227 250.102 219.219 331.289 219.208L330.5 218.901C334.921 224.695 342.19 229.451 350.466 233.055C358.784 236.683 368.199 239.099 377.683 240.88C380.058 241.326 382.447 241.729 384.839 242.102L388.429 242.64C389.525 242.846 391.234 242.964 392.541 242.601C395.257 241.946 396.74 239.836 395.37 238.214C394.641 237.391 393.908 236.962 393.214 236.323C392.516 235.73 391.847 235.125 391.198 234.514C386.037 229.614 382.524 224.161 380.727 218.584L379.931 219.171C388.07 219.169 396.127 219.165 404.104 219.163C408.092 219.161 412.056 219.161 416.002 219.159C419.902 219.165 423.972 219.197 427.879 218.655C435.711 217.635 442.68 214.82 447.447 211.08C452.316 207.352 454.656 202.596 454.578 197.998C454.55 179.893 454.525 162.691 454.501 146.508C454.427 114.147 454.363 85.8487 454.31 62.4937C454.268 50.8226 454.233 40.3883 454.201 31.2979C454.106 26.7473 454.335 22.5633 453.972 18.6751C453.208 14.8104 450.928 11.4324 447.817 8.8988C441.591 3.73952 433.657 1.73967 428.552 1.01733C425.948 0.642228 423.908 0.511475 422.552 0.500757C421.188 0.472893 420.498 0.47718 420.498 0.47718Z" fill="#263238"/>
<path d="M59.9918 87.2937L62.2062 91.9284C62.4555 92.4488 62.9377 92.8114 63.4945 92.894L68.4474 93.638C69.8503 93.8484 70.4108 95.6294 69.3954 96.6514L65.8108 100.258C65.4069 100.664 65.2231 101.248 65.3196 101.821L66.1657 106.915C66.4059 108.357 64.9392 109.458 63.6837 108.776L59.253 106.372C58.7544 106.101 58.1594 106.101 57.6609 106.372L53.2302 108.776C51.9746 109.458 50.508 108.357 50.7482 106.915L51.5944 101.821C51.689 101.248 51.5052 100.664 51.1031 100.258L47.5184 96.6514C46.5031 95.6294 47.0635 93.8503 48.4665 93.638L53.4212 92.894C53.978 92.8114 54.4602 92.4488 54.7095 91.9284L56.9239 87.2937C57.5517 85.9824 59.364 85.9824 59.9918 87.2937Z" fill="#E76F51"/>
<path d="M139.706 87.2937L141.92 91.9284C142.169 92.4488 142.652 92.8114 143.208 92.894L148.161 93.638C149.564 93.8484 150.125 95.6294 149.109 96.6514L145.525 100.258C145.123 100.664 144.937 101.248 145.033 101.821L145.879 106.915C146.12 108.357 144.653 109.458 143.398 108.776L138.967 106.372C138.468 106.101 137.873 106.101 137.375 106.372L132.944 108.776C131.688 109.458 130.222 108.357 130.462 106.915L131.308 101.821C131.403 101.248 131.219 100.664 130.817 100.258L127.232 96.6514C126.217 95.6294 126.777 93.8503 128.18 93.638L133.133 92.894C133.69 92.8114 134.172 92.4488 134.422 91.9284L136.636 87.2937C137.266 85.9824 139.08 85.9824 139.706 87.2937Z" fill="#E76F51"/>
<path d="M219.182 87.2937L221.397 91.9284C221.646 92.4488 222.128 92.8114 222.685 92.894L227.638 93.638C229.041 93.8484 229.601 95.6294 228.586 96.6514L225.001 100.258C224.597 100.664 224.414 101.248 224.51 101.821L225.356 106.915C225.596 108.357 224.13 109.458 222.874 108.776L218.443 106.372C217.945 106.101 217.35 106.101 216.851 106.372L212.421 108.776C211.165 109.458 209.698 108.357 209.939 106.915L210.785 101.821C210.879 101.248 210.696 100.664 210.293 100.258L206.709 96.6514C205.694 95.6294 206.254 93.8503 207.657 93.638L212.61 92.894C213.167 92.8114 213.649 92.4488 213.898 91.9284L216.113 87.2937C216.74 85.9824 218.554 85.9824 219.182 87.2937Z" fill="#E76F51"/>
<path d="M298.658 87.2937L300.873 91.9284C301.122 92.4488 301.604 92.8114 302.161 92.894L307.114 93.638C308.517 93.8484 309.077 95.6294 308.062 96.6514L304.477 100.258C304.073 100.664 303.89 101.248 303.986 101.821L304.832 106.915C305.072 108.357 303.606 109.458 302.35 108.776L297.92 106.372C297.421 106.101 296.826 106.101 296.327 106.372L291.897 108.776C290.641 109.458 289.175 108.357 289.415 106.915L290.261 101.821C290.355 101.248 290.172 100.664 289.77 100.258L286.185 96.6514C285.17 95.6294 285.73 93.8503 287.133 93.638L292.086 92.894C292.643 92.8114 293.125 92.4488 293.374 91.9284L295.589 87.2937C296.218 85.9824 298.031 85.9824 298.658 87.2937Z" fill="#E76F51"/>
<path d="M378.134 87.2937L380.349 91.9284C380.598 92.4488 381.08 92.8114 381.637 92.894L386.59 93.638C387.993 93.8484 388.553 95.6294 387.538 96.6514L383.953 100.258C383.549 100.664 383.366 101.248 383.462 101.821L384.308 106.915C384.548 108.357 383.082 109.458 381.826 108.776L377.396 106.372C376.897 106.101 376.302 106.101 375.803 106.372L371.373 108.776C370.117 109.458 368.651 108.357 368.891 106.915L369.737 101.821C369.832 101.248 369.648 100.664 369.246 100.258L365.661 96.6514C364.646 95.6294 365.206 93.8503 366.609 93.638L371.562 92.894C372.119 92.8114 372.601 92.4488 372.85 91.9284L375.065 87.2937C375.694 85.9824 377.507 85.9824 378.134 87.2937Z" fill="#E76F51"/>
<path d="M394.143 197.765H50.63C37.7441 197.765 27.3003 192.128 27.3003 185.172V144.749C27.3003 137.793 37.7441 132.156 50.63 132.156H394.143C407.029 132.156 417.473 137.793 417.473 144.749V185.172C417.473 192.125 407.029 197.765 394.143 197.765Z" fill="#F5F5F5"/>
<path d="M97.248 30.288C97.248 30.8853 97.104 31.4453 96.816 31.968C96.5387 32.4907 96.096 32.912 95.488 33.232C94.8907 33.552 94.1333 33.712 93.216 33.712H91.344V38H89.104V26.832H93.216C94.08 26.832 94.816 26.9813 95.424 27.28C96.032 27.5787 96.4853 27.9893 96.784 28.512C97.0933 29.0347 97.248 29.6267 97.248 30.288ZM93.12 31.904C93.7387 31.904 94.1973 31.7653 94.496 31.488C94.7947 31.2 94.944 30.8 94.944 30.288C94.944 29.2 94.336 28.656 93.12 28.656H91.344V31.904H93.12ZM98.2624 33.536C98.2624 32.64 98.4384 31.8453 98.7904 31.152C99.153 30.4587 99.6384 29.9253 100.246 29.552C100.865 29.1787 101.553 28.992 102.31 28.992C102.972 28.992 103.548 29.1253 104.038 29.392C104.54 29.6587 104.94 29.9947 105.238 30.4V29.136H107.494V38H105.238V36.704C104.95 37.12 104.55 37.4667 104.038 37.744C103.537 38.0107 102.956 38.144 102.294 38.144C101.548 38.144 100.865 37.952 100.246 37.568C99.6384 37.184 99.153 36.6453 98.7904 35.952C98.4384 35.248 98.2624 34.4427 98.2624 33.536ZM105.238 33.568C105.238 33.024 105.132 32.56 104.918 32.176C104.705 31.7813 104.417 31.4827 104.054 31.28C103.692 31.0667 103.302 30.96 102.886 30.96C102.47 30.96 102.086 31.0613 101.734 31.264C101.382 31.4667 101.094 31.7653 100.87 32.16C100.657 32.544 100.55 33.0027 100.55 33.536C100.55 34.0693 100.657 34.5387 100.87 34.944C101.094 35.3387 101.382 35.6427 101.734 35.856C102.097 36.0693 102.481 36.176 102.886 36.176C103.302 36.176 103.692 36.0747 104.054 35.872C104.417 35.6587 104.705 35.36 104.918 34.976C105.132 34.5813 105.238 34.112 105.238 33.568ZM111.922 30.512C112.21 30.0427 112.583 29.6747 113.042 29.408C113.511 29.1413 114.045 29.008 114.642 29.008V31.36H114.05C113.346 31.36 112.813 31.5253 112.45 31.856C112.098 32.1867 111.922 32.7627 111.922 33.584V38H109.682V29.136H111.922V30.512ZM118.759 30.976V35.264C118.759 35.5627 118.828 35.7813 118.967 35.92C119.116 36.048 119.362 36.112 119.703 36.112H120.743V38H119.335C117.447 38 116.503 37.0827 116.503 35.248V30.976H115.447V29.136H116.503V26.944H118.759V29.136H120.743V30.976H118.759ZM127.346 29.008C128.018 29.008 128.615 29.1573 129.138 29.456C129.661 29.744 130.066 30.176 130.354 30.752C130.653 31.3173 130.802 32 130.802 32.8V38H128.562V33.104C128.562 32.4 128.386 31.8613 128.034 31.488C127.682 31.104 127.202 30.912 126.594 30.912C125.975 30.912 125.485 31.104 125.122 31.488C124.77 31.8613 124.594 32.4 124.594 33.104V38H122.354V26.16H124.594V30.24C124.882 29.856 125.266 29.5573 125.746 29.344C126.226 29.12 126.759 29.008 127.346 29.008ZM136.201 32.4C136.201 31.3013 136.446 30.32 136.937 29.456C137.438 28.5813 138.115 27.904 138.969 27.424C139.833 26.9333 140.798 26.688 141.865 26.688C143.113 26.688 144.206 27.008 145.145 27.648C146.083 28.288 146.739 29.1733 147.113 30.304H144.537C144.281 29.7707 143.918 29.3707 143.449 29.104C142.99 28.8373 142.457 28.704 141.849 28.704C141.198 28.704 140.617 28.8587 140.105 29.168C139.603 29.4667 139.209 29.8933 138.921 30.448C138.643 31.0027 138.505 31.6533 138.505 32.4C138.505 33.136 138.643 33.7867 138.921 34.352C139.209 34.9067 139.603 35.3387 140.105 35.648C140.617 35.9467 141.198 36.096 141.849 36.096C142.457 36.096 142.99 35.9627 143.449 35.696C143.918 35.4187 144.281 35.0133 144.537 34.48H147.113C146.739 35.6213 146.083 36.512 145.145 37.152C144.217 37.7813 143.123 38.096 141.865 38.096C140.798 38.096 139.833 37.856 138.969 37.376C138.115 36.8853 137.438 36.208 136.937 35.344C136.446 34.48 136.201 33.4987 136.201 32.4ZM154.018 29.008C154.69 29.008 155.287 29.1573 155.81 29.456C156.333 29.744 156.738 30.176 157.026 30.752C157.325 31.3173 157.474 32 157.474 32.8V38H155.234V33.104C155.234 32.4 155.058 31.8613 154.706 31.488C154.354 31.104 153.874 30.912 153.266 30.912C152.647 30.912 152.157 31.104 151.794 31.488C151.442 31.8613 151.266 32.4 151.266 33.104V38H149.026V26.16H151.266V30.24C151.554 29.856 151.938 29.5573 152.418 29.344C152.898 29.12 153.431 29.008 154.018 29.008ZM159.028 33.536C159.028 32.64 159.204 31.8453 159.556 31.152C159.919 30.4587 160.404 29.9253 161.012 29.552C161.631 29.1787 162.319 28.992 163.076 28.992C163.737 28.992 164.313 29.1253 164.804 29.392C165.305 29.6587 165.705 29.9947 166.004 30.4V29.136H168.26V38H166.004V36.704C165.716 37.12 165.316 37.4667 164.804 37.744C164.303 38.0107 163.721 38.144 163.06 38.144C162.313 38.144 161.631 37.952 161.012 37.568C160.404 37.184 159.919 36.6453 159.556 35.952C159.204 35.248 159.028 34.4427 159.028 33.536ZM166.004 33.568C166.004 33.024 165.897 32.56 165.684 32.176C165.471 31.7813 165.183 31.4827 164.82 31.28C164.457 31.0667 164.068 30.96 163.652 30.96C163.236 30.96 162.852 31.0613 162.5 31.264C162.148 31.4667 161.86 31.7653 161.636 32.16C161.423 32.544 161.316 33.0027 161.316 33.536C161.316 34.0693 161.423 34.5387 161.636 34.944C161.86 35.3387 162.148 35.6427 162.5 35.856C162.863 36.0693 163.247 36.176 163.652 36.176C164.068 36.176 164.457 36.0747 164.82 35.872C165.183 35.6587 165.471 35.36 165.684 34.976C165.897 34.5813 166.004 34.112 166.004 33.568ZM173.056 30.976V35.264C173.056 35.5627 173.125 35.7813 173.264 35.92C173.413 36.048 173.658 36.112 174 36.112H175.04V38H173.632C171.744 38 170.8 37.0827 170.8 35.248V30.976H169.744V29.136H170.8V26.944H173.056V29.136H175.04V30.976H173.056ZM185.019 29.136V38H182.763V36.88C182.475 37.264 182.096 37.568 181.627 37.792C181.168 38.0053 180.667 38.112 180.123 38.112C179.43 38.112 178.816 37.968 178.283 37.68C177.75 37.3813 177.328 36.9493 177.019 36.384C176.72 35.808 176.571 35.1253 176.571 34.336V29.136H178.811V34.016C178.811 34.72 178.987 35.264 179.339 35.648C179.691 36.0213 180.171 36.208 180.779 36.208C181.398 36.208 181.883 36.0213 182.235 35.648C182.587 35.264 182.763 34.72 182.763 34.016V29.136H185.019ZM189.469 30.512C189.757 30.0427 190.13 29.6747 190.589 29.408C191.058 29.1413 191.592 29.008 192.189 29.008V31.36H191.597C190.893 31.36 190.36 31.5253 189.997 31.856C189.645 32.1867 189.469 32.7627 189.469 33.584V38H187.229V29.136H189.469V30.512ZM197.394 35.936L199.634 29.136H202.018L198.738 38H196.018L192.754 29.136H195.154L197.394 35.936ZM211.516 33.376C211.516 33.696 211.495 33.984 211.452 34.24H204.972C205.025 34.88 205.249 35.3813 205.644 35.744C206.039 36.1067 206.524 36.288 207.1 36.288C207.932 36.288 208.524 35.9307 208.876 35.216H211.292C211.036 36.0693 210.545 36.7733 209.82 37.328C209.095 37.872 208.204 38.144 207.148 38.144C206.295 38.144 205.527 37.9573 204.844 37.584C204.172 37.2 203.644 36.6613 203.26 35.968C202.887 35.2747 202.7 34.4747 202.7 33.568C202.7 32.6507 202.887 31.8453 203.26 31.152C203.633 30.4587 204.156 29.9253 204.828 29.552C205.5 29.1787 206.273 28.992 207.148 28.992C207.991 28.992 208.743 29.1733 209.404 29.536C210.076 29.8987 210.593 30.416 210.956 31.088C211.329 31.7493 211.516 32.512 211.516 33.376ZM209.196 32.736C209.185 32.16 208.977 31.7013 208.572 31.36C208.167 31.008 207.671 30.832 207.084 30.832C206.529 30.832 206.06 31.0027 205.676 31.344C205.303 31.6747 205.073 32.1387 204.988 32.736H209.196ZM212.575 33.536C212.575 32.64 212.751 31.8453 213.103 31.152C213.466 30.4587 213.956 29.9253 214.575 29.552C215.194 29.1787 215.882 28.992 216.639 28.992C217.215 28.992 217.764 29.12 218.287 29.376C218.81 29.6213 219.226 29.952 219.535 30.368V26.16H221.807V38H219.535V36.688C219.258 37.1253 218.868 37.4773 218.367 37.744C217.866 38.0107 217.284 38.144 216.623 38.144C215.876 38.144 215.194 37.952 214.575 37.568C213.956 37.184 213.466 36.6453 213.103 35.952C212.751 35.248 212.575 34.4427 212.575 33.536ZM219.551 33.568C219.551 33.024 219.444 32.56 219.231 32.176C219.018 31.7813 218.73 31.4827 218.367 31.28C218.004 31.0667 217.615 30.96 217.199 30.96C216.783 30.96 216.399 31.0613 216.047 31.264C215.695 31.4667 215.407 31.7653 215.183 32.16C214.97 32.544 214.863 33.0027 214.863 33.536C214.863 34.0693 214.97 34.5387 215.183 34.944C215.407 35.3387 215.695 35.6427 216.047 35.856C216.41 36.0693 216.794 36.176 217.199 36.176C217.615 36.176 218.004 36.0747 218.367 35.872C218.73 35.6587 219.018 35.36 219.231 34.976C219.444 34.5813 219.551 34.112 219.551 33.568ZM225.131 28.08C224.736 28.08 224.405 27.9573 224.139 27.712C223.883 27.456 223.755 27.1413 223.755 26.768C223.755 26.3947 223.883 26.0853 224.139 25.84C224.405 25.584 224.736 25.456 225.131 25.456C225.525 25.456 225.851 25.584 226.107 25.84C226.373 26.0853 226.507 26.3947 226.507 26.768C226.507 27.1413 226.373 27.456 226.107 27.712C225.851 27.9573 225.525 28.08 225.131 28.08ZM226.235 29.136V38H223.995V29.136H226.235Z" fill="#264653"/>
<path d="M95.065 46.545V47.655H90.52V51.18H94.21V52.29H90.52V57H89.155V46.545H95.065ZM98.0786 50.115C98.3186 49.645 98.6586 49.28 99.0986 49.02C99.5486 48.76 100.094 48.63 100.734 48.63V50.04H100.374C98.8436 50.04 98.0786 50.87 98.0786 52.53V57H96.7136V48.78H98.0786V50.115ZM105.894 57.135C105.124 57.135 104.424 56.96 103.794 56.61C103.174 56.26 102.684 55.765 102.324 55.125C101.974 54.475 101.799 53.725 101.799 52.875C101.799 52.035 101.979 51.295 102.339 50.655C102.709 50.005 103.209 49.51 103.839 49.17C104.469 48.82 105.174 48.645 105.954 48.645C106.734 48.645 107.439 48.82 108.069 49.17C108.699 49.51 109.194 50 109.554 50.64C109.924 51.28 110.109 52.025 110.109 52.875C110.109 53.725 109.919 54.475 109.539 55.125C109.169 55.765 108.664 56.26 108.024 56.61C107.384 56.96 106.674 57.135 105.894 57.135ZM105.894 55.935C106.384 55.935 106.844 55.82 107.274 55.59C107.704 55.36 108.049 55.015 108.309 54.555C108.579 54.095 108.714 53.535 108.714 52.875C108.714 52.215 108.584 51.655 108.324 51.195C108.064 50.735 107.724 50.395 107.304 50.175C106.884 49.945 106.429 49.83 105.939 49.83C105.439 49.83 104.979 49.945 104.559 50.175C104.149 50.395 103.819 50.735 103.569 51.195C103.319 51.655 103.194 52.215 103.194 52.875C103.194 53.545 103.314 54.11 103.554 54.57C103.804 55.03 104.134 55.375 104.544 55.605C104.954 55.825 105.404 55.935 105.894 55.935ZM121.789 48.63C122.429 48.63 122.999 48.765 123.499 49.035C123.999 49.295 124.394 49.69 124.684 50.22C124.974 50.75 125.119 51.395 125.119 52.155V57H123.769V52.35C123.769 51.53 123.564 50.905 123.154 50.475C122.754 50.035 122.209 49.815 121.519 49.815C120.809 49.815 120.244 50.045 119.824 50.505C119.404 50.955 119.194 51.61 119.194 52.47V57H117.844V52.35C117.844 51.53 117.639 50.905 117.229 50.475C116.829 50.035 116.284 49.815 115.594 49.815C114.884 49.815 114.319 50.045 113.899 50.505C113.479 50.955 113.269 51.61 113.269 52.47V57H111.904V48.78H113.269V49.965C113.539 49.535 113.899 49.205 114.349 48.975C114.809 48.745 115.314 48.63 115.864 48.63C116.554 48.63 117.164 48.785 117.694 49.095C118.224 49.405 118.619 49.86 118.879 50.46C119.109 49.88 119.489 49.43 120.019 49.11C120.549 48.79 121.139 48.63 121.789 48.63ZM134.612 46.545C135.752 46.545 136.737 46.76 137.567 47.19C138.407 47.61 139.047 48.215 139.487 49.005C139.937 49.795 140.162 50.725 140.162 51.795C140.162 52.865 139.937 53.795 139.487 54.585C139.047 55.365 138.407 55.965 137.567 56.385C136.737 56.795 135.752 57 134.612 57H131.357V46.545H134.612ZM134.612 55.875C135.962 55.875 136.992 55.52 137.702 54.81C138.412 54.09 138.767 53.085 138.767 51.795C138.767 50.495 138.407 49.48 137.687 48.75C136.977 48.02 135.952 47.655 134.612 47.655H132.722V55.875H134.612ZM149.463 52.575C149.463 52.835 149.448 53.11 149.418 53.4H142.848C142.898 54.21 143.173 54.845 143.673 55.305C144.183 55.755 144.798 55.98 145.518 55.98C146.108 55.98 146.598 55.845 146.988 55.575C147.388 55.295 147.668 54.925 147.828 54.465H149.298C149.078 55.255 148.638 55.9 147.978 56.4C147.318 56.89 146.498 57.135 145.518 57.135C144.738 57.135 144.038 56.96 143.418 56.61C142.808 56.26 142.328 55.765 141.978 55.125C141.628 54.475 141.453 53.725 141.453 52.875C141.453 52.025 141.623 51.28 141.963 50.64C142.303 50 142.778 49.51 143.388 49.17C144.008 48.82 144.718 48.645 145.518 48.645C146.298 48.645 146.988 48.815 147.588 49.155C148.188 49.495 148.648 49.965 148.968 50.565C149.298 51.155 149.463 51.825 149.463 52.575ZM148.053 52.29C148.053 51.77 147.938 51.325 147.708 50.955C147.478 50.575 147.163 50.29 146.763 50.1C146.373 49.9 145.938 49.8 145.458 49.8C144.768 49.8 144.178 50.02 143.688 50.46C143.208 50.9 142.933 51.51 142.863 52.29H148.053ZM152.629 45.9V57H151.264V45.9H152.629ZM159.036 48.63C159.656 48.63 160.216 48.765 160.716 49.035C161.216 49.295 161.606 49.69 161.886 50.22C162.176 50.75 162.321 51.395 162.321 52.155V57H160.971V52.35C160.971 51.53 160.766 50.905 160.356 50.475C159.946 50.035 159.386 49.815 158.676 49.815C157.956 49.815 157.381 50.04 156.951 50.49C156.531 50.94 156.321 51.595 156.321 52.455V57H154.956V45.9H156.321V49.95C156.591 49.53 156.961 49.205 157.431 48.975C157.911 48.745 158.446 48.63 159.036 48.63ZM165.256 47.445C164.996 47.445 164.776 47.355 164.596 47.175C164.416 46.995 164.326 46.775 164.326 46.515C164.326 46.255 164.416 46.035 164.596 45.855C164.776 45.675 164.996 45.585 165.256 45.585C165.506 45.585 165.716 45.675 165.886 45.855C166.066 46.035 166.156 46.255 166.156 46.515C166.156 46.775 166.066 46.995 165.886 47.175C165.716 47.355 165.506 47.445 165.256 47.445ZM165.916 48.78V57H164.551V48.78H165.916Z" fill="#E76F51"/>
<path d="M59.084 149.242V150.278H56.424V159H55.15V150.278H52.476V149.242H59.084ZM64.4602 151.188C65.0389 151.188 65.5616 151.314 66.0282 151.566C66.4949 151.809 66.8589 152.177 67.1202 152.672C67.3909 153.167 67.5262 153.769 67.5262 154.478V159H66.2662V154.66C66.2662 153.895 66.0749 153.311 65.6922 152.91C65.3096 152.499 64.7869 152.294 64.1242 152.294C63.4522 152.294 62.9156 152.504 62.5142 152.924C62.1222 153.344 61.9262 153.955 61.9262 154.758V159H60.6522V148.64H61.9262V152.42C62.1782 152.028 62.5236 151.725 62.9622 151.51C63.4102 151.295 63.9096 151.188 64.4602 151.188ZM76.6073 154.87C76.6073 155.113 76.5933 155.369 76.5653 155.64H70.4333C70.48 156.396 70.7366 156.989 71.2033 157.418C71.6793 157.838 72.2533 158.048 72.9253 158.048C73.476 158.048 73.9333 157.922 74.2973 157.67C74.6706 157.409 74.932 157.063 75.0813 156.634H76.4533C76.248 157.371 75.8373 157.973 75.2213 158.44C74.6053 158.897 73.84 159.126 72.9253 159.126C72.1973 159.126 71.544 158.963 70.9653 158.636C70.396 158.309 69.948 157.847 69.6213 157.25C69.2946 156.643 69.1313 155.943 69.1313 155.15C69.1313 154.357 69.29 153.661 69.6073 153.064C69.9246 152.467 70.368 152.009 70.9373 151.692C71.516 151.365 72.1786 151.202 72.9253 151.202C73.6533 151.202 74.2973 151.361 74.8573 151.678C75.4173 151.995 75.8466 152.434 76.1453 152.994C76.4533 153.545 76.6073 154.17 76.6073 154.87ZM75.2913 154.604C75.2913 154.119 75.184 153.703 74.9693 153.358C74.7546 153.003 74.4606 152.737 74.0873 152.56C73.7233 152.373 73.3173 152.28 72.8693 152.28C72.2253 152.28 71.6746 152.485 71.2173 152.896C70.7693 153.307 70.5126 153.876 70.4473 154.604H75.2913ZM84.8969 151.328L80.2769 162.612H78.9609L80.4729 158.916L77.3789 151.328H78.7929L81.2009 157.544L83.5809 151.328H84.8969ZM89.434 155.136C89.434 154.352 89.5927 153.666 89.91 153.078C90.2274 152.481 90.6614 152.019 91.212 151.692C91.772 151.365 92.3927 151.202 93.074 151.202C93.746 151.202 94.3294 151.347 94.824 151.636C95.3187 151.925 95.6874 152.289 95.93 152.728V151.328H97.218V159H95.93V157.572C95.678 158.02 95.3 158.393 94.796 158.692C94.3014 158.981 93.7227 159.126 93.06 159.126C92.3787 159.126 91.7627 158.958 91.212 158.622C90.6614 158.286 90.2274 157.815 89.91 157.208C89.5927 156.601 89.434 155.911 89.434 155.136ZM95.93 155.15C95.93 154.571 95.8134 154.067 95.58 153.638C95.3467 153.209 95.0294 152.882 94.628 152.658C94.236 152.425 93.802 152.308 93.326 152.308C92.85 152.308 92.416 152.42 92.024 152.644C91.632 152.868 91.3194 153.195 91.086 153.624C90.8527 154.053 90.736 154.557 90.736 155.136C90.736 155.724 90.8527 156.237 91.086 156.676C91.3194 157.105 91.632 157.437 92.024 157.67C92.416 157.894 92.85 158.006 93.326 158.006C93.802 158.006 94.236 157.894 94.628 157.67C95.0294 157.437 95.3467 157.105 95.58 156.676C95.8134 156.237 95.93 155.729 95.93 155.15ZM100.645 152.574C100.869 152.135 101.186 151.795 101.597 151.552C102.017 151.309 102.526 151.188 103.123 151.188V152.504H102.787C101.359 152.504 100.645 153.279 100.645 154.828V159H99.371V151.328H100.645V152.574ZM111.594 154.87C111.594 155.113 111.58 155.369 111.552 155.64H105.42C105.466 156.396 105.723 156.989 106.19 157.418C106.666 157.838 107.24 158.048 107.912 158.048C108.462 158.048 108.92 157.922 109.284 157.67C109.657 157.409 109.918 157.063 110.068 156.634H111.44C111.234 157.371 110.824 157.973 110.208 158.44C109.592 158.897 108.826 159.126 107.912 159.126C107.184 159.126 106.53 158.963 105.952 158.636C105.382 158.309 104.934 157.847 104.608 157.25C104.281 156.643 104.118 155.943 104.118 155.15C104.118 154.357 104.276 153.661 104.594 153.064C104.911 152.467 105.354 152.009 105.924 151.692C106.502 151.365 107.165 151.202 107.912 151.202C108.64 151.202 109.284 151.361 109.844 151.678C110.404 151.995 110.833 152.434 111.132 152.994C111.44 153.545 111.594 154.17 111.594 154.87ZM110.278 154.604C110.278 154.119 110.17 153.703 109.956 153.358C109.741 153.003 109.447 152.737 109.074 152.56C108.71 152.373 108.304 152.28 107.856 152.28C107.212 152.28 106.661 152.485 106.204 152.896C105.756 153.307 105.499 153.876 105.434 154.604H110.278ZM120.13 152.378H118.52V159H117.246V152.378H116.252V151.328H117.246V150.782C117.246 149.923 117.465 149.298 117.904 148.906C118.352 148.505 119.066 148.304 120.046 148.304V149.368C119.486 149.368 119.089 149.48 118.856 149.704C118.632 149.919 118.52 150.278 118.52 150.782V151.328H120.13V152.378ZM128.419 151.328V159H127.145V157.866C126.902 158.258 126.562 158.566 126.123 158.79C125.694 159.005 125.218 159.112 124.695 159.112C124.098 159.112 123.561 158.991 123.085 158.748C122.609 158.496 122.231 158.123 121.951 157.628C121.68 157.133 121.545 156.531 121.545 155.822V151.328H122.805V155.654C122.805 156.41 122.996 156.993 123.379 157.404C123.762 157.805 124.284 158.006 124.947 158.006C125.628 158.006 126.165 157.796 126.557 157.376C126.949 156.956 127.145 156.345 127.145 155.542V151.328H128.419ZM131.844 148.64V159H130.57V148.64H131.844ZM135.29 148.64V159H134.016V148.64H135.29ZM144.069 151.328L139.449 162.612H138.133L139.645 158.916L136.551 151.328H137.965L140.373 157.544L142.753 151.328H144.069ZM150.636 152.378V156.9C150.636 157.273 150.715 157.539 150.874 157.698C151.033 157.847 151.308 157.922 151.7 157.922H152.638V159H151.49C150.781 159 150.249 158.837 149.894 158.51C149.539 158.183 149.362 157.647 149.362 156.9V152.378H148.368V151.328H149.362V149.396H150.636V151.328H152.638V152.378H150.636ZM155.456 152.574C155.68 152.135 155.997 151.795 156.408 151.552C156.828 151.309 157.336 151.188 157.934 151.188V152.504H157.598C156.17 152.504 155.456 153.279 155.456 154.828V159H154.182V151.328H155.456V152.574ZM166.208 151.328V159H164.934V157.866C164.692 158.258 164.351 158.566 163.912 158.79C163.483 159.005 163.007 159.112 162.484 159.112C161.887 159.112 161.35 158.991 160.874 158.748C160.398 158.496 160.02 158.123 159.74 157.628C159.47 157.133 159.334 156.531 159.334 155.822V151.328H160.594V155.654C160.594 156.41 160.786 156.993 161.168 157.404C161.551 157.805 162.074 158.006 162.736 158.006C163.418 158.006 163.954 157.796 164.346 157.376C164.738 156.956 164.934 156.345 164.934 155.542V151.328H166.208ZM171.075 159.126C170.487 159.126 169.96 159.028 169.493 158.832C169.027 158.627 168.658 158.347 168.387 157.992C168.117 157.628 167.967 157.213 167.939 156.746H169.255C169.293 157.129 169.47 157.441 169.787 157.684C170.114 157.927 170.539 158.048 171.061 158.048C171.547 158.048 171.929 157.941 172.209 157.726C172.489 157.511 172.629 157.241 172.629 156.914C172.629 156.578 172.48 156.331 172.181 156.172C171.883 156.004 171.421 155.841 170.795 155.682C170.226 155.533 169.759 155.383 169.395 155.234C169.041 155.075 168.733 154.847 168.471 154.548C168.219 154.24 168.093 153.839 168.093 153.344C168.093 152.952 168.21 152.593 168.443 152.266C168.677 151.939 169.008 151.683 169.437 151.496C169.867 151.3 170.357 151.202 170.907 151.202C171.757 151.202 172.443 151.417 172.965 151.846C173.488 152.275 173.768 152.863 173.805 153.61H172.531C172.503 153.209 172.34 152.887 172.041 152.644C171.752 152.401 171.36 152.28 170.865 152.28C170.408 152.28 170.044 152.378 169.773 152.574C169.503 152.77 169.367 153.027 169.367 153.344C169.367 153.596 169.447 153.806 169.605 153.974C169.773 154.133 169.979 154.263 170.221 154.366C170.473 154.459 170.819 154.567 171.257 154.688C171.808 154.837 172.256 154.987 172.601 155.136C172.947 155.276 173.241 155.491 173.483 155.78C173.735 156.069 173.866 156.447 173.875 156.914C173.875 157.334 173.759 157.712 173.525 158.048C173.292 158.384 172.961 158.65 172.531 158.846C172.111 159.033 171.626 159.126 171.075 159.126ZM177.228 152.378V156.9C177.228 157.273 177.307 157.539 177.466 157.698C177.624 157.847 177.9 157.922 178.292 157.922H179.23V159H178.082C177.372 159 176.84 158.837 176.486 158.51C176.131 158.183 175.954 157.647 175.954 156.9V152.378H174.96V151.328H175.954V149.396H177.228V151.328H179.23V152.378H177.228ZM194.726 151.328L192.332 159H191.016L189.168 152.91L187.32 159H186.004L183.596 151.328H184.898L186.662 157.768L188.566 151.328H189.868L191.73 157.782L193.466 151.328H194.726ZM199.336 159.126C198.617 159.126 197.964 158.963 197.376 158.636C196.797 158.309 196.34 157.847 196.004 157.25C195.677 156.643 195.514 155.943 195.514 155.15C195.514 154.366 195.682 153.675 196.018 153.078C196.363 152.471 196.83 152.009 197.418 151.692C198.006 151.365 198.664 151.202 199.392 151.202C200.12 151.202 200.778 151.365 201.366 151.692C201.954 152.009 202.416 152.467 202.752 153.064C203.097 153.661 203.27 154.357 203.27 155.15C203.27 155.943 203.093 156.643 202.738 157.25C202.393 157.847 201.921 158.309 201.324 158.636C200.727 158.963 200.064 159.126 199.336 159.126ZM199.336 158.006C199.793 158.006 200.223 157.899 200.624 157.684C201.025 157.469 201.347 157.147 201.59 156.718C201.842 156.289 201.968 155.766 201.968 155.15C201.968 154.534 201.847 154.011 201.604 153.582C201.361 153.153 201.044 152.835 200.652 152.63C200.26 152.415 199.835 152.308 199.378 152.308C198.911 152.308 198.482 152.415 198.09 152.63C197.707 152.835 197.399 153.153 197.166 153.582C196.933 154.011 196.816 154.534 196.816 155.15C196.816 155.775 196.928 156.303 197.152 156.732C197.385 157.161 197.693 157.483 198.076 157.698C198.459 157.903 198.879 158.006 199.336 158.006ZM206.219 152.574C206.443 152.135 206.761 151.795 207.171 151.552C207.591 151.309 208.1 151.188 208.697 151.188V152.504H208.361C206.933 152.504 206.219 153.279 206.219 154.828V159H204.945V151.328H206.219V152.574ZM211.722 152.378V156.9C211.722 157.273 211.801 157.539 211.96 157.698C212.119 157.847 212.394 157.922 212.786 157.922H213.724V159H212.576C211.867 159 211.335 158.837 210.98 158.51C210.625 158.183 210.448 157.647 210.448 156.9V152.378H209.454V151.328H210.448V149.396H211.722V151.328H213.724V152.378H211.722ZM219.075 151.188C219.654 151.188 220.177 151.314 220.643 151.566C221.11 151.809 221.474 152.177 221.735 152.672C222.006 153.167 222.141 153.769 222.141 154.478V159H220.881V154.66C220.881 153.895 220.69 153.311 220.307 152.91C219.925 152.499 219.402 152.294 218.739 152.294C218.067 152.294 217.531 152.504 217.129 152.924C216.737 153.344 216.541 153.955 216.541 154.758V159H215.267V148.64H216.541V152.42C216.793 152.028 217.139 151.725 217.577 151.51C218.025 151.295 218.525 151.188 219.075 151.188ZM230.831 151.328L226.211 162.612H224.895L226.407 158.916L223.313 151.328H224.727L227.135 157.544L229.515 151.328H230.831ZM233.427 157.236L231.859 161.002H231.005L232.027 157.236H233.427ZM239.893 152.742C240.145 152.303 240.518 151.939 241.013 151.65C241.517 151.351 242.1 151.202 242.763 151.202C243.444 151.202 244.06 151.365 244.611 151.692C245.171 152.019 245.61 152.481 245.927 153.078C246.244 153.666 246.403 154.352 246.403 155.136C246.403 155.911 246.244 156.601 245.927 157.208C245.61 157.815 245.171 158.286 244.611 158.622C244.06 158.958 243.444 159.126 242.763 159.126C242.11 159.126 241.531 158.981 241.027 158.692C240.532 158.393 240.154 158.025 239.893 157.586V162.64H238.619V151.328H239.893V152.742ZM245.101 155.136C245.101 154.557 244.984 154.053 244.751 153.624C244.518 153.195 244.2 152.868 243.799 152.644C243.407 152.42 242.973 152.308 242.497 152.308C242.03 152.308 241.596 152.425 241.195 152.658C240.803 152.882 240.486 153.213 240.243 153.652C240.01 154.081 239.893 154.581 239.893 155.15C239.893 155.729 240.01 156.237 240.243 156.676C240.486 157.105 240.803 157.437 241.195 157.67C241.596 157.894 242.03 158.006 242.497 158.006C242.973 158.006 243.407 157.894 243.799 157.67C244.2 157.437 244.518 157.105 244.751 156.676C244.984 156.237 245.101 155.724 245.101 155.136ZM249.354 152.574C249.578 152.135 249.895 151.795 250.306 151.552C250.726 151.309 251.235 151.188 251.832 151.188V152.504H251.496C250.068 152.504 249.354 153.279 249.354 154.828V159H248.08V151.328H249.354V152.574ZM256.649 159.126C255.93 159.126 255.277 158.963 254.689 158.636C254.11 158.309 253.653 157.847 253.317 157.25C252.99 156.643 252.827 155.943 252.827 155.15C252.827 154.366 252.995 153.675 253.331 153.078C253.676 152.471 254.143 152.009 254.731 151.692C255.319 151.365 255.977 151.202 256.705 151.202C257.433 151.202 258.091 151.365 258.679 151.692C259.267 152.009 259.729 152.467 260.065 153.064C260.41 153.661 260.583 154.357 260.583 155.15C260.583 155.943 260.405 156.643 260.051 157.25C259.705 157.847 259.234 158.309 258.637 158.636C258.039 158.963 257.377 159.126 256.649 159.126ZM256.649 158.006C257.106 158.006 257.535 157.899 257.937 157.684C258.338 157.469 258.66 157.147 258.903 156.718C259.155 156.289 259.281 155.766 259.281 155.15C259.281 154.534 259.159 154.011 258.917 153.582C258.674 153.153 258.357 152.835 257.965 152.63C257.573 152.415 257.148 152.308 256.691 152.308C256.224 152.308 255.795 152.415 255.403 152.63C255.02 152.835 254.712 153.153 254.479 153.582C254.245 154.011 254.129 154.534 254.129 155.15C254.129 155.775 254.241 156.303 254.465 156.732C254.698 157.161 255.006 157.483 255.389 157.698C255.771 157.903 256.191 158.006 256.649 158.006ZM265.114 157.824L267.494 151.328H268.852L265.842 159H264.358L261.348 151.328H262.72L265.114 157.824ZM270.763 150.082C270.521 150.082 270.315 149.998 270.147 149.83C269.979 149.662 269.895 149.457 269.895 149.214C269.895 148.971 269.979 148.766 270.147 148.598C270.315 148.43 270.521 148.346 270.763 148.346C270.997 148.346 271.193 148.43 271.351 148.598C271.519 148.766 271.603 148.971 271.603 149.214C271.603 149.457 271.519 149.662 271.351 149.83C271.193 149.998 270.997 150.082 270.763 150.082ZM271.379 151.328V159H270.105V151.328H271.379ZM273.075 155.136C273.075 154.352 273.233 153.666 273.551 153.078C273.868 152.481 274.302 152.019 274.853 151.692C275.413 151.365 276.038 151.202 276.729 151.202C277.326 151.202 277.881 151.342 278.395 151.622C278.908 151.893 279.3 152.252 279.571 152.7V148.64H280.859V159H279.571V157.558C279.319 158.015 278.945 158.393 278.451 158.692C277.956 158.981 277.377 159.126 276.715 159.126C276.033 159.126 275.413 158.958 274.853 158.622C274.302 158.286 273.868 157.815 273.551 157.208C273.233 156.601 273.075 155.911 273.075 155.136ZM279.571 155.15C279.571 154.571 279.454 154.067 279.221 153.638C278.987 153.209 278.67 152.882 278.269 152.658C277.877 152.425 277.443 152.308 276.967 152.308C276.491 152.308 276.057 152.42 275.665 152.644C275.273 152.868 274.96 153.195 274.727 153.624C274.493 154.053 274.377 154.557 274.377 155.136C274.377 155.724 274.493 156.237 274.727 156.676C274.96 157.105 275.273 157.437 275.665 157.67C276.057 157.894 276.491 158.006 276.967 158.006C277.443 158.006 277.877 157.894 278.269 157.67C278.67 157.437 278.987 157.105 279.221 156.676C279.454 156.237 279.571 155.729 279.571 155.15ZM290.012 154.87C290.012 155.113 289.998 155.369 289.97 155.64H283.838C283.884 156.396 284.141 156.989 284.608 157.418C285.084 157.838 285.658 158.048 286.33 158.048C286.88 158.048 287.338 157.922 287.702 157.67C288.075 157.409 288.336 157.063 288.486 156.634H289.858C289.652 157.371 289.242 157.973 288.626 158.44C288.01 158.897 287.244 159.126 286.33 159.126C285.602 159.126 284.948 158.963 284.37 158.636C283.8 158.309 283.352 157.847 283.026 157.25C282.699 156.643 282.536 155.943 282.536 155.15C282.536 154.357 282.694 153.661 283.012 153.064C283.329 152.467 283.772 152.009 284.342 151.692C284.92 151.365 285.583 151.202 286.33 151.202C287.058 151.202 287.702 151.361 288.262 151.678C288.822 151.995 289.251 152.434 289.55 152.994C289.858 153.545 290.012 154.17 290.012 154.87ZM288.696 154.604C288.696 154.119 288.588 153.703 288.374 153.358C288.159 153.003 287.865 152.737 287.492 152.56C287.128 152.373 286.722 152.28 286.274 152.28C285.63 152.28 285.079 152.485 284.622 152.896C284.174 153.307 283.917 153.876 283.852 154.604H288.696ZM291.217 155.136C291.217 154.352 291.376 153.666 291.693 153.078C292.011 152.481 292.445 152.019 292.995 151.692C293.555 151.365 294.181 151.202 294.871 151.202C295.469 151.202 296.024 151.342 296.537 151.622C297.051 151.893 297.443 152.252 297.713 152.7V148.64H299.001V159H297.713V157.558C297.461 158.015 297.088 158.393 296.593 158.692C296.099 158.981 295.52 159.126 294.857 159.126C294.176 159.126 293.555 158.958 292.995 158.622C292.445 158.286 292.011 157.815 291.693 157.208C291.376 156.601 291.217 155.911 291.217 155.136ZM297.713 155.15C297.713 154.571 297.597 154.067 297.363 153.638C297.13 153.209 296.813 152.882 296.411 152.658C296.019 152.425 295.585 152.308 295.109 152.308C294.633 152.308 294.199 152.42 293.807 152.644C293.415 152.868 293.103 153.195 292.869 153.624C292.636 154.053 292.519 154.557 292.519 155.136C292.519 155.724 292.636 156.237 292.869 156.676C293.103 157.105 293.415 157.437 293.807 157.67C294.199 157.894 294.633 158.006 295.109 158.006C295.585 158.006 296.019 157.894 296.411 157.67C296.813 157.437 297.13 157.105 297.363 156.676C297.597 156.237 297.713 155.729 297.713 155.15ZM304.411 155.136C304.411 154.352 304.569 153.666 304.887 153.078C305.204 152.481 305.638 152.019 306.189 151.692C306.749 151.365 307.369 151.202 308.051 151.202C308.723 151.202 309.306 151.347 309.801 151.636C310.295 151.925 310.664 152.289 310.907 152.728V151.328H312.195V159H310.907V157.572C310.655 158.02 310.277 158.393 309.773 158.692C309.278 158.981 308.699 159.126 308.037 159.126C307.355 159.126 306.739 158.958 306.189 158.622C305.638 158.286 305.204 157.815 304.887 157.208C304.569 156.601 304.411 155.911 304.411 155.136ZM310.907 155.15C310.907 154.571 310.79 154.067 310.557 153.638C310.323 153.209 310.006 152.882 309.605 152.658C309.213 152.425 308.779 152.308 308.303 152.308C307.827 152.308 307.393 152.42 307.001 152.644C306.609 152.868 306.296 153.195 306.063 153.624C305.829 154.053 305.713 154.557 305.713 155.136C305.713 155.724 305.829 156.237 306.063 156.676C306.296 157.105 306.609 157.437 307.001 157.67C307.393 157.894 307.827 158.006 308.303 158.006C308.779 158.006 309.213 157.894 309.605 157.67C310.006 157.437 310.323 157.105 310.557 156.676C310.79 156.237 310.907 155.729 310.907 155.15ZM319.634 152.378V156.9C319.634 157.273 319.713 157.539 319.872 157.698C320.031 157.847 320.306 157.922 320.698 157.922H321.636V159H320.488C319.779 159 319.247 158.837 318.892 158.51C318.537 158.183 318.36 157.647 318.36 156.9V152.378H317.366V151.328H318.36V149.396H319.634V151.328H321.636V152.378H319.634ZM326.526 159.126C325.807 159.126 325.154 158.963 324.566 158.636C323.987 158.309 323.53 157.847 323.194 157.25C322.867 156.643 322.704 155.943 322.704 155.15C322.704 154.366 322.872 153.675 323.208 153.078C323.553 152.471 324.02 152.009 324.608 151.692C325.196 151.365 325.854 151.202 326.582 151.202C327.31 151.202 327.968 151.365 328.556 151.692C329.144 152.009 329.606 152.467 329.942 153.064C330.287 153.661 330.46 154.357 330.46 155.15C330.46 155.943 330.282 156.643 329.928 157.25C329.582 157.847 329.111 158.309 328.514 158.636C327.916 158.963 327.254 159.126 326.526 159.126ZM326.526 158.006C326.983 158.006 327.412 157.899 327.814 157.684C328.215 157.469 328.537 157.147 328.78 156.718C329.032 156.289 329.158 155.766 329.158 155.15C329.158 154.534 329.036 154.011 328.794 153.582C328.551 153.153 328.234 152.835 327.842 152.63C327.45 152.415 327.025 152.308 326.568 152.308C326.101 152.308 325.672 152.415 325.28 152.63C324.897 152.835 324.589 153.153 324.356 153.582C324.122 154.011 324.006 154.534 324.006 155.15C324.006 155.775 324.118 156.303 324.342 156.732C324.575 157.161 324.883 157.483 325.266 157.698C325.648 157.903 326.068 158.006 326.526 158.006ZM336.819 157.95H340.585V159H335.363V157.95L339.087 152.364H335.391V151.328H340.557V152.364L336.819 157.95ZM348.687 159.126C348.099 159.126 347.571 159.028 347.105 158.832C346.638 158.627 346.269 158.347 345.999 157.992C345.728 157.628 345.579 157.213 345.551 156.746H346.867C346.904 157.129 347.081 157.441 347.399 157.684C347.725 157.927 348.15 158.048 348.673 158.048C349.158 158.048 349.541 157.941 349.821 157.726C350.101 157.511 350.241 157.241 350.241 156.914C350.241 156.578 350.091 156.331 349.793 156.172C349.494 156.004 349.032 155.841 348.407 155.682C347.837 155.533 347.371 155.383 347.007 155.234C346.652 155.075 346.344 154.847 346.083 154.548C345.831 154.24 345.705 153.839 345.705 153.344C345.705 152.952 345.821 152.593 346.055 152.266C346.288 151.939 346.619 151.683 347.049 151.496C347.478 151.3 347.968 151.202 348.519 151.202C349.368 151.202 350.054 151.417 350.577 151.846C351.099 152.275 351.379 152.863 351.417 153.61H350.143C350.115 153.209 349.951 152.887 349.653 152.644C349.363 152.401 348.971 152.28 348.477 152.28C348.019 152.28 347.655 152.378 347.385 152.574C347.114 152.77 346.979 153.027 346.979 153.344C346.979 153.596 347.058 153.806 347.217 153.974C347.385 154.133 347.59 154.263 347.833 154.366C348.085 154.459 348.43 154.567 348.869 154.688C349.419 154.837 349.867 154.987 350.213 155.136C350.558 155.276 350.852 155.491 351.095 155.78C351.347 156.069 351.477 156.447 351.487 156.914C351.487 157.334 351.37 157.712 351.137 158.048C350.903 158.384 350.572 158.65 350.143 158.846C349.723 159.033 349.237 159.126 348.687 159.126ZM360.285 154.87C360.285 155.113 360.271 155.369 360.243 155.64H354.111C354.158 156.396 354.414 156.989 354.881 157.418C355.357 157.838 355.931 158.048 356.603 158.048C357.154 158.048 357.611 157.922 357.975 157.67C358.348 157.409 358.61 157.063 358.759 156.634H360.131C359.926 157.371 359.515 157.973 358.899 158.44C358.283 158.897 357.518 159.126 356.603 159.126C355.875 159.126 355.222 158.963 354.643 158.636C354.074 158.309 353.626 157.847 353.299 157.25C352.972 156.643 352.809 155.943 352.809 155.15C352.809 154.357 352.968 153.661 353.285 153.064C353.602 152.467 354.046 152.009 354.615 151.692C355.194 151.365 355.856 151.202 356.603 151.202C357.331 151.202 357.975 151.361 358.535 151.678C359.095 151.995 359.524 152.434 359.823 152.994C360.131 153.545 360.285 154.17 360.285 154.87ZM358.969 154.604C358.969 154.119 358.862 153.703 358.647 153.358C358.432 153.003 358.138 152.737 357.765 152.56C357.401 152.373 356.995 152.28 356.547 152.28C355.903 152.28 355.352 152.485 354.895 152.896C354.447 153.307 354.19 153.876 354.125 154.604H358.969ZM363.241 152.574C363.465 152.135 363.782 151.795 364.193 151.552C364.613 151.309 365.121 151.188 365.719 151.188V152.504H365.383C363.955 152.504 363.241 153.279 363.241 154.828V159H361.967V151.328H363.241V152.574ZM370.045 157.824L372.425 151.328H373.783L370.773 159H369.289L366.279 151.328H367.651L370.045 157.824ZM375.695 150.082C375.452 150.082 375.247 149.998 375.079 149.83C374.911 149.662 374.827 149.457 374.827 149.214C374.827 148.971 374.911 148.766 375.079 148.598C375.247 148.43 375.452 148.346 375.695 148.346C375.928 148.346 376.124 148.43 376.283 148.598C376.451 148.766 376.535 148.971 376.535 149.214C376.535 149.457 376.451 149.662 376.283 149.83C376.124 149.998 375.928 150.082 375.695 150.082ZM376.311 151.328V159H375.037V151.328H376.311ZM378.006 155.15C378.006 154.357 378.165 153.666 378.482 153.078C378.8 152.481 379.238 152.019 379.798 151.692C380.368 151.365 381.016 151.202 381.744 151.202C382.687 151.202 383.462 151.431 384.068 151.888C384.684 152.345 385.09 152.98 385.286 153.792H383.914C383.784 153.325 383.527 152.957 383.144 152.686C382.771 152.415 382.304 152.28 381.744 152.28C381.016 152.28 380.428 152.532 379.98 153.036C379.532 153.531 379.308 154.235 379.308 155.15C379.308 156.074 379.532 156.788 379.98 157.292C380.428 157.796 381.016 158.048 381.744 158.048C382.304 158.048 382.771 157.917 383.144 157.656C383.518 157.395 383.774 157.021 383.914 156.536H385.286C385.081 157.32 384.67 157.95 384.054 158.426C383.438 158.893 382.668 159.126 381.744 159.126C381.016 159.126 380.368 158.963 379.798 158.636C379.238 158.309 378.8 157.847 378.482 157.25C378.165 156.653 378.006 155.953 378.006 155.15ZM393.986 154.87C393.986 155.113 393.972 155.369 393.944 155.64H387.812C387.859 156.396 388.116 156.989 388.582 157.418C389.058 157.838 389.632 158.048 390.304 158.048C390.855 158.048 391.312 157.922 391.676 157.67C392.05 157.409 392.311 157.063 392.46 156.634H393.832C393.627 157.371 393.216 157.973 392.6 158.44C391.984 158.897 391.219 159.126 390.304 159.126C389.576 159.126 388.923 158.963 388.344 158.636C387.775 158.309 387.327 157.847 387 157.25C386.674 156.643 386.51 155.943 386.51 155.15C386.51 154.357 386.669 153.661 386.986 153.064C387.304 152.467 387.747 152.009 388.316 151.692C388.895 151.365 389.558 151.202 390.304 151.202C391.032 151.202 391.676 151.361 392.236 151.678C392.796 151.995 393.226 152.434 393.524 152.994C393.832 153.545 393.986 154.17 393.986 154.87ZM392.67 154.604C392.67 154.119 392.563 153.703 392.348 153.358C392.134 153.003 391.84 152.737 391.466 152.56C391.102 152.373 390.696 152.28 390.248 152.28C389.604 152.28 389.054 152.485 388.596 152.896C388.148 153.307 387.892 153.876 387.826 154.604H392.67ZM398.384 159.126C397.796 159.126 397.269 159.028 396.802 158.832C396.335 158.627 395.967 158.347 395.696 157.992C395.425 157.628 395.276 157.213 395.248 156.746H396.564C396.601 157.129 396.779 157.441 397.096 157.684C397.423 157.927 397.847 158.048 398.37 158.048C398.855 158.048 399.238 157.941 399.518 157.726C399.798 157.511 399.938 157.241 399.938 156.914C399.938 156.578 399.789 156.331 399.49 156.172C399.191 156.004 398.729 155.841 398.104 155.682C397.535 155.533 397.068 155.383 396.704 155.234C396.349 155.075 396.041 154.847 395.78 154.548C395.528 154.24 395.402 153.839 395.402 153.344C395.402 152.952 395.519 152.593 395.752 152.266C395.985 151.939 396.317 151.683 396.746 151.496C397.175 151.3 397.665 151.202 398.216 151.202C399.065 151.202 399.751 151.417 400.274 151.846C400.797 152.275 401.077 152.863 401.114 153.61H399.84C399.812 153.209 399.649 152.887 399.35 152.644C399.061 152.401 398.669 152.28 398.174 152.28C397.717 152.28 397.353 152.378 397.082 152.574C396.811 152.77 396.676 153.027 396.676 153.344C396.676 153.596 396.755 153.806 396.914 153.974C397.082 154.133 397.287 154.263 397.53 154.366C397.782 154.459 398.127 154.567 398.566 154.688C399.117 154.837 399.565 154.987 399.91 155.136C400.255 155.276 400.549 155.491 400.792 155.78C401.044 156.069 401.175 156.447 401.184 156.914C401.184 157.334 401.067 157.712 400.834 158.048C400.601 158.384 400.269 158.65 399.84 158.846C399.42 159.033 398.935 159.126 398.384 159.126ZM53.736 171.082C53.4933 171.082 53.288 170.998 53.12 170.83C52.952 170.662 52.868 170.457 52.868 170.214C52.868 169.971 52.952 169.766 53.12 169.598C53.288 169.43 53.4933 169.346 53.736 169.346C53.9693 169.346 54.1653 169.43 54.324 169.598C54.492 169.766 54.576 169.971 54.576 170.214C54.576 170.457 54.492 170.662 54.324 170.83C54.1653 170.998 53.9693 171.082 53.736 171.082ZM54.352 172.328V180H53.078V172.328H54.352ZM63.9937 172.188C64.9271 172.188 65.6831 172.473 66.2617 173.042C66.8404 173.602 67.1297 174.414 67.1297 175.478V180H65.8697V175.66C65.8697 174.895 65.6784 174.311 65.2957 173.91C64.9131 173.499 64.3904 173.294 63.7277 173.294C63.0557 173.294 62.5191 173.504 62.1177 173.924C61.7257 174.344 61.5297 174.955 61.5297 175.758V180H60.2557V172.328H61.5297V173.42C61.7817 173.028 62.1224 172.725 62.5517 172.51C62.9904 172.295 63.4711 172.188 63.9937 172.188ZM76.2108 175.87C76.2108 176.113 76.1968 176.369 76.1688 176.64H70.0368C70.0835 177.396 70.3401 177.989 70.8068 178.418C71.2828 178.838 71.8568 179.048 72.5288 179.048C73.0795 179.048 73.5368 178.922 73.9008 178.67C74.2741 178.409 74.5355 178.063 74.6848 177.634H76.0568C75.8515 178.371 75.4408 178.973 74.8248 179.44C74.2088 179.897 73.4435 180.126 72.5288 180.126C71.8008 180.126 71.1475 179.963 70.5688 179.636C69.9995 179.309 69.5515 178.847 69.2248 178.25C68.8981 177.643 68.7348 176.943 68.7348 176.15C68.7348 175.357 68.8935 174.661 69.2108 174.064C69.5281 173.467 69.9715 173.009 70.5408 172.692C71.1195 172.365 71.7821 172.202 72.5288 172.202C73.2568 172.202 73.9008 172.361 74.4608 172.678C75.0208 172.995 75.4501 173.434 75.7488 173.994C76.0568 174.545 76.2108 175.17 76.2108 175.87ZM74.8948 175.604C74.8948 175.119 74.7875 174.703 74.5728 174.358C74.3581 174.003 74.0641 173.737 73.6908 173.56C73.3268 173.373 72.9208 173.28 72.4728 173.28C71.8288 173.28 71.2781 173.485 70.8208 173.896C70.3728 174.307 70.1161 174.876 70.0508 175.604H74.8948ZM84.8925 175.87C84.8925 176.113 84.8785 176.369 84.8505 176.64H78.7185C78.7651 177.396 79.0218 177.989 79.4885 178.418C79.9645 178.838 80.5385 179.048 81.2105 179.048C81.7611 179.048 82.2185 178.922 82.5825 178.67C82.9558 178.409 83.2171 178.063 83.3665 177.634H84.7385C84.5331 178.371 84.1225 178.973 83.5065 179.44C82.8905 179.897 82.1251 180.126 81.2105 180.126C80.4825 180.126 79.8291 179.963 79.2505 179.636C78.6811 179.309 78.2331 178.847 77.9065 178.25C77.5798 177.643 77.4165 176.943 77.4165 176.15C77.4165 175.357 77.5751 174.661 77.8925 174.064C78.2098 173.467 78.6531 173.009 79.2225 172.692C79.8011 172.365 80.4638 172.202 81.2105 172.202C81.9385 172.202 82.5825 172.361 83.1425 172.678C83.7025 172.995 84.1318 173.434 84.4305 173.994C84.7385 174.545 84.8925 175.17 84.8925 175.87ZM83.5765 175.604C83.5765 175.119 83.4691 174.703 83.2545 174.358C83.0398 174.003 82.7458 173.737 82.3725 173.56C82.0085 173.373 81.6025 173.28 81.1545 173.28C80.5105 173.28 79.9598 173.485 79.5025 173.896C79.0545 174.307 78.7978 174.876 78.7325 175.604H83.5765ZM86.0981 176.136C86.0981 175.352 86.2568 174.666 86.5741 174.078C86.8914 173.481 87.3254 173.019 87.8761 172.692C88.4361 172.365 89.0614 172.202 89.7521 172.202C90.3494 172.202 90.9048 172.342 91.4181 172.622C91.9314 172.893 92.3234 173.252 92.5941 173.7V169.64H93.8821V180H92.5941V178.558C92.3421 179.015 91.9688 179.393 91.4741 179.692C90.9794 179.981 90.4008 180.126 89.7381 180.126C89.0568 180.126 88.4361 179.958 87.8761 179.622C87.3254 179.286 86.8914 178.815 86.5741 178.208C86.2568 177.601 86.0981 176.911 86.0981 176.136ZM92.5941 176.15C92.5941 175.571 92.4774 175.067 92.2441 174.638C92.0108 174.209 91.6934 173.882 91.2921 173.658C90.9001 173.425 90.4661 173.308 89.9901 173.308C89.5141 173.308 89.0801 173.42 88.6881 173.644C88.2961 173.868 87.9834 174.195 87.7501 174.624C87.5168 175.053 87.4001 175.557 87.4001 176.136C87.4001 176.724 87.5168 177.237 87.7501 177.676C87.9834 178.105 88.2961 178.437 88.6881 178.67C89.0801 178.894 89.5141 179.006 89.9901 179.006C90.4661 179.006 90.9001 178.894 91.2921 178.67C91.6934 178.437 92.0108 178.105 92.2441 177.676C92.4774 177.237 92.5941 176.729 92.5941 176.15ZM103.035 175.87C103.035 176.113 103.021 176.369 102.993 176.64H96.861C96.9077 177.396 97.1644 177.989 97.631 178.418C98.107 178.838 98.681 179.048 99.353 179.048C99.9037 179.048 100.361 178.922 100.725 178.67C101.098 178.409 101.36 178.063 101.509 177.634H102.881C102.676 178.371 102.265 178.973 101.649 179.44C101.033 179.897 100.268 180.126 99.353 180.126C98.625 180.126 97.9717 179.963 97.393 179.636C96.8237 179.309 96.3757 178.847 96.049 178.25C95.7224 177.643 95.559 176.943 95.559 176.15C95.559 175.357 95.7177 174.661 96.035 174.064C96.3524 173.467 96.7957 173.009 97.365 172.692C97.9437 172.365 98.6064 172.202 99.353 172.202C100.081 172.202 100.725 172.361 101.285 172.678C101.845 172.995 102.274 173.434 102.573 173.994C102.881 174.545 103.035 175.17 103.035 175.87ZM101.719 175.604C101.719 175.119 101.612 174.703 101.397 174.358C101.182 174.003 100.888 173.737 100.515 173.56C100.151 173.373 99.745 173.28 99.297 173.28C98.653 173.28 98.1024 173.485 97.645 173.896C97.197 174.307 96.9404 174.876 96.875 175.604H101.719ZM104.241 176.136C104.241 175.352 104.399 174.666 104.717 174.078C105.034 173.481 105.468 173.019 106.019 172.692C106.579 172.365 107.204 172.202 107.895 172.202C108.492 172.202 109.047 172.342 109.561 172.622C110.074 172.893 110.466 173.252 110.737 173.7V169.64H112.025V180H110.737V178.558C110.485 179.015 110.111 179.393 109.617 179.692C109.122 179.981 108.543 180.126 107.881 180.126C107.199 180.126 106.579 179.958 106.019 179.622C105.468 179.286 105.034 178.815 104.717 178.208C104.399 177.601 104.241 176.911 104.241 176.136ZM110.737 176.15C110.737 175.571 110.62 175.067 110.387 174.638C110.153 174.209 109.836 173.882 109.435 173.658C109.043 173.425 108.609 173.308 108.133 173.308C107.657 173.308 107.223 173.42 106.831 173.644C106.439 173.868 106.126 174.195 105.893 174.624C105.659 175.053 105.543 175.557 105.543 176.136C105.543 176.724 105.659 177.237 105.893 177.676C106.126 178.105 106.439 178.437 106.831 178.67C107.223 178.894 107.657 179.006 108.133 179.006C108.609 179.006 109.043 178.894 109.435 178.67C109.836 178.437 110.153 178.105 110.387 177.676C110.62 177.237 110.737 176.729 110.737 176.15ZM128.13 172.328L125.736 180H124.42L122.572 173.91L120.724 180H119.408L117 172.328H118.302L120.066 178.768L121.97 172.328H123.272L125.134 178.782L126.87 172.328H128.13ZM130.052 171.082C129.81 171.082 129.604 170.998 129.436 170.83C129.268 170.662 129.184 170.457 129.184 170.214C129.184 169.971 129.268 169.766 129.436 169.598C129.604 169.43 129.81 169.346 130.052 169.346C130.286 169.346 130.482 169.43 130.64 169.598C130.808 169.766 130.892 169.971 130.892 170.214C130.892 170.457 130.808 170.662 130.64 170.83C130.482 170.998 130.286 171.082 130.052 171.082ZM130.668 172.328V180H129.394V172.328H130.668ZM134.394 173.378V177.9C134.394 178.273 134.473 178.539 134.632 178.698C134.79 178.847 135.066 178.922 135.458 178.922H136.396V180H135.248C134.538 180 134.006 179.837 133.652 179.51C133.297 179.183 133.12 178.647 133.12 177.9V173.378H132.126V172.328H133.12V170.396H134.394V172.328H136.396V173.378H134.394ZM141.747 172.188C142.326 172.188 142.849 172.314 143.315 172.566C143.782 172.809 144.146 173.177 144.407 173.672C144.678 174.167 144.813 174.769 144.813 175.478V180H143.553V175.66C143.553 174.895 143.362 174.311 142.979 173.91C142.597 173.499 142.074 173.294 141.411 173.294C140.739 173.294 140.203 173.504 139.801 173.924C139.409 174.344 139.213 174.955 139.213 175.758V180H137.939V169.64H139.213V173.42C139.465 173.028 139.811 172.725 140.249 172.51C140.697 172.295 141.197 172.188 141.747 172.188ZM153.343 180.126C152.755 180.126 152.227 180.028 151.761 179.832C151.294 179.627 150.925 179.347 150.655 178.992C150.384 178.628 150.235 178.213 150.207 177.746H151.523C151.56 178.129 151.737 178.441 152.055 178.684C152.381 178.927 152.806 179.048 153.329 179.048C153.814 179.048 154.197 178.941 154.477 178.726C154.757 178.511 154.897 178.241 154.897 177.914C154.897 177.578 154.747 177.331 154.449 177.172C154.15 177.004 153.688 176.841 153.063 176.682C152.493 176.533 152.027 176.383 151.663 176.234C151.308 176.075 151 175.847 150.739 175.548C150.487 175.24 150.361 174.839 150.361 174.344C150.361 173.952 150.477 173.593 150.711 173.266C150.944 172.939 151.275 172.683 151.705 172.496C152.134 172.3 152.624 172.202 153.175 172.202C154.024 172.202 154.71 172.417 155.233 172.846C155.755 173.275 156.035 173.863 156.073 174.61H154.799C154.771 174.209 154.607 173.887 154.309 173.644C154.019 173.401 153.627 173.28 153.133 173.28C152.675 173.28 152.311 173.378 152.041 173.574C151.77 173.77 151.635 174.027 151.635 174.344C151.635 174.596 151.714 174.806 151.873 174.974C152.041 175.133 152.246 175.263 152.489 175.366C152.741 175.459 153.086 175.567 153.525 175.688C154.075 175.837 154.523 175.987 154.869 176.136C155.214 176.276 155.508 176.491 155.751 176.78C156.003 177.069 156.133 177.447 156.143 177.914C156.143 178.334 156.026 178.712 155.793 179.048C155.559 179.384 155.228 179.65 154.799 179.846C154.379 180.033 153.893 180.126 153.343 180.126ZM167.167 172.188C167.765 172.188 168.297 172.314 168.763 172.566C169.23 172.809 169.599 173.177 169.869 173.672C170.14 174.167 170.275 174.769 170.275 175.478V180H169.015V175.66C169.015 174.895 168.824 174.311 168.441 173.91C168.068 173.499 167.559 173.294 166.915 173.294C166.253 173.294 165.725 173.509 165.333 173.938C164.941 174.358 164.745 174.969 164.745 175.772V180H163.485V175.66C163.485 174.895 163.294 174.311 162.911 173.91C162.538 173.499 162.029 173.294 161.385 173.294C160.723 173.294 160.195 173.509 159.803 173.938C159.411 174.358 159.215 174.969 159.215 175.772V180H157.941V172.328H159.215V173.434C159.467 173.033 159.803 172.725 160.223 172.51C160.653 172.295 161.124 172.188 161.637 172.188C162.281 172.188 162.851 172.333 163.345 172.622C163.84 172.911 164.209 173.336 164.451 173.896C164.666 173.355 165.021 172.935 165.515 172.636C166.01 172.337 166.561 172.188 167.167 172.188ZM175.711 180.126C174.992 180.126 174.339 179.963 173.751 179.636C173.172 179.309 172.715 178.847 172.379 178.25C172.052 177.643 171.889 176.943 171.889 176.15C171.889 175.366 172.057 174.675 172.393 174.078C172.738 173.471 173.205 173.009 173.793 172.692C174.381 172.365 175.039 172.202 175.767 172.202C176.495 172.202 177.153 172.365 177.741 172.692C178.329 173.009 178.791 173.467 179.127 174.064C179.472 174.661 179.645 175.357 179.645 176.15C179.645 176.943 179.468 177.643 179.113 178.25C178.768 178.847 178.296 179.309 177.699 179.636C177.102 179.963 176.439 180.126 175.711 180.126ZM175.711 179.006C176.168 179.006 176.598 178.899 176.999 178.684C177.4 178.469 177.722 178.147 177.965 177.718C178.217 177.289 178.343 176.766 178.343 176.15C178.343 175.534 178.222 175.011 177.979 174.582C177.736 174.153 177.419 173.835 177.027 173.63C176.635 173.415 176.21 173.308 175.753 173.308C175.286 173.308 174.857 173.415 174.465 173.63C174.082 173.835 173.774 174.153 173.541 174.582C173.308 175.011 173.191 175.534 173.191 176.15C173.191 176.775 173.303 177.303 173.527 177.732C173.76 178.161 174.068 178.483 174.451 178.698C174.834 178.903 175.254 179.006 175.711 179.006ZM184.666 180.126C183.948 180.126 183.294 179.963 182.706 179.636C182.128 179.309 181.67 178.847 181.334 178.25C181.008 177.643 180.844 176.943 180.844 176.15C180.844 175.366 181.012 174.675 181.348 174.078C181.694 173.471 182.16 173.009 182.748 172.692C183.336 172.365 183.994 172.202 184.722 172.202C185.45 172.202 186.108 172.365 186.696 172.692C187.284 173.009 187.746 173.467 188.082 174.064C188.428 174.661 188.6 175.357 188.6 176.15C188.6 176.943 188.423 177.643 188.068 178.25C187.723 178.847 187.252 179.309 186.654 179.636C186.057 179.963 185.394 180.126 184.666 180.126ZM184.666 179.006C185.124 179.006 185.553 178.899 185.954 178.684C186.356 178.469 186.678 178.147 186.92 177.718C187.172 177.289 187.298 176.766 187.298 176.15C187.298 175.534 187.177 175.011 186.934 174.582C186.692 174.153 186.374 173.835 185.982 173.63C185.59 173.415 185.166 173.308 184.708 173.308C184.242 173.308 183.812 173.415 183.42 173.63C183.038 173.835 182.73 174.153 182.496 174.582C182.263 175.011 182.146 175.534 182.146 176.15C182.146 176.775 182.258 177.303 182.482 177.732C182.716 178.161 183.024 178.483 183.406 178.698C183.789 178.903 184.209 179.006 184.666 179.006ZM191.829 173.378V177.9C191.829 178.273 191.909 178.539 192.067 178.698C192.226 178.847 192.501 178.922 192.893 178.922H193.831V180H192.683C191.974 180 191.442 179.837 191.087 179.51C190.733 179.183 190.555 178.647 190.555 177.9V173.378H189.561V172.328H190.555V170.396H191.829V172.328H193.831V173.378H191.829ZM199.183 172.188C199.762 172.188 200.284 172.314 200.751 172.566C201.218 172.809 201.582 173.177 201.843 173.672C202.114 174.167 202.249 174.769 202.249 175.478V180H200.989V175.66C200.989 174.895 200.798 174.311 200.415 173.91C200.032 173.499 199.51 173.294 198.847 173.294C198.175 173.294 197.638 173.504 197.237 173.924C196.845 174.344 196.649 174.955 196.649 175.758V180H195.375V169.64H196.649V173.42C196.901 173.028 197.246 172.725 197.685 172.51C198.133 172.295 198.632 172.188 199.183 172.188ZM209.336 173.742C209.588 173.303 209.962 172.939 210.456 172.65C210.96 172.351 211.544 172.202 212.206 172.202C212.888 172.202 213.504 172.365 214.054 172.692C214.614 173.019 215.053 173.481 215.37 174.078C215.688 174.666 215.846 175.352 215.846 176.136C215.846 176.911 215.688 177.601 215.37 178.208C215.053 178.815 214.614 179.286 214.054 179.622C213.504 179.958 212.888 180.126 212.206 180.126C211.553 180.126 210.974 179.981 210.47 179.692C209.976 179.393 209.598 179.025 209.336 178.586V183.64H208.062V172.328H209.336V173.742ZM214.544 176.136C214.544 175.557 214.428 175.053 214.194 174.624C213.961 174.195 213.644 173.868 213.242 173.644C212.85 173.42 212.416 173.308 211.94 173.308C211.474 173.308 211.04 173.425 210.638 173.658C210.246 173.882 209.929 174.213 209.686 174.652C209.453 175.081 209.336 175.581 209.336 176.15C209.336 176.729 209.453 177.237 209.686 177.676C209.929 178.105 210.246 178.437 210.638 178.67C211.04 178.894 211.474 179.006 211.94 179.006C212.416 179.006 212.85 178.894 213.242 178.67C213.644 178.437 213.961 178.105 214.194 177.676C214.428 177.237 214.544 176.724 214.544 176.136ZM218.797 173.574C219.021 173.135 219.339 172.795 219.749 172.552C220.169 172.309 220.678 172.188 221.275 172.188V173.504H220.939C219.511 173.504 218.797 174.279 218.797 175.828V180H217.523V172.328H218.797V173.574ZM226.092 180.126C225.373 180.126 224.72 179.963 224.132 179.636C223.553 179.309 223.096 178.847 222.76 178.25C222.433 177.643 222.27 176.943 222.27 176.15C222.27 175.366 222.438 174.675 222.774 174.078C223.119 173.471 223.586 173.009 224.174 172.692C224.762 172.365 225.42 172.202 226.148 172.202C226.876 172.202 227.534 172.365 228.122 172.692C228.71 173.009 229.172 173.467 229.508 174.064C229.853 174.661 230.026 175.357 230.026 176.15C230.026 176.943 229.849 177.643 229.494 178.25C229.149 178.847 228.677 179.309 228.08 179.636C227.483 179.963 226.82 180.126 226.092 180.126ZM226.092 179.006C226.549 179.006 226.979 178.899 227.38 178.684C227.781 178.469 228.103 178.147 228.346 177.718C228.598 177.289 228.724 176.766 228.724 176.15C228.724 175.534 228.603 175.011 228.36 174.582C228.117 174.153 227.8 173.835 227.408 173.63C227.016 173.415 226.591 173.308 226.134 173.308C225.667 173.308 225.238 173.415 224.846 173.63C224.463 173.835 224.155 174.153 223.922 174.582C223.689 175.011 223.572 175.534 223.572 176.15C223.572 176.775 223.684 177.303 223.908 177.732C224.141 178.161 224.449 178.483 224.832 178.698C225.215 178.903 225.635 179.006 226.092 179.006ZM231.225 176.15C231.225 175.357 231.384 174.666 231.701 174.078C232.018 173.481 232.457 173.019 233.017 172.692C233.586 172.365 234.235 172.202 234.963 172.202C235.906 172.202 236.68 172.431 237.287 172.888C237.903 173.345 238.309 173.98 238.505 174.792H237.133C237.002 174.325 236.746 173.957 236.363 173.686C235.99 173.415 235.523 173.28 234.963 173.28C234.235 173.28 233.647 173.532 233.199 174.036C232.751 174.531 232.527 175.235 232.527 176.15C232.527 177.074 232.751 177.788 233.199 178.292C233.647 178.796 234.235 179.048 234.963 179.048C235.523 179.048 235.99 178.917 236.363 178.656C236.736 178.395 236.993 178.021 237.133 177.536H238.505C238.3 178.32 237.889 178.95 237.273 179.426C236.657 179.893 235.887 180.126 234.963 180.126C234.235 180.126 233.586 179.963 233.017 179.636C232.457 179.309 232.018 178.847 231.701 178.25C231.384 177.653 231.225 176.953 231.225 176.15ZM247.205 175.87C247.205 176.113 247.191 176.369 247.163 176.64H241.031C241.078 177.396 241.334 177.989 241.801 178.418C242.277 178.838 242.851 179.048 243.523 179.048C244.074 179.048 244.531 178.922 244.895 178.67C245.268 178.409 245.53 178.063 245.679 177.634H247.051C246.846 178.371 246.435 178.973 245.819 179.44C245.203 179.897 244.438 180.126 243.523 180.126C242.795 180.126 242.142 179.963 241.563 179.636C240.994 179.309 240.546 178.847 240.219 178.25C239.892 177.643 239.729 176.943 239.729 176.15C239.729 175.357 239.888 174.661 240.205 174.064C240.522 173.467 240.966 173.009 241.535 172.692C242.114 172.365 242.776 172.202 243.523 172.202C244.251 172.202 244.895 172.361 245.455 172.678C246.015 172.995 246.444 173.434 246.743 173.994C247.051 174.545 247.205 175.17 247.205 175.87ZM245.889 175.604C245.889 175.119 245.782 174.703 245.567 174.358C245.352 174.003 245.058 173.737 244.685 173.56C244.321 173.373 243.915 173.28 243.467 173.28C242.823 173.28 242.272 173.485 241.815 173.896C241.367 174.307 241.11 174.876 241.045 175.604H245.889ZM251.603 180.126C251.015 180.126 250.487 180.028 250.021 179.832C249.554 179.627 249.185 179.347 248.915 178.992C248.644 178.628 248.495 178.213 248.467 177.746H249.783C249.82 178.129 249.997 178.441 250.315 178.684C250.641 178.927 251.066 179.048 251.589 179.048C252.074 179.048 252.457 178.941 252.737 178.726C253.017 178.511 253.157 178.241 253.157 177.914C253.157 177.578 253.007 177.331 252.709 177.172C252.41 177.004 251.948 176.841 251.323 176.682C250.753 176.533 250.287 176.383 249.923 176.234C249.568 176.075 249.26 175.847 248.999 175.548C248.747 175.24 248.621 174.839 248.621 174.344C248.621 173.952 248.737 173.593 248.971 173.266C249.204 172.939 249.535 172.683 249.965 172.496C250.394 172.3 250.884 172.202 251.435 172.202C252.284 172.202 252.97 172.417 253.493 172.846C254.015 173.275 254.295 173.863 254.333 174.61H253.059C253.031 174.209 252.867 173.887 252.569 173.644C252.279 173.401 251.887 173.28 251.393 173.28C250.935 173.28 250.571 173.378 250.301 173.574C250.03 173.77 249.895 174.027 249.895 174.344C249.895 174.596 249.974 174.806 250.133 174.974C250.301 175.133 250.506 175.263 250.749 175.366C251.001 175.459 251.346 175.567 251.785 175.688C252.335 175.837 252.783 175.987 253.129 176.136C253.474 176.276 253.768 176.491 254.011 176.78C254.263 177.069 254.393 177.447 254.403 177.914C254.403 178.334 254.286 178.712 254.053 179.048C253.819 179.384 253.488 179.65 253.059 179.846C252.639 180.033 252.153 180.126 251.603 180.126ZM258.917 180.126C258.329 180.126 257.802 180.028 257.335 179.832C256.868 179.627 256.5 179.347 256.229 178.992C255.958 178.628 255.809 178.213 255.781 177.746H257.097C257.134 178.129 257.312 178.441 257.629 178.684C257.956 178.927 258.38 179.048 258.903 179.048C259.388 179.048 259.771 178.941 260.051 178.726C260.331 178.511 260.471 178.241 260.471 177.914C260.471 177.578 260.322 177.331 260.023 177.172C259.724 177.004 259.262 176.841 258.637 176.682C258.068 176.533 257.601 176.383 257.237 176.234C256.882 176.075 256.574 175.847 256.313 175.548C256.061 175.24 255.935 174.839 255.935 174.344C255.935 173.952 256.052 173.593 256.285 173.266C256.518 172.939 256.85 172.683 257.279 172.496C257.708 172.3 258.198 172.202 258.749 172.202C259.598 172.202 260.284 172.417 260.807 172.846C261.33 173.275 261.61 173.863 261.647 174.61H260.373C260.345 174.209 260.182 173.887 259.883 173.644C259.594 173.401 259.202 173.28 258.707 173.28C258.25 173.28 257.886 173.378 257.615 173.574C257.344 173.77 257.209 174.027 257.209 174.344C257.209 174.596 257.288 174.806 257.447 174.974C257.615 175.133 257.82 175.263 258.063 175.366C258.315 175.459 258.66 175.567 259.099 175.688C259.65 175.837 260.098 175.987 260.443 176.136C260.788 176.276 261.082 176.491 261.325 176.78C261.577 177.069 261.708 177.447 261.717 177.914C261.717 178.334 261.6 178.712 261.367 179.048C261.134 179.384 260.802 179.65 260.373 179.846C259.953 180.033 259.468 180.126 258.917 180.126ZM263.922 180.084C263.679 180.084 263.474 180 263.306 179.832C263.138 179.664 263.054 179.459 263.054 179.216C263.054 178.973 263.138 178.768 263.306 178.6C263.474 178.432 263.679 178.348 263.922 178.348C264.155 178.348 264.351 178.432 264.51 178.6C264.678 178.768 264.762 178.973 264.762 179.216C264.762 179.459 264.678 179.664 264.51 179.832C264.351 180 264.155 180.084 263.922 180.084Z" fill="black"/>
<g clip-path="url(#clip0_1_142)">
<path d="M70.0009 42.7074C70.0704 53.5986 61.6581 62.3777 51.1441 62.1764C40.7343 61.9752 32.29 53.458 32.29 42.7074C32.29 31.9568 40.7317 23.2383 51.1468 23.2383C61.562 23.2383 69.9342 31.954 70.0036 42.7074H70.0009Z" fill="#F5F5F5"/>
<path d="M37.495 41.0668C36.6618 40.7497 36.0796 39.8398 36.125 38.9244C36.1704 38.009 36.8353 37.1625 37.6953 36.9336C36.9315 36.3877 36.5443 35.3372 36.7659 34.4052C36.9876 33.476 37.8021 32.726 38.7234 32.6102C38.0531 32.1746 37.7567 31.2647 37.9089 30.4596C38.0585 29.6572 38.5926 28.9679 39.2442 28.5074C41.0254 27.2446 43.7467 27.7381 45.0072 29.5497L47.5309 47.3644C46.9087 48.2247 45.4586 49.4434 44.4224 49.3607C43.3835 49.2779 42.4061 48.6162 41.9201 47.6677C41.2738 47.7035 40.6142 47.7366 39.9919 47.5629C39.367 47.3892 38.7715 46.9673 38.5472 46.3387C38.3228 45.7128 38.5899 44.8911 39.2015 44.6705C38.4377 44.3452 37.6338 43.9867 37.1638 43.2864C36.6938 42.586 36.7579 41.439 37.5003 41.064L37.495 41.0668Z" fill="#263238"/>
<path d="M41.2097 35.8749C40.4966 35.1607 40.4005 33.8869 41.0014 33.0707C40.5474 32.6296 40.5741 31.841 40.8945 31.2895C41.215 30.7381 41.7545 30.3658 42.2779 30.0129C42.3767 28.5074 43.8188 27.2418 45.2743 27.3797C45.8484 26.1582 47.384 25.7474 48.6872 25.9321C49.005 25.9763 49.3282 26.0507 49.6459 26.0011C49.8783 25.9652 50.0973 25.8632 50.3243 25.797C51.5714 25.4276 52.9628 26.161 53.6331 27.308C53.7399 27.49 53.8334 27.6885 53.9829 27.8347C54.1779 28.0304 54.4476 28.1214 54.6853 28.2565C55.198 28.5543 55.5746 29.092 55.6841 29.6875C55.7775 30.1949 55.6974 30.7601 55.9698 31.1903C56.106 31.4053 56.3223 31.5652 56.4372 31.7941C56.771 32.4586 56.122 33.2885 56.3651 33.9944C56.4158 34.1378 56.4986 34.2674 56.56 34.4052C56.6829 34.6892 56.7015 35.0229 56.6134 35.3206C56.544 35.5495 56.4105 35.7728 56.4292 36.0127C56.4452 36.1947 56.5467 36.3546 56.6081 36.5283C56.755 36.9502 56.0873 38.7617 55.7562 39.0512L44.9164 40.7966C44.0698 40.7497 43.2927 40.0825 43.0897 39.2305C43.055 39.0898 43.031 38.9327 42.9295 38.8334C42.8414 38.7479 42.7185 38.7204 42.6037 38.679C41.8506 38.3978 41.6236 37.4189 41.5809 36.5918C41.5755 36.4759 41.5702 36.3574 41.5275 36.2498C41.4634 36.0954 41.3298 35.9852 41.2123 35.8693L41.2097 35.8749Z" fill="#263238"/>
<path d="M41.6583 32.0615C42.8654 29.6296 44.8203 27.9477 47.4 27.3273C48.8555 26.9771 49.5258 27.1564 50.6367 27.217C51.7504 27.2749 52.8212 27.6472 53.6384 28.4275C54.6105 29.3539 55.4918 30.4375 55.9111 31.7334C56.341 33.0652 56.5173 34.4218 56.4959 35.5771C56.4692 36.9805 56.0072 39.2194 55.4598 40.5043L53.2779 41.2846C51.4299 41.7644 49.5552 42.2469 47.6484 42.2111C45.7416 42.1752 43.7681 41.5603 42.4542 40.1348C40.6275 38.1551 40.4512 34.4962 41.661 32.0615H41.6583Z" fill="#263238"/>
<path d="M44.652 31.3722L48.762 28.5267L49.9664 28.4054C52.6103 27.8263 55.0618 30.432 55.5399 32.6378C56.0713 35.089 56.6268 38.1027 56.6268 39.9969C56.6268 43.8047 53.6812 44.7753 53.6812 44.7753L54.0764 46.9701C53.796 49.0297 49.9344 50.0251 47.8246 48.2136L43.728 32.8804C43.6105 32.2049 44.0138 31.5487 44.6574 31.3694L44.652 31.3722Z" fill="#AE7461"/>
<path d="M51.1628 40.3223C51.1468 40.1238 51.2162 39.9335 51.323 39.7874C51.5367 39.4951 51.9186 39.3876 52.2417 39.5255C52.5649 39.6633 52.8132 40.0383 52.8399 40.4353C52.7278 40.6945 52.5168 40.9013 52.2551 40.984C52.215 40.9978 52.1723 41.0089 52.1296 41.0171C51.9266 41.0557 51.7049 41.0309 51.5153 40.9124C51.3284 40.791 51.1815 40.5677 51.1628 40.3251V40.3223Z" fill="#6F4439"/>
<path d="M55.1607 35.6764C55.2087 35.9273 55.0405 36.1754 54.7895 36.2306C54.5384 36.2857 54.2954 36.1286 54.2473 35.8804C54.1993 35.6295 54.3675 35.3813 54.6185 35.3262C54.8696 35.2711 55.1126 35.4282 55.1607 35.6791V35.6764Z" fill="#263238"/>
<path d="M54.9898 34.0467C54.9417 34.1184 54.5518 33.9089 54.0551 33.9916C53.5583 34.066 53.2352 34.3914 53.1711 34.3362C53.1391 34.3114 53.1818 34.1901 53.3207 34.0467C53.4595 33.9034 53.7079 33.7434 54.0177 33.6938C54.3275 33.6442 54.6052 33.7186 54.7734 33.8151C54.9444 33.9116 55.0138 34.0136 54.9898 34.0467Z" fill="#263238"/>
<path d="M52.6664 38.7204C52.6583 38.6928 52.9601 38.5852 53.4488 38.4391C53.5743 38.406 53.6892 38.3591 53.6972 38.2654C53.7132 38.1661 53.6384 38.0338 53.553 37.8904C53.3847 37.5926 53.2085 37.2811 53.0242 36.9557C52.2871 35.6212 51.729 34.5183 51.7824 34.4879C51.8358 34.4576 52.4767 35.5136 53.2138 36.8482C53.3927 37.1763 53.5637 37.4906 53.7266 37.7912C53.7987 37.9318 53.9055 38.0862 53.8708 38.293C53.8521 38.3978 53.7693 38.4832 53.6919 38.5191C53.6144 38.5577 53.5423 38.5715 53.4809 38.5852C52.9815 38.6955 52.669 38.7507 52.6637 38.7204H52.6664Z" fill="#263238"/>
<path d="M53.6865 44.7725C53.6865 44.7725 51.291 45.3295 48.6659 44.2349C48.6659 44.2349 50.3136 46.7026 53.8601 45.7679L53.6865 44.7753V44.7725Z" fill="#6F4439"/>
<path d="M51.259 39.3131C51.3391 39.2938 51.4245 39.8508 51.948 40.1706C52.4687 40.4905 53.0349 40.3361 53.0509 40.4133C53.0642 40.4463 52.9387 40.5429 52.6984 40.5897C52.4607 40.6366 52.1028 40.6145 51.7824 40.4188C51.4646 40.223 51.2937 39.9197 51.2403 39.6936C51.1842 39.4648 51.2216 39.3159 51.2616 39.3131H51.259Z" fill="#263238"/>
<path d="M54.4529 32.3097C54.3888 32.4476 53.9963 32.4283 53.5583 32.5386C53.1177 32.6351 52.7705 32.8309 52.6557 32.7344C52.6049 32.6875 52.6343 32.5551 52.7678 32.4062C52.9013 32.2574 53.1444 32.0974 53.4461 32.0257C53.7479 31.9541 54.0337 31.9899 54.2153 32.0643C54.3995 32.1415 54.4796 32.2436 54.4529 32.3097Z" fill="#263238"/>
<path d="M49.7581 36.6744C49.7982 36.9254 50.0359 37.0991 50.2922 37.0632C50.5459 37.0246 50.7222 36.793 50.6821 36.5393C50.6421 36.2884 50.4044 36.1147 50.1507 36.1506C49.8943 36.1864 49.7207 36.4208 49.7581 36.6744Z" fill="#263238"/>
<path d="M48.3107 35.3262C48.3801 35.3758 48.6766 35.0394 49.168 34.9401C49.6593 34.8354 50.0706 35.0229 50.1133 34.9484C50.1347 34.9153 50.0546 34.8161 49.8757 34.7306C49.6967 34.6451 49.411 34.5845 49.1039 34.6479C48.7968 34.7113 48.5617 34.8822 48.4362 35.0311C48.308 35.1828 48.2787 35.3041 48.3107 35.3262Z" fill="#263238"/>
<path d="M48.2653 33.6387C48.3855 33.7352 48.7433 33.5367 49.1973 33.4374C49.6513 33.3244 50.0572 33.3437 50.124 33.203C50.1507 33.1369 50.0679 33.0321 49.8783 32.9576C49.6914 32.8832 49.395 32.8501 49.0825 32.9218C48.77 32.9962 48.5163 33.1562 48.3801 33.305C48.2413 33.4567 48.2119 33.5863 48.2653 33.6332V33.6387Z" fill="#263238"/>
<path d="M56.3731 32.9521C55.831 32.6984 55.4517 32.3041 55.4037 31.692C55.0859 31.8409 54.6906 31.4466 54.4583 31.1792C54.226 30.9089 53.9696 30.7931 53.9349 30.4347C53.9295 30.363 53.9215 30.2886 53.8815 30.2307C53.8174 30.1397 53.6972 30.1231 53.5904 30.1066C53.0402 30.0101 52.5488 29.6048 52.3405 29.0698C51.8412 29.3842 51.2643 29.5689 50.6821 29.5992C50.4765 30.0183 50.0519 30.3161 49.5979 30.3603C49.1439 30.4044 48.6739 30.1921 48.3961 29.8171C48.2893 30.159 47.9956 30.4099 47.6724 30.5422C47.3493 30.6773 46.9994 30.7104 46.6523 30.7435C46.8926 31.4108 46.5615 32.238 45.9366 32.5357C45.8511 32.5771 45.755 32.6185 45.7256 32.7094C45.6962 32.8032 45.755 32.9025 45.8004 32.9879C46.0941 33.5421 45.8164 34.3335 45.2449 34.5651C45.6935 34.8325 45.7496 35.588 45.349 35.9244C45.2662 35.9934 45.1568 36.0788 45.1861 36.1836C45.1968 36.225 45.2262 36.2553 45.2556 36.2856C45.4746 36.5117 45.6935 36.7626 45.7576 37.077C45.8217 37.3885 45.6615 37.7745 45.357 37.8297C45.5386 37.9538 45.7122 38.1247 45.7469 38.3453C45.779 38.5659 45.5921 38.8251 45.3811 38.7727C45.2903 38.7506 44.0244 38.6734 43.9603 38.6045C43.1298 37.7222 43.8669 36.5117 43.7761 35.282C43.6853 34.055 43.0924 32.7177 43.5437 31.5762C43.7334 31.0964 44.8042 30.727 45.106 30.3161C45.4532 29.8474 45.8912 29.4641 46.3318 29.0891C46.906 28.5984 47.4962 28.1076 48.1905 27.8318C49.4831 27.319 50.9412 27.6223 52.2658 28.0414C52.7705 28.2013 53.2752 28.3778 53.7212 28.67C54.2527 29.0202 54.6773 29.5193 55.0565 30.0376C55.6066 30.7876 56.09 31.6148 56.301 32.5302" fill="#263238"/>
<path d="M56.4345 31.7941C56.4345 31.7941 56.3945 31.692 56.2636 31.5376C56.1995 31.4604 56.1114 31.3722 56.0259 31.2536C55.9405 31.1351 55.863 30.9834 55.823 30.7959C55.7776 30.6112 55.7642 30.3961 55.7482 30.1618C55.7322 29.9274 55.7161 29.6682 55.628 29.4063C55.5426 29.1443 55.401 28.8796 55.1954 28.648C55.0939 28.5322 54.9737 28.4247 54.8429 28.3282C54.712 28.2317 54.5598 28.1572 54.4102 28.0828C54.2607 28.0083 54.1111 27.9256 53.9883 27.8015C53.8681 27.6775 53.78 27.5175 53.6892 27.3549C53.5049 27.0267 53.2592 26.7152 52.9548 26.4532C52.6503 26.1913 52.2952 25.9652 51.8919 25.8273C51.6943 25.7501 51.4806 25.7115 51.2643 25.6812C51.048 25.6647 50.8237 25.6591 50.602 25.6977C50.4899 25.7143 50.383 25.7446 50.2709 25.7722C50.1614 25.8053 50.0572 25.8466 49.9504 25.8825C49.7368 25.9597 49.5178 25.9955 49.2881 25.9762C49.0611 25.9624 48.8315 25.9101 48.5938 25.8852C48.3588 25.8521 48.1157 25.8494 47.8754 25.8577C47.6324 25.8659 47.3894 25.9018 47.149 25.9542C46.9087 26.0093 46.671 26.092 46.4413 26.1968C45.9873 26.4146 45.5627 26.7538 45.309 27.2253C45.285 27.2721 45.2583 27.319 45.2342 27.3631L45.2716 27.3411C44.4971 27.2694 43.744 27.5892 43.1993 28.0911C42.6491 28.5901 42.2859 29.2905 42.2379 30.0129L42.2539 29.9853C41.9735 30.1755 41.6984 30.363 41.45 30.5836C41.2017 30.8014 40.98 31.0496 40.8278 31.3391C40.6783 31.6286 40.6061 31.954 40.6248 32.2683C40.6409 32.5826 40.761 32.8915 40.9774 33.0983V33.0541C40.6702 33.4705 40.5554 33.9833 40.5794 34.4493C40.6035 34.9181 40.7584 35.3537 41.0067 35.6846C41.0655 35.77 41.1376 35.8417 41.2044 35.9134C41.2765 35.9824 41.3459 36.0458 41.4046 36.1175C41.4634 36.1892 41.5088 36.2691 41.5275 36.3546C41.5489 36.4428 41.5515 36.5311 41.5569 36.622C41.5782 36.9777 41.629 37.3058 41.7144 37.5898C41.7999 37.8738 41.9147 38.1165 42.0563 38.293C42.1978 38.4722 42.358 38.588 42.4969 38.6542C42.6358 38.7231 42.7533 38.7396 42.8227 38.7782C42.8948 38.8113 42.9215 38.8444 42.9242 38.8416C42.9242 38.8416 42.9002 38.8058 42.828 38.7672C42.7586 38.7258 42.6411 38.7038 42.5049 38.6349C42.3687 38.5659 42.2138 38.4529 42.0776 38.2737C41.9388 38.0972 41.8293 37.8573 41.7465 37.5761C41.6664 37.2948 41.6183 36.9722 41.5996 36.6165C41.5943 36.5283 41.5916 36.4346 41.5729 36.3408C41.5542 36.2471 41.5035 36.1561 41.442 36.0816C41.3806 36.0072 41.3085 35.941 41.2391 35.8721C41.175 35.8004 41.1029 35.7314 41.0468 35.646C40.8038 35.3261 40.6569 34.8988 40.6355 34.441C40.6142 33.9861 40.7263 33.4898 41.0228 33.0872L41.0388 33.0652L41.0174 33.0459C40.8144 32.8501 40.7023 32.5578 40.6863 32.2573C40.6702 31.9567 40.7397 31.6424 40.8839 31.3667C41.0308 31.0882 41.2471 30.8456 41.4901 30.6333C41.7358 30.4182 42.0082 30.2307 42.2886 30.0432L42.3046 30.0322V30.0129C42.3527 29.3153 42.7052 28.6315 43.2447 28.1434C43.7788 27.6554 44.5132 27.3438 45.2609 27.4155H45.285L45.2983 27.3935C45.3223 27.3493 45.3464 27.3052 45.3704 27.2584C45.6161 26.8034 46.0274 26.4753 46.4707 26.263C46.695 26.161 46.9273 26.081 47.1624 26.0259C47.4 25.9762 47.6377 25.9404 47.8754 25.9294C48.1131 25.9211 48.3508 25.9238 48.5831 25.9569C48.8154 25.9817 49.0451 26.0341 49.2801 26.0479C49.3976 26.0562 49.5151 26.0534 49.6326 26.0341C49.7501 26.0176 49.8596 25.9845 49.9691 25.9459C50.0786 25.9101 50.1828 25.8687 50.2896 25.8356C50.3964 25.808 50.5032 25.7777 50.61 25.7612C50.8264 25.7226 51.0427 25.7281 51.2536 25.7446C51.4646 25.7749 51.6729 25.8108 51.8679 25.8852C52.2631 26.0176 52.613 26.2382 52.9094 26.4946C53.2085 26.751 53.4515 27.0571 53.6331 27.3797C53.7239 27.5424 53.8147 27.7078 53.9429 27.8374C54.0711 27.9697 54.2286 28.0525 54.3809 28.1269C54.5331 28.2013 54.6773 28.273 54.8082 28.3668C54.939 28.4578 55.0538 28.5625 55.1553 28.6756C55.3583 28.9017 55.4998 29.1609 55.5853 29.4145C55.6734 29.671 55.6921 29.9274 55.7108 30.159C55.7295 30.3934 55.7428 30.6084 55.7909 30.7987C55.8336 30.9889 55.9164 31.1461 56.0046 31.2647C56.0954 31.3832 56.1835 31.4687 56.2502 31.5432C56.317 31.6176 56.3624 31.6783 56.3891 31.7224C56.4185 31.7637 56.4292 31.7886 56.4318 31.7886L56.4345 31.7941Z" fill="#455A64"/>
<path d="M46.3585 26.6491C46.3585 26.6491 46.4199 26.6022 46.5321 26.5222C46.6443 26.445 46.8179 26.343 47.0502 26.2823C47.2825 26.2189 47.5763 26.1969 47.8807 26.2879C48.1825 26.3761 48.4923 26.5746 48.7139 26.8752C48.778 26.9606 48.8341 27.0544 48.8769 27.1481C48.9169 27.2419 48.9356 27.3439 48.8955 27.4211L48.8475 27.5176L48.9436 27.4735C49.208 27.3549 49.4964 27.3687 49.7234 27.4569C49.9504 27.5452 50.1106 27.7134 50.2068 27.8705C50.3029 28.0277 50.343 28.1766 50.359 28.2786C50.375 28.3806 50.375 28.4385 50.3804 28.4385C50.3804 28.4385 50.3857 28.4247 50.3857 28.3972C50.3857 28.3696 50.3857 28.3282 50.383 28.2759C50.3724 28.1711 50.3403 28.0167 50.2442 27.8457C50.1507 27.6775 49.9851 27.4955 49.7448 27.3963C49.5071 27.297 49.2 27.2777 48.9142 27.4046L48.9623 27.4569C49.0184 27.3467 48.9917 27.2198 48.949 27.1178C48.9036 27.013 48.8448 26.922 48.778 26.8283C48.5457 26.514 48.2199 26.3099 47.9021 26.2189C47.5816 26.1279 47.2745 26.1583 47.0395 26.23C46.7992 26.3016 46.6282 26.4119 46.5188 26.4974C46.4653 26.5415 46.4253 26.5774 46.3986 26.6049C46.3745 26.6325 46.3612 26.6463 46.3639 26.6491H46.3585Z" fill="#455A64"/>
<path d="M41.7464 32.7206C41.7464 32.7206 41.7464 32.7371 41.7598 32.7674C41.7731 32.795 41.7918 32.8391 41.8319 32.8832C41.9067 32.9742 42.0589 33.0762 42.2672 33.1011C42.4782 33.1259 42.7239 33.0487 42.9642 32.9191C43.0844 32.8557 43.2099 32.7895 43.3328 32.704C43.4529 32.6185 43.5838 32.5027 43.6319 32.3318C43.6345 32.318 43.6399 32.3014 43.6425 32.2877L43.5865 32.3152C43.8508 32.4724 44.1179 32.6047 44.3823 32.6654C44.644 32.7288 44.895 32.7095 45.0873 32.6406C45.2796 32.5744 45.4158 32.4669 45.4879 32.3787C45.5253 32.3345 45.5493 32.2987 45.5653 32.2711C45.5787 32.2435 45.5867 32.2298 45.584 32.2298C45.5787 32.227 45.5466 32.2794 45.4665 32.3593C45.3891 32.4366 45.2556 32.5331 45.0686 32.591C44.8817 32.6516 44.6467 32.6626 44.3956 32.5992C44.1446 32.5386 43.8829 32.409 43.6212 32.2518L43.5784 32.2242L43.5651 32.2766C43.5651 32.2766 43.5598 32.3014 43.5571 32.3125C43.517 32.4531 43.4049 32.5606 43.29 32.6406C43.1725 32.7233 43.047 32.7895 42.9295 32.8557C42.6972 32.9852 42.4648 33.0625 42.2699 33.0459C42.0723 33.0321 41.928 32.9439 41.8506 32.8639C41.7705 32.784 41.7518 32.7178 41.7438 32.7233L41.7464 32.7206Z" fill="#455A64"/>
<path d="M45.6215 38.9161C45.5787 38.6404 45.1675 38.0393 44.8977 38.0393C44.174 38.0393 42.9082 38.3095 43.1832 40.1624C43.5571 42.6963 45.9446 41.7892 45.9366 41.7147C45.9312 41.6568 45.771 39.8701 45.6215 38.9161Z" fill="#AE7461"/>
<path d="M45.1221 40.8931C45.1221 40.8931 45.0847 40.9317 45.0153 40.9759C44.9485 41.02 44.831 41.0613 44.6975 41.0338C44.4224 40.9759 44.142 40.5843 44.0645 40.1294C44.0245 39.9005 44.0378 39.6717 44.0912 39.4787C44.1393 39.2801 44.2354 39.134 44.3636 39.0899C44.4892 39.0375 44.5933 39.1037 44.6334 39.1698C44.6761 39.236 44.6681 39.2884 44.6814 39.2912C44.6894 39.2967 44.7268 39.2415 44.6921 39.1395C44.6734 39.0899 44.636 39.0347 44.5719 38.9961C44.5052 38.9548 44.4144 38.9438 44.3262 38.9686C44.1393 39.0127 43.9951 39.2195 43.9363 39.4318C43.8696 39.6469 43.8482 39.9033 43.8909 40.1625C43.9817 40.6698 44.3049 41.1082 44.6761 41.1606C44.855 41.1799 44.9912 41.1027 45.058 41.031C45.1247 40.9566 45.1301 40.8987 45.1194 40.8959L45.1221 40.8931Z" fill="#6F4439"/>
<g opacity="0.3">
<path d="M51.8225 35.9301C51.988 37.1129 51.1949 38.2131 50.0492 38.384C48.9036 38.555 47.838 37.7361 47.6724 36.5532C47.5069 35.3703 48.3 34.2702 49.4457 34.0992C50.5913 33.9283 51.6569 34.7472 51.8225 35.9301Z" fill="white"/>
</g>
<g opacity="0.3">
<path d="M56.9366 35.2489C57.1022 36.4318 56.309 37.5319 55.1634 37.7029C54.0177 37.8738 52.9521 37.0549 52.7866 35.872C52.621 34.6892 53.4141 33.589 54.5598 33.4181C55.7055 33.2471 56.771 34.066 56.9366 35.2489Z" fill="white"/>
</g>
<path d="M52.6744 35.5632C52.661 35.588 52.4821 35.5026 52.2605 35.5522C52.0361 35.5963 51.9026 35.7452 51.8812 35.7259C51.8706 35.7176 51.8919 35.668 51.9507 35.6073C52.0094 35.5467 52.1136 35.4805 52.2418 35.4557C52.37 35.4309 52.4901 35.4474 52.5676 35.4833C52.645 35.5164 52.6824 35.555 52.6771 35.566L52.6744 35.5632Z" fill="#455A64"/>
<path d="M47.822 36.4401C47.822 36.4401 47.6778 36.5532 47.4294 36.7021C47.181 36.8537 46.8365 37.0578 46.4493 37.2756C46.0648 37.4962 45.7122 37.6892 45.4559 37.8243C45.3277 37.8932 45.2182 37.9456 45.1381 37.9621C45.058 37.9814 45.0099 37.9759 45.0099 37.9704C45.0099 37.9621 45.0526 37.9539 45.1274 37.9263C45.2022 37.8987 45.301 37.8408 45.4238 37.7636C45.6722 37.612 46.0167 37.4079 46.4039 37.1901C46.7885 36.9723 47.141 36.7765 47.3974 36.6414C47.6537 36.5063 47.8166 36.4263 47.822 36.4401Z" fill="#455A64"/>
<path d="M41.7331 59.4963C41.7331 59.4963 44.9885 62.2812 51.8065 62.2426C58.1891 62.204 62.1735 58.6388 62.1735 58.6388C63.5302 55.694 61.9866 53.6675 61.2629 49.8817C61.2629 49.8817 59.1264 46.4544 58.4642 46.4269C56.9927 46.3634 54.3114 46.8515 54.1619 46.6943C53.1952 48.4093 51.9373 50.1712 47.392 46.7991L42.0376 48.2329C41.2604 48.5693 40.0453 49.4378 40.1228 50.3036L41.7331 59.4991V59.4963Z" fill="#E9C46A"/>
<path d="M37.6686 56.342C37.6686 56.342 38.5926 50.3257 41.3272 48.6355C43.5892 47.2375 46.5375 56.9569 46.5375 56.9569L44.0672 60.8226C41.4421 59.6149 40.1175 58.7602 37.6659 56.3393L37.6686 56.342Z" fill="#E9C46A"/>
<path d="M67.5386 42.2276L64.2432 43.3691L66.9298 52.7521L62.5581 48.5528L59.4629 54.9386C59.4629 54.9386 65.8375 59.5405 68.3719 59.899C70.9062 60.2574 72.9198 59.0277 72.359 56.0002C72.1347 54.7897 67.5386 42.2249 67.5386 42.2249V42.2276Z" fill="#AE7461"/>
<path d="M63.7652 38.8858C63.7652 38.8858 62.8732 37.8574 62.4272 38.0918C61.9812 38.3261 61.4525 38.93 61.4738 39.3491C61.4952 39.7682 61.6902 40.099 61.8637 40.0356C62.0373 39.975 62.47 39.4787 62.47 39.4787L63.2925 40.1956L63.3005 41.3757L62.7557 41.8775L62.2002 41.1992L62.1548 40.6202C62.1335 40.3389 61.845 40.1377 61.5967 40.2617C61.4738 40.3224 61.3724 40.4575 61.3483 40.7249C61.2842 41.4887 61.5219 42.8894 62.3551 43.3168C63.191 43.7442 64.6892 44.2294 64.6892 44.2294L67.7069 43.1348L67.5066 39.1836C67.5066 39.1836 68.4146 37.5596 68.3639 37.0137C68.3105 36.465 67.974 34.8299 67.974 34.8299C67.974 34.8299 67.5333 34.6452 67.4318 35.147C67.3304 35.6516 67.4505 37.0081 67.4505 37.0081L66.6467 38.1083L66.0271 33.8759C66.0004 33.6856 65.8188 33.5616 65.6372 33.6112C65.3915 33.6801 65.1058 33.8952 65.1085 34.5238C65.1138 35.624 65.4636 37.9925 65.3381 38.0256C65.2126 38.0587 65.1672 37.9897 64.991 37.4438C64.8521 37.0164 64.1898 34.9044 63.9521 34.1433C63.8987 33.9752 63.7011 33.9172 63.5676 34.0303C63.3913 34.1764 63.207 34.4494 63.2311 34.943C63.2738 35.8391 63.9468 38.0642 63.9842 38.2737C64.0189 38.4805 63.7625 38.8886 63.7625 38.8886L63.7652 38.8858Z" fill="#AE7461"/>
<path d="M65.6132 42.5667C65.5919 42.5805 65.5144 42.4592 65.3569 42.2965C65.202 42.1366 64.9563 41.9436 64.6465 41.8168C64.334 41.6899 64.0296 41.6568 63.8106 41.6651C63.5916 41.6734 63.4528 41.7065 63.4447 41.6816C63.4394 41.6651 63.5676 41.5907 63.7999 41.5548C64.0323 41.5162 64.3661 41.5328 64.7026 41.6706C65.0391 41.8085 65.2954 42.0318 65.437 42.2221C65.5812 42.4123 65.6293 42.5585 65.6132 42.564V42.5667Z" fill="#6F4439"/>
<path d="M63.5062 58.7629L66.863 52.5204C66.863 52.5204 64.4943 49.6749 62.486 47.8607C60.2748 45.8616 58.1971 46.0905 55.2221 46.7467C55.2221 46.7467 56.755 54.0232 59.7247 56.1573C60.2775 56.5543 63.5062 58.7602 63.5062 58.7602V58.7629Z" fill="#E9C46A"/>
<path d="M44.7295 60.8254C44.7295 60.8254 44.6868 60.7455 44.6467 60.5911C44.6066 60.4367 44.5666 60.2078 44.5292 59.9238C44.4544 59.3586 44.3957 58.5727 44.3262 57.707C44.2595 56.8412 44.1847 56.0581 44.1233 55.4929C44.0618 54.9276 44.0138 54.5775 44.0325 54.5747C44.0405 54.5747 44.0618 54.6602 44.0939 54.8146C44.1259 54.9718 44.1633 55.1979 44.2061 55.4818C44.2888 56.0471 44.377 56.8302 44.4437 57.6959C44.5132 58.5617 44.5586 59.3475 44.612 59.9155C44.6387 60.1968 44.6654 60.4256 44.6921 60.5828C44.7188 60.74 44.7402 60.8227 44.7322 60.8282L44.7295 60.8254Z" fill="#263238"/>
<path d="M58.6404 50.4526C58.6404 50.4526 58.7472 50.527 58.9234 50.6814C59.0997 50.8358 59.3534 51.0619 59.6578 51.3542C60.2534 51.9388 61.0973 52.7852 61.6527 53.9819C61.9305 54.5775 62.0747 55.1951 62.1521 55.7576C62.2296 56.3201 62.2403 56.8329 62.2403 57.2603C62.2403 57.6877 62.2216 58.0351 62.2082 58.2722C62.1949 58.5093 62.1815 58.6417 62.1735 58.6417C62.1655 58.6417 62.1628 58.5093 62.1628 58.2694C62.1628 58.0296 62.1655 57.6849 62.1575 57.2575C62.1468 56.8329 62.1254 56.3256 62.0453 55.7686C61.9652 55.2144 61.8183 54.6105 61.5486 54.0288C61.0065 52.8569 60.1839 52.0104 59.6018 51.4121C59.3133 51.1281 59.0757 50.8937 58.8941 50.7145C58.7258 50.5491 58.635 50.4553 58.6404 50.4498V50.4526Z" fill="#263238"/>
<path d="M67.5146 55.7162C67.5013 55.7217 67.4212 55.5701 67.3197 55.3081C67.2182 55.049 67.098 54.6767 67.0072 54.2576C66.9164 53.8385 66.8737 53.4525 66.8577 53.1713C66.8443 52.89 66.8524 52.7163 66.8684 52.7163C66.9031 52.7163 66.9405 53.4056 67.1221 54.2328C67.2983 55.06 67.5494 55.7024 67.5146 55.7162Z" fill="#263238"/>
</g>
<defs>
<clipPath id="clip0_1_142">
<rect width="40.1625" height="39.0043" fill="white" transform="translate(32.29 23.2383)"/>
</clipPath>
</defs>
</svg>
