<svg width="146" height="154" viewBox="0 0 146 154" fill="none" xmlns="http://www.w3.org/2000/svg">
<g clip-path="url(#clip0_1_509)">
<path d="M39.16 122.88L45.09 128.81" stroke="#010101" stroke-width="1.65" stroke-linecap="round" stroke-linejoin="round"/>
<path d="M18.8 102.51L29.7 113.42" stroke="#010101" stroke-width="1.65" stroke-linecap="round" stroke-linejoin="round"/>
<path d="M37.27 103.83L78.34 144.89" stroke="#010101" stroke-width="1.65" stroke-linecap="round" stroke-linejoin="round"/>
<path d="M16.34 82.8899L24.66 91.2199" stroke="#010101" stroke-width="1.65" stroke-linecap="round" stroke-linejoin="round"/>
<path d="M66.79 116.18L102.92 152.31" stroke="#FFAF00" stroke-width="1.65" stroke-linecap="round" stroke-linejoin="round"/>
<path d="M12.27 61.6599L50.79 100.19" stroke="#FFAF00" stroke-width="1.65" stroke-linecap="round" stroke-linejoin="round"/>
<path d="M42.47 74.71L106.25 138.48" stroke="#010101" stroke-width="1.65" stroke-linecap="round" stroke-linejoin="round"/>
<path d="M16.1 48.3401L29.6 61.8401" stroke="#010101" stroke-width="1.65" stroke-linecap="round" stroke-linejoin="round"/>
<path d="M95.13 110.2L110.46 125.53" stroke="#010101" stroke-width="1.65" stroke-linecap="round" stroke-linejoin="round"/>
<path d="M0.829987 15.8999L79.01 94.0799" stroke="#010101" stroke-width="1.65" stroke-linecap="round" stroke-linejoin="round"/>
<path d="M63.53 61.45L139.91 137.82" stroke="#FFAF00" stroke-width="1.65" stroke-linecap="round" stroke-linejoin="round"/>
<path d="M29.8 27.71L47.54 45.46" stroke="#FFAF00" stroke-width="1.65" stroke-linecap="round" stroke-linejoin="round"/>
<path d="M78.36 59.1101L127.69 108.44" stroke="#010101" stroke-width="1.65" stroke-linecap="round" stroke-linejoin="round"/>
<path d="M27.99 8.73999L64.45 45.2" stroke="#010101" stroke-width="1.65" stroke-linecap="round" stroke-linejoin="round"/>
<path d="M119.05 82.6399L144.82 108.41" stroke="#FFAF00" stroke-width="1.65" stroke-linecap="round" stroke-linejoin="round"/>
<path d="M50.27 13.86L100.33 63.92" stroke="#FFAF00" stroke-width="1.65" stroke-linecap="round" stroke-linejoin="round"/>
<path d="M94.09 40.51L128.9 75.33" stroke="#010101" stroke-width="1.65" stroke-linecap="round" stroke-linejoin="round"/>
<path d="M54.4 0.829956L80.44 26.86" stroke="#010101" stroke-width="1.65" stroke-linecap="round" stroke-linejoin="round"/>
<path d="M125.03 54.3L138.57 67.84" stroke="#FFAF00" stroke-width="1.65" stroke-linecap="round" stroke-linejoin="round"/>
<path d="M75.23 4.5L109.56 38.82" stroke="#FFAF00" stroke-width="1.65" stroke-linecap="round" stroke-linejoin="round"/>
<path d="M117.99 30.1001L126.31 38.4201" stroke="#010101" stroke-width="1.65" stroke-linecap="round" stroke-linejoin="round"/>
<path d="M103.38 15.49L109.12 21.22" stroke="#010101" stroke-width="1.65" stroke-linecap="round" stroke-linejoin="round"/>
</g>
<defs>
<clipPath id="clip0_1_509">
<rect width="145.65" height="153.14" fill="white"/>
</clipPath>
</defs>
</svg>
