<svg width="97" height="97" viewBox="0 0 97 97" fill="none" xmlns="http://www.w3.org/2000/svg">
<g clip-path="url(#clip0_1_535)">
<path d="M89.0988 69.8446C87.5283 69.1628 86.7835 67.3287 87.4635 65.738C88.1436 64.1473 89.9731 63.4169 91.5599 64.0986C93.1466 64.7803 93.8752 66.6145 93.1951 68.2052C93.1304 68.335 93.0818 68.4486 93.017 68.546C92.2399 69.8933 90.556 70.4776 89.0988 69.8446Z" fill="#FFAF00"/>
<path d="M79.1414 86.9202C77.7975 88.0077 75.8384 87.813 74.7536 86.4657C73.6688 85.1347 73.8631 83.1707 75.1908 82.067C76.5346 80.9795 78.4937 81.1742 79.5785 82.5215C80.4204 83.5603 80.4852 84.9724 79.8538 86.0762C79.6757 86.3846 79.4328 86.6767 79.1252 86.9364L79.1414 86.9202Z" fill="#010101"/>
<path d="M94.118 48.4513C92.4018 48.5812 90.896 47.2989 90.7503 45.5783C90.6208 43.8578 91.8999 42.3482 93.6161 42.2184C95.3323 42.0723 96.8381 43.3546 96.9838 45.0751C97.0324 45.7406 96.8705 46.3574 96.5629 46.8931C96.0609 47.7533 95.1704 48.3539 94.118 48.4513Z" fill="#010101"/>
<path d="M58.0122 96.9351C56.3121 97.2922 54.6768 96.1884 54.3206 94.5004C53.9806 92.8123 55.0654 91.1567 56.7493 90.8158C58.4331 90.4749 60.0846 91.5624 60.4246 93.2505C60.5865 94.0296 60.4246 94.8088 60.0684 95.4418C59.6313 96.1884 58.9027 96.7566 57.996 96.9351H58.0122Z" fill="#010101"/>
<path d="M88.6454 27.1555C87.1721 28.0644 85.2615 27.6262 84.3387 26.1653C83.432 24.7045 83.8529 22.7729 85.3101 21.864C86.7673 20.9388 88.694 21.3933 89.6007 22.8379C90.2484 23.8605 90.2322 25.1103 89.6655 26.0842C89.4226 26.5062 89.0664 26.8795 88.6293 27.1555H88.6454Z" fill="#010101"/>
<path d="M34.6648 95.9936C33.0133 95.5066 32.0581 93.7699 32.5438 92.1142C33.0133 90.4586 34.7458 89.5009 36.4134 89.9879C38.0649 90.4586 39.004 92.2116 38.5344 93.8673C38.4697 94.1107 38.3563 94.3542 38.2268 94.5652C37.5306 95.7663 36.0572 96.3994 34.6648 95.9936Z" fill="#FFAF00"/>
<path d="M69.6697 11.9952C69.6697 11.9952 69.6211 11.9627 69.6049 11.9465C69.6049 11.9465 69.5564 11.914 69.5402 11.8978C68.0344 11.0375 67.5325 9.12219 68.3906 7.62888C69.2487 6.11934 71.1593 5.61616 72.6326 6.47644C72.6326 6.47644 72.6974 6.5089 72.7298 6.52513C72.7298 6.52513 72.7784 6.5576 72.8107 6.57383C74.3003 7.4341 74.8022 9.34943 73.9441 10.8427C73.086 12.336 71.1755 12.8392 69.6859 11.9789L69.6697 11.9952Z" fill="#FFAF00"/>
<path d="M18.8301 84.1771C17.632 85.4269 15.6729 85.4756 14.4261 84.2745C13.1794 83.0733 13.1471 81.0931 14.329 79.8432C15.5271 78.5934 17.5024 78.5609 18.7329 79.7621C19.7854 80.7684 19.9796 82.3591 19.2672 83.5765C19.1377 83.7875 18.992 83.9823 18.8139 84.1771H18.8301Z" fill="#010101"/>
<path d="M49.9329 6.24922C48.2167 6.18429 46.889 4.72345 46.9376 3.0029C47.0023 1.28235 48.4433 -0.064872 50.1596 5.43576e-05C51.892 0.0649807 53.2197 1.50959 53.1549 3.24637C53.1387 3.78202 52.9768 4.26896 52.7339 4.69098C52.1672 5.66488 51.0986 6.29791 49.9005 6.24922H49.9329Z" fill="#FFAF00"/>
<path d="M5.87733 66.4359C4.24204 66.9715 2.47723 66.095 1.94293 64.4556C1.39243 62.8163 2.28294 61.047 3.90203 60.4951C5.53732 59.9595 7.30213 60.836 7.85262 62.4754C8.14406 63.3681 8.01453 64.2771 7.57738 65.04C7.20498 65.673 6.62211 66.1762 5.87733 66.4359Z" fill="#010101"/>
<path d="M29.9533 10.3719C28.3989 11.1186 26.537 10.4531 25.7922 8.89485C25.0636 7.33662 25.7274 5.46999 27.2818 4.73957C28.8361 3.99291 30.6981 4.65841 31.4428 6.21664C31.9124 7.19054 31.8152 8.26182 31.3133 9.13833C31.0057 9.65774 30.5523 10.096 29.9533 10.3882V10.3719Z" fill="#010101"/>
<path d="M2.62294 44.7018C0.92289 44.4259 -0.226668 42.819 0.0485781 41.1147C0.323824 39.4103 1.92673 38.2579 3.62678 38.5176C5.32683 38.7935 6.47639 40.4005 6.20114 42.1048C6.13638 42.4943 6.00685 42.8514 5.81256 43.1761C5.18111 44.2636 3.93441 44.8966 2.62294 44.6856V44.7018Z" fill="#010101"/>
<path d="M14.1832 23.3085C13.1632 24.6882 11.2041 24.9641 9.81169 23.9416C8.43546 22.919 8.16021 20.9387 9.18024 19.559C10.2165 18.1793 12.1594 17.9034 13.5518 18.926C14.8309 19.8837 15.1709 21.6367 14.3775 22.9839C14.3128 23.0975 14.248 23.1949 14.1671 23.2923L14.1832 23.3085Z" fill="#FFAF00"/>
<path d="M81.6833 66.0464C80.3881 65.4945 79.789 63.985 80.3395 62.6864C80.89 61.3879 82.3957 60.7873 83.691 61.3392C84.9863 61.9073 85.5854 63.4006 85.0349 64.6992C85.0025 64.7965 84.9539 64.8939 84.8892 64.9751C84.2577 66.0788 82.8815 66.5496 81.6833 66.0301V66.0464Z" fill="#010101"/>
<path d="M73.5231 80.0218C72.4221 80.9145 70.8192 80.7522 69.9449 79.6485C69.0544 78.5609 69.2163 76.954 70.3011 76.045C71.4021 75.1523 73.005 75.3146 73.8955 76.4021C74.5917 77.2624 74.6403 78.4149 74.1222 79.3076C73.9765 79.5673 73.7822 79.8108 73.5231 80.0056V80.0218Z" fill="#010101"/>
<path d="M85.7797 48.5325C84.3711 48.6461 83.1406 47.591 83.0272 46.1789C82.9139 44.7667 83.9663 43.5494 85.3749 43.4195C86.7673 43.3059 88.014 44.3609 88.1274 45.7731C88.1598 46.3087 88.0302 46.8281 87.7874 47.2664C87.3826 47.9644 86.654 48.4675 85.7959 48.5325H85.7797Z" fill="#010101"/>
<path d="M56.2474 88.2187C54.8712 88.4946 53.5273 87.6019 53.2521 86.2222C52.9768 84.8425 53.8673 83.4953 55.2436 83.2031C56.6198 82.9272 57.9636 83.8199 58.2551 85.1996C58.3846 85.8326 58.2551 86.4657 57.9636 86.9851C57.6074 87.6019 57.0084 88.0564 56.2636 88.2025L56.2474 88.2187Z" fill="#010101"/>
<path d="M81.311 31.1159C80.1128 31.8626 78.5261 31.5055 77.7813 30.3043C77.0366 29.1032 77.3928 27.5287 78.5747 26.7821C79.7728 26.0354 81.3434 26.3925 82.0881 27.5774C82.6063 28.4215 82.6063 29.4278 82.1367 30.2232C81.9262 30.5803 81.651 30.8724 81.2948 31.0997L81.311 31.1159Z" fill="#FFAF00"/>
<path d="M37.142 87.4396C35.782 87.05 35.0048 85.6217 35.4096 84.2744C35.7982 82.911 37.2068 82.1319 38.5669 82.5214C39.9107 82.911 40.7041 84.3394 40.2993 85.7028C40.2345 85.9138 40.1536 86.0924 40.0564 86.2709C39.4897 87.261 38.2916 87.7805 37.142 87.4396Z" fill="#010101"/>
<path d="M65.7677 18.715C65.7677 18.715 65.7515 18.6988 65.7353 18.6825C65.7353 18.6825 65.6705 18.6663 65.6543 18.6501C64.4238 17.9359 64.019 16.3776 64.7152 15.144C65.4276 13.9104 66.982 13.5046 68.1963 14.2026C68.1963 14.2026 68.2449 14.2351 68.2611 14.2513C68.2611 14.2513 68.3096 14.2838 68.3258 14.2838C69.5563 14.998 69.9611 16.5562 69.2649 17.7736C68.5525 19.0072 66.9982 19.4129 65.7677 18.6988V18.715Z" fill="#010101"/>
<path d="M24.1893 77.7818C23.2178 78.8044 21.5987 78.8369 20.5787 77.8468C19.5748 76.8729 19.5263 75.266 20.5139 74.2434C21.4854 73.2208 23.1045 73.1883 24.1245 74.1622C24.9826 75.0062 25.1445 76.2885 24.5617 77.2949C24.4645 77.4734 24.335 77.6358 24.1893 77.7818Z" fill="#010101"/>
<path d="M49.6253 14.0079C48.2167 13.943 47.1157 12.7743 47.1805 11.3459C47.2452 9.93376 48.411 8.83001 49.8358 8.89494C51.2444 8.94363 52.3454 10.1448 52.2806 11.5569C52.2644 11.9789 52.1511 12.401 51.9406 12.7418C51.4872 13.5209 50.6129 14.0404 49.6253 14.0079Z" fill="#010101"/>
<path d="M13.5842 63.2545C12.2566 63.709 10.7994 62.9786 10.3622 61.6314C9.90887 60.3004 10.6213 58.8395 11.9651 58.4013C13.309 57.9468 14.75 58.6772 15.2033 60.0244C15.4462 60.7549 15.3328 61.5178 14.9766 62.1183C14.6852 62.6377 14.1833 63.0435 13.568 63.2545H13.5842Z" fill="#FFAF00"/>
<path d="M33.2886 17.384C32.0095 17.9846 30.4876 17.4489 29.8885 16.1666C29.2894 14.8843 29.8237 13.3748 31.1028 12.758C32.3657 12.1412 33.8877 12.6931 34.5029 13.9591C34.8753 14.7545 34.8106 15.6472 34.4058 16.3452C34.1629 16.7834 33.7743 17.1405 33.2886 17.3678V17.384Z" fill="#010101"/>
<path d="M10.9127 45.4647C9.52026 45.2537 8.58119 43.9227 8.79167 42.543C9.01834 41.1471 10.3298 40.1894 11.7222 40.4329C13.1147 40.6439 14.0537 41.9749 13.8432 43.3546C13.7947 43.6792 13.6813 43.9714 13.5356 44.2311C13.0175 45.1238 11.9975 45.6432 10.9127 45.4647Z" fill="#010101"/>
<path d="M20.3844 27.9671C19.5425 29.1033 17.9558 29.3305 16.8062 28.4865C15.6728 27.6424 15.4462 26.0355 16.3043 24.8993C17.1462 23.7793 18.7491 23.5358 19.8663 24.3799C20.9187 25.1752 21.1777 26.6036 20.5463 27.7074C20.4977 27.7885 20.4492 27.8859 20.3844 27.9508V27.9671Z" fill="#010101"/>
<path d="M75.3365 62.8001C74.2841 62.3456 73.7984 61.1282 74.2517 60.0894C74.7051 59.0344 75.9194 58.5474 76.9718 59.0019C78.008 59.4564 78.5099 60.6737 78.0566 61.7288C78.0566 61.7288 77.9756 61.8749 77.9432 61.956C77.4251 62.8488 76.308 63.2383 75.3365 62.8163V62.8001Z" fill="#010101"/>
<path d="M68.7306 74.1296C67.8401 74.8601 66.5448 74.714 65.8324 73.8212C65.1038 72.9285 65.2333 71.63 66.1238 70.8996C67.0143 70.1691 68.3096 70.3152 69.0382 71.1917C69.6049 71.8735 69.6373 72.8149 69.2325 73.5453C69.103 73.7563 68.9411 73.9511 68.7468 74.1134L68.7306 74.1296Z" fill="#010101"/>
<path d="M78.6719 48.6136C77.5223 48.711 76.5347 47.8507 76.4375 46.7145C76.3566 45.5783 77.1985 44.5719 78.3319 44.4745C79.4814 44.3934 80.4691 45.2374 80.5662 46.3736C80.5986 46.8119 80.5014 47.2176 80.291 47.591C79.9671 48.1591 79.3843 48.5649 78.6719 48.6136Z" fill="#010101"/>
<path d="M54.7254 80.7521C53.6083 80.9794 52.5235 80.2652 52.2968 79.1452C52.0701 78.0252 52.7825 76.9215 53.8997 76.6942C55.0169 76.467 56.1179 77.1812 56.3445 78.3012C56.4417 78.8206 56.3445 79.3238 56.1017 79.7458C55.8102 80.249 55.3245 80.6223 54.7254 80.7359V80.7521Z" fill="#FFAF00"/>
<path d="M75.0289 34.5084C74.0574 35.109 72.7945 34.833 72.1793 33.8429C71.5802 32.869 71.8717 31.6029 72.8269 30.9861C73.7984 30.3856 75.0613 30.6615 75.6765 31.6354C76.0975 32.3171 76.0975 33.1449 75.7089 33.7942C75.547 34.0701 75.3203 34.3136 75.0289 34.5084Z" fill="#010101"/>
<path d="M39.2469 80.1354C38.1459 79.827 37.5145 78.6745 37.8383 77.5708C38.1621 76.4833 39.3117 75.8502 40.3964 76.1586C41.4974 76.4833 42.1289 77.6357 41.8051 78.7394C41.7565 78.9018 41.6917 79.0641 41.6108 79.1939C41.1412 80.0055 40.186 80.4275 39.2469 80.1516V80.1354Z" fill="#010101"/>
<path d="M62.4485 24.4447C62.4485 24.4447 62.4161 24.4285 62.4 24.4123C62.4 24.4123 62.3676 24.4123 62.3514 24.3798C61.3637 23.8117 61.0237 22.5456 61.5904 21.5555C62.1571 20.5654 63.42 20.2245 64.4076 20.7926C64.4076 20.7926 64.44 20.8251 64.4562 20.8251C64.4562 20.8251 64.5048 20.8251 64.521 20.8413C65.5086 21.4094 65.8324 22.6917 65.2658 23.6819C64.6991 24.672 63.42 25.0128 62.4323 24.4285L62.4485 24.4447Z" fill="#FFAF00"/>
<path d="M28.7551 72.2956C27.9618 73.1234 26.6503 73.1396 25.8408 72.3605C25.015 71.5652 24.9827 70.2666 25.776 69.4226C26.5694 68.5948 27.8808 68.5785 28.7066 69.3739C29.4028 70.0556 29.5323 71.0944 29.0628 71.906C28.9818 72.0359 28.8847 72.182 28.7713 72.2956H28.7551Z" fill="#FFAF00"/>
<path d="M49.3824 20.6304C48.2328 20.5979 47.3585 19.6241 47.4071 18.4878C47.4395 17.3354 48.4109 16.4589 49.5443 16.4914C50.6777 16.54 51.5682 17.4977 51.5358 18.6339C51.5358 18.991 51.4224 19.3156 51.2443 19.6078C50.8719 20.2409 50.1757 20.6629 49.3824 20.6304Z" fill="#010101"/>
<path d="M20.1739 60.5438C19.0891 60.9172 17.9234 60.3328 17.5672 59.2453C17.1948 58.1578 17.7777 56.9891 18.8787 56.6158C19.9634 56.2587 21.1292 56.843 21.4854 57.9305C21.6797 58.5149 21.5987 59.1317 21.3073 59.6186C21.0644 60.0406 20.6758 60.3815 20.1739 60.5438Z" fill="#010101"/>
<path d="M36.1382 23.3735C35.1182 23.8604 33.8715 23.4221 33.3858 22.3833C32.9 21.3607 33.3372 20.1109 34.3734 19.624C35.4096 19.1208 36.6402 19.5753 37.1259 20.5978C37.4335 21.2471 37.3849 21.9613 37.0449 22.5294C36.8344 22.8865 36.5268 23.1624 36.1382 23.3572V23.3735Z" fill="#010101"/>
<path d="M18.0043 46.1302C16.871 45.9354 16.11 44.8803 16.2881 43.7441C16.4824 42.6079 17.5348 41.845 18.6682 42.0236C19.7854 42.2021 20.5625 43.2734 20.3844 44.4096C20.352 44.6693 20.2549 44.8966 20.1254 45.1238C19.7044 45.838 18.8787 46.26 18.0043 46.1302Z" fill="#010101"/>
<path d="M25.6789 31.9438C24.9988 32.8528 23.7036 33.0475 22.7807 32.3658C21.874 31.6841 21.6797 30.3856 22.3759 29.4604C23.0559 28.5352 24.3512 28.3566 25.2741 29.0546C26.1322 29.6876 26.3427 30.84 25.8246 31.749C25.8246 31.749 25.7436 31.8789 25.6951 31.9438H25.6789Z" fill="#010101"/>
</g>
<defs>
<clipPath id="clip0_1_535">
<rect width="97" height="97" fill="white"/>
</clipPath>
</defs>
</svg>
