<svg width="54" height="54" viewBox="0 0 54 54" fill="none" xmlns="http://www.w3.org/2000/svg">
<g clip-path="url(#clip0_1_575)">
<path d="M36.5 53.5C27.13 53.5 19.5 45.87 19.5 36.5C19.5 27.13 27.13 19.5 36.5 19.5C45.87 19.5 53.5 27.13 53.5 36.5C53.5 45.87 45.87 53.5 36.5 53.5ZM36.5 27.5C31.54 27.5 27.5 31.54 27.5 36.5C27.5 41.46 31.54 45.5 36.5 45.5C41.46 45.5 45.5 41.46 45.5 36.5C45.5 31.54 41.46 27.5 36.5 27.5Z" fill="#010101"/>
<path d="M18 35C8.63 35 1 27.37 1 18C1 8.63 8.63 1 18 1C27.37 1 35 8.63 35 18C35 27.37 27.37 35 18 35ZM18 9C13.04 9 9 13.04 9 18C9 22.96 13.04 27 18 27C22.96 27 27 22.96 27 18C27 13.04 22.96 9 18 9Z" stroke="#FFAF00" stroke-width="2" stroke-miterlimit="10"/>
</g>
<defs>
<clipPath id="clip0_1_575">
<rect width="53.5" height="53.5" fill="white"/>
</clipPath>
</defs>
</svg>
