<svg width="105" height="127" viewBox="0 0 105 127" fill="none" xmlns="http://www.w3.org/2000/svg">
<g clip-path="url(#clip0_1_58)">
<g filter="url(#filter0_i_1_58)">
<path d="M89.6243 99.2215C110.125 78.694 110.125 45.412 89.6243 24.8766C69.1234 4.34908 35.8845 4.34908 15.3757 24.8766C-5.12523 45.4041 -5.12523 78.6861 15.3757 99.2215C35.8766 119.749 69.1155 119.749 89.6243 99.2215Z" fill="#F5F5F5"/>
</g>
<path d="M34.2419 9.6311C33.2784 10.1609 32.6782 11.2916 32.7651 12.3829C31.8885 11.861 30.6882 12.0428 29.9379 12.7387C29.1877 13.4266 28.8955 14.5495 29.1166 15.5458C29.3378 16.5421 30.0248 17.404 30.9014 17.9259C30.2775 17.9971 29.7721 18.5348 29.6063 19.1436C29.4404 19.7525 29.5747 20.4088 29.8274 20.9861C30.6645 22.8996 32.931 24.0778 34.9842 23.6508L38.7827 10.3823L34.2419 9.6311Z" fill="#263238"/>
<path d="M43.7421 61.5192L43.8448 56.8933C43.8448 56.8933 34.384 55.9524 33.7523 46.5743C33.4443 42.0433 33.5706 32.6652 33.7838 24.1727C34.0129 15.0476 41.1992 7.63054 50.3046 7.12447L51.2128 7.07703C60.9973 7.10866 66.4384 15.443 66.1383 25.2323L64.859 64.5714L48.0934 70.8182L43.75 61.5192H43.7421Z" fill="#AE7461"/>
<path d="M43.8448 56.9013C43.8448 56.9013 49.7834 57.0674 55.9273 53.6198C55.9273 53.6198 55.5799 60.254 44.0422 59.9298L43.8527 56.9013H43.8448Z" fill="#6F4439"/>
<path d="M37.5508 33.9383C37.5666 34.65 38.1746 35.2193 38.917 35.2193C39.6514 35.2193 40.2437 34.6421 40.2279 33.9304C40.2121 33.2187 39.604 32.6494 38.8617 32.6494C38.1194 32.6494 37.535 33.2266 37.5508 33.9383Z" fill="#263238"/>
<path d="M36.0503 28.6642C36.2241 28.8303 37.1954 28.0237 38.6406 27.9446C40.0778 27.8497 41.1755 28.5298 41.3256 28.3479C41.3967 28.2688 41.215 27.9604 40.7333 27.6521C40.2595 27.3437 39.4698 27.059 38.5695 27.1144C37.6692 27.1697 36.9348 27.5414 36.5241 27.9051C36.0977 28.2688 35.9713 28.593 36.0503 28.6721V28.6642Z" fill="#263238"/>
<path d="M50.2019 33.4481C50.2177 34.1597 50.8258 34.7291 51.5681 34.7291C52.3105 34.7291 52.8949 34.1518 52.8791 33.4402C52.8633 32.7285 52.2552 32.1592 51.5129 32.1592C50.7705 32.1592 50.1861 32.7364 50.2019 33.4481Z" fill="#263238"/>
<path d="M50.2256 28.1422C50.3994 28.3083 51.0785 27.3989 52.5158 27.3199C53.9531 27.225 55.3508 28.0078 55.493 27.8259C55.5641 27.7469 55.3824 27.4385 54.9007 27.1301C54.4269 26.8217 53.6372 26.537 52.7448 26.5924C51.8445 26.6477 51.1101 27.0194 50.6994 27.3831C50.2809 27.7469 50.1467 28.0711 50.2256 28.1501V28.1422Z" fill="#263238"/>
<path d="M45.59 39.1335C45.59 39.0544 44.6897 38.9437 43.2288 38.8409C42.8576 38.8251 42.5101 38.7697 42.4312 38.5246C42.3285 38.2637 42.4628 37.8604 42.6128 37.4176C42.9129 36.5082 43.2209 35.5514 43.5447 34.5551C44.8319 30.4749 45.748 27.1301 45.5821 27.0827C45.4163 27.0352 44.2396 30.2931 42.9524 34.3732C42.6444 35.3775 42.3443 36.3343 42.0679 37.2515C41.9495 37.6785 41.7362 38.1688 41.9573 38.7065C42.0679 38.9753 42.3522 39.1572 42.5891 39.2125C42.826 39.2679 43.0393 39.2679 43.2209 39.2679C44.6819 39.2679 45.59 39.2205 45.59 39.1414V39.1335Z" fill="#263238"/>
<path d="M49.3017 23.983C49.4991 24.3467 50.8969 23.9513 52.6027 23.9118C54.3084 23.8327 55.7299 24.1174 55.8957 23.7378C55.9668 23.556 55.6825 23.2239 55.0823 22.9313C54.4822 22.6387 53.5661 22.4094 52.5474 22.441C51.5286 22.4806 50.6284 22.7731 50.0598 23.1132C49.4833 23.4532 49.2148 23.8011 49.3017 23.983Z" fill="#263238"/>
<path d="M35.7739 25.177C36.0898 25.4695 37.148 25.003 38.4668 24.829C39.7777 24.6155 40.9307 24.7579 41.1439 24.3862C41.2387 24.2044 41.0255 23.9039 40.4964 23.6508C39.9752 23.3978 39.146 23.2476 38.2378 23.382C37.3375 23.5164 36.5873 23.9039 36.1609 24.2913C35.7344 24.6788 35.6239 25.0346 35.766 25.177H35.7739Z" fill="#263238"/>
<path d="M65.1354 34.4603C65.1117 33.0053 66.2963 31.7955 67.7493 31.8508C69.5025 31.922 71.5084 32.8076 71.5952 36.4292C71.7453 42.8579 65.2696 41.6797 65.2538 41.4978C65.2459 41.3713 65.1828 37.1488 65.1433 34.4523L65.1354 34.4603Z" fill="#AE7461"/>
<path d="M66.5884 39.0465C66.5884 39.0465 66.699 39.1256 66.8964 39.2046C67.086 39.2837 67.4018 39.3391 67.7335 39.2046C68.4048 38.9358 68.9497 37.8446 68.9576 36.6901C68.9576 36.105 68.8233 35.5514 68.6101 35.0928C68.4048 34.6263 68.0889 34.3021 67.7493 34.2546C67.4097 34.1835 67.1728 34.397 67.0939 34.5788C67.0149 34.7607 67.0544 34.8872 67.0228 34.903C67.007 34.9189 66.8806 34.8002 66.928 34.5314C66.9517 34.4049 67.0228 34.2467 67.1728 34.1202C67.3229 33.9937 67.5519 33.9225 67.7888 33.9383C68.2863 33.9621 68.7444 34.4049 68.9813 34.9109C69.2498 35.417 69.4156 36.0338 69.4077 36.6901C69.3998 37.9869 68.7601 39.2125 67.8441 39.5051C67.3939 39.6316 67.0149 39.5051 66.8175 39.3628C66.6121 39.2046 66.5805 39.0623 66.5963 39.0544L66.5884 39.0465Z" fill="#6F4439"/>
<path d="M43.1498 18.1553C43.1498 18.1553 43.1182 18.1553 43.1024 18.1632C43.063 18.1632 43.0235 18.1632 42.984 18.1792L43.1419 18.1553H43.1498Z" fill="#FF725E"/>
<path d="M71.6979 22.615C71.5478 22.0457 71.153 21.5791 70.6475 21.2866C70.9318 20.9386 71.153 20.5275 71.2556 20.0926C71.5478 18.8511 70.9555 17.4594 69.8578 16.8031C70.916 15.6803 71.2951 13.9485 70.7976 12.4857C70.3001 11.0228 68.9576 9.87626 67.4334 9.62323C67.4176 7.68593 66.312 5.79607 64.6299 4.84719C62.9479 3.8904 60.7604 3.91412 59.0941 4.89463C57.6252 1.90565 53.3608 0.735362 50.5731 2.56196C48.5909 1.30469 46.4824 0.0157928 44.1448 -2.18713e-05C41.8073 -0.0158366 39.3039 1.84239 39.5408 4.16715C37.8508 3.81132 36.0661 3.69271 34.4235 4.20669C32.773 4.72067 31.2883 5.95422 30.8066 7.61476C30.3249 9.2753 31.0672 11.2996 32.6545 11.9717C31.2804 13.5532 31.3831 16.2021 32.8678 17.6808C33.2942 18.1078 33.8312 18.4083 34.3998 18.5981C34.3919 19.0013 34.3998 19.4125 34.4472 19.8316C34.4472 19.8316 34.6051 19.3967 34.8815 18.7404C36.1688 19.0172 37.5823 18.7246 38.5695 17.8548C39.8093 19.0646 41.7678 19.4679 43.3867 18.8511C45.0056 18.2343 46.1902 16.6133 46.3087 14.8895C47.2721 15.7198 48.662 16.0203 49.886 15.6803C51.1101 15.3323 52.1288 14.3518 52.5237 13.142C53.9846 14.6286 56.3775 15.1109 58.3044 14.3044C58.407 15.5537 59.102 16.6766 60.0812 17.4436C60.0575 18.519 59.9549 19.7446 60.1207 21.247C61.9686 38.0818 65.317 42.6839 65.7513 34.6816C65.7987 33.8276 68.0415 33.0132 68.31 29.5656C68.6654 29.4865 69.0128 29.3679 69.3287 29.186C70.0079 28.8065 70.5528 28.166 70.7344 27.4148C70.916 26.6636 70.687 25.8017 70.0869 25.3035C71.2161 25.0347 71.998 23.7458 71.7058 22.615H71.6979Z" fill="#263238"/>
<path d="M58.6519 15.364C58.6519 15.364 58.6519 15.5616 58.7861 15.8938C58.9283 16.218 59.2047 16.6766 59.718 17.0799C60.2234 17.4831 60.9973 17.8311 61.9055 17.7757C62.7899 17.7283 63.785 17.2854 64.4325 16.4156H64.0614C64.3931 16.8664 64.8353 17.2696 65.3565 17.5543C66.4621 18.1632 67.773 18.2264 68.7917 17.8073C69.8263 17.4041 70.4817 16.5896 70.8371 15.87C71.1925 15.1346 71.2478 14.4625 71.2241 14.0118C71.1925 13.5611 71.0977 13.3318 71.074 13.3397C70.9792 13.3318 71.2714 14.3597 70.5449 15.7198C70.1816 16.3682 69.5578 17.0799 68.6417 17.412C67.7414 17.7599 66.5727 17.6887 65.5855 17.151C65.1275 16.898 64.7326 16.5501 64.4404 16.1547L64.2509 15.9017L64.0693 16.1547C63.5244 16.9059 62.6636 17.3171 61.8818 17.3803C61.0921 17.4594 60.3971 17.1826 59.9075 16.8505C58.9125 16.1468 58.7308 15.3323 58.6598 15.3798L58.6519 15.364Z" fill="#455A64"/>
<path d="M45.282 43.3006C45.3136 43.4272 46.3482 43.3006 47.6117 43.095C48.8752 42.8895 49.894 42.6839 49.8861 42.5494C49.8782 42.4229 48.82 42.4071 47.5406 42.6206C46.2613 42.8262 45.2584 43.1741 45.2899 43.3006H45.282Z" fill="#263238"/>
<path d="M25.0733 65.3858C25.0733 65.3858 23.0359 65.5124 18.8267 68.6595C14.6254 71.8066 5.13312 84.7272 5.13312 84.7272C9.35807 93.6151 12.4537 98.5967 20.106 103.871L28.9824 94.7775C28.9824 94.7775 34.1234 70.0116 33.5153 70.0907C32.9073 70.1777 25.0733 65.3779 25.0733 65.3779V65.3858Z" fill="#E9C46A"/>
<path d="M86.505 61.9304C80.5505 59.2893 65.0801 57.6288 65.0801 57.6288C65.0801 57.6288 61.866 65.9315 52.5237 66.3664C46.7746 66.6353 42.5891 60.6178 42.5891 60.6178C42.5891 60.6178 27.2134 64.3896 23.9993 65.7022C21.5038 83.4542 20.9273 87.6846 23.2017 105.729C30.0564 110.355 38.6169 113.613 47.2879 114.356C63.9508 115.795 81.6324 109.382 92.6331 95.5445L86.505 61.9225V61.9304Z" fill="#E9C46A"/>
<path d="M20.114 76.6775C20.114 76.6775 20.185 77.0808 20.2403 77.8241C20.3035 78.6148 20.3825 79.6744 20.4851 80.9475C20.6904 83.5806 20.9905 87.218 21.417 91.2349C21.8434 95.244 22.3093 98.8655 22.6647 101.483C22.8385 102.748 22.9806 103.8 23.0833 104.583C23.178 105.318 23.2254 105.721 23.2017 105.729C23.178 105.729 23.0912 105.334 22.9569 104.606C22.8148 103.879 22.6331 102.827 22.4278 101.522C22.0093 98.9051 21.5038 95.2835 21.0774 91.2745C20.651 87.2575 20.3825 83.6122 20.2403 80.9712C20.1692 79.6507 20.1218 78.5832 20.1061 77.8399C20.0903 77.1045 20.0903 76.6933 20.1061 76.6933L20.114 76.6775Z" fill="#263238"/>
<path d="M50.3441 70.4308C50.3441 69.0075 50.3836 64.263 50.7626 61.8829C51.2996 58.5302 57.0566 50.4331 57.0566 50.4331C57.0566 50.4331 56.9224 47.3729 53.6214 49.4684C49.7123 51.9513 48.1171 55.3752 46.9641 54.9007C45.8111 54.4263 38.2299 48.7172 36.4689 49.1995C34.7078 49.6819 34.6999 51.4769 35.3396 52.2281C35.9792 52.9872 36.8479 54.0863 36.8479 54.0863C36.8479 54.0863 33.0099 53.4141 34.3761 57.4627C34.3761 57.4627 29.6458 55.4147 30.9251 61.0527C30.9251 61.0527 29.1403 62.2704 30.167 64.1365C31.0199 65.6864 33.1205 68.3907 34.305 69.8298C35.4896 71.269 37.6534 76.5353 37.6534 76.5353L39.8251 85.3915L54.2453 80.0777L50.3441 70.4308Z" fill="#AE7461"/>
<path d="M36.7768 54.0863C36.7453 54.1417 37.7087 54.7426 38.8696 55.5254C40.0305 56.3004 40.9544 56.9646 41.0018 56.9092C41.0413 56.8618 40.1726 56.1106 39.0038 55.3357C37.8351 54.5528 36.8163 54.0389 36.7847 54.0942L36.7768 54.0863Z" fill="#6F4439"/>
<path d="M34.1787 57.2097C34.1313 57.2414 34.5736 58.0084 35.3633 58.7596C36.153 59.5108 36.9348 59.922 36.9664 59.8745C37.0059 59.8192 36.2872 59.3289 35.5212 58.5935C34.7552 57.866 34.234 57.1702 34.1787 57.2097Z" fill="#6F4439"/>
<path d="M30.7198 60.8313C30.6724 60.8788 31.1146 61.4006 31.7069 62.0095C32.2992 62.6184 32.8204 63.0691 32.8599 63.0216C32.9073 62.9742 32.465 62.4523 31.8727 61.8434C31.2805 61.2346 30.7592 60.7839 30.7198 60.8313Z" fill="#6F4439"/>
<path d="M78.5605 83.6124L63.0663 99.1978L50.1151 70.8262L37.6534 76.5274C37.6534 76.5274 47.0115 116.412 51.655 122.145C56.2985 127.878 58.9282 128.044 65.1828 125.158C71.4373 122.271 90.722 99.0396 90.722 99.0396L78.5605 83.6045V83.6124Z" fill="#AE7461"/>
<path d="M88.5029 106.125C88.5029 106.125 95.9262 92.0891 96.5106 79.4215C96.7712 73.831 94.7653 68.3037 90.6904 64.4766C89.2453 63.1165 87.579 61.9858 85.8258 61.6458C85.8258 61.6458 84.2938 66.5958 81.2297 70.8262C78.1656 75.0566 66.5884 93.1566 66.5884 93.1566L88.5108 106.125H88.5029Z" fill="#E9C46A"/>
<path d="M37.6534 76.5274C37.6534 76.5274 37.5982 76.4325 37.5113 76.2348C37.4165 76.0213 37.2823 75.7287 37.1164 75.365C36.769 74.6059 36.2635 73.4831 35.5528 72.0835C35.1895 71.3955 34.7868 70.6048 34.2182 69.8694C33.6101 69.134 32.9626 68.3354 32.2992 67.4497C31.6358 66.572 30.933 65.6231 30.2696 64.5557C29.9459 64.0417 29.6221 63.3695 29.7405 62.6737C29.8432 61.9779 30.2696 61.3611 30.8461 60.9262L30.7908 61.0764C30.6961 60.5466 30.5776 60.0089 30.5697 59.4396C30.546 59.1549 30.6013 58.8624 30.625 58.5777C30.704 58.293 30.7829 57.9925 30.9725 57.7395C31.32 57.2018 31.9912 56.933 32.6072 56.9488C33.2311 56.9488 33.8391 57.0832 34.4314 57.3204L34.2182 57.5181C34.155 57.3046 34.0997 57.0911 34.0366 56.8776C33.9813 56.6562 33.9655 56.4269 33.926 56.2055C33.9102 55.7469 33.9339 55.2487 34.2024 54.8059C34.463 54.3631 34.9447 54.1021 35.4107 53.9914C35.8924 53.8807 36.3741 53.8649 36.8637 53.9361L36.7137 54.2049C36.4294 53.8491 36.1372 53.5012 35.845 53.1374L35.4028 52.5997C35.2606 52.4258 35.0948 52.236 34.9921 51.9988C34.771 51.5401 34.7078 51.0104 34.8421 50.5043C34.9684 49.9982 35.3396 49.5633 35.7897 49.3024C36.0266 49.1838 36.2477 49.081 36.5241 49.0335C36.8084 48.994 37.069 49.0414 37.3139 49.1126C37.8035 49.247 38.2615 49.4447 38.7116 49.6661C39.6119 50.101 40.4727 50.6071 41.3414 51.1369C42.9287 52.1095 44.445 53.1453 45.9454 54.1258C46.3166 54.3552 46.7114 54.6398 47.0589 54.7663C47.3669 54.8533 47.7459 54.5687 48.0539 54.2919C48.6857 53.7068 49.2543 53.0425 49.8545 52.4337C51.0469 51.2001 52.3184 50.0852 53.7241 49.247C54.0794 49.0414 54.4506 48.8516 54.8533 48.7489C55.2482 48.6223 55.6983 48.6144 56.1011 48.7647C56.5117 48.9149 56.8118 49.247 57.0014 49.6028C57.1909 49.9666 57.3015 50.3382 57.3488 50.7336V50.789L57.3172 50.8364C55.3982 53.4142 53.7477 55.8655 52.4684 58.1428C51.8366 59.2814 51.2759 60.3806 50.9838 61.4639C50.7153 62.5472 50.6995 63.6068 50.6284 64.5398C50.5336 66.4218 50.5178 67.9005 50.4704 68.9126C50.4468 69.4187 50.431 69.8061 50.3994 70.0671C50.3757 70.328 50.3362 70.4624 50.3362 70.4624C50.3283 70.4624 50.3362 70.328 50.352 70.0671C50.352 69.7824 50.3678 69.4029 50.3757 68.9126C50.3915 67.9005 50.3757 66.4218 50.4468 64.5319C50.502 63.591 50.502 62.5393 50.7705 61.4085C51.0706 60.2936 51.6234 59.1786 52.2473 58.0242C53.5187 55.7231 55.1613 53.256 57.0724 50.6545L57.0408 50.7573C56.954 50.0852 56.646 49.2945 55.9826 49.0493C55.3193 48.8042 54.5375 49.1284 53.882 49.5238C52.5237 50.3461 51.2681 51.4453 50.0914 52.6709C49.4991 53.2798 48.9384 53.9361 48.2751 54.5528C48.1092 54.7031 47.9276 54.8454 47.7223 54.9719C47.509 55.0747 47.2405 55.2092 46.9562 55.0985C46.4824 54.9166 46.1507 54.6556 45.7559 54.4184C44.2475 53.4379 42.7392 52.41 41.1519 51.4374C40.299 50.9155 39.4382 50.4094 38.5537 49.9824C38.1115 49.7689 37.6692 49.5791 37.2191 49.4526C36.998 49.3893 36.7611 49.3577 36.5715 49.3814C36.3741 49.4131 36.1451 49.5159 35.9477 49.6108C35.5607 49.8322 35.2685 50.1801 35.1579 50.5992C35.0474 51.0183 35.1027 51.4769 35.2843 51.8643C35.3633 52.062 35.5133 52.2281 35.6634 52.41L36.0977 52.9477C36.382 53.3035 36.6742 53.6514 36.9506 54.0072L37.2191 54.3314L36.8005 54.2761C35.9477 54.1654 34.9052 54.2761 34.463 54.9957C34.0524 55.7231 34.2498 56.6562 34.5025 57.439L34.6051 57.7632L34.2893 57.6367C33.7523 57.4153 33.1521 57.2888 32.5914 57.2888C32.0228 57.2809 31.4858 57.5023 31.1936 57.9451C31.0357 58.1586 30.9725 58.4195 30.8935 58.6726C30.8698 58.9414 30.8145 59.2024 30.8382 59.4791C30.8382 60.0168 30.9488 60.5466 31.0436 61.0606L31.0593 61.1555L30.9883 61.2108C30.475 61.5904 30.0801 62.1597 29.9932 62.7686C29.8906 63.3854 30.1512 63.9626 30.475 64.4845C31.1146 65.5362 31.8096 66.493 32.465 67.3707C33.1284 68.2484 33.7602 69.0628 34.3603 69.7982C34.9447 70.5731 35.3317 71.3639 35.6871 72.0597C36.382 73.4751 36.8637 74.6059 37.1796 75.3808C37.3297 75.7525 37.4481 76.045 37.535 76.2664C37.6061 76.472 37.6455 76.5748 37.6376 76.5748L37.6534 76.5274Z" fill="#6F4439"/>
<path d="M67.5756 107.69C67.4808 107.73 66.549 105.674 65.1986 103.254C63.856 100.827 62.6004 98.9525 62.6794 98.8972C62.7189 98.8734 63.0821 99.3083 63.6033 100.052C64.1324 100.803 64.8116 101.862 65.4986 103.088C66.1778 104.306 66.7227 105.452 67.0781 106.291C67.4334 107.137 67.6151 107.674 67.5756 107.69Z" fill="#6F4439"/>
<path d="M76.91 77.5633C76.91 77.5633 76.8626 77.6819 76.7362 77.8875C76.5941 78.1247 76.4125 78.4252 76.1834 78.789C75.6701 79.6034 74.9673 80.7263 74.0907 82.1101C72.2744 84.9488 69.771 88.8392 66.9438 93.2515L66.8885 93.0143C67.7256 93.5283 68.6101 94.0581 69.5025 94.6037C74.5882 97.735 79.1922 100.574 82.5643 102.551C84.2306 103.515 85.5968 104.298 86.576 104.867C87.0262 105.12 87.3894 105.334 87.6737 105.492C87.9264 105.634 88.0528 105.721 88.0449 105.729C88.0449 105.737 87.9028 105.682 87.6422 105.555C87.35 105.413 86.9788 105.223 86.5129 104.986C85.5415 104.48 84.1437 103.729 82.4459 102.764C79.0343 100.843 74.4066 98.0355 69.3208 94.9041C68.4285 94.3585 67.544 93.8208 66.7148 93.3069L66.5648 93.212L66.6595 93.0617C69.5262 88.6811 72.0533 84.8065 73.9012 81.9835C74.8093 80.6235 75.5438 79.5164 76.0729 78.7178C76.3177 78.362 76.5151 78.0773 76.6731 77.848C76.8152 77.6503 76.8942 77.5554 76.9021 77.5554L76.91 77.5633Z" fill="#263238"/>
<path d="M75.8991 72.5342C75.9465 72.5658 75.6148 73.1351 75.1252 74.084C74.6356 75.025 73.9959 76.3534 73.4037 77.8637C72.8193 79.374 72.3928 80.7815 72.1164 81.8174C71.84 82.8454 71.69 83.4938 71.6426 83.4859C71.6031 83.478 71.6663 82.8137 71.8795 81.7621C72.0927 80.7104 72.4876 79.2712 73.0799 77.7451C73.6722 76.219 74.3592 74.8906 74.9041 73.9733C75.4569 73.0482 75.8518 72.5184 75.8912 72.5421L75.8991 72.5342Z" fill="#263238"/>
</g>
<defs>
<filter id="filter0_i_1_58" x="0" y="9.48096" width="105" height="109.136" filterUnits="userSpaceOnUse" color-interpolation-filters="sRGB">
<feFlood flood-opacity="0" result="BackgroundImageFix"/>
<feBlend mode="normal" in="SourceGraphic" in2="BackgroundImageFix" result="shape"/>
<feColorMatrix in="SourceAlpha" type="matrix" values="0 0 0 0 0 0 0 0 0 0 0 0 0 0 0 0 0 0 127 0" result="hardAlpha"/>
<feOffset dy="4"/>
<feGaussianBlur stdDeviation="2"/>
<feComposite in2="hardAlpha" operator="arithmetic" k2="-1" k3="1"/>
<feColorMatrix type="matrix" values="0 0 0 0 0 0 0 0 0 0 0 0 0 0 0 0 0 0 0.25 0"/>
<feBlend mode="normal" in2="shape" result="effect1_innerShadow_1_58"/>
</filter>
<clipPath id="clip0_1_58">
<rect width="105" height="127" fill="white"/>
</clipPath>
</defs>
</svg>
