<svg width="119" height="73" viewBox="0 0 119 73" fill="none" xmlns="http://www.w3.org/2000/svg">
<g clip-path="url(#clip0_1_419)">
<path opacity="0.1" d="M119 46.8862C119.002 48.8641 118.762 50.8348 118.285 52.7547C118.125 53.4016 117.939 54.035 117.727 54.6551C117.467 55.4204 117.166 56.1712 116.825 56.9041C116.654 57.2749 116.472 57.6383 116.281 57.9944C116.284 60.0226 115.865 62.0294 115.051 63.888C113.58 67.2227 110.956 69.919 107.658 71.4856C105.595 72.4668 103.342 72.9829 101.057 72.997H22.5899C19.0988 73.0044 15.6679 72.0898 12.6461 70.3459L12.5997 70.3197C12.1693 70.0685 11.7496 69.8025 11.3408 69.5217C10.4209 68.8879 9.55663 68.1773 8.75734 67.3976C7.67551 66.3433 6.72222 65.1652 5.91727 63.888C4.02671 60.8941 3.02519 57.4274 3.0287 53.8893C1.11411 50.5389 -0.00231934 46.5255 -0.00231934 42.2128C-0.00231934 36.7716 1.77184 31.808 4.68667 28.0505C5.29436 27.2655 5.96001 26.5269 6.67806 25.8408C7.38654 25.1619 8.14805 24.5402 8.95537 23.9817C9.60128 23.5344 10.2763 23.1304 10.976 22.7726C11.268 22.6244 11.561 22.4844 11.8591 22.3544C12.1208 22.2385 12.3855 22.1307 12.6532 22.0289C12.9745 21.9073 13.2998 21.7955 13.6292 21.6934C13.9586 21.5913 14.2836 21.5019 14.6042 21.4253C15.0757 21.3105 15.5553 21.2171 16.0429 21.1452C16.447 21.0858 16.8512 21.0445 17.2553 21.0132C17.5766 20.989 17.9009 20.9759 18.2273 20.9719H18.4041C18.7638 20.9719 19.1214 20.986 19.476 21.0102C19.5134 20.9356 19.5538 20.8601 19.5912 20.7865C19.7327 20.5175 19.8792 20.2494 20.0267 19.9875C20.0264 19.9851 20.0264 19.9827 20.0267 19.9804C20.0519 19.934 20.0772 19.8887 20.1035 19.8444C20.2227 19.6297 20.347 19.4171 20.4743 19.2065C20.5329 19.1058 20.5905 19.0111 20.6501 18.9163C20.6627 18.8928 20.6765 18.8699 20.6915 18.8478C20.7521 18.7471 20.8137 18.6463 20.8764 18.5455C21.1882 18.0484 21.5126 17.5601 21.8493 17.0804L21.9352 16.9575C21.9878 16.8829 22.0363 16.8104 22.0949 16.7358C22.2343 16.5413 22.3777 16.3459 22.5222 16.1544C22.6233 16.0174 22.7243 15.8813 22.8334 15.7514C23.0961 15.4155 23.3655 15.0796 23.6417 14.7437C23.9178 14.4079 24.2048 14.0763 24.5025 13.7492C24.5429 13.7039 24.5833 13.6595 24.6258 13.6152L25.0572 13.1456C25.0784 13.1235 25.0966 13.1033 25.1168 13.0832C25.1683 13.0277 25.2178 12.9723 25.2734 12.9189C25.5048 12.6741 25.7422 12.4342 25.9806 12.1954C27.1941 10.99 28.4868 9.86672 29.8502 8.83295C29.9038 8.79063 29.9583 8.75033 30.0119 8.71002C30.2685 8.51756 30.5292 8.32712 30.7898 8.1397C32.2236 7.11388 33.7224 6.18155 35.2768 5.34856C35.3839 5.28709 35.493 5.22966 35.6031 5.17323C36.9966 4.43797 38.4298 3.77999 39.8961 3.2023C40.6952 2.88691 41.5126 2.59067 42.335 2.31961C42.8826 2.14025 43.4323 1.96996 43.9889 1.80975C44.8592 1.55986 45.7355 1.33583 46.6179 1.13766C49.2174 0.555937 51.8619 0.196587 54.5228 0.0635217C55.331 0.0225446 56.1484 0.00138457 56.9749 4.10614e-05C60.9627 -0.00522422 64.935 0.495904 68.7959 1.49134C68.8358 1.5515 68.8904 1.60055 68.9545 1.63387C69.0187 1.66718 69.0903 1.68367 69.1626 1.68178H69.5021C69.6496 1.72209 69.7961 1.76239 69.9436 1.80471C70.7674 2.04117 71.5793 2.29946 72.3795 2.57958L72.5816 2.65213C74.5566 3.35253 76.4782 4.19442 78.3315 5.17122C80.002 6.04962 81.6105 7.04075 83.1457 8.13769C83.3821 8.30697 83.6152 8.4776 83.8449 8.64957C84.1237 8.47155 84.4073 8.30092 84.6956 8.13769C85.8089 7.50533 86.9913 7.00259 88.2197 6.63934C90.7877 5.88141 93.505 5.77543 96.1246 6.331C99.484 7.04138 102.525 8.80474 104.981 11.3127C105.981 12.3389 106.871 13.4661 107.637 14.6762C107.693 14.7629 107.749 14.8505 107.802 14.9392C108.46 16.0102 109.026 17.1351 109.493 18.3017C109.511 18.345 109.528 18.3853 109.543 18.4276C109.974 19.52 110.322 20.6434 110.584 21.7881C110.596 21.8465 110.61 21.904 110.622 21.9624C110.866 23.0702 111.033 24.1938 111.119 25.3249C111.119 25.3652 111.119 25.4065 111.127 25.4488C111.17 26.0339 111.191 26.6251 111.192 27.2223C111.192 27.7563 111.174 28.2863 111.14 28.8123C111.14 28.8697 111.132 28.9292 111.127 28.9886C111.118 29.1408 111.105 29.2909 111.092 29.4441C111.863 30.0649 112.586 30.7444 113.252 31.4765C113.546 31.7969 113.831 32.1294 114.107 32.474C114.946 33.5229 115.683 34.6488 116.309 35.8365C118.018 39.0529 119 42.8365 119 46.8862Z" fill="#E9C46A"/>
<path opacity="0.1" d="M107.583 71.1126C107.583 71.8009 105.206 72.4457 101.057 72.9999H22.5902C19.0991 73.0074 15.6682 72.0927 12.6465 70.3489L12.6 70.3227C13.7922 69.8894 15.9442 69.4853 18.8732 69.1206L19.0045 69.1044C20.318 68.9442 21.786 68.7921 23.3904 68.648C23.4308 68.648 23.4723 68.6419 23.5127 68.6369C24.7857 68.524 26.1399 68.4182 27.5753 68.3195C27.6207 68.3195 27.6652 68.3114 27.7106 68.3094C28.2643 68.2698 28.8294 68.2322 29.406 68.1966L29.6283 68.1824C33.8262 67.9225 38.5981 67.7149 43.773 67.5779H43.7791C44.5039 67.5577 45.2364 67.5399 45.9766 67.5245C46.7997 67.505 47.6329 67.4879 48.4762 67.4731C49.1198 67.459 49.7714 67.4489 50.4251 67.4388H50.4403C53.3895 67.3945 56.4367 67.3723 59.5526 67.3723C67.2574 67.3723 74.54 67.5124 80.993 67.7643H81.0112C82.0033 67.8026 82.9773 67.8449 83.927 67.8882L84.7353 67.9265C85.8069 67.9776 86.851 68.0323 87.8674 68.0908C99.8197 68.7689 107.583 69.8702 107.583 71.1126Z" fill="#E9C46A"/>
<g opacity="0.2">
<path d="M68.7315 66.9099C68.7283 67.0186 68.7158 67.1268 68.6941 67.2334C67.9909 67.1219 67.2837 67.0211 66.5724 66.9311C66.5724 66.9029 66.5724 66.8736 66.5724 66.8444C66.579 66.5423 66.6662 66.2473 66.825 65.9899C67.0331 65.6615 67.3493 65.4559 67.6979 65.467C68.0465 65.4781 68.3486 65.7028 68.5355 66.0423C68.6769 66.3091 68.7445 66.6085 68.7315 66.9099Z" fill="#3F3D56"/>
<path d="M68.7895 65.188C68.8142 64.4087 68.3505 63.7618 67.7537 63.743C67.157 63.7242 66.6532 64.3406 66.6285 65.1199C66.6038 65.8992 67.0675 66.5461 67.6643 66.5649C68.2611 66.5837 68.7648 65.9673 68.7895 65.188Z" fill="#3F3D56"/>
<path d="M68.8446 63.4629C68.8693 62.6836 68.4056 62.0367 67.8088 62.0179C67.2121 61.9991 66.7083 62.6155 66.6836 63.3948C66.6589 64.1741 67.1227 64.821 67.7194 64.8398C68.3162 64.8586 68.8199 64.2422 68.8446 63.4629Z" fill="#3F3D56"/>
<path d="M68.8988 61.7378C68.9235 60.9585 68.4597 60.3116 67.863 60.2928C67.2662 60.274 66.7624 60.8904 66.7377 61.6697C66.713 62.449 67.1768 63.0959 67.7736 63.1147C68.3703 63.1336 68.8741 62.5171 68.8988 61.7378Z" fill="#3F3D56"/>
<path d="M68.9529 60.0127C68.9776 59.2334 68.5138 58.5865 67.9171 58.5677C67.3203 58.5489 66.8165 59.1653 66.7918 59.9446C66.7671 60.7239 67.2309 61.3708 67.8277 61.3896C68.4244 61.4085 68.9282 60.792 68.9529 60.0127Z" fill="#3F3D56"/>
<path d="M64.1951 48.043C64.0528 47.8509 63.9245 47.6488 63.8111 47.4384L66.6664 47.0626L63.5929 46.989C63.3186 46.3402 63.1799 45.6424 63.1853 44.9383C63.1907 44.2342 63.34 43.5386 63.6242 42.894L67.6777 45.1561L63.9647 42.2501C64.3393 41.6459 64.8347 41.1252 65.4201 40.7206C66.0055 40.316 66.6683 40.036 67.367 39.8983C68.0658 39.7606 68.7855 39.7681 69.4812 39.9202C70.1769 40.0724 70.8337 40.366 71.4106 40.7826C71.9874 41.1993 72.472 41.7302 72.8339 42.342C73.1958 42.9538 73.4273 43.6335 73.514 44.3385C73.6007 45.0436 73.5407 45.7589 73.3377 46.4398C73.1347 47.1207 72.7932 47.7526 72.3344 48.2959C72.5557 48.5948 72.7437 48.9168 72.8951 49.2562L69.1477 51.0498L73.1214 49.8578C73.3717 50.6812 73.412 51.554 73.2387 52.3969C73.0655 53.2399 72.6842 54.0264 72.1293 54.6853C72.7062 55.466 73.0512 56.3928 73.1248 57.3598C73.1984 58.3268 72.9977 59.2949 72.5456 60.1535C72.0935 61.0121 71.4082 61.7264 70.5682 62.2149C69.7282 62.7033 68.7673 62.9461 67.7954 62.9156C66.8235 62.885 65.8798 62.5823 65.0723 62.042C64.2648 61.5018 63.626 60.7458 63.2291 59.8605C62.8321 58.9752 62.6929 57.9964 62.8275 57.036C62.962 56.0755 63.3649 55.1722 63.99 54.4294C63.3007 53.4965 62.9459 52.3596 62.9826 51.2013C63.0192 50.0431 63.4452 48.9307 64.192 48.043H64.1951Z" fill="#E9C46A"/>
<path opacity="0.1" d="M73.3417 51.5274C73.3063 52.6863 72.879 53.7993 72.1293 54.6854C72.7062 55.466 73.0512 56.3928 73.1248 57.3598C73.1984 58.3268 72.9977 59.2949 72.5456 60.1535C72.0935 61.0121 71.4082 61.7264 70.5682 62.2149C69.7282 62.7034 68.7673 62.9462 67.7954 62.9156C66.8235 62.8851 65.8798 62.5823 65.0723 62.0421C64.2648 61.5018 63.626 60.7458 63.2291 59.8606C62.8321 58.9753 62.6929 57.9965 62.8275 57.036C62.962 56.0756 63.3649 55.1723 63.99 54.4294C63.3262 53.5296 73.3599 50.9481 73.3417 51.5274Z" fill="black"/>
</g>
<g opacity="0.2">
<path d="M53.3743 66.9099C53.3711 67.0186 53.3586 67.1268 53.3369 67.2334C52.6337 67.1219 51.9265 67.0211 51.2152 66.9311C51.2152 66.9029 51.2152 66.8736 51.2152 66.8444C51.2218 66.5423 51.309 66.2473 51.4678 65.9899C51.6759 65.6615 51.9922 65.4559 52.3407 65.467C52.6893 65.4781 52.9914 65.7028 53.1783 66.0423C53.3197 66.3091 53.3873 66.6085 53.3743 66.9099Z" fill="#3F3D56"/>
<path d="M53.4313 65.1885C53.4559 64.4092 52.9922 63.7623 52.3954 63.7435C51.7987 63.7246 51.2949 64.3411 51.2702 65.1204C51.2455 65.8996 51.7093 66.5466 52.306 66.5654C52.9028 66.5842 53.4066 65.9678 53.4313 65.1885Z" fill="#3F3D56"/>
<path d="M53.4864 63.4634C53.5111 62.6841 53.0473 62.0372 52.4506 62.0183C51.8538 61.9995 51.35 62.616 51.3253 63.3953C51.3006 64.1746 51.7644 64.8215 52.3611 64.8403C52.9579 64.8591 53.4617 64.2427 53.4864 63.4634Z" fill="#3F3D56"/>
<path d="M53.5405 61.7383C53.5652 60.959 53.1014 60.3121 52.5047 60.2933C51.9079 60.2744 51.4041 60.8909 51.3794 61.6702C51.3547 62.4495 51.8185 63.0964 52.4152 63.1152C53.012 63.134 53.5158 62.5176 53.5405 61.7383Z" fill="#3F3D56"/>
<path d="M53.5946 60.0131C53.6193 59.2338 53.1556 58.5868 52.5588 58.568C51.962 58.5492 51.4583 59.1657 51.4336 59.945C51.4089 60.7242 51.8726 61.3712 52.4694 61.39C53.0661 61.4088 53.5699 60.7923 53.5946 60.0131Z" fill="#3F3D56"/>
<path d="M48.8379 48.043C48.6956 47.8509 48.5673 47.6488 48.454 47.4384L51.3092 47.0626L48.2357 46.989C47.9614 46.3402 47.8228 45.6424 47.8281 44.9383C47.8335 44.2342 47.9829 43.5386 48.267 42.894L52.3205 45.1561L48.6075 42.2501C48.9821 41.6459 49.4775 41.1252 50.0629 40.7206C50.6483 40.316 51.3111 40.036 52.0099 39.8983C52.7086 39.7606 53.4283 39.7681 54.124 39.9202C54.8198 40.0724 55.4766 40.366 56.0534 40.7826C56.6303 41.1993 57.1148 41.7302 57.4767 42.342C57.8386 42.9538 58.0701 43.6335 58.1568 44.3385C58.2435 45.0436 58.1835 45.7589 57.9805 46.4398C57.7776 47.1207 57.436 47.7526 56.9772 48.2959C57.1985 48.5948 57.3865 48.9168 57.5379 49.2562L53.7906 51.0498L57.7642 49.8578C58.0145 50.6812 58.0548 51.554 57.8816 52.3969C57.7083 53.2399 57.327 54.0264 56.7721 54.6853C57.349 55.466 57.694 56.3928 57.7676 57.3598C57.8413 58.3268 57.6405 59.2949 57.1884 60.1535C56.7363 61.0121 56.0511 61.7264 55.211 62.2149C54.371 62.7033 53.4101 62.9461 52.4382 62.9156C51.4663 62.885 50.5226 62.5823 49.7151 62.042C48.9076 61.5018 48.2689 60.7458 47.8719 59.8605C47.4749 58.9752 47.3357 57.9964 47.4703 57.036C47.6048 56.0755 48.0077 55.1722 48.6328 54.4294C47.9435 53.4965 47.5887 52.3596 47.6254 51.2013C47.662 50.0431 48.088 48.9307 48.8349 48.043H48.8379Z" fill="#E9C46A"/>
<path opacity="0.1" d="M57.9845 51.5274C57.9491 52.6863 57.5219 53.7993 56.7721 54.6854C57.349 55.466 57.694 56.3928 57.7676 57.3598C57.8413 58.3268 57.6405 59.2949 57.1884 60.1535C56.7363 61.0121 56.0511 61.7264 55.211 62.2149C54.371 62.7034 53.4101 62.9462 52.4382 62.9156C51.4663 62.8851 50.5226 62.5823 49.7151 62.0421C48.9076 61.5018 48.2689 60.7458 47.8719 59.8606C47.4749 58.9753 47.3357 57.9965 47.4703 57.036C47.6048 56.0756 48.0077 55.1723 48.6328 54.4294C47.969 53.5296 58.0027 50.9481 57.9845 51.5274Z" fill="black"/>
</g>
<g opacity="0.2">
<path d="M95.3237 68.0123C95.316 68.2182 95.2913 68.4231 95.2499 68.6249C93.8961 68.4093 92.5324 68.2165 91.1591 68.0465C91.1591 67.9921 91.1591 67.9367 91.1591 67.8803C91.1719 67.2984 91.34 66.7304 91.646 66.2348C92.0502 65.603 92.6564 65.207 93.3262 65.2272C93.9961 65.2473 94.5791 65.6816 94.9428 66.3356C95.2171 66.8507 95.3486 67.4295 95.3237 68.0123Z" fill="#3F3D56"/>
<path d="M95.4336 64.6948C95.4812 63.1941 94.5879 61.9482 93.4384 61.912C92.289 61.8758 91.3186 63.063 91.2711 64.5636C91.2235 66.0643 92.1168 67.3103 93.2662 67.3465C94.4157 67.3827 95.3861 66.1955 95.4336 64.6948Z" fill="#3F3D56"/>
<path d="M95.5386 61.3735C95.5862 59.8729 94.6929 58.6269 93.5435 58.5907C92.394 58.5545 91.4236 59.7417 91.3761 61.2424C91.3285 62.743 92.2218 63.989 93.3713 64.0252C94.5207 64.0614 95.4911 62.8742 95.5386 61.3735Z" fill="#3F3D56"/>
<path d="M95.6446 58.0524C95.6922 56.5517 94.7989 55.3058 93.6495 55.2695C92.5 55.2333 91.5296 56.4205 91.4821 57.9212C91.4345 59.4219 92.3278 60.6678 93.4773 60.704C94.6267 60.7402 95.5971 59.5531 95.6446 58.0524Z" fill="#3F3D56"/>
<path d="M95.6312 54.5801C95.6764 53.0786 94.7807 51.8336 93.6307 51.7992C92.4806 51.7648 91.5117 52.954 91.4666 54.4555C91.4214 55.9569 92.3171 57.202 93.4671 57.2364C94.6171 57.2708 95.586 56.0815 95.6312 54.5801Z" fill="#3F3D56"/>
<path d="M86.5893 31.6911C86.3166 31.3212 86.0699 30.933 85.8507 30.5293L91.347 29.8058L85.4314 29.6638C84.903 28.4148 84.6357 27.0714 84.6458 25.7159C84.6558 24.3603 84.9431 23.0211 85.49 21.7801L93.2949 26.134L86.1478 20.5397C86.8704 19.3793 87.825 18.3797 88.9519 17.6034C90.0789 16.8271 91.3541 16.2905 92.6981 16.0272C94.0421 15.7639 95.426 15.7795 96.7637 16.073C98.1014 16.3666 99.3641 16.9317 100.473 17.7332C101.582 18.5348 102.514 19.5555 103.21 20.7319C103.906 21.9083 104.352 23.2151 104.52 24.5708C104.687 25.9265 104.573 27.3022 104.184 28.612C103.795 29.9218 103.14 31.1377 102.26 32.1839C102.685 32.7597 103.047 33.3796 103.34 34.0329L96.1249 37.488L103.774 35.1906C104.256 36.7741 104.335 38.4524 104.003 40.0737C103.67 41.695 102.938 43.2081 101.872 44.476C102.982 45.9789 103.646 47.763 103.788 49.6245C103.929 51.486 103.543 53.3497 102.672 55.0024C101.802 56.6552 100.483 58.0303 98.8657 58.9705C97.2486 59.9108 95.3988 60.3782 93.5279 60.3194C91.6569 60.2606 89.8404 59.6778 88.2858 58.6379C86.7313 57.5979 85.5016 56.1426 84.7374 54.4385C83.9731 52.7344 83.705 50.8501 83.9639 49.0012C84.2228 47.1523 84.9982 45.4134 86.2013 43.9832C84.8751 42.1873 84.1924 39.9991 84.2628 37.7697C84.3332 35.5404 85.1525 33.3993 86.5893 31.6901V31.6911Z" fill="#E9C46A"/>
<path opacity="0.1" d="M104.2 38.3979C104.133 40.6277 103.314 42.7699 101.876 44.4779C102.986 45.9808 103.65 47.765 103.792 49.6265C103.933 51.488 103.547 53.3517 102.676 55.0044C101.806 56.6572 100.487 58.0323 98.8697 58.9725C97.2526 59.9128 95.4028 60.3802 93.5319 60.3214C91.661 60.2625 89.8444 59.6798 88.2899 58.6398C86.7354 57.5999 85.5057 56.1446 84.7414 54.4405C83.9771 52.7363 83.7091 50.8521 83.968 49.0032C84.2268 47.1543 85.0022 45.4154 86.2053 43.9852C84.9182 42.2511 104.235 37.2824 104.2 38.3979Z" fill="black"/>
</g>
<path d="M15.9452 68.1895L17.005 68.1865H18.4993L20.3887 37.5766L39.0992 6.43772L38.2859 5.56713V3.36243L18.0507 36.8551L15.9452 68.1895Z" fill="#F1C0C0"/>
<path opacity="0.1" d="M17.1182 68.1865H18.4994L20.3887 37.5766L39.0992 6.43773L38.2859 5.56714L18.9863 37.1101L17.1182 68.1865Z" fill="black"/>
<path d="M12.8222 68.4445L61.3035 72.1446L61.3449 72.1476L108.264 69.2698L108.299 69.2678V67.2918L56.6003 66.3456L13.4678 66.3043H13.1526L13.1183 66.526L12.8222 68.4445Z" fill="#F1C0C0"/>
<path opacity="0.1" d="M12.8222 68.4445L61.3035 72.1446L61.3449 72.1476L108.264 69.2698L108.299 69.2315V67.3331H108.258L61.3035 68.897L13.4678 66.3043H13.4608L13.3759 66.3597L13.1183 66.526L12.8222 68.4445Z" fill="black"/>
<path opacity="0.1" d="M12.8222 68.4445L61.3035 72.1446V68.897L13.3759 66.3597L13.1183 66.526L12.8222 68.4445Z" fill="black"/>
<path d="M38.2798 5.52583L59.6536 28.4052L58.9928 68.65L60.8084 68.8687L60.8387 68.8727H62.6543L62.8715 30.1332L102.894 43.4662L103.569 67.2061L105.03 67.3693L105.525 67.4248L104.379 41.8198L62.5411 27.1708L39.6003 3.38562H38.2798V5.52583Z" fill="#F1C0C0"/>
<path opacity="0.1" d="M62.7068 29.3927L62.8715 30.1333L102.894 43.4663L103.569 67.2062L105.03 67.3694L103.884 42.9726L62.7068 29.3927Z" fill="black"/>
<path opacity="0.1" d="M38.2798 5.52583L59.6536 28.4051L58.9928 68.65L60.8084 68.8687L61.3035 27.0882L38.2798 3.38562V5.52583Z" fill="black"/>
<path d="M62.7846 45.544L77.4639 48.4268L77.4689 48.4278L103.179 53.4791L104.356 53.0085L104.352 52.9259L104.275 51.2885L62.7998 42.9302L62.7846 45.544Z" fill="#F1C0C0"/>
<path opacity="0.1" d="M77.4689 48.4279L103.179 53.4791L104.356 53.0086L104.352 52.9259L77.4689 48.4279Z" fill="black"/>
<path d="M78.452 35.3236L78.8491 57.1227L79.0542 68.3065L80.8617 68.246L81.9993 68.2077L81.6457 35.639L80.8617 35.379L80.6899 35.3236H78.452Z" fill="#F1C0C0"/>
<path opacity="0.1" d="M78.4681 35.3186V35.3236L78.849 57.1228L79.0541 68.3065L80.8616 68.246V35.3186H78.4681Z" fill="black"/>
<path d="M50.1392 40.8908C50.2452 40.9483 50.3466 41.014 50.4423 41.0873C50.5555 41.1861 50.6572 41.2973 50.7454 41.4188C51.1788 41.978 51.5789 42.628 51.5365 43.3333C51.5374 43.4359 51.518 43.5377 51.4793 43.6328C51.4406 43.7279 51.3835 43.8145 51.3112 43.8875C51.1324 44.0397 50.8757 44.0467 50.6413 44.0467C50.3867 44.0467 50.119 44.0467 49.8987 43.9157C49.6785 43.7847 49.4946 43.5298 49.2339 43.5359C49.1971 43.5419 49.1596 43.5419 49.1228 43.5359C49.0329 43.5066 49.0147 43.3887 48.9561 43.3142C48.8551 43.1802 48.6419 43.2134 48.4833 43.2719C48.3246 43.3303 48.1488 43.418 47.9922 43.3504C47.9013 43.3026 47.827 43.2285 47.779 43.1378C47.4042 42.5333 47.3244 41.8068 47.2537 41.1044C47.2102 40.6772 46.8788 39.2202 47.7932 39.5517C48.1973 39.6968 48.5752 39.987 48.943 40.1996L50.1392 40.8908Z" fill="#3F3D56"/>
<path d="M49.2359 41.0349C49.3176 41.0935 49.4166 41.1231 49.5171 41.1191C49.6176 41.1151 49.7139 41.0776 49.7906 41.0127C49.9411 40.8772 50.0369 40.6916 50.0604 40.4908C50.1614 40.4595 50.2129 40.5915 50.2776 40.6721C50.3908 40.8092 50.6211 40.8072 50.7242 40.9533C50.7959 41.054 50.7797 41.1941 50.8303 41.308C50.8959 41.4551 51.0586 41.5317 51.1697 41.6506C51.2747 41.7805 51.3505 41.9313 51.392 42.0929L51.5577 42.5887C51.637 42.7948 51.688 43.0107 51.7093 43.2305C51.7197 43.3404 51.7081 43.4512 51.6752 43.5566C51.6422 43.662 51.5885 43.7597 51.5173 43.8442C51.295 44.083 50.9303 44.1082 50.608 44.1011C50.5003 44.1034 50.3929 44.0909 50.2887 44.0638C50.0028 43.9752 49.8199 43.688 49.7441 43.3988C49.6684 43.1096 49.6764 42.8063 49.632 42.5101C49.584 42.2191 49.4991 41.9353 49.3794 41.6657C49.2905 41.4561 49.046 41.1437 49.05 40.921C49.1228 40.921 49.1753 40.9875 49.2359 41.0349Z" fill="#3F3D56"/>
<path d="M49.5987 40.0142C49.5514 39.8711 49.5239 39.7223 49.5168 39.5718C49.5168 39.2695 49.6552 38.9854 49.7947 38.7153L48.6398 38.8715C48.5004 38.8907 48.3448 38.9189 48.266 39.0348C48.2361 39.0922 48.2205 39.1559 48.2205 39.2207C48.2205 39.2854 48.2361 39.3491 48.266 39.4066C48.3239 39.5215 48.37 39.6421 48.4034 39.7663C48.406 39.875 48.4186 39.9833 48.4408 40.0897C48.4767 40.168 48.5271 40.2387 48.5893 40.2983C48.9197 40.6631 49.1672 41.0933 49.4138 41.5196C49.4067 41.5075 50.1099 40.9644 50.0816 40.787C50.0654 40.6863 49.8624 40.5653 49.7977 40.4686C49.7084 40.3282 49.6412 40.1749 49.5987 40.0142Z" fill="#BE6F72"/>
<path d="M59.5 36.0773V37.0698L42.4586 40.3849L41.5745 40.9189H38.5243V40.3597L55.2677 36.3251L59.5 36.0773Z" fill="#F1C0C0"/>
<path opacity="0.1" d="M59.5 37.0698L42.4586 40.3849L41.5745 40.919H38.5243L55.3919 37.3187L59.5 37.0698Z" fill="black"/>
<path d="M45.818 64.2527C45.6281 64.0234 45.366 63.8649 45.0743 63.8031C44.7826 63.7412 44.4785 63.7797 44.2115 63.9122C44.1544 63.939 44.104 63.9782 44.064 64.027C43.963 64.1681 44.0276 64.3626 44.0367 64.5369C44.06 64.9621 43.7205 65.3077 43.4154 65.605C43.2517 65.7642 43.085 65.9345 43.0112 66.1511C42.9375 66.3678 42.992 66.6428 43.1901 66.7557C43.2765 66.7989 43.3705 66.8249 43.4669 66.8323C43.7899 66.8951 44.121 66.9043 44.4469 66.8595C44.7692 66.798 45.0855 66.6156 45.2249 66.3194C45.2518 66.2391 45.2963 66.1657 45.3552 66.1048C45.5331 65.9647 45.8058 66.1289 46.0079 66.0292C46.1746 65.9466 46.1817 65.8166 46.1837 65.6453C46.1898 65.1717 46.1191 64.6356 45.818 64.2527Z" fill="#E9C46A"/>
<path d="M48.2428 64.2346C48.367 64.5611 48.3842 64.9168 48.4004 65.2654C48.4095 65.467 48.4155 65.6826 48.3064 65.8529C48.1973 66.0232 47.9841 66.1129 47.78 66.1552C47.3587 66.2418 46.8707 66.1602 46.5989 65.8267C46.3908 65.5718 46.3474 65.2221 46.3858 64.8916C46.4181 64.6206 46.4868 64.3031 46.2918 64.1107C46.2413 64.0593 46.1756 64.023 46.1291 63.9676C46.0281 63.8447 46.0443 63.6593 46.0988 63.5081C46.1699 63.3636 46.2231 63.211 46.2574 63.0537C46.2655 62.9791 47.6255 63.1061 47.7507 63.1675C47.9215 63.2512 47.8952 63.3912 47.9467 63.5605C48.0185 63.7963 48.1559 64.0089 48.2428 64.2346Z" fill="#E9C46A"/>
<path d="M48.4923 49.759C48.7591 49.9313 48.8621 50.2699 48.9035 50.5842C49.0177 51.4458 48.8177 52.3164 48.8025 53.1859C48.7884 54.4042 49.142 55.6446 48.8399 56.8245C48.659 57.5298 48.8126 58.336 48.6429 59.0484C48.5924 59.26 48.4994 59.4595 48.4509 59.6711C48.3499 60.1295 48.456 60.6092 48.5984 61.0576C48.6439 61.1784 48.6728 61.3048 48.6843 61.4334C48.6774 61.6313 48.6271 61.8253 48.5368 62.0017L47.9306 63.4316C47.8629 63.5918 47.5962 63.618 47.4254 63.6391C47.1041 63.6774 46.7454 63.7046 46.4898 63.5061C46.2342 63.3076 46.1726 62.9751 46.1332 62.6647C46.0576 62.0689 46.0238 61.4686 46.0321 60.8681C46.0433 60.7114 46.0293 60.5539 45.9907 60.4016C45.9352 60.2293 45.8129 60.0802 45.7796 59.8978C45.7371 59.662 45.8574 59.4302 45.9018 59.1924C45.9323 58.9752 45.9289 58.7546 45.8917 58.5385C45.8523 58.216 45.8068 57.8936 45.7553 57.5732C45.6826 57.1248 45.7866 56.6824 45.8563 56.233C45.922 55.8108 45.8382 55.3806 45.7553 54.9614C45.7625 55.3016 45.7199 55.641 45.629 55.969C45.5755 56.1292 45.4987 56.2824 45.4522 56.4456C45.2451 57.1782 45.6866 57.947 45.624 58.7058C45.5947 59.0604 45.4552 59.4111 45.4946 59.7607C45.5219 60.0167 45.6411 60.2515 45.723 60.4953C45.8048 60.7392 45.8473 61.0183 45.723 61.246C45.3946 61.8647 45.6401 62.7061 45.9341 63.3409C45.9938 63.4535 46.0458 63.5699 46.0897 63.6895C46.1766 63.9757 46.1039 64.283 46.1271 64.5813C46.0425 64.5951 45.9558 64.5895 45.8737 64.5648C45.7916 64.5402 45.7162 64.4972 45.6533 64.4392C45.6088 64.3928 45.5724 64.3384 45.529 64.2901C45.4076 64.1747 45.2639 64.0852 45.1067 64.0271C45.0144 63.9755 44.9092 63.9514 44.8036 63.9575C44.6925 63.9885 44.5926 64.0503 44.5156 64.1359C44.4157 64.2235 44.3097 64.304 44.1984 64.3767C44.151 64.413 44.0955 64.4376 44.0367 64.4483C44.0071 64.4528 43.9769 64.448 43.9502 64.4344C43.9236 64.4208 43.9019 64.3992 43.8882 64.3727C43.8819 64.3559 43.8781 64.3382 43.8771 64.3203C43.8396 64.016 43.8197 63.7099 43.8175 63.4033C43.8175 62.8763 43.185 62.5136 43.1052 61.9927C43.0415 61.5725 43.1597 61.1442 43.1203 60.721C43.1011 60.5034 43.0405 60.2898 43.0446 60.0721C43.0446 59.931 43.0769 59.793 43.088 59.6529C43.0973 59.4975 43.0949 59.3415 43.0809 59.1864L43.0496 58.6997C43.0193 58.2191 42.986 57.7284 42.796 57.289C42.5708 56.776 42.4374 56.2276 42.402 55.6687C42.3818 55.3161 42.3949 54.9634 42.3545 54.6097C42.3181 54.2903 42.2373 53.9729 42.2605 53.6525C42.2797 53.4046 42.3616 53.1648 42.3808 52.9169C42.4202 52.4403 42.2383 51.9768 42.0959 51.5203C41.9534 51.0639 41.8483 50.558 42.0352 50.1177C42.0619 50.0454 42.1064 49.981 42.1646 49.9303C42.2362 49.883 42.3178 49.8527 42.403 49.8416C44.1365 49.4784 45.9133 49.3654 47.679 49.5061C47.9668 49.5223 48.2462 49.6092 48.4923 49.759Z" fill="#3F3D56"/>
<path d="M42.7566 39.0568C43.6505 39.0568 44.3752 38.3341 44.3752 37.4426C44.3752 36.5511 43.6505 35.8284 42.7566 35.8284C41.8627 35.8284 41.1381 36.5511 41.1381 37.4426C41.1381 38.3341 41.8627 39.0568 42.7566 39.0568Z" fill="#BE6F72"/>
<path d="M42.4434 39.4589C42.4667 39.5512 42.4667 39.6478 42.4434 39.7401C42.418 39.8045 42.3821 39.8644 42.3373 39.9174C42.1807 40.119 42.0073 40.3071 41.819 40.4797C41.9149 40.6933 42.0876 40.8633 42.303 40.9563C42.5168 41.0471 42.7412 41.111 42.9708 41.1467C43.0854 41.1768 43.2047 41.185 43.3224 41.1709C43.4309 41.1437 43.5335 41.0973 43.6255 41.0339L44.5247 40.4968C44.6604 40.4235 44.786 40.3331 44.8986 40.2278C45.0635 40.0587 45.1568 39.8328 45.1592 39.597C45.1634 39.5547 45.1519 39.5124 45.1269 39.4781C45.0924 39.4482 45.0492 39.4301 45.0036 39.4267C44.6874 39.3572 44.4378 39.1012 44.2964 38.811C44.1685 38.5135 44.0858 38.1987 44.0509 37.877L43.0921 38.3808C42.9496 38.4563 42.8082 38.5319 42.6606 38.5974C42.5667 38.6397 42.3767 38.675 42.3101 38.7606C42.1828 38.9188 42.4101 39.2685 42.4434 39.4589Z" fill="#BE6F72"/>
<path d="M41.8251 40.1864C41.6886 40.298 41.582 40.4417 41.5149 40.6046C41.4523 40.8061 41.5149 41.0187 41.5715 41.2182C41.8367 42.0686 42.0393 42.9371 42.1777 43.8169C42.2626 44.4215 42.2939 45.0351 42.3353 45.6468C42.4202 46.8942 42.5435 48.8833 42.7081 50.1227C43.3143 50.1499 43.9054 49.9735 44.5066 49.9091C45.6301 49.7902 46.7869 50.0622 47.8872 49.8083C47.6204 48.7573 47.3537 46.9627 47.087 45.9128C46.9689 45.4991 46.8871 45.076 46.8425 44.6482C46.8192 44.3409 46.8334 44.0325 46.8374 43.7232C46.8465 43.1186 46.8132 42.514 46.7798 41.9095C46.7414 41.2041 46.703 40.4988 46.5353 39.8085C46.5236 39.7206 46.4823 39.6392 46.4181 39.5778C46.3171 39.5042 46.1857 39.5304 46.0655 39.5466C45.6974 39.5932 45.3248 39.5051 45.0168 39.2987C44.8834 39.208 44.7046 39.0972 44.5803 39.1979C44.5273 39.2587 44.4923 39.333 44.4793 39.4125C44.4243 39.5551 44.3394 39.6843 44.2303 39.7915C44.1213 39.8987 43.9905 39.9815 43.8468 40.0343C43.5589 40.1382 43.2573 40.2 42.9516 40.2176C42.8581 40.2377 42.7605 40.2267 42.6738 40.1864C42.5303 40.0987 42.5202 39.7834 42.3394 39.7622C42.1807 39.7441 41.9322 40.0846 41.8251 40.1864Z" fill="#3F3D56"/>
<path d="M44.2156 42.647C43.8428 42.2913 43.6791 41.7754 43.4073 41.3371C43.2222 41.0423 42.9858 40.783 42.7091 40.5713C42.5701 40.4797 42.4425 40.3718 42.3293 40.2498C42.2333 40.132 42.1605 39.9748 42.015 39.9294C41.9549 39.9164 41.8925 39.9181 41.8332 39.9344C41.7739 39.9507 41.7195 39.9812 41.6746 40.0231C41.5855 40.1078 41.5012 40.1973 41.422 40.2912C40.9936 40.7335 40.2409 40.795 39.9014 41.3069C39.8098 41.4154 39.7476 41.5455 39.7206 41.6847C39.6228 42.4297 39.816 43.1837 40.2601 43.7907C40.3461 43.9314 40.4781 44.0381 40.6339 44.093C40.6128 44.2808 40.6377 44.471 40.7067 44.6472C40.8937 45.2849 41.1236 45.9094 41.3947 46.5163C41.3299 46.7537 41.2846 46.996 41.2593 47.2408C41.1886 47.8565 41.2543 48.4812 41.1876 49.0979C41.133 49.6017 40.9855 50.0924 40.9805 50.5972C40.9805 50.6778 40.9875 50.7736 41.0572 50.8149C41.0943 50.8339 41.1359 50.8426 41.1775 50.8401L42.4202 50.8774C43.1416 50.8985 43.87 50.9197 44.5803 50.7867C44.6749 50.7727 44.7666 50.7438 44.8521 50.701C45.0925 50.567 45.1724 50.2647 45.2108 49.9957C45.2609 49.6467 45.2808 49.2941 45.2704 48.9417C45.4209 49.4163 45.5997 49.907 46.0544 50.1126C46.2949 50.2214 46.5697 50.2133 46.8334 50.2063C47.4017 50.181 47.9681 50.1228 48.5297 50.032C48.5643 50.0362 48.5995 50.0324 48.6323 50.0207C48.6652 50.009 48.6948 49.9898 48.7189 49.9646C48.7429 49.9394 48.7607 49.909 48.7709 49.8757C48.781 49.8424 48.7832 49.8073 48.7773 49.773L48.7833 49.2228C48.7954 48.1054 48.5176 47.0373 48.4095 45.9248C48.3751 45.5742 48.3782 45.2195 48.2923 44.8759C48.2569 44.7318 48.2054 44.5907 48.1741 44.4456C48.1471 44.3036 48.1302 44.1598 48.1236 44.0154L48.0448 42.907C48.0074 42.3941 47.9538 41.8993 47.9144 41.3875C47.8928 40.889 47.8203 40.3941 47.6982 39.9103C47.6103 39.608 47.4274 39.2654 47.1112 39.2281C46.9425 39.209 46.7788 39.2825 46.6182 39.3339C46.2233 39.4579 45.7995 39.4561 45.4058 39.3289C45.2841 39.281 45.1573 39.2472 45.0279 39.2281C44.9627 39.2193 44.8964 39.2279 44.8357 39.253C44.775 39.2781 44.7221 39.3189 44.6823 39.3712C44.6431 39.4499 44.6247 39.5373 44.6288 39.6251C44.5813 40.6317 44.4934 41.6686 44.2156 42.647Z" fill="#E9C46A"/>
<path d="M42.5899 42.6773C42.1242 42.1876 41.6463 41.6888 41.0461 41.3775C40.8097 41.2545 40.541 41.1618 40.2793 41.2082C40.0176 41.2545 39.7741 41.4813 39.7862 41.7463C39.7943 41.9105 39.8943 42.0556 39.9257 42.2168C39.962 42.3982 39.9095 42.5917 39.9661 42.767C40.012 42.8825 40.0808 42.9877 40.1681 43.0763L40.8835 43.9218C41.1866 44.2744 41.4897 44.6321 41.8797 44.876C42.2697 45.1198 42.7748 45.2337 43.2032 45.0604C43.508 44.9191 43.7614 44.6871 43.9286 44.3963C44.1065 44.1142 44.2317 43.8059 44.3984 43.5147C44.6579 43.0494 45.0003 42.6352 45.4088 42.2924C45.1986 42.238 44.9349 42.1614 44.8026 41.9901C44.7649 41.9357 44.7327 41.8776 44.7066 41.8168L44.5429 41.4641C44.4873 41.4612 44.4316 41.4699 44.3794 41.4895C44.3273 41.5091 44.2797 41.5392 44.2398 41.578C44.1696 41.6589 44.0944 41.7353 44.0145 41.8067C43.8721 41.9135 43.6791 41.9428 43.5498 42.0647C43.4997 42.117 43.4544 42.1737 43.4144 42.234C43.3166 42.3622 43.1924 42.4681 43.0502 42.5445C42.908 42.621 42.7511 42.6663 42.5899 42.6773Z" fill="#3F3D56"/>
<path d="M45.4462 40.5703C45.7967 39.9325 45.7806 39.1677 45.8806 38.4472C45.8914 38.2564 45.9586 38.0731 46.0736 37.9202C46.2756 37.6925 46.6323 37.6895 46.9374 37.7187C47.0273 37.7288 47.1395 37.7711 47.1344 37.8608C47.1273 37.8929 47.1116 37.9225 47.089 37.9464C46.7932 38.3271 46.6193 38.7878 46.5899 39.2684C46.7485 39.3783 46.994 39.1525 47.1466 39.2684C47.2476 39.3531 47.2011 39.5203 47.1405 39.6413C46.9997 39.9214 46.8546 40.1995 46.705 40.4756C46.5857 40.7189 46.43 40.9428 46.2433 41.1396C46.115 41.2625 45.9645 41.3593 45.8341 41.4802C45.531 41.7633 45.3481 42.1634 45.0349 42.4394C45.0085 42.468 44.9726 42.4863 44.9339 42.4908C44.8941 42.488 44.8565 42.4712 44.8278 42.4435C44.6714 42.3166 44.5416 42.1601 44.4459 41.983C44.3267 41.7633 44.3449 41.6988 44.5328 41.5437C44.8844 41.2666 45.2269 40.9693 45.4462 40.5703Z" fill="#BE6F72"/>
<path d="M42.0039 42.244C42.0645 42.2813 42.1393 42.3236 42.206 42.2924C42.2332 42.276 42.2564 42.2536 42.2737 42.2269C42.3892 42.0732 42.4855 41.906 42.5606 41.7291C42.5735 41.7041 42.5808 41.6766 42.5818 41.6485C42.5818 41.584 42.5243 41.5367 42.4707 41.4994C42.1838 41.317 41.8753 41.1708 41.5523 41.0641C41.2856 40.9633 41.0067 40.8757 40.7238 40.9009C40.6175 40.908 40.5138 40.9365 40.4188 40.9846C40.3238 41.0327 40.2396 41.0995 40.1712 41.181C39.9691 41.4399 40.3076 41.5185 40.5197 41.6122C41.0108 41.8349 41.5422 41.9639 42.0039 42.244Z" fill="#E9C46A"/>
<path opacity="0.1" d="M41.6857 43.9569C41.6823 43.9799 41.6843 44.0034 41.6917 44.0255C41.6991 44.0475 41.7116 44.0675 41.7281 44.0839C41.7574 43.9408 41.719 43.7897 41.7493 43.6456C41.7938 43.4289 42.005 43.2657 42.0231 43.048C41.6362 42.9725 41.6887 43.7232 41.6857 43.9569Z" fill="black"/>
<path opacity="0.2" d="M59.5 36.0773V37.0698L55.392 37.3187L55.2677 36.3251L59.5 36.0773Z" fill="black"/>
<path d="M41.2997 37.6825C41.5563 37.4739 41.4078 37.0366 41.5816 36.7565C41.6826 36.6033 41.8534 36.5227 42.0211 36.4542C42.2235 36.3597 42.4404 36.2998 42.6627 36.2769C42.774 36.2662 42.8863 36.2807 42.9913 36.3192C43.0962 36.3578 43.1911 36.4194 43.2689 36.4995C43.3346 36.5741 43.379 36.6648 43.4406 36.7424C43.517 36.8329 43.6164 36.9011 43.7285 36.9398C43.8406 36.9785 43.9611 36.9862 44.0772 36.962C44.2115 36.9318 44.351 36.83 44.3419 36.693C44.3267 36.6097 44.284 36.5338 44.2206 36.4774L43.9317 36.158C43.6033 35.7952 43.2386 35.4103 42.7566 35.3196C42.4212 35.2561 42.0777 35.3458 41.7544 35.4536C41.624 35.4969 41.4775 35.5614 41.4412 35.6934C41.4169 35.7841 41.4533 35.8829 41.4321 35.9746C41.3907 36.1569 41.1563 36.2184 41.0471 36.3716C40.938 36.5247 40.9714 36.7061 40.94 36.8754C40.9087 37.0447 40.8178 37.2099 40.8067 37.3852C40.7996 37.491 40.8532 37.6875 40.9724 37.7258C41.0916 37.7641 41.226 37.5565 41.2997 37.6825Z" fill="#3F3D56"/>
<path d="M44.2439 36.5478C44.1587 36.1045 43.975 35.6858 43.7064 35.3225C43.4675 34.9831 43.1352 34.7199 42.7496 34.5648C42.5568 34.4897 42.3495 34.4591 42.1432 34.4753C41.9369 34.4915 41.7369 34.5542 41.5584 34.6585C41.2933 34.8472 41.087 35.1067 40.9633 35.4072C40.7016 35.9694 40.6046 36.6566 40.9087 37.1967C41.03 37.0496 41.2381 37.1161 41.422 37.0627C41.6523 36.9972 41.8473 36.8441 42.0666 36.7483C42.7283 36.4571 43.5366 36.6929 44.2439 36.5478Z" fill="#FED253"/>
<path opacity="0.1" d="M41.0633 36.5166C41.0401 36.3352 41.0249 36.1246 41.1542 35.9957C41.1607 35.9878 41.1688 35.9815 41.1781 35.9773C41.1874 35.9731 41.1976 35.9711 41.2078 35.9715C41.2168 35.9744 41.2251 35.9791 41.2322 35.9854C41.2394 35.9916 41.2451 35.9992 41.2492 36.0078C41.3238 36.1253 41.3874 36.2494 41.4391 36.3786C41.3638 36.3613 41.2851 36.3669 41.213 36.3947C41.141 36.4226 41.0789 36.4714 41.035 36.5348" fill="black"/>
<path opacity="0.1" d="M43.4245 36.0048L43.3881 35.6451C43.3822 35.6154 43.3847 35.5847 43.3952 35.5564C43.4104 35.5327 43.4339 35.5154 43.4612 35.508C43.4884 35.5005 43.5174 35.5034 43.5427 35.5161C43.5924 35.5435 43.6333 35.5844 43.6609 35.634C43.745 35.7627 43.8148 35.9002 43.869 36.0441C43.7063 36.0128 43.5389 36.0149 43.377 36.0501" fill="black"/>
<path opacity="0.1" d="M44.3287 50.6044V51.4266L43.6326 51.4729H39.9711V50.6044H44.3287Z" fill="black"/>
<path d="M44.3287 50.6043V51.4729H39.9711L28.3946 37.0103V36.3271H30.8215L44.3287 50.6043Z" fill="#F1C0C0"/>
<path opacity="0.1" d="M44.3287 50.6043V51.4729H39.9711L28.3946 37.0103V36.3271H30.8215L44.3287 50.6043Z" fill="black"/>
<path opacity="0.1" d="M44.3287 50.6043V51.4729H39.9711L28.3946 37.0103V36.3271L40.0338 50.6043H44.3287Z" fill="black"/>
<path d="M29.9122 65.1002C29.9198 65.1411 29.9189 65.1831 29.9095 65.2236C29.9001 65.2641 29.8824 65.3022 29.8576 65.3356C29.8327 65.369 29.8012 65.3969 29.7651 65.4176C29.7289 65.4383 29.6889 65.4513 29.6475 65.4559C29.3666 65.5506 29.0685 65.6443 28.8695 65.8589C28.6705 66.0736 28.6311 66.4716 28.8695 66.6459C28.9914 66.7192 29.1313 66.7572 29.2736 66.7557C29.7313 66.787 30.2082 66.7809 30.6234 66.5875C30.9205 66.4504 31.2004 66.2166 31.5267 66.2378C31.6954 66.2479 31.8753 66.3265 32.0258 66.2499C32.1763 66.1733 32.2188 65.9597 32.2198 65.7814C32.2236 65.409 32.1673 65.0385 32.0531 64.684C32.0379 64.6357 31.3953 64.5984 31.3186 64.5833L30.5396 64.4825C30.3921 64.4634 30.0738 64.3525 29.9576 64.4755C29.8414 64.5984 29.9122 64.9541 29.9122 65.1002Z" fill="#E9C46A"/>
<path d="M34.5607 62.5851C34.5937 62.7665 34.6473 62.9437 34.7204 63.1131C34.8285 63.3872 34.9669 63.6784 35.2316 63.8114C35.4721 63.9313 35.7671 63.8879 36.0116 63.7741C36.1136 63.7319 36.2031 63.6643 36.2712 63.5776C36.3501 63.4405 36.3854 63.2827 36.3723 63.1252C36.3723 62.7352 36.349 62.3322 36.1702 61.9855C36.0166 61.6832 35.7489 61.4233 35.7449 61.0887L34.8244 61.2661C34.7752 61.2708 34.7282 61.2893 34.689 61.3195C34.6599 61.3501 34.6396 61.3881 34.6304 61.4293C34.5322 61.8064 34.5085 62.199 34.5607 62.5851Z" fill="#E9C46A"/>
<path d="M23.5692 53.0126C23.5309 53.3371 23.547 53.6847 23.7168 53.9649C23.8865 54.245 24.2442 54.4304 24.5533 54.3185C24.5692 54.3145 24.584 54.3073 24.597 54.2975C24.6101 54.2876 24.621 54.2752 24.6291 54.2611C24.6373 54.2271 24.6326 54.1912 24.616 54.1603C24.4795 53.7971 24.4907 53.395 24.6473 53.0399C24.6675 52.9935 24.7109 52.9391 24.7584 52.9572C24.7783 52.9673 24.7943 52.9836 24.8039 53.0036C24.8528 53.088 24.8773 53.1842 24.8746 53.2817C24.8603 53.37 24.8576 53.4597 24.8665 53.5487C24.8857 53.6354 24.9787 53.717 25.0595 53.6797C25.0829 53.6654 25.1031 53.6465 25.1189 53.6241C25.1347 53.6018 25.1458 53.5765 25.1514 53.5497C25.3767 52.8998 25.2747 52.1894 25.1716 51.5093C25.1725 51.4936 25.1699 51.478 25.1641 51.4635C25.1582 51.449 25.1492 51.436 25.1378 51.4253C25.1263 51.4146 25.1126 51.4066 25.0977 51.4018C25.0828 51.397 25.067 51.3955 25.0514 51.3974C24.5745 51.3501 24.3139 51.2362 24.0411 51.6785C23.8067 52.0514 23.5692 52.5642 23.5692 53.0126Z" fill="#E9C46A"/>
<path d="M29.1443 51.3591C29.0029 51.9455 28.8604 52.539 28.8513 53.1416C28.8538 53.5169 28.8822 53.8916 28.9362 54.2631L29.0423 55.1357C29.0786 55.4299 29.114 55.7231 29.1655 56.0143C29.1984 56.1643 29.2163 56.3172 29.2191 56.4708C29.2092 56.6221 29.1852 56.7723 29.1473 56.9192C29.0838 57.2277 29.0483 57.5414 29.0413 57.8563C29.0301 58.3601 29.0928 58.8639 29.1322 59.3677C29.2109 60.3717 29.199 61.3807 29.0968 62.3826C29.056 62.653 29.1149 62.929 29.2625 63.1594C29.3224 63.2321 29.3718 63.3128 29.409 63.3993C29.4848 63.63 29.308 63.8608 29.2625 64.0976C29.2334 64.2822 29.279 64.4708 29.3893 64.6219C29.4995 64.7731 29.6654 64.8744 29.8505 64.9037C30.6588 64.9994 31.4893 64.9561 32.2178 65.3248C32.2946 65.1012 32.1268 64.8472 32.2036 64.6195C32.2521 64.4784 32.3855 64.3867 32.4764 64.2678C32.5986 64.0867 32.6595 63.8713 32.6502 63.6532C32.6538 63.3685 32.603 63.0857 32.5007 62.8199C32.4148 62.5982 32.2915 62.3795 32.2986 62.1417C32.2986 62.0248 32.34 61.9019 32.2925 61.7941C32.26 61.7322 32.2157 61.6771 32.1622 61.6319C31.8602 61.302 31.6747 60.8827 31.6338 60.4378C31.5944 59.9964 31.6086 59.5518 31.6762 59.1138C31.7257 58.6966 31.7924 58.2563 32.0581 57.9308C31.9349 56.944 32.0074 55.9425 32.2713 54.9835C32.2976 54.8948 32.339 54.7921 32.4299 54.7709C32.4661 54.7672 32.5026 54.7722 32.5363 54.7856C32.5701 54.7989 32.6001 54.8201 32.6239 54.8475C32.7826 54.9956 32.8583 55.2102 32.927 55.4158C33.0028 55.6385 33.0796 55.8763 33.022 56.104C32.9978 56.2048 32.9493 56.2934 32.921 56.3902C32.8595 56.5846 32.8703 56.7945 32.9513 56.9816C32.9908 57.05 33.0155 57.1259 33.024 57.2043C33.0147 57.2717 32.9942 57.3371 32.9634 57.3978C32.9259 57.517 32.914 57.6428 32.9285 57.7669C32.9429 57.891 32.9834 58.0108 33.0473 58.1183C33.176 58.3322 33.3349 58.5267 33.5191 58.6956C33.4311 59.0824 33.4539 59.486 33.5848 59.8605C33.5942 59.8773 33.6002 59.8959 33.6025 59.9151C33.6047 59.9343 33.6032 59.9537 33.5979 59.9723C33.5797 60.0106 33.5332 60.0247 33.4969 60.0519C33.3958 60.1345 33.4585 60.2907 33.5262 60.3985C33.7117 60.6945 33.9166 60.9779 34.1394 61.247C34.3415 61.4878 34.3233 61.9523 34.6244 62.039C34.7509 62.0662 34.8818 62.0662 35.0083 62.039C35.3054 61.9936 35.6368 61.908 35.7823 61.646C35.8419 61.5382 35.8661 61.4072 35.9591 61.3266C36.052 61.246 36.1723 61.2318 36.2238 61.1351C36.2753 61.0384 36.2177 60.9114 36.2349 60.7996C36.2521 60.6877 36.3501 60.598 36.3814 60.4801C36.4562 60.2081 36.1379 59.9844 36.0945 59.7063C36.0318 59.3032 36.541 59.0009 36.5198 58.5979C36.4754 57.7223 36.4471 56.8426 36.4016 55.967C36.3445 55.1826 36.3364 54.3955 36.3774 53.6101C36.4127 53.1214 36.4784 52.6095 36.2985 52.1551C36.0399 51.5142 35.3266 51.1545 34.6365 51.086C33.9465 51.0175 33.2584 51.1807 32.5744 51.2875C31.4392 51.462 30.2859 51.4861 29.1443 51.3591Z" fill="#3F3D56"/>
<path d="M31.1953 41.7281C32.0892 41.7281 32.8139 41.0054 32.8139 40.1139C32.8139 39.2224 32.0892 38.4996 31.1953 38.4996C30.3014 38.4996 29.5767 39.2224 29.5767 40.1139C29.5767 41.0054 30.3014 41.7281 31.1953 41.7281Z" fill="#FBBEBE"/>
<path d="M30.5365 42.0294C30.4816 42.1571 30.3891 42.2651 30.2713 42.3394C30.1536 42.4137 30.016 42.4507 29.8768 42.4455C29.8182 42.6873 29.9586 42.9312 30.1193 43.1216C30.4529 43.5088 30.8839 43.8002 31.3681 43.9658C31.8522 44.1314 32.3719 44.1652 32.8735 44.0638C33.0687 44.0289 33.2538 43.9519 33.416 43.8381C33.6346 43.656 33.7814 43.4025 33.8303 43.1226C33.8768 42.8447 33.89 42.5623 33.8697 42.2813C33.8753 42.2258 33.8594 42.1702 33.8252 42.1261C33.7848 42.0949 33.7349 42.0785 33.6838 42.0797C33.3423 42.0495 32.9856 42.0364 32.6855 41.8692C32.3855 41.7019 32.1723 41.324 32.3168 41.0137C32.2935 41.062 31.7035 41.0852 31.6257 41.0953C31.3822 41.1295 31.1387 41.1678 30.8962 41.2122C30.7797 41.2186 30.6646 41.2402 30.5537 41.2767C30.4072 41.3522 30.4618 41.315 30.4961 41.452C30.5477 41.6616 30.6234 41.8117 30.5365 42.0294Z" fill="#FBBEBE"/>
<path d="M31.7682 43.0108C31.5502 43.0133 31.3327 42.9893 31.1205 42.9393C30.9063 42.8894 30.7175 42.7637 30.5891 42.5856C30.5143 42.4728 30.4658 42.3307 30.3466 42.2672C30.1516 42.1664 29.9293 42.3367 29.7738 42.4929C29.6321 42.6469 29.4679 42.7787 29.2868 42.8839C29.0706 42.9977 28.818 43.038 28.6139 43.1721C28.4544 43.2922 28.3176 43.4396 28.2097 43.6074L26.7781 45.5521C26.2032 46.334 25.7031 47.1734 25.1908 47.9986C24.7473 48.713 24.5149 49.5353 24.1805 50.3061C24.154 50.3533 24.1431 50.4076 24.1492 50.4613C24.1613 50.5137 24.225 50.556 24.2694 50.5258C24.1189 50.6749 24.2512 50.9288 24.2159 51.1384C24.1757 51.2851 24.0918 51.4161 23.9754 51.5143C24.1978 51.4853 24.4235 51.4959 24.6422 51.5455C24.8682 51.6094 25.0815 51.7116 25.2727 51.8478C25.3949 51.8286 25.3838 51.612 25.4748 51.5314C25.5293 51.484 25.6101 51.4901 25.6819 51.476C25.9516 51.4236 26.0587 51.1001 26.2658 50.9177C26.4386 50.7656 26.6831 50.7162 26.866 50.5731C27.163 50.3404 27.2267 49.9262 27.3823 49.5826C27.5146 49.2914 27.7228 49.0375 27.8389 48.7392C27.9147 48.5458 27.9511 48.3362 28.0592 48.1578C28.232 47.8696 28.5573 47.7165 28.8675 47.5784C29.0635 47.4908 29.2716 47.4001 29.4828 47.4142C29.4717 47.8827 29.412 48.3442 29.5141 48.8017C29.5495 48.9629 29.599 49.1201 29.6414 49.2803C29.8344 50.0018 29.8798 50.7535 29.8889 51.4971C30.3531 51.3912 30.8273 51.3345 31.3034 51.3278C31.6782 51.3168 32.0521 51.3651 32.4269 51.3581C32.8715 51.35 33.311 51.2644 33.7555 51.2341C34.2001 51.2039 34.6648 51.2341 35.0578 51.4357C35.0259 50.7971 35.0438 50.157 35.1114 49.5212L35.2185 48.5196C35.2426 48.2286 35.2876 47.9397 35.3529 47.655C35.4115 47.4253 35.4963 47.2036 35.561 46.9749C35.7883 46.1688 35.7469 45.3082 35.7034 44.4689C35.6812 44.0376 35.5145 43.6134 35.3185 43.2295C35.2476 43.0869 35.1665 42.9495 35.076 42.8184C34.8392 42.4929 34.5235 42.2326 34.1585 42.0617C33.7935 41.8908 33.391 41.8148 32.9887 41.841C32.9373 41.8426 32.8866 41.8535 32.8391 41.8732C32.7538 41.9277 32.6872 42.0068 32.6482 42.0999C32.4391 42.4746 32.1358 42.7886 31.7682 43.0108Z" fill="#3F3D56"/>
<path d="M29.7717 40.6489C29.8172 40.5482 29.9394 40.5109 30.0142 40.4303C30.1577 40.2771 30.093 40.0323 30.1152 39.8257C30.1516 39.5234 30.4032 39.2705 30.6911 39.1627C30.9848 39.0687 31.2972 39.049 31.6004 39.1052C31.7464 39.1159 31.8874 39.1626 32.0106 39.2413C32.0632 39.2796 32.1117 39.3289 32.1612 39.3642C32.2514 39.4186 32.3594 39.4357 32.4621 39.4118C32.5648 39.3879 32.654 39.3249 32.7108 39.2362C32.3531 38.807 31.9571 38.3535 31.4135 38.2215C31.2271 38.1836 31.037 38.1657 30.8467 38.1681C30.5951 38.1631 30.3355 38.1591 30.1031 38.2548C29.7869 38.3848 29.5646 38.6841 29.4504 39.0065C29.3506 39.3333 29.2972 39.6725 29.2918 40.0141C29.2711 40.2421 29.2711 40.4714 29.2918 40.6993C29.3309 41.0106 29.4468 41.3073 29.6293 41.5629C29.6539 41.6025 29.6888 41.6349 29.7303 41.6566C30.191 41.8581 29.7343 40.7326 29.7717 40.6489Z" fill="#3F3D56"/>
<path d="M32.6583 38.9874C32.6027 38.5128 32.2632 38.1208 31.9025 37.8054C31.6118 37.5319 31.2655 37.324 30.8871 37.1958C30.5062 37.0839 30.0677 37.1081 29.7414 37.3348C29.4787 37.5172 29.312 37.8074 29.1837 38.0996C29.0151 38.4445 28.9316 38.8245 28.9402 39.208C28.9655 39.5889 29.1514 39.9748 29.4828 40.1673C29.602 39.992 29.8091 39.9013 30.0081 39.8297C30.8756 39.5015 31.7603 39.2203 32.6583 38.9874Z" fill="#FED253"/>
<path opacity="0.1" d="M29.5939 38.7898C29.6262 38.7898 29.6474 38.8231 29.6636 38.8503C29.7459 38.9781 29.8165 39.113 29.8748 39.2534C29.7566 39.2785 29.5535 39.3068 29.4949 39.203C29.4636 39.1506 29.5009 38.7848 29.5939 38.7898Z" fill="black"/>
<path opacity="0.1" d="M31.8965 38.5621C31.8722 38.5853 31.8439 38.538 31.8439 38.5037V38.1127C31.8433 38.1019 31.8457 38.091 31.851 38.0815C31.8552 38.0767 31.8603 38.0728 31.866 38.0701C31.8717 38.0673 31.878 38.0657 31.8843 38.0654C31.9662 38.0563 32.0339 38.1258 32.0864 38.1923C32.1661 38.3001 32.2355 38.4152 32.2935 38.5359L31.8661 38.5228" fill="black"/>
<path d="M37.2301 45.0362C37.323 44.9482 37.4223 44.867 37.5271 44.7933C37.807 44.6069 38.1454 44.5334 38.4596 44.4145C38.7739 44.2956 39.0931 44.1031 39.2154 43.7908C39.2766 43.5954 39.2965 43.3896 39.274 43.1862C39.2769 43.101 39.2618 43.0162 39.2295 42.9373C39.1911 42.8676 39.1363 42.8081 39.0699 42.764C38.6435 42.4496 38.0717 42.4244 37.5423 42.4566C36.3751 42.5288 35.231 42.8137 34.1667 43.297C34.1104 43.3156 34.0611 43.3507 34.0252 43.3978C34.0045 43.4414 33.9951 43.4896 33.998 43.5378C33.9791 43.835 34.0179 44.133 34.1121 44.4155C34.2516 44.7742 34.5385 45.0634 34.6587 45.4292C34.7133 45.5934 34.7315 45.7677 34.779 45.933C34.8179 46.1036 34.9191 46.2538 35.0629 46.3542C35.462 46.592 35.8388 46.2726 36.1156 46.0247L37.2301 45.0362Z" fill="#3F3D56"/>
<path d="M32.0036 46.4318L31.4913 45.3173C31.4162 45.1629 31.3514 45.0037 31.2974 44.8407C31.2388 44.6462 31.2105 44.4447 31.1559 44.2492C30.9761 43.5983 30.5224 43.0562 30.3012 42.4184C30.2872 42.3608 30.2586 42.3077 30.2183 42.2642C30.186 42.2414 30.1491 42.226 30.1102 42.219C30.0712 42.2121 30.0312 42.2137 29.993 42.2239C29.6838 42.2773 29.4424 42.5121 29.1595 42.6451C29.0281 42.7055 28.8867 42.7458 28.7553 42.8154C28.6897 42.8464 28.6315 42.8911 28.5848 42.9466C28.5381 43.0021 28.5039 43.067 28.4846 43.1368C28.4532 43.291 28.53 43.4391 28.5947 43.5892C28.8695 44.2079 28.9321 44.8992 28.9443 45.5763C28.9534 46.0317 28.9301 46.5204 28.6604 46.8862C28.1421 47.5916 28.4734 48.6274 28.6674 49.4809C28.6907 49.5816 28.718 49.6905 28.7341 49.7973C28.7512 49.9309 28.759 50.0656 28.7574 50.2003C28.7574 50.6527 28.7321 51.1193 28.5422 51.5294C28.7297 51.6289 28.9364 51.6873 29.1484 51.7007C29.735 51.7752 30.3241 51.8276 30.9154 51.8579C31.1007 51.8752 31.2876 51.8657 31.4701 51.8297C31.6869 51.7712 31.878 51.6424 32.0132 51.4636C32.1484 51.2848 32.22 51.0661 32.2168 50.8422C32.2491 51.1213 32.3087 51.4246 32.5118 51.6181C32.7149 51.8115 33.0109 51.8407 33.2867 51.8559C34.0652 51.897 34.8457 51.8751 35.6206 51.7904C35.6701 51.7881 35.7187 51.7769 35.7641 51.7571C35.9136 51.6825 35.9217 51.477 35.9096 51.3117C35.8873 51.0024 35.8641 50.693 35.8267 50.3857C35.795 50.1898 35.7788 49.9917 35.7782 49.7932C35.7936 49.5891 35.8274 49.3867 35.8793 49.1886C36.0146 48.5599 36.1217 47.918 36.0763 47.2741C36.0583 47.1173 36.0519 46.9593 36.0571 46.8016C36.0833 46.4459 36.2713 46.1073 36.2359 45.7536C36.1349 44.7138 36.053 43.6467 35.7621 42.6431C35.7095 42.4637 35.6428 42.2712 35.4862 42.1685C35.2842 42.0334 35.0003 42.104 34.7689 42.0183C34.6603 41.9679 34.5571 41.9068 34.4607 41.836C34.2514 41.7054 34.0114 41.6317 33.7646 41.6223C33.5787 41.6153 33.3716 41.6566 33.2594 41.8057C33.2075 41.8897 33.1731 41.9833 33.1584 42.0808C33.0119 42.6955 32.8401 43.3031 32.6684 43.9107L32.5037 44.4931L32.0622 46.0569C32.0187 46.2232 32.048 46.2746 32.0036 46.4318Z" fill="#E9C46A"/>
<path d="M34.587 40.3306L44.36 50.5732V51.4417H40.0024L32.6583 41.8823" fill="#F1C0C0"/>
<path opacity="0.1" d="M34.587 40.3306L44.36 50.5732V51.4417H40.0024L32.6583 41.8823" fill="black"/>
<path opacity="0.1" d="M32.8139 41.7473L32.8452 41.7584L40.0651 50.5732H44.36V51.4418H40.0024L32.6583 41.8823L32.8139 41.7473Z" fill="black"/>
<path d="M33.9384 41.9628C33.5848 42.117 33.1917 42.3145 33.0857 42.6853C33.0647 42.7504 33.0602 42.8196 33.0725 42.8868C33.0984 42.9659 33.1476 43.0353 33.2138 43.0858C33.28 43.1364 33.36 43.1657 33.4433 43.17C33.6097 43.174 33.7751 43.1438 33.9293 43.0813L36.0156 42.3941C36.0722 42.376 36.1369 42.3488 36.151 42.2933C36.1547 42.2585 36.1476 42.2234 36.1308 42.1926C36.0662 42.0354 36.0025 41.714 35.8671 41.6041C35.756 41.5155 35.5357 41.5467 35.4014 41.5487C34.8841 41.5527 34.3981 41.7613 33.9384 41.9628Z" fill="#E9C46A"/>
<path d="M35.7984 42.4758C36.1499 42.4748 36.4993 42.5288 36.834 42.636C37.1702 42.7449 37.4679 42.9477 37.6918 43.2204C37.757 43.2967 37.8034 43.3871 37.8272 43.4844C37.8474 43.5852 38.1767 43.6457 38.104 43.7142C38.3253 43.6789 38.2727 43.7827 38.497 43.7807C38.7213 43.7787 38.9638 43.7212 39.0982 43.5429C39.1915 43.3964 39.2331 43.2229 39.2164 43.0502C39.2193 42.9305 39.1966 42.8117 39.1497 42.7015C39.0487 42.4899 38.8163 42.376 38.6021 42.2783L36.7976 41.4551C36.693 41.3995 36.5806 41.3598 36.4642 41.3372C36.3663 41.3279 36.2676 41.3303 36.1702 41.3442L35.3528 41.4379C35.5316 41.5533 35.6771 41.7131 35.7751 41.9017C35.8731 42.0902 35.9201 42.3009 35.9116 42.5131" fill="#3F3D56"/>
</g>
<defs>
<clipPath id="clip0_1_419">
<rect width="119" height="73" fill="white"/>
</clipPath>
</defs>
</svg>
