<svg width="107" height="111" viewBox="0 0 107 111" fill="none" xmlns="http://www.w3.org/2000/svg">
<g clip-path="url(#clip0_1_378)">
<path d="M51.3052 108.424C51.6185 108.444 51.7917 108.057 51.5546 107.832L51.531 107.738C51.5341 107.731 51.5372 107.724 51.5404 107.716C51.8573 106.965 52.9312 106.97 53.2454 107.722C53.5242 108.39 53.8793 109.058 53.9667 109.764C54.0059 110.075 53.9883 110.393 53.9187 110.698C54.5721 109.28 54.916 107.731 54.916 106.174C54.916 105.783 54.8944 105.391 54.8503 105.001C54.8141 104.682 54.7641 104.364 54.6995 104.05C54.3497 102.35 53.5925 100.731 52.5002 99.3793C51.9751 99.0941 51.5372 98.6482 51.2727 98.1138C51.1777 97.9211 51.1033 97.7138 51.068 97.5025C51.1277 97.5103 51.2933 96.606 51.2482 96.5505C51.3315 96.4249 51.4806 96.3625 51.5715 96.24C52.0239 95.6306 52.647 95.737 52.9724 96.5651C53.6674 96.9136 53.6741 97.4917 53.2477 98.0476C52.9764 98.4013 52.9391 98.8799 52.701 99.2586C52.7255 99.2897 52.751 99.3199 52.7755 99.3511C53.2246 99.9235 53.613 100.539 53.9405 101.185C53.8479 100.467 53.9846 99.6013 54.2175 99.0435C54.4826 98.4079 54.9796 97.8726 55.4173 97.3231C55.943 96.6631 57.021 96.9511 57.1136 97.7878C57.1145 97.7959 57.1153 97.804 57.1162 97.8121C57.0512 97.8485 56.9875 97.8872 56.9253 97.9281C56.5705 98.1613 56.6931 98.7079 57.1135 98.7724L57.1231 98.7738C57.0995 99.0065 57.0594 99.2372 57.0006 99.464C57.5621 101.622 56.3499 102.407 54.6191 102.443C54.5809 102.462 54.5437 102.482 54.5055 102.5C54.6808 102.991 54.8209 103.494 54.9248 104.004C55.0178 104.455 55.0825 104.91 55.1187 105.368C55.1638 105.945 55.1599 106.525 55.1109 107.102L55.1138 107.081C55.2382 106.446 55.585 105.854 56.0886 105.443C56.8387 104.831 57.8984 104.605 58.7077 104.113C59.0972 103.876 59.5964 104.182 59.5284 104.631L59.5251 104.652C59.4046 104.701 59.287 104.758 59.1734 104.821C59.1084 104.857 59.0447 104.896 58.9825 104.937C58.6277 105.17 58.7503 105.717 59.1707 105.781L59.1803 105.783C59.1871 105.784 59.193 105.785 59.1998 105.786C58.9931 106.273 58.7051 106.726 58.3446 107.116C57.9936 109 56.4857 109.178 54.8728 108.63H54.8719C54.6955 109.393 54.4379 110.139 54.1068 110.849H51.3736C51.3638 110.819 51.355 110.788 51.3462 110.758C51.5989 110.773 51.8536 110.759 52.1025 110.713C51.8997 110.466 51.6969 110.217 51.4941 109.969C51.4892 109.964 51.4853 109.96 51.4814 109.955C51.3785 109.828 51.2747 109.703 51.1718 109.576L51.1718 109.576C51.1653 109.187 51.2123 108.8 51.3052 108.424Z" fill="#F2F2F2"/>
<path d="M11.7546 108.424C11.8474 108.8 11.8944 109.187 11.888 109.576L11.8879 109.576C11.785 109.703 11.6812 109.828 11.5783 109.955C11.5744 109.96 11.5705 109.964 11.5656 109.969C11.3628 110.217 11.16 110.466 10.9573 110.713C11.2061 110.759 11.4608 110.773 11.7135 110.758C11.7047 110.788 11.6959 110.819 11.6861 110.849H8.95296C8.62184 110.139 8.3642 109.393 8.18787 108.63H8.18689C6.57399 109.178 5.06616 109 4.7151 107.116C4.3546 106.726 4.0666 106.273 3.8599 105.786C3.86674 105.785 3.87262 105.784 3.87948 105.783L3.88901 105.781C4.30944 105.717 4.43207 105.17 4.07724 104.937C4.01503 104.896 3.95134 104.857 3.88634 104.821C3.7727 104.758 3.65515 104.701 3.53466 104.652L3.53135 104.631C3.46337 104.182 3.96254 103.876 4.35208 104.113C5.16131 104.605 6.22106 104.831 6.97117 105.443C7.4747 105.854 7.82149 106.446 7.9459 107.081L7.94884 107.102C7.89985 106.525 7.89593 105.945 7.941 105.368C7.97724 104.91 8.0419 104.455 8.13497 104.004C8.2388 103.494 8.37889 102.991 8.55425 102.5C8.51604 102.482 8.47881 102.462 8.4406 102.443C6.70982 102.407 5.49769 101.622 6.05914 99.464C6.00036 99.2372 5.9602 99.0065 5.93669 98.7738L5.94621 98.7724C6.36664 98.7079 6.48927 98.1613 6.13444 97.9281C6.07223 97.8872 6.00855 97.8485 5.94354 97.8121C5.9444 97.804 5.94527 97.7959 5.94617 97.7878C6.03879 96.9511 7.11677 96.6631 7.64246 97.3231C8.08011 97.8726 8.57709 98.4079 8.84224 99.0435C9.07517 99.6013 9.2118 100.467 9.11926 101.185C9.44671 100.539 9.83514 99.9235 10.2843 99.3511C10.3087 99.3199 10.3342 99.2897 10.3587 99.2586C10.1207 98.8799 10.0834 98.4013 9.81207 98.0476C9.38563 97.4917 9.39236 96.9136 10.0874 96.5651C10.4127 95.737 11.0359 95.6306 11.4882 96.24C11.5792 96.3625 11.7282 96.4249 11.8115 96.5505C11.7664 96.606 11.932 97.5103 11.9917 97.5025C11.9565 97.7138 11.882 97.9211 11.787 98.1138C11.5225 98.6482 11.0846 99.0941 10.5595 99.3793C9.46726 100.731 8.71 102.35 8.36029 104.05C8.29562 104.364 8.24567 104.682 8.20941 105.001C8.16534 105.391 8.14378 105.783 8.14378 106.174C8.14378 107.731 8.48763 109.28 9.14104 110.698C9.07148 110.393 9.05385 110.075 9.09304 109.764C9.18046 109.058 9.53549 108.39 9.81435 107.722C10.1285 106.97 11.2025 106.965 11.5193 107.716C11.5225 107.724 11.5256 107.731 11.5287 107.738L11.5051 107.832C11.2681 108.057 11.4413 108.444 11.7546 108.424Z" fill="#F2F2F2"/>
<path d="M40.7002 69.5246H23.8585L23.877 69.3574L29.8497 15.3795H35.5484L35.5613 15.516L40.7002 69.5246ZM24.652 69.2232H39.9118L35.2723 15.6809H30.1215L24.652 69.2232Z" fill="#3F3D56"/>
<path d="M45.1009 71.7123H19.1113V69.2231H45.1009V71.7123ZM19.4146 71.4108H44.7975V69.5246H19.4146V71.4108Z" fill="#3F3D56"/>
<path d="M37.4607 15.6809H28.1343V13.1917H37.4607V15.6809ZM28.4376 15.3795H37.1574V13.4931H28.4376V15.3795Z" fill="#3F3D56"/>
<path d="M41.8571 75.3609L45.435 89.8851H46.6787L41.8571 75.3609ZM45.435 89.8851H41.9117L38.3034 75.2358L38.2291 74.9343L37.4358 71.7121H40.6467L41.716 74.9343L41.8161 75.2358L41.8571 75.3609L41.8267 75.2358L41.7524 74.9343L40.8848 71.4106H37.0506L37.9182 74.9343L37.9925 75.2358L41.675 90.1866H45.5093L45.435 89.8851Z" fill="#3F3D56"/>
<path d="M22.4417 74.9343L22.3355 75.2358L17.2242 89.8851H18.7773L22.3856 75.2358L22.4599 74.9343L22.5039 74.755L22.4417 74.9343ZM23.3274 71.4106L22.5039 74.755L23.5656 71.7121H26.7749L25.9817 74.9343L25.9073 75.2358L22.2991 89.8851H18.7773L18.703 90.1866H22.5372L26.2198 75.2358L26.2941 74.9343L27.1617 71.4106H23.3274Z" fill="#3F3D56"/>
<path d="M55.3013 110.849H48.7884L42.5984 101.051L42.8772 100.932L48.9883 110.548H54.5377L46.9457 92.2834L47.2245 92.1644L55.3013 110.849Z" fill="#3F3D56"/>
<path d="M14.9833 110.849H8.47046L16.5473 92.1644L16.8261 92.2834L9.23429 110.548H14.7835L20.8945 100.932L21.1733 101.051L14.9833 110.849Z" fill="#3F3D56"/>
<path d="M57.7617 92.3746H7.45508V89.8855H57.7617V92.3746ZM7.75842 92.0732H57.4583V90.1869H7.75842V92.0732Z" fill="#3F3D56"/>
<path d="M45.7496 106.098C36.5301 102.335 27.1806 102.335 17.9607 106.098L17.7778 105.832C26.5809 100.54 34.8118 99.6336 45.9325 105.832L45.7496 106.098Z" fill="#3F3D56"/>
<path d="M44.9898 102.066C36.3125 98.2973 27.5129 98.2973 18.8357 102.066L18.7027 101.792C27.4683 97.9849 36.3572 97.9849 45.1228 101.792L44.9898 102.066Z" fill="#3F3D56"/>
<path d="M41.8268 75.2358H22.3355L22.4417 74.9343H41.7524L41.8268 75.2358Z" fill="#3F3D56"/>
<path d="M42.2924 76.9827H21.8168L22.1201 76.36H42.1407L42.2924 76.9827Z" fill="#3F3D56"/>
<path d="M35.562 13.5082H29.834V8.44519H35.562V13.5082ZM30.1373 13.2068H35.2587V9.04804L30.4407 8.74662L30.1373 13.2068Z" fill="#3F3D56"/>
<path d="M33.4826 8.74662H31.7342V0H33.4826V8.74662ZM32.0375 8.44519H33.1792L32.7371 0.249657L32.0375 0.301427V8.44519Z" fill="#3F3D56"/>
<path d="M49.343 60.9142C49.0675 60.2087 48.2685 59.8587 47.5585 60.1325C46.8552 60.4037 46.5034 61.1852 46.7645 61.8856L46.7439 61.8936L47.7418 64.4486L50.1078 63.5362C50.186 63.5208 50.264 63.4989 50.3409 63.4692C51.0509 63.1954 51.4031 62.4015 51.1276 61.696C50.852 60.9904 50.0531 60.6404 49.343 60.9142Z" fill="#E9C46A"/>
<path d="M27.5024 85.7819C27.2269 85.0764 26.4279 84.7264 25.7179 85.0002C25.0146 85.2714 24.6627 86.0528 24.9239 86.7533L24.9033 86.7612L25.9011 89.3163L28.2671 88.4039C28.3454 88.3885 28.4233 88.3666 28.5002 88.3369C29.2103 88.0631 29.5625 87.2692 29.2869 86.5636C29.0114 85.8581 28.2124 85.5081 27.5024 85.7819Z" fill="#E9C46A"/>
<path d="M22.3102 32.9564C21.5519 32.8858 20.8795 33.4393 20.8084 34.1928C20.738 34.9392 21.284 35.6014 22.0313 35.6826L22.0292 35.7045L24.7752 35.9604L25.0122 33.4495C25.0334 33.3731 25.0485 33.294 25.0562 33.2124C25.1274 32.4589 24.5703 31.7907 23.812 31.7201C23.0537 31.6494 22.3813 32.2029 22.3102 32.9564Z" fill="#E9C46A"/>
<path d="M107 110.699H0V111H107V110.699Z" fill="#3F3D56"/>
<path d="M97.0905 69.5202C97.0653 69.308 96.8796 69.1254 96.6657 69.1025C96.5095 69.0858 96.3194 69.1354 96.252 68.9364C96.2273 68.8632 96.2346 68.7835 96.2602 68.7106C96.3818 68.3635 96.1058 67.9663 95.7502 67.9238C95.4303 67.8856 95.1046 68.1416 95.0682 68.4597C94.9748 68.4193 94.8771 68.391 94.7776 68.3724C94.4811 68.2929 94.1713 68.2623 93.8626 68.2767L93.3089 68.3024C93.2752 68.2957 93.2415 68.29 93.2079 68.2852C91.9413 68.1041 90.9294 69.3126 91.2587 70.5413C92.15 73.8678 90.1796 74.1125 91.0338 75.6404L95.0986 74.9487C95.777 74.9781 95.985 77.2587 95.9886 76.5839L96.1339 71.4613C96.2233 71.145 96.2792 70.852 96.3036 70.58C96.3222 70.5516 96.3393 70.5222 96.3535 70.491C96.4321 70.3189 96.4211 70.1034 96.3199 69.9487C96.4475 70.0445 96.6238 70.0783 96.7753 70.0247C96.9779 69.953 97.1157 69.7324 97.0905 69.5202Z" fill="#2F2E41"/>
<path d="M86.236 88.1296L87.1934 82.3774L88.6321 82.2374L87.234 88.2663C87.333 88.3745 87.4028 88.5113 87.4278 88.6665C87.4962 89.0915 87.205 89.4912 86.7772 89.5592C86.3495 89.6272 85.9473 89.3377 85.8789 88.9127C85.8277 88.5947 85.9779 88.2909 86.236 88.1296Z" fill="#FFB6B6"/>
<path d="M90.9478 76.6446C90.9478 76.6446 89.6216 75.1473 88.774 76.4645C87.9264 77.7816 87.8056 78.8627 87.1477 81.1542C86.6269 82.968 86.8893 83.8646 86.8893 83.8646L88.3583 84.176L89.3675 81.642L90.9478 76.6446Z" fill="#E6E6E6"/>
<path d="M93.7913 108.249L92.8419 108.479L91.478 104.869L92.8791 104.529L93.7913 108.249Z" fill="#FFB6B6"/>
<path d="M91.1375 110.508C91.1949 110.74 91.431 110.883 91.6654 110.827L93.5527 110.369L93.7136 109.623L94.0044 110.26L94.7167 110.088L93.9319 107.752L93.6805 107.798L92.6545 107.982L92.3237 108.042L92.4892 108.717L91.2355 110.116C91.1402 110.223 91.1036 110.369 91.1375 110.508Z" fill="#2F2E41"/>
<path d="M95.26 108.744L94.2831 108.764L93.7385 104.946L95.1803 104.917L95.26 108.744Z" fill="#FFB6B6"/>
<path d="M92.177 110.378C92.1823 110.617 92.3816 110.808 92.6228 110.803L94.565 110.763L94.8849 110.068L95.0299 110.753L95.7627 110.738L95.5057 108.289L95.2503 108.28L94.2085 108.239L93.8724 108.226L93.8869 108.921L92.3579 110.017C92.2417 110.1 92.1741 110.235 92.177 110.378Z" fill="#2F2E41"/>
<path d="M96.225 93.4067L85.2944 93.64L87.3609 86.725H96.225V93.4067Z" fill="#D6D5DA"/>
<path d="M94.2743 73.1174H92.1809V74.6902L90.2407 75.9586L89.4238 77.9627L89.8323 79.0789L88.9935 84.3438L94.2743 81.6664L95.9847 75.02L94.887 74.3605L94.2743 73.1174Z" fill="#E9C46A"/>
<path d="M95.6427 81.6663L89.4238 81.3112L86.6453 88.7849L86.2637 94.9088L91.7214 106.637H93.7143L89.7283 95.2094L90.474 89.212L93.5152 106.602L95.6427 106.575L94.9783 96.173L95.6427 81.6663Z" fill="#2F2E41"/>
<path d="M94.887 74.3605C94.887 74.3605 94.0032 79.1612 94.0032 81.3113C94.0032 83.4613 92.4091 93.4066 92.4091 93.4066H96.225L96.9206 74.7193L94.887 74.3605Z" fill="#E6E6E6"/>
<path d="M90.5152 75.5244C90.5152 75.5244 88.472 76.0049 88.3041 78.1485C88.1362 80.292 85.2944 93.6399 85.2944 93.6399H87.26L92.1809 74.6902L90.5152 75.5244Z" fill="#E6E6E6"/>
<path d="M93.56 72.9722C94.8288 72.9722 95.8573 71.9502 95.8573 70.6894C95.8573 69.4287 94.8288 68.4066 93.56 68.4066C92.2912 68.4066 91.2627 69.4287 91.2627 70.6894C91.2627 71.9502 92.2912 72.9722 93.56 72.9722Z" fill="#FFB6B6"/>
<path d="M96.3683 87.6405L96.3841 81.8101L97.7815 81.4425L97.3755 87.6162C97.4907 87.7072 97.5817 87.8311 97.6314 87.9803C97.7676 88.3888 97.5447 88.8298 97.1335 88.9652C96.7223 89.1005 96.2785 88.879 96.1423 88.4704C96.0404 88.1646 96.1397 87.8408 96.3683 87.6405Z" fill="#FFB6B6"/>
<path d="M95.5284 75.1539C95.5284 75.1539 97.1397 73.9645 97.6922 75.4284C98.2446 76.8923 98.1358 77.9746 98.2982 80.3521C98.4267 82.2339 97.8373 83.1874 97.8373 83.1874H96.3353L96.0247 80.369L95.5284 75.1539Z" fill="#E6E6E6"/>
<path d="M96.2379 72.4142L96.7423 73.7978C96.7251 74.3032 96.6213 74.4008 96.1356 74.5514L94.4696 75.8201C95.2709 74.9099 94.0818 73.7875 94.5611 72.9869C95.0663 72.1431 95.1033 70.4008 94.1287 70.2396C93.6463 70.1598 92.6718 70.651 92.3638 70.3606C92.4237 70.1384 92.2601 70.1226 92.1148 70.2977C91.4705 70.3927 91.0831 70.7842 90.8271 70.3314V69.8793C91.2321 68.6002 91.1304 68.2214 92.6019 68.1778C93.1255 68.1622 93.6484 68.1278 94.1621 68.2296L94.5791 68.3123C95.3878 68.5378 95.7471 68.8517 96.0541 69.5635C96.0541 69.5635 96.9158 70.0137 96.2379 72.4142Z" fill="#2F2E41"/>
</g>
<defs>
<clipPath id="clip0_1_378">
<rect width="107" height="111" fill="white"/>
</clipPath>
</defs>
</svg>
